<svg width="21" height="20" viewBox="0 0 21 20" fill="none" xmlns="http://www.w3.org/2000/svg">
<g clip-path="url(#clip0_365_2633)">
<path d="M17.7136 16.757L11.0988 10.1421L17.7136 3.52727C17.8396 3.4013 17.8396 3.19704 17.7136 3.07107C17.5877 2.9451 17.3834 2.9451 17.2574 3.07107L10.6426 9.68594L4.02771 3.07107C3.90174 2.9451 3.69748 2.9451 3.57151 3.07107C3.44554 3.19703 3.44554 3.4013 3.57151 3.52726L10.1864 10.1421L3.57151 16.757C3.44554 16.883 3.44554 17.0872 3.57151 17.2132C3.69748 17.3392 3.90174 17.3392 4.02771 17.2132L10.6426 10.5983L17.2574 17.2132C17.3834 17.3392 17.5877 17.3392 17.7136 17.2132C17.8396 17.0872 17.8396 16.883 17.7136 16.757Z" fill="white"/>
</g>
<defs>
<clipPath id="clip0_365_2633">
<rect width="20" height="20" fill="white" transform="translate(0.5)"/>
</clipPath>
</defs>
</svg>
