<svg width="617" height="258" viewBox="0 0 617 258" fill="none" xmlns="http://www.w3.org/2000/svg">
<rect width="617" height="258" fill="white"/>
<rect width="29.1821" height="34" rx="4.52421" transform="matrix(1 0 0 -1 287 80)" fill="#D9D9D9"/>
<rect width="29.1821" height="15" rx="4.52421" transform="matrix(1 0 0 -1 143 61)" fill="#D9D9D9"/>
<rect width="29.1821" height="15" rx="4.52421" transform="matrix(1 0 0 -1 322 61)" fill="#9D9D9D"/>
<rect width="29.1821" height="2" rx="1" transform="matrix(1 0 0 -1 178.182 48)" fill="#9D9D9D"/>
<rect width="29.1821" height="24" rx="4.52421" transform="matrix(1 0 0 -1 357.363 70)" fill="#E3C84C"/>
<rect width="29.1821" height="8" rx="4" transform="matrix(1 0 0 -1 213.363 54)" fill="#E3C84C"/>
<rect width="29.1821" height="113" rx="4.52421" transform="matrix(1 0 0 -1 430.719 159)" fill="#D9D9D9"/>
<rect width="29.1821" height="108.538" rx="4.52421" transform="matrix(1 0 0 -1 465.9 154.538)" fill="#9D9D9D"/>
<rect width="29.1821" height="84.5383" rx="4.52421" transform="matrix(1 0 0 -1 501.082 130.538)" fill="#E3C84C"/>
<line x1="136" y1="45.6768" x2="538" y2="45.6765" stroke="black" stroke-width="0.646316"/>
<path d="M106.232 51.1028C105.678 51.1028 105.207 50.9523 104.818 50.6511C104.429 50.3476 104.131 49.9081 103.925 49.3328C103.72 48.755 103.617 48.0573 103.617 47.2396C103.617 46.4268 103.72 45.7328 103.925 45.1575C104.134 44.5797 104.432 44.139 104.821 43.8354C105.213 43.5294 105.683 43.3764 106.232 43.3764C106.78 43.3764 107.249 43.5294 107.638 43.8354C108.03 44.139 108.328 44.5797 108.534 45.1575C108.742 45.7328 108.846 46.4268 108.846 47.2396C108.846 48.0573 108.743 48.755 108.538 49.3328C108.332 49.9081 108.035 50.3476 107.645 50.6511C107.256 50.9523 106.785 51.1028 106.232 51.1028ZM106.232 50.2949C106.78 50.2949 107.206 50.0305 107.51 49.5017C107.813 48.9729 107.965 48.2189 107.965 47.2396C107.965 46.5884 107.895 46.0339 107.756 45.5761C107.618 45.1183 107.42 44.7694 107.161 44.5295C106.904 44.2896 106.594 44.1696 106.232 44.1696C105.688 44.1696 105.263 44.4377 104.957 44.9738C104.651 45.5075 104.498 46.2628 104.498 47.2396C104.498 47.8908 104.567 48.4441 104.704 48.8995C104.841 49.3548 105.038 49.7012 105.295 49.9387C105.555 50.1762 105.867 50.2949 106.232 50.2949ZM114.076 49.5899V49.1933C114.076 48.9191 114.132 48.6681 114.244 48.4404C114.359 48.2103 114.526 48.0267 114.744 47.8896C114.964 47.7501 115.231 47.6803 115.544 47.6803C115.863 47.6803 116.13 47.7501 116.345 47.8896C116.56 48.0267 116.723 48.2103 116.833 48.4404C116.944 48.6681 116.999 48.9191 116.999 49.1933V49.5899C116.999 49.8641 116.942 50.1162 116.83 50.3463C116.72 50.574 116.555 50.7576 116.338 50.8972C116.122 51.0343 115.858 51.1028 115.544 51.1028C115.226 51.1028 114.958 51.0343 114.74 50.8972C114.522 50.7576 114.357 50.574 114.244 50.3463C114.132 50.1162 114.076 49.8641 114.076 49.5899ZM114.825 49.1933V49.5899C114.825 49.8175 114.879 50.022 114.986 50.2031C115.094 50.3818 115.28 50.4712 115.544 50.4712C115.801 50.4712 115.983 50.3818 116.088 50.2031C116.196 50.022 116.249 49.8175 116.249 49.5899V49.1933C116.249 48.9656 116.198 48.7624 116.095 48.5837C115.992 48.4025 115.809 48.3119 115.544 48.3119C115.287 48.3119 115.103 48.4025 114.99 48.5837C114.88 48.7624 114.825 48.9656 114.825 49.1933ZM110.33 45.286V44.8894C110.33 44.6152 110.386 44.3642 110.499 44.1366C110.614 43.9064 110.78 43.7228 110.998 43.5857C111.218 43.4462 111.485 43.3764 111.799 43.3764C112.117 43.3764 112.384 43.4462 112.599 43.5857C112.815 43.7228 112.978 43.9064 113.088 44.1366C113.198 44.3642 113.253 44.6152 113.253 44.8894V45.286C113.253 45.5602 113.197 45.8123 113.084 46.0425C112.974 46.2701 112.81 46.4538 112.592 46.5933C112.376 46.7304 112.112 46.7989 111.799 46.7989C111.48 46.7989 111.212 46.7304 110.994 46.5933C110.777 46.4538 110.611 46.2701 110.499 46.0425C110.386 45.8123 110.33 45.5602 110.33 45.286ZM111.079 44.8894V45.286C111.079 45.5137 111.133 45.7181 111.241 45.8992C111.348 46.078 111.534 46.1673 111.799 46.1673C112.056 46.1673 112.237 46.078 112.342 45.8992C112.45 45.7181 112.504 45.5137 112.504 45.286V44.8894C112.504 44.6617 112.452 44.4585 112.35 44.2798C112.247 44.0986 112.063 44.008 111.799 44.008C111.542 44.008 111.357 44.0986 111.244 44.2798C111.134 44.4585 111.079 44.6617 111.079 44.8894ZM110.609 51L115.779 43.4792H116.617L111.446 51H110.609Z" fill="black"/>
<path d="M102.025 89.8357V90.6436H98.7344V89.8357H102.025ZM105.885 94.1028C105.454 94.1028 105.066 94.0171 104.721 93.8458C104.376 93.6744 104.099 93.4394 103.891 93.1407C103.683 92.842 103.569 92.5017 103.55 92.1198H104.431C104.465 92.4601 104.62 92.7416 104.894 92.9644C105.17 93.1848 105.501 93.2949 105.885 93.2949C106.194 93.2949 106.468 93.2227 106.708 93.0783C106.95 92.9338 107.14 92.7355 107.277 92.4834C107.417 92.2288 107.486 91.9411 107.486 91.6204C107.486 91.2923 107.414 90.9998 107.27 90.7427C107.128 90.4832 106.932 90.2788 106.682 90.1294C106.432 89.9801 106.147 89.9042 105.826 89.9018C105.596 89.8993 105.36 89.9348 105.118 90.0083C104.875 90.0793 104.676 90.1711 104.519 90.2837L103.667 90.1809L104.123 86.4792H108.03V87.2871H104.886L104.622 89.5052H104.666C104.82 89.3828 105.014 89.2812 105.246 89.2004C105.479 89.1196 105.721 89.0792 105.973 89.0792C106.434 89.0792 106.844 89.1894 107.204 89.4097C107.566 89.6276 107.85 89.9263 108.056 90.3057C108.264 90.6852 108.368 91.1185 108.368 91.6057C108.368 92.0855 108.26 92.514 108.045 92.891C107.832 93.2656 107.538 93.5618 107.163 93.7797C106.789 93.9951 106.363 94.1028 105.885 94.1028ZM113.66 92.5899V92.1933C113.66 91.9191 113.717 91.6681 113.829 91.4404C113.944 91.2103 114.111 91.0267 114.329 90.8896C114.549 90.7501 114.816 90.6803 115.129 90.6803C115.447 90.6803 115.714 90.7501 115.93 90.8896C116.145 91.0267 116.308 91.2103 116.418 91.4404C116.528 91.6681 116.583 91.9191 116.583 92.1933V92.5899C116.583 92.8641 116.527 93.1162 116.414 93.3463C116.304 93.574 116.14 93.7576 115.922 93.8972C115.707 94.0343 115.443 94.1028 115.129 94.1028C114.811 94.1028 114.543 94.0343 114.325 93.8972C114.107 93.7576 113.942 93.574 113.829 93.3463C113.717 93.1162 113.66 92.8641 113.66 92.5899ZM114.409 92.1933V92.5899C114.409 92.8175 114.463 93.022 114.571 93.2031C114.679 93.3818 114.865 93.4712 115.129 93.4712C115.386 93.4712 115.567 93.3818 115.673 93.2031C115.78 93.022 115.834 92.8175 115.834 92.5899V92.1933C115.834 91.9656 115.783 91.7624 115.68 91.5837C115.577 91.4025 115.394 91.3119 115.129 91.3119C114.872 91.3119 114.687 91.4025 114.575 91.5837C114.465 91.7624 114.409 91.9656 114.409 92.1933ZM109.915 88.286V87.8894C109.915 87.6152 109.971 87.3642 110.084 87.1366C110.199 86.9064 110.365 86.7228 110.583 86.5857C110.803 86.4462 111.07 86.3764 111.384 86.3764C111.702 86.3764 111.969 86.4462 112.184 86.5857C112.4 86.7228 112.562 86.9064 112.672 87.1366C112.783 87.3642 112.838 87.6152 112.838 87.8894V88.286C112.838 88.5602 112.781 88.8123 112.669 89.0425C112.559 89.2701 112.395 89.4538 112.177 89.5933C111.961 89.7304 111.697 89.7989 111.384 89.7989C111.065 89.7989 110.797 89.7304 110.579 89.5933C110.361 89.4538 110.196 89.2701 110.084 89.0425C109.971 88.8123 109.915 88.5602 109.915 88.286ZM110.664 87.8894V88.286C110.664 88.5137 110.718 88.7181 110.825 88.8992C110.933 89.078 111.119 89.1673 111.384 89.1673C111.641 89.1673 111.822 89.078 111.927 88.8992C112.035 88.7181 112.089 88.5137 112.089 88.286V87.8894C112.089 87.6617 112.037 87.4585 111.934 87.2798C111.832 87.0986 111.648 87.008 111.384 87.008C111.126 87.008 110.942 87.0986 110.829 87.2798C110.719 87.4585 110.664 87.6617 110.664 87.8894ZM110.194 94L115.364 86.4792H116.202L111.031 94H110.194Z" fill="black"/>
<path d="M97.0248 132.836V133.644H93.7344V132.836H97.0248ZM101.179 129.479V137H100.268V130.434H100.224L98.3881 131.653V130.728L100.268 129.479H101.179ZM105.692 137.103C105.261 137.103 104.873 137.017 104.528 136.846C104.183 136.674 103.906 136.439 103.698 136.141C103.49 135.842 103.376 135.502 103.357 135.12H104.238C104.272 135.46 104.427 135.742 104.701 135.964C104.977 136.185 105.308 136.295 105.692 136.295C106.001 136.295 106.275 136.223 106.515 136.078C106.757 135.934 106.947 135.736 107.084 135.483C107.224 135.229 107.293 134.941 107.293 134.62C107.293 134.292 107.221 134 107.077 133.743C106.935 133.483 106.739 133.279 106.489 133.129C106.239 132.98 105.954 132.904 105.633 132.902C105.403 132.899 105.167 132.935 104.925 133.008C104.682 133.079 104.483 133.171 104.326 133.284L103.474 133.181L103.93 129.479H107.837V130.287H104.693L104.429 132.505H104.473C104.627 132.383 104.821 132.281 105.053 132.2C105.286 132.12 105.528 132.079 105.78 132.079C106.241 132.079 106.651 132.189 107.011 132.41C107.373 132.628 107.657 132.926 107.863 133.306C108.071 133.685 108.175 134.119 108.175 134.606C108.175 135.086 108.067 135.514 107.851 135.891C107.639 136.266 107.345 136.562 106.97 136.78C106.596 136.995 106.17 137.103 105.692 137.103ZM113.467 135.59V135.193C113.467 134.919 113.524 134.668 113.636 134.44C113.751 134.21 113.918 134.027 114.136 133.89C114.356 133.75 114.623 133.68 114.936 133.68C115.254 133.68 115.521 133.75 115.737 133.89C115.952 134.027 116.115 134.21 116.225 134.44C116.335 134.668 116.39 134.919 116.39 135.193V135.59C116.39 135.864 116.334 136.116 116.221 136.346C116.111 136.574 115.947 136.758 115.729 136.897C115.514 137.034 115.25 137.103 114.936 137.103C114.618 137.103 114.35 137.034 114.132 136.897C113.914 136.758 113.749 136.574 113.636 136.346C113.524 136.116 113.467 135.864 113.467 135.59ZM114.216 135.193V135.59C114.216 135.818 114.27 136.022 114.378 136.203C114.486 136.382 114.672 136.471 114.936 136.471C115.193 136.471 115.374 136.382 115.48 136.203C115.587 136.022 115.641 135.818 115.641 135.59V135.193C115.641 134.966 115.59 134.762 115.487 134.584C115.384 134.402 115.201 134.312 114.936 134.312C114.679 134.312 114.494 134.402 114.382 134.584C114.272 134.762 114.216 134.966 114.216 135.193ZM109.722 131.286V130.889C109.722 130.615 109.778 130.364 109.891 130.137C110.006 129.906 110.172 129.723 110.39 129.586C110.61 129.446 110.877 129.376 111.19 129.376C111.509 129.376 111.776 129.446 111.991 129.586C112.206 129.723 112.369 129.906 112.479 130.137C112.59 130.364 112.645 130.615 112.645 130.889V131.286C112.645 131.56 112.588 131.812 112.476 132.042C112.366 132.27 112.202 132.454 111.984 132.593C111.768 132.73 111.504 132.799 111.19 132.799C110.872 132.799 110.604 132.73 110.386 132.593C110.168 132.454 110.003 132.27 109.891 132.042C109.778 131.812 109.722 131.56 109.722 131.286ZM110.471 130.889V131.286C110.471 131.514 110.525 131.718 110.632 131.899C110.74 132.078 110.926 132.167 111.19 132.167C111.448 132.167 111.629 132.078 111.734 131.899C111.842 131.718 111.896 131.514 111.896 131.286V130.889C111.896 130.662 111.844 130.458 111.741 130.28C111.639 130.099 111.455 130.008 111.19 130.008C110.933 130.008 110.749 130.099 110.636 130.28C110.526 130.458 110.471 130.662 110.471 130.889ZM110.001 137L115.171 129.479H116.008L110.838 137H110.001Z" fill="black"/>
<path d="M96.0248 175.836V176.644H92.7344V175.836H96.0248ZM97.1815 180V179.339L99.664 176.622C99.9553 176.303 100.195 176.027 100.384 175.792C100.572 175.554 100.712 175.331 100.802 175.123C100.895 174.913 100.942 174.692 100.942 174.462C100.942 174.198 100.878 173.969 100.751 173.776C100.626 173.582 100.455 173.433 100.237 173.328C100.019 173.222 99.7742 173.17 99.5024 173.17C99.2135 173.17 98.9614 173.23 98.7459 173.35C98.5329 173.467 98.3677 173.632 98.2502 173.845C98.1351 174.058 98.0776 174.308 98.0776 174.594H97.2109C97.2109 174.154 97.3125 173.767 97.5157 173.434C97.7189 173.101 97.9956 172.842 98.3456 172.656C98.6982 172.469 99.0936 172.376 99.5318 172.376C99.9725 172.376 100.363 172.469 100.703 172.656C101.044 172.842 101.31 173.092 101.504 173.408C101.697 173.724 101.794 174.075 101.794 174.462C101.794 174.739 101.744 175.009 101.643 175.274C101.545 175.536 101.374 175.828 101.129 176.151C100.887 176.472 100.55 176.864 100.119 177.327L98.4301 179.133V179.192H101.926V180H97.1815ZM105.793 180.103C105.362 180.103 104.974 180.017 104.629 179.846C104.284 179.674 104.007 179.439 103.799 179.141C103.591 178.842 103.477 178.502 103.457 178.12H104.339C104.373 178.46 104.527 178.742 104.801 178.964C105.078 179.185 105.409 179.295 105.793 179.295C106.101 179.295 106.376 179.223 106.616 179.078C106.858 178.934 107.048 178.736 107.185 178.483C107.324 178.229 107.394 177.941 107.394 177.62C107.394 177.292 107.322 177 107.177 176.743C107.035 176.483 106.84 176.279 106.59 176.129C106.34 175.98 106.055 175.904 105.734 175.902C105.504 175.899 105.268 175.935 105.025 176.008C104.783 176.079 104.584 176.171 104.427 176.284L103.575 176.181L104.03 172.479H107.938V173.287H104.794L104.53 175.505H104.574C104.728 175.383 104.921 175.281 105.154 175.2C105.387 175.12 105.629 175.079 105.881 175.079C106.341 175.079 106.751 175.189 107.111 175.41C107.474 175.628 107.758 175.926 107.963 176.306C108.171 176.685 108.275 177.119 108.275 177.606C108.275 178.086 108.168 178.514 107.952 178.891C107.739 179.266 107.445 179.562 107.071 179.78C106.696 179.995 106.27 180.103 105.793 180.103ZM113.568 178.59V178.193C113.568 177.919 113.624 177.668 113.737 177.44C113.852 177.21 114.019 177.027 114.236 176.89C114.457 176.75 114.724 176.68 115.037 176.68C115.355 176.68 115.622 176.75 115.837 176.89C116.053 177.027 116.216 177.21 116.326 177.44C116.436 177.668 116.491 177.919 116.491 178.193V178.59C116.491 178.864 116.435 179.116 116.322 179.346C116.212 179.574 116.048 179.758 115.83 179.897C115.615 180.034 115.35 180.103 115.037 180.103C114.719 180.103 114.451 180.034 114.233 179.897C114.015 179.758 113.85 179.574 113.737 179.346C113.624 179.116 113.568 178.864 113.568 178.59ZM114.317 178.193V178.59C114.317 178.818 114.371 179.022 114.479 179.203C114.586 179.382 114.773 179.471 115.037 179.471C115.294 179.471 115.475 179.382 115.58 179.203C115.688 179.022 115.742 178.818 115.742 178.59V178.193C115.742 177.966 115.691 177.762 115.588 177.584C115.485 177.402 115.301 177.312 115.037 177.312C114.78 177.312 114.595 177.402 114.482 177.584C114.372 177.762 114.317 177.966 114.317 178.193ZM109.822 174.286V173.889C109.822 173.615 109.879 173.364 109.991 173.137C110.106 172.906 110.273 172.723 110.491 172.586C110.711 172.446 110.978 172.376 111.291 172.376C111.61 172.376 111.876 172.446 112.092 172.586C112.307 172.723 112.47 172.906 112.58 173.137C112.69 173.364 112.745 173.615 112.745 173.889V174.286C112.745 174.56 112.689 174.812 112.577 175.042C112.466 175.27 112.302 175.454 112.084 175.593C111.869 175.73 111.605 175.799 111.291 175.799C110.973 175.799 110.705 175.73 110.487 175.593C110.269 175.454 110.104 175.27 109.991 175.042C109.879 174.812 109.822 174.56 109.822 174.286ZM110.571 173.889V174.286C110.571 174.514 110.625 174.718 110.733 174.899C110.841 175.078 111.027 175.167 111.291 175.167C111.548 175.167 111.729 175.078 111.835 174.899C111.942 174.718 111.996 174.514 111.996 174.286V173.889C111.996 173.662 111.945 173.458 111.842 173.28C111.739 173.099 111.556 173.008 111.291 173.008C111.034 173.008 110.849 173.099 110.737 173.28C110.627 173.458 110.571 173.662 110.571 173.889ZM110.101 180L115.272 172.479H116.109L110.939 180H110.101Z" fill="black"/>
<path d="M176.67 34V27.6661H178.751C179.245 27.6661 179.653 27.7475 179.972 27.9104C180.292 28.0733 180.527 28.2935 180.678 28.5709C180.835 28.8484 180.913 29.1621 180.913 29.512C180.913 29.8558 180.838 30.1665 180.687 30.444C180.536 30.7215 180.301 30.9446 179.981 31.1136C179.662 31.2764 179.251 31.3579 178.751 31.3579H177.43V34H176.67ZM177.43 30.7154H178.733C179.239 30.7154 179.598 30.6099 179.809 30.3987C180.027 30.1816 180.135 29.886 180.135 29.512C180.135 29.1319 180.027 28.8364 179.809 28.6252C179.598 28.4081 179.239 28.2995 178.733 28.2995H177.43V30.7154ZM182.045 34V27.4851H182.805V34H182.045ZM185.725 34.1086C185.351 34.1086 185.04 34.0452 184.793 33.9186C184.546 33.7919 184.362 33.623 184.241 33.4119C184.12 33.2007 184.06 32.9715 184.06 32.7242C184.06 32.2657 184.235 31.9128 184.585 31.6655C184.935 31.4182 185.411 31.2945 186.015 31.2945H187.227V31.2402C187.227 30.8481 187.125 30.5526 186.919 30.3535C186.714 30.1484 186.44 30.0458 186.096 30.0458C185.8 30.0458 185.544 30.1212 185.327 30.272C185.116 30.4168 184.983 30.631 184.929 30.9145H184.151C184.181 30.5887 184.289 30.3143 184.476 30.0911C184.669 29.8679 184.908 29.699 185.191 29.5844C185.475 29.4637 185.776 29.4034 186.096 29.4034C186.723 29.4034 187.194 29.5723 187.508 29.9101C187.827 30.2419 187.987 30.6853 187.987 31.2402V34H187.309L187.263 33.1947C187.137 33.448 186.95 33.6652 186.702 33.8462C186.461 34.0211 186.135 34.1086 185.725 34.1086ZM185.843 33.4661C186.132 33.4661 186.38 33.3907 186.585 33.2399C186.796 33.0891 186.956 32.8931 187.064 32.6518C187.173 32.4105 187.227 32.1571 187.227 31.8917V31.8827H186.078C185.632 31.8827 185.315 31.9611 185.128 32.1179C184.947 32.2687 184.856 32.4588 184.856 32.688C184.856 32.9232 184.941 33.1133 185.11 33.258C185.285 33.3968 185.529 33.4661 185.843 33.4661ZM191.371 34.1086C190.943 34.1086 190.557 34.0121 190.213 33.819C189.875 33.62 189.607 33.3455 189.408 32.9956C189.215 32.6397 189.118 32.2265 189.118 31.756C189.118 31.2855 189.215 30.8753 189.408 30.5254C189.607 30.1695 189.875 29.895 190.213 29.702C190.557 29.5029 190.943 29.4034 191.371 29.4034C191.902 29.4034 192.349 29.5421 192.711 29.8196C193.079 30.0971 193.311 30.4681 193.407 30.9326H192.629C192.569 30.6551 192.421 30.441 192.186 30.2901C191.951 30.1333 191.676 30.0549 191.362 30.0549C191.109 30.0549 190.871 30.1182 190.648 30.2449C190.424 30.3716 190.243 30.5616 190.105 30.815C189.966 31.0683 189.897 31.382 189.897 31.756C189.897 32.13 189.966 32.4437 190.105 32.697C190.243 32.9504 190.424 33.1434 190.648 33.2761C190.871 33.4028 191.109 33.4661 191.362 33.4661C191.676 33.4661 191.951 33.3907 192.186 33.2399C192.421 33.0831 192.569 32.8629 192.629 32.5794H193.407C193.317 33.0318 193.088 33.3998 192.72 33.6833C192.352 33.9668 191.902 34.1086 191.371 34.1086ZM196.668 34.1086C196.239 34.1086 195.859 34.0121 195.527 33.819C195.196 33.62 194.933 33.3455 194.74 32.9956C194.553 32.6458 194.46 32.2325 194.46 31.756C194.46 31.2855 194.553 30.8753 194.74 30.5254C194.927 30.1695 195.187 29.895 195.518 29.702C195.856 29.5029 196.245 29.4034 196.686 29.4034C197.12 29.4034 197.494 29.5029 197.808 29.702C198.127 29.895 198.372 30.1514 198.541 30.4711C198.71 30.7908 198.794 31.1347 198.794 31.5026C198.794 31.569 198.791 31.6353 198.785 31.7017C198.785 31.7681 198.785 31.8435 198.785 31.9279H195.211C195.229 32.2718 195.307 32.5583 195.446 32.7875C195.591 33.0107 195.769 33.1796 195.98 33.2942C196.197 33.4088 196.426 33.4661 196.668 33.4661C196.981 33.4661 197.244 33.3938 197.455 33.249C197.666 33.1042 197.82 32.9082 197.916 32.6608H198.667C198.547 33.0771 198.314 33.4239 197.971 33.7014C197.633 33.9729 197.198 34.1086 196.668 34.1086ZM196.668 30.0458C196.306 30.0458 195.983 30.1574 195.699 30.3806C195.422 30.5978 195.262 30.9175 195.22 31.3398H198.043C198.025 30.9356 197.886 30.6189 197.627 30.3897C197.367 30.1605 197.048 30.0458 196.668 30.0458ZM202.38 34.1086C202.012 34.1086 201.683 34.0332 201.394 33.8824C201.11 33.7316 200.893 33.5204 200.742 33.249L200.67 34H199.982V27.4851H200.742V30.254C200.887 30.0368 201.092 29.8407 201.358 29.6658C201.629 29.4909 201.973 29.4034 202.389 29.4034C202.836 29.4034 203.225 29.506 203.556 29.711C203.888 29.9161 204.145 30.1966 204.326 30.5526C204.513 30.9085 204.606 31.3126 204.606 31.765C204.606 32.2175 204.513 32.6216 204.326 32.9775C204.145 33.3274 203.885 33.6049 203.547 33.81C203.216 34.009 202.827 34.1086 202.38 34.1086ZM202.299 33.448C202.6 33.448 202.866 33.3787 203.095 33.2399C203.324 33.0952 203.505 32.8961 203.638 32.6427C203.771 32.3894 203.837 32.0938 203.837 31.756C203.837 31.4182 203.771 31.1226 203.638 30.8692C203.505 30.6159 203.324 30.4198 203.095 30.2811C202.866 30.1363 202.6 30.0639 202.299 30.0639C201.997 30.0639 201.732 30.1363 201.502 30.2811C201.273 30.4198 201.092 30.6159 200.96 30.8692C200.827 31.1226 200.761 31.4182 200.761 31.756C200.761 32.0938 200.827 32.3894 200.96 32.6427C201.092 32.8961 201.273 33.0952 201.502 33.2399C201.732 33.3787 201.997 33.448 202.299 33.448ZM207.89 34.1086C207.468 34.1086 207.088 34.0121 206.75 33.819C206.412 33.626 206.144 33.3545 205.945 33.0047C205.752 32.6488 205.655 32.2325 205.655 31.756C205.655 31.2794 205.755 30.8662 205.954 30.5164C206.153 30.1605 206.421 29.886 206.759 29.693C207.103 29.4999 207.486 29.4034 207.908 29.4034C208.33 29.4034 208.71 29.4999 209.048 29.693C209.386 29.886 209.651 30.1605 209.844 30.5164C210.044 30.8662 210.143 31.2794 210.143 31.756C210.143 32.2325 210.044 32.6488 209.844 33.0047C209.645 33.3545 209.374 33.626 209.03 33.819C208.692 34.0121 208.312 34.1086 207.89 34.1086ZM207.89 33.4571C208.149 33.4571 208.391 33.3938 208.614 33.2671C208.837 33.1404 209.018 32.9504 209.157 32.697C209.296 32.4437 209.365 32.13 209.365 31.756C209.365 31.382 209.296 31.0683 209.157 30.815C209.024 30.5616 208.846 30.3716 208.623 30.2449C208.4 30.1182 208.161 30.0549 207.908 30.0549C207.649 30.0549 207.407 30.1182 207.184 30.2449C206.961 30.3716 206.78 30.5616 206.641 30.815C206.503 31.0683 206.433 31.382 206.433 31.756C206.433 32.13 206.503 32.4437 206.641 32.697C206.78 32.9504 206.958 33.1404 207.175 33.2671C207.398 33.3938 207.637 33.4571 207.89 33.4571ZM270.267 34L272.602 27.6661H273.407L275.732 34H274.927L274.348 32.3713H271.652L271.063 34H270.267ZM271.878 31.756H274.122L273 28.6252L271.878 31.756ZM278.625 34.1086C278.197 34.1086 277.811 34.0121 277.467 33.819C277.129 33.62 276.861 33.3455 276.662 32.9956C276.469 32.6397 276.372 32.2265 276.372 31.756C276.372 31.2855 276.469 30.8753 276.662 30.5254C276.861 30.1695 277.129 29.895 277.467 29.702C277.811 29.5029 278.197 29.4034 278.625 29.4034C279.156 29.4034 279.603 29.5421 279.965 29.8196C280.333 30.0971 280.565 30.4681 280.661 30.9326H279.883C279.823 30.6551 279.675 30.441 279.44 30.2901C279.205 30.1333 278.93 30.0549 278.616 30.0549C278.363 30.0549 278.125 30.1182 277.902 30.2449C277.678 30.3716 277.497 30.5616 277.359 30.815C277.22 31.0683 277.151 31.382 277.151 31.756C277.151 32.13 277.22 32.4437 277.359 32.697C277.497 32.9504 277.678 33.1434 277.902 33.2761C278.125 33.4028 278.363 33.4661 278.616 33.4661C278.93 33.4661 279.205 33.3907 279.44 33.2399C279.675 33.0831 279.823 32.8629 279.883 32.5794H280.661C280.571 33.0318 280.342 33.3998 279.974 33.6833C279.606 33.9668 279.156 34.1086 278.625 34.1086ZM283.922 34.1086C283.493 34.1086 283.113 34.0121 282.781 33.819C282.45 33.62 282.187 33.3455 281.994 32.9956C281.807 32.6458 281.714 32.2325 281.714 31.756C281.714 31.2855 281.807 30.8753 281.994 30.5254C282.181 30.1695 282.441 29.895 282.772 29.702C283.11 29.5029 283.499 29.4034 283.94 29.4034C284.374 29.4034 284.748 29.5029 285.062 29.702C285.381 29.895 285.626 30.1514 285.795 30.4711C285.964 30.7908 286.048 31.1347 286.048 31.5026C286.048 31.569 286.045 31.6353 286.039 31.7017C286.039 31.7681 286.039 31.8435 286.039 31.9279H282.465C282.483 32.2718 282.561 32.5583 282.7 32.7875C282.845 33.0107 283.023 33.1796 283.234 33.2942C283.451 33.4088 283.68 33.4661 283.922 33.4661C284.235 33.4661 284.498 33.3938 284.709 33.249C284.92 33.1042 285.074 32.9082 285.17 32.6608H285.921C285.801 33.0771 285.568 33.4239 285.225 33.7014C284.887 33.9729 284.452 34.1086 283.922 34.1086ZM283.922 30.0458C283.56 30.0458 283.237 30.1574 282.953 30.3806C282.676 30.5978 282.516 30.9175 282.474 31.3398H285.297C285.279 30.9356 285.14 30.6189 284.881 30.3897C284.621 30.1605 284.302 30.0458 283.922 30.0458ZM288.86 34C288.449 34 288.127 33.9005 287.891 33.7014C287.656 33.5023 287.539 33.1434 287.539 32.6246V30.1544H286.76V29.512H287.539L287.638 28.4352H288.299V29.512H289.62V30.1544H288.299V32.6246C288.299 32.9082 288.356 33.1012 288.471 33.2037C288.585 33.3003 288.787 33.3485 289.077 33.3485H289.547V34H288.86ZM291.255 35.9907L292.368 33.5657H292.105L290.323 29.512H291.146L292.63 33.0047L294.205 29.512H294.992L292.051 35.9907H291.255ZM295.975 34V27.4851H296.735V34H295.975ZM300.738 34V27.4851H301.498V30.2811C301.648 30.0036 301.863 29.7895 302.14 29.6387C302.418 29.4818 302.719 29.4034 303.045 29.4034C303.564 29.4034 303.98 29.5663 304.294 29.892C304.607 30.2117 304.764 30.7064 304.764 31.376V34H304.013V31.4574C304.013 30.5224 303.636 30.0549 302.882 30.0549C302.49 30.0549 302.161 30.1966 301.896 30.4802C301.63 30.7576 301.498 31.1558 301.498 31.6746V34H300.738ZM308.114 34.1086C307.686 34.1086 307.306 34.0121 306.974 33.819C306.643 33.62 306.38 33.3455 306.187 32.9956C306 32.6458 305.907 32.2325 305.907 31.756C305.907 31.2855 306 30.8753 306.187 30.5254C306.374 30.1695 306.634 29.895 306.965 29.702C307.303 29.5029 307.692 29.4034 308.133 29.4034C308.567 29.4034 308.941 29.5029 309.255 29.702C309.574 29.895 309.819 30.1514 309.987 30.4711C310.156 30.7908 310.241 31.1347 310.241 31.5026C310.241 31.569 310.238 31.6353 310.232 31.7017C310.232 31.7681 310.232 31.8435 310.232 31.9279H306.658C306.676 32.2718 306.754 32.5583 306.893 32.7875C307.038 33.0107 307.216 33.1796 307.427 33.2942C307.644 33.4088 307.873 33.4661 308.114 33.4661C308.428 33.4661 308.691 33.3938 308.902 33.249C309.113 33.1042 309.267 32.9082 309.363 32.6608H310.114C309.994 33.0771 309.761 33.4239 309.417 33.7014C309.08 33.9729 308.645 34.1086 308.114 34.1086ZM308.114 30.0458C307.753 30.0458 307.43 30.1574 307.146 30.3806C306.869 30.5978 306.709 30.9175 306.667 31.3398H309.49C309.472 30.9356 309.333 30.6189 309.074 30.3897C308.814 30.1605 308.494 30.0458 308.114 30.0458ZM310.765 34L312.321 31.756L310.765 29.512H311.588L312.846 31.3669L314.113 29.512H314.927L313.371 31.756L314.927 34H314.113L312.846 32.1451L311.588 34H310.765ZM317.371 34.1086C316.997 34.1086 316.686 34.0452 316.439 33.9186C316.192 33.7919 316.008 33.623 315.887 33.4119C315.767 33.2007 315.706 32.9715 315.706 32.7242C315.706 32.2657 315.881 31.9128 316.231 31.6655C316.581 31.4182 317.057 31.2945 317.661 31.2945H318.873V31.2402C318.873 30.8481 318.771 30.5526 318.566 30.3535C318.36 30.1484 318.086 30.0458 317.742 30.0458C317.447 30.0458 317.19 30.1212 316.973 30.272C316.762 30.4168 316.629 30.631 316.575 30.9145H315.797C315.827 30.5887 315.935 30.3143 316.122 30.0911C316.315 29.8679 316.554 29.699 316.837 29.5844C317.121 29.4637 317.422 29.4034 317.742 29.4034C318.369 29.4034 318.84 29.5723 319.154 29.9101C319.473 30.2419 319.633 30.6853 319.633 31.2402V34H318.955L318.909 33.1947C318.783 33.448 318.596 33.6652 318.348 33.8462C318.107 34.0211 317.781 34.1086 317.371 34.1086ZM317.489 33.4661C317.778 33.4661 318.026 33.3907 318.231 33.2399C318.442 33.0891 318.602 32.8931 318.71 32.6518C318.819 32.4105 318.873 32.1571 318.873 31.8917V31.8827H317.724C317.278 31.8827 316.961 31.9611 316.774 32.1179C316.593 32.2687 316.502 32.4588 316.502 32.688C316.502 32.9232 316.587 33.1133 316.756 33.258C316.931 33.3968 317.175 33.4661 317.489 33.4661ZM320.954 35.9907V29.512H321.642L321.715 30.254C321.859 30.0368 322.064 29.8407 322.33 29.6658C322.601 29.4909 322.945 29.4034 323.361 29.4034C323.808 29.4034 324.197 29.506 324.529 29.711C324.86 29.9161 325.117 30.1966 325.298 30.5526C325.485 30.9085 325.578 31.3126 325.578 31.765C325.578 32.2175 325.485 32.6216 325.298 32.9775C325.117 33.3274 324.857 33.6049 324.52 33.81C324.188 34.009 323.799 34.1086 323.352 34.1086C322.984 34.1086 322.656 34.0332 322.366 33.8824C322.082 33.7316 321.865 33.5204 321.715 33.249V35.9907H320.954ZM323.271 33.448C323.572 33.448 323.838 33.3787 324.067 33.2399C324.296 33.0952 324.477 32.8961 324.61 32.6427C324.743 32.3894 324.809 32.0938 324.809 31.756C324.809 31.4182 324.743 31.1226 324.61 30.8692C324.477 30.6159 324.296 30.4198 324.067 30.2811C323.838 30.1363 323.572 30.0639 323.271 30.0639C322.969 30.0639 322.704 30.1363 322.475 30.2811C322.245 30.4198 322.064 30.6159 321.932 30.8692C321.799 31.1226 321.733 31.4182 321.733 31.756C321.733 32.0938 321.799 32.3894 321.932 32.6427C322.064 32.8961 322.245 33.0952 322.475 33.2399C322.704 33.3787 322.969 33.448 323.271 33.448ZM328.835 34.1086C328.407 34.1086 328.027 34.0121 327.695 33.819C327.363 33.62 327.101 33.3455 326.908 32.9956C326.721 32.6458 326.627 32.2325 326.627 31.756C326.627 31.2855 326.721 30.8753 326.908 30.5254C327.095 30.1695 327.354 29.895 327.686 29.702C328.024 29.5029 328.413 29.4034 328.853 29.4034C329.287 29.4034 329.661 29.5029 329.975 29.702C330.295 29.895 330.539 30.1514 330.708 30.4711C330.877 30.7908 330.961 31.1347 330.961 31.5026C330.961 31.569 330.958 31.6353 330.952 31.7017C330.952 31.7681 330.952 31.8435 330.952 31.9279H327.378C327.396 32.2718 327.475 32.5583 327.613 32.7875C327.758 33.0107 327.936 33.1796 328.147 33.2942C328.364 33.4088 328.594 33.4661 328.835 33.4661C329.149 33.4661 329.411 33.3938 329.622 33.249C329.833 33.1042 329.987 32.9082 330.084 32.6608H330.835C330.714 33.0771 330.482 33.4239 330.138 33.7014C329.8 33.9729 329.366 34.1086 328.835 34.1086ZM328.835 30.0458C328.473 30.0458 328.15 30.1574 327.867 30.3806C327.589 30.5978 327.429 30.9175 327.387 31.3398H330.21C330.192 30.9356 330.054 30.6189 329.794 30.3897C329.535 30.1605 329.215 30.0458 328.835 30.0458ZM332.15 35.9907V29.512H332.837L332.91 30.254C333.055 30.0368 333.26 29.8407 333.525 29.6658C333.797 29.4909 334.14 29.4034 334.557 29.4034C335.003 29.4034 335.392 29.506 335.724 29.711C336.056 29.9161 336.312 30.1966 336.493 30.5526C336.68 30.9085 336.773 31.3126 336.773 31.765C336.773 32.2175 336.68 32.6216 336.493 32.9775C336.312 33.3274 336.053 33.6049 335.715 33.81C335.383 34.009 334.994 34.1086 334.548 34.1086C334.18 34.1086 333.851 34.0332 333.561 33.8824C333.278 33.7316 333.061 33.5204 332.91 33.249V35.9907H332.15ZM334.466 33.448C334.768 33.448 335.033 33.3787 335.262 33.2399C335.492 33.0952 335.673 32.8961 335.805 32.6427C335.938 32.3894 336.004 32.0938 336.004 31.756C336.004 31.4182 335.938 31.1226 335.805 30.8692C335.673 30.6159 335.492 30.4198 335.262 30.2811C335.033 30.1363 334.768 30.0639 334.466 30.0639C334.165 30.0639 333.899 30.1363 333.67 30.2811C333.441 30.4198 333.26 30.6159 333.127 30.8692C332.994 31.1226 332.928 31.4182 332.928 31.756C332.928 32.0938 332.994 32.3894 333.127 32.6427C333.26 32.8961 333.441 33.0952 333.67 33.2399C333.899 33.3787 334.165 33.448 334.466 33.448ZM339.609 34C339.199 34 338.876 33.9005 338.641 33.7014C338.406 33.5023 338.288 33.1434 338.288 32.6246V30.1544H337.51V29.512H338.288L338.388 28.4352H339.048V29.512H340.369V30.1544H339.048V32.6246C339.048 32.9082 339.106 33.1012 339.22 33.2037C339.335 33.3003 339.537 33.3485 339.826 33.3485H340.297V34H339.609ZM341.977 28.5167C341.827 28.5167 341.7 28.4684 341.597 28.3719C341.501 28.2693 341.453 28.1427 341.453 27.9918C341.453 27.8471 341.501 27.7264 341.597 27.6299C341.7 27.5334 341.827 27.4851 341.977 27.4851C342.122 27.4851 342.246 27.5334 342.348 27.6299C342.451 27.7264 342.502 27.8471 342.502 27.9918C342.502 28.1427 342.451 28.2693 342.348 28.3719C342.246 28.4684 342.122 28.5167 341.977 28.5167ZM341.597 34V29.512H342.357V34H341.597ZM345.898 34.1086C345.451 34.1086 345.059 34.006 344.721 33.8009C344.39 33.5958 344.13 33.3153 343.943 32.9594C343.762 32.6035 343.672 32.1994 343.672 31.7469C343.672 31.2945 343.765 30.8934 343.952 30.5435C344.139 30.1876 344.399 29.9101 344.73 29.711C345.062 29.506 345.454 29.4034 345.907 29.4034C346.275 29.4034 346.6 29.4788 346.884 29.6296C347.167 29.7804 347.388 29.9915 347.545 30.263V27.4851H348.305V34H347.617L347.545 33.258C347.4 33.4752 347.192 33.6712 346.92 33.8462C346.649 34.0211 346.308 34.1086 345.898 34.1086ZM345.979 33.448C346.281 33.448 346.546 33.3787 346.775 33.2399C347.011 33.0952 347.192 32.8961 347.318 32.6427C347.451 32.3894 347.517 32.0938 347.517 31.756C347.517 31.4182 347.451 31.1226 347.318 30.8692C347.192 30.6159 347.011 30.4198 346.775 30.2811C346.546 30.1363 346.281 30.0639 345.979 30.0639C345.684 30.0639 345.418 30.1363 345.183 30.2811C344.954 30.4198 344.773 30.6159 344.64 30.8692C344.513 31.1226 344.45 31.4182 344.45 31.756C344.45 32.0938 344.513 32.3894 344.64 32.6427C344.773 32.8961 344.954 33.0952 345.183 33.2399C345.418 33.3787 345.684 33.448 345.979 33.448ZM351.742 34.1086C351.314 34.1086 350.934 34.0121 350.602 33.819C350.27 33.62 350.008 33.3455 349.815 32.9956C349.628 32.6458 349.535 32.2325 349.535 31.756C349.535 31.2855 349.628 30.8753 349.815 30.5254C350.002 30.1695 350.261 29.895 350.593 29.702C350.931 29.5029 351.32 29.4034 351.76 29.4034C352.195 29.4034 352.569 29.5029 352.882 29.702C353.202 29.895 353.446 30.1514 353.615 30.4711C353.784 30.7908 353.869 31.1347 353.869 31.5026C353.869 31.569 353.866 31.6353 353.86 31.7017C353.86 31.7681 353.86 31.8435 353.86 31.9279H350.286C350.304 32.2718 350.382 32.5583 350.521 32.7875C350.666 33.0107 350.844 33.1796 351.055 33.2942C351.272 33.4088 351.501 33.4661 351.742 33.4661C352.056 33.4661 352.318 33.3938 352.53 33.249C352.741 33.1042 352.895 32.9082 352.991 32.6608H353.742C353.621 33.0771 353.389 33.4239 353.045 33.7014C352.708 33.9729 352.273 34.1086 351.742 34.1086ZM351.742 30.0458C351.38 30.0458 351.058 30.1574 350.774 30.3806C350.497 30.5978 350.337 30.9175 350.295 31.3398H353.118C353.1 30.9356 352.961 30.6189 352.701 30.3897C352.442 30.1605 352.122 30.0458 351.742 30.0458ZM354.967 31.6927V31.0502H358.55V31.6927H354.967ZM361.895 34.1086C361.491 34.1086 361.126 34.0362 360.8 33.8914C360.474 33.7406 360.212 33.5174 360.013 33.2218C359.82 32.9263 359.717 32.5583 359.705 32.1179H360.474C360.48 32.4799 360.607 32.7935 360.854 33.059C361.102 33.3184 361.449 33.448 361.895 33.448C362.341 33.448 362.676 33.3244 362.899 33.0771C363.129 32.8297 363.243 32.5311 363.243 32.1813C363.243 31.8857 363.171 31.6444 363.026 31.4574C362.887 31.2704 362.697 31.1317 362.456 31.0412C362.221 30.9507 361.961 30.9054 361.678 30.9054H361.207V30.263H361.678C362.088 30.263 362.408 30.1695 362.637 29.9825C362.872 29.7955 362.99 29.5331 362.99 29.1953C362.99 28.9118 362.896 28.6795 362.709 28.4986C362.528 28.3116 362.257 28.2181 361.895 28.2181C361.545 28.2181 361.265 28.3236 361.053 28.5348C360.842 28.7399 360.725 28.9992 360.701 29.3129H359.931C359.95 28.9691 360.04 28.6644 360.203 28.399C360.372 28.1336 360.601 27.9285 360.891 27.7837C361.18 27.6329 361.515 27.5575 361.895 27.5575C362.305 27.5575 362.646 27.6299 362.917 27.7747C363.195 27.9195 363.403 28.1125 363.542 28.3538C363.687 28.5951 363.759 28.8605 363.759 29.15C363.759 29.4698 363.671 29.7623 363.497 30.0277C363.322 30.2871 363.059 30.4621 362.709 30.5526C363.083 30.631 363.394 30.8089 363.641 31.0864C363.889 31.3639 364.012 31.7288 364.012 32.1813C364.012 32.5311 363.931 32.8539 363.768 33.1494C363.611 33.439 363.376 33.6712 363.062 33.8462C362.749 34.0211 362.359 34.1086 361.895 34.1086ZM369.672 34.1086C369.136 34.1086 368.689 33.9729 368.333 33.7014C367.977 33.4299 367.769 33.062 367.709 32.5975H368.487C368.535 32.8328 368.659 33.0379 368.858 33.2128C369.063 33.3817 369.338 33.4661 369.681 33.4661C370.001 33.4661 370.236 33.3998 370.387 33.2671C370.538 33.1283 370.613 32.9655 370.613 32.7785C370.613 32.507 370.514 32.326 370.315 32.2356C370.122 32.1451 369.847 32.0636 369.491 31.9913C369.25 31.943 369.009 31.8736 368.768 31.7831C368.526 31.6927 368.324 31.566 368.161 31.4031C367.998 31.2342 367.917 31.014 367.917 30.7426C367.917 30.3505 368.062 30.0308 368.351 29.7834C368.647 29.5301 369.045 29.4034 369.546 29.4034C370.022 29.4034 370.411 29.524 370.713 29.7653C371.021 30.0006 371.199 30.3384 371.247 30.7788H370.496C370.466 30.5495 370.366 30.3716 370.197 30.2449C370.034 30.1122 369.814 30.0458 369.537 30.0458C369.265 30.0458 369.054 30.1031 368.903 30.2178C368.759 30.3324 368.686 30.4832 368.686 30.6702C368.686 30.8511 368.78 30.9929 368.967 31.0955C369.16 31.198 369.419 31.2855 369.745 31.3579C370.022 31.4182 370.285 31.4936 370.532 31.5841C370.785 31.6685 370.99 31.7982 371.147 31.9732C371.31 32.1421 371.392 32.3894 371.392 32.7151C371.398 33.1193 371.244 33.4541 370.93 33.7195C370.622 33.9789 370.203 34.1086 369.672 34.1086ZM374.703 34.1086C374.281 34.1086 373.901 34.0121 373.563 33.819C373.225 33.626 372.957 33.3545 372.758 33.0047C372.565 32.6488 372.468 32.2325 372.468 31.756C372.468 31.2794 372.568 30.8662 372.767 30.5164C372.966 30.1605 373.234 29.886 373.572 29.693C373.916 29.4999 374.299 29.4034 374.721 29.4034C375.144 29.4034 375.524 29.4999 375.862 29.693C376.199 29.886 376.465 30.1605 376.658 30.5164C376.857 30.8662 376.956 31.2794 376.956 31.756C376.956 32.2325 376.857 32.6488 376.658 33.0047C376.459 33.3545 376.187 33.626 375.843 33.819C375.506 34.0121 375.126 34.1086 374.703 34.1086ZM374.703 33.4571C374.963 33.4571 375.204 33.3938 375.427 33.2671C375.65 33.1404 375.831 32.9504 375.97 32.697C376.109 32.4437 376.178 32.13 376.178 31.756C376.178 31.382 376.109 31.0683 375.97 30.815C375.837 30.5616 375.659 30.3716 375.436 30.2449C375.213 30.1182 374.975 30.0549 374.721 30.0549C374.462 30.0549 374.221 30.1182 373.998 30.2449C373.774 30.3716 373.593 30.5616 373.455 30.815C373.316 31.0683 373.247 31.382 373.247 31.756C373.247 32.13 373.316 32.4437 373.455 32.697C373.593 32.9504 373.771 33.1404 373.989 33.2671C374.212 33.3938 374.45 33.4571 374.703 33.4571ZM378.194 34V27.4851H378.954V34H378.194ZM382.019 34.1086C381.488 34.1086 381.066 33.9487 380.752 33.629C380.438 33.3033 380.281 32.8056 380.281 32.136V29.512H381.042V32.0546C381.042 32.9896 381.425 33.4571 382.191 33.4571C382.583 33.4571 382.906 33.3184 383.159 33.0409C383.418 32.7573 383.548 32.3562 383.548 31.8374V29.512H384.308V34H383.62L383.566 33.1947C383.427 33.4782 383.219 33.7014 382.942 33.8643C382.67 34.0271 382.363 34.1086 382.019 34.1086ZM387.514 34C387.103 34 386.781 33.9005 386.545 33.7014C386.31 33.5023 386.193 33.1434 386.193 32.6246V30.1544H385.414V29.512H386.193L386.292 28.4352H386.953V29.512H388.274V30.1544H386.953V32.6246C386.953 32.9082 387.01 33.1012 387.124 33.2037C387.239 33.3003 387.441 33.3485 387.731 33.3485H388.201V34H387.514ZM389.882 28.5167C389.731 28.5167 389.604 28.4684 389.502 28.3719C389.405 28.2693 389.357 28.1427 389.357 27.9918C389.357 27.8471 389.405 27.7264 389.502 27.6299C389.604 27.5334 389.731 27.4851 389.882 27.4851C390.026 27.4851 390.15 27.5334 390.253 27.6299C390.355 27.7264 390.407 27.8471 390.407 27.9918C390.407 28.1427 390.355 28.2693 390.253 28.3719C390.15 28.4684 390.026 28.5167 389.882 28.5167ZM389.502 34V29.512H390.262V34H389.502ZM393.811 34.1086C393.389 34.1086 393.009 34.0121 392.671 33.819C392.333 33.626 392.065 33.3545 391.866 33.0047C391.673 32.6488 391.576 32.2325 391.576 31.756C391.576 31.2794 391.676 30.8662 391.875 30.5164C392.074 30.1605 392.342 29.886 392.68 29.693C393.024 29.4999 393.407 29.4034 393.829 29.4034C394.251 29.4034 394.631 29.4999 394.969 29.693C395.307 29.886 395.572 30.1605 395.766 30.5164C395.965 30.8662 396.064 31.2794 396.064 31.756C396.064 32.2325 395.965 32.6488 395.766 33.0047C395.566 33.3545 395.295 33.626 394.951 33.819C394.613 34.0121 394.233 34.1086 393.811 34.1086ZM393.811 33.4571C394.07 33.4571 394.312 33.3938 394.535 33.2671C394.758 33.1404 394.939 32.9504 395.078 32.697C395.217 32.4437 395.286 32.13 395.286 31.756C395.286 31.382 395.217 31.0683 395.078 30.815C394.945 30.5616 394.767 30.3716 394.544 30.2449C394.321 30.1182 394.083 30.0549 393.829 30.0549C393.57 30.0549 393.328 30.1182 393.105 30.2449C392.882 30.3716 392.701 30.5616 392.562 30.815C392.424 31.0683 392.354 31.382 392.354 31.756C392.354 32.13 392.424 32.4437 392.562 32.697C392.701 32.9504 392.879 33.1404 393.096 33.2671C393.319 33.3938 393.558 33.4571 393.811 33.4571ZM397.302 34V29.512H397.99L398.035 30.3173C398.18 30.0338 398.388 29.8106 398.659 29.6477C398.931 29.4848 399.238 29.4034 399.582 29.4034C400.113 29.4034 400.535 29.5663 400.849 29.892C401.169 30.2117 401.328 30.7064 401.328 31.376V34H400.568V31.4574C400.568 30.5224 400.182 30.0549 399.41 30.0549C399.024 30.0549 398.701 30.1966 398.442 30.4802C398.189 30.7576 398.062 31.1558 398.062 31.6746V34H397.302ZM404.281 35.312C403.955 34.9983 403.653 34.6243 403.376 34.19C403.098 33.7617 402.875 33.2791 402.706 32.7423C402.543 32.1994 402.462 31.6142 402.462 30.9869C402.462 30.3595 402.543 29.7774 402.706 29.2405C402.875 28.6976 403.098 28.212 403.376 27.7837C403.653 27.3494 403.955 26.9754 404.281 26.6617H405.059V26.7341C404.504 27.277 404.057 27.9134 403.72 28.6433C403.388 29.3672 403.222 30.1484 403.222 30.9869C403.222 31.8254 403.391 32.6096 403.729 33.3395C404.067 34.0633 404.51 34.6967 405.059 35.2396V35.312H404.281ZM406.878 34V28.5167L405.856 28.7429V28.2181L407.132 27.6661H407.647V34H406.878ZM411.635 34.1086C411.074 34.1086 410.589 33.9729 410.179 33.7014C409.775 33.4239 409.464 33.0409 409.247 32.5523C409.03 32.0576 408.921 31.4845 408.921 30.8331C408.921 30.1816 409.03 29.6115 409.247 29.1229C409.464 28.6283 409.775 28.2452 410.179 27.9738C410.589 27.6963 411.074 27.5575 411.635 27.5575C412.196 27.5575 412.679 27.6963 413.083 27.9738C413.487 28.2452 413.798 28.6283 414.015 29.1229C414.232 29.6115 414.341 30.1816 414.341 30.8331C414.341 31.4845 414.232 32.0576 414.015 32.5523C413.798 33.0409 413.487 33.4239 413.083 33.7014C412.679 33.9729 412.196 34.1086 411.635 34.1086ZM411.635 33.439C412.003 33.439 412.332 33.3364 412.622 33.1314C412.917 32.9202 413.147 32.6216 413.309 32.2356C413.478 31.8435 413.563 31.376 413.563 30.8331C413.563 30.2901 413.478 29.8257 413.309 29.4396C413.147 29.0535 412.917 28.7579 412.622 28.5528C412.332 28.3417 412.003 28.2362 411.635 28.2362C411.261 28.2362 410.93 28.3417 410.64 28.5528C410.351 28.7579 410.121 29.0535 409.952 29.4396C409.784 29.8257 409.699 30.2901 409.699 30.8331C409.699 31.376 409.784 31.8435 409.952 32.2356C410.121 32.6216 410.351 32.9202 410.64 33.1314C410.93 33.3364 411.261 33.439 411.635 33.439ZM416.76 30.6068C416.489 30.6068 416.241 30.5465 416.018 30.4259C415.801 30.2992 415.629 30.1243 415.502 29.9011C415.376 29.6718 415.312 29.4004 415.312 29.0867C415.312 28.773 415.376 28.5046 415.502 28.2814C415.635 28.0522 415.81 27.8772 416.027 27.7566C416.25 27.6299 416.498 27.5666 416.769 27.5666C417.041 27.5666 417.285 27.6299 417.502 27.7566C417.719 27.8772 417.891 28.0522 418.018 28.2814C418.145 28.5046 418.208 28.773 418.208 29.0867C418.208 29.4004 418.142 29.6718 418.009 29.9011C417.882 30.1243 417.71 30.2992 417.493 30.4259C417.276 30.5465 417.032 30.6068 416.76 30.6068ZM416.199 34L419.882 27.6661H420.642L416.959 34H416.199ZM416.76 30.0187C416.971 30.0187 417.155 29.9403 417.312 29.7834C417.475 29.6266 417.556 29.3944 417.556 29.0867C417.556 28.773 417.478 28.5378 417.321 28.3809C417.164 28.2181 416.98 28.1366 416.769 28.1366C416.558 28.1366 416.368 28.2181 416.199 28.3809C416.036 28.5378 415.955 28.773 415.955 29.0867C415.955 29.3944 416.036 29.6266 416.199 29.7834C416.362 29.9403 416.549 30.0187 416.76 30.0187ZM420.144 34.1086C419.873 34.1086 419.625 34.0483 419.402 33.9276C419.185 33.8009 419.013 33.626 418.887 33.4028C418.76 33.1736 418.696 32.9021 418.696 32.5884C418.696 32.2748 418.76 32.0063 418.887 31.7831C419.019 31.5539 419.194 31.379 419.411 31.2583C419.628 31.1317 419.873 31.0683 420.144 31.0683C420.416 31.0683 420.66 31.1317 420.877 31.2583C421.094 31.379 421.266 31.5539 421.393 31.7831C421.52 32.0063 421.583 32.2748 421.583 32.5884C421.583 32.9021 421.52 33.1736 421.393 33.4028C421.266 33.626 421.094 33.8009 420.877 33.9276C420.66 34.0483 420.416 34.1086 420.144 34.1086ZM420.135 33.5204C420.352 33.5204 420.539 33.442 420.696 33.2852C420.859 33.1283 420.94 32.8961 420.94 32.5884C420.94 32.2748 420.862 32.0395 420.705 31.8827C420.548 31.7258 420.361 31.6474 420.144 31.6474C419.933 31.6474 419.746 31.7258 419.583 31.8827C419.42 32.0395 419.339 32.2748 419.339 32.5884C419.339 32.8961 419.417 33.1283 419.574 33.2852C419.737 33.442 419.924 33.5204 420.135 33.5204ZM422.474 35.312V35.2396C423.023 34.6967 423.466 34.0633 423.804 33.3395C424.148 32.6096 424.32 31.8254 424.32 30.9869C424.32 30.1484 424.151 29.3672 423.813 28.6433C423.475 27.9134 423.032 27.277 422.483 26.7341V26.6617H423.252C423.584 26.9754 423.885 27.3494 424.157 27.7837C424.434 28.212 424.654 28.6976 424.817 29.2405C424.986 29.7774 425.071 30.3595 425.071 30.9869C425.071 31.6142 424.986 32.1994 424.817 32.7423C424.654 33.2791 424.434 33.7617 424.157 34.19C423.885 34.6243 423.584 34.9983 423.252 35.312H422.474ZM459.272 34.1086C458.808 34.1086 458.404 34.0241 458.06 33.8552C457.716 33.6863 457.45 33.4511 457.263 33.1494C457.076 32.8478 456.983 32.498 456.983 32.0998H457.779C457.779 32.3472 457.837 32.5764 457.951 32.7875C458.066 32.9926 458.232 33.1585 458.449 33.2852C458.672 33.4058 458.946 33.4661 459.272 33.4661C459.701 33.4661 460.032 33.3636 460.268 33.1585C460.503 32.9534 460.62 32.697 460.62 32.3894C460.62 32.136 460.566 31.9339 460.458 31.7831C460.349 31.6263 460.201 31.4996 460.014 31.4031C459.833 31.3066 459.622 31.2221 459.381 31.1497C459.146 31.0774 458.898 30.9959 458.639 30.9054C458.15 30.7365 457.788 30.5284 457.553 30.2811C457.318 30.0277 457.2 29.699 457.2 29.2948C457.194 28.957 457.273 28.6584 457.435 28.399C457.598 28.1336 457.827 27.9285 458.123 27.7837C458.425 27.6329 458.781 27.5575 459.191 27.5575C459.595 27.5575 459.945 27.6329 460.24 27.7837C460.542 27.9345 460.774 28.1427 460.937 28.4081C461.106 28.6735 461.194 28.9751 461.2 29.3129H460.403C460.403 29.138 460.358 28.9661 460.268 28.7972C460.177 28.6222 460.038 28.4805 459.851 28.3719C459.67 28.2633 459.441 28.209 459.164 28.209C458.82 28.203 458.536 28.2904 458.313 28.4714C458.096 28.6524 457.987 28.9027 457.987 29.2224C457.987 29.4939 458.063 29.702 458.214 29.8468C458.37 29.9915 458.588 30.1122 458.865 30.2087C459.143 30.2992 459.462 30.4048 459.824 30.5254C460.126 30.634 460.397 30.7607 460.639 30.9054C460.88 31.0502 461.067 31.2372 461.2 31.4664C461.338 31.6957 461.408 31.9882 461.408 32.3441C461.408 32.6458 461.329 32.9323 461.172 33.2037C461.016 33.4692 460.777 33.6863 460.458 33.8552C460.144 34.0241 459.749 34.1086 459.272 34.1086ZM463.11 35.9907L464.223 33.5657H463.96L462.178 29.512H463.001L464.485 33.0047L466.06 29.512H466.847L463.906 35.9907H463.11ZM467.83 34V29.512H468.518L468.563 30.3173C468.708 30.0338 468.916 29.8106 469.187 29.6477C469.459 29.4848 469.766 29.4034 470.11 29.4034C470.641 29.4034 471.063 29.5663 471.377 29.892C471.697 30.2117 471.857 30.7064 471.857 31.376V34H471.097V31.4574C471.097 30.5224 470.711 30.0549 469.938 30.0549C469.552 30.0549 469.23 30.1966 468.97 30.4802C468.717 30.7576 468.59 31.1558 468.59 31.6746V34H467.83ZM474.682 34.1086C474.308 34.1086 473.998 34.0452 473.75 33.9186C473.503 33.7919 473.319 33.623 473.198 33.4119C473.078 33.2007 473.017 32.9715 473.017 32.7242C473.017 32.2657 473.192 31.9128 473.542 31.6655C473.892 31.4182 474.369 31.2945 474.972 31.2945H476.184V31.2402C476.184 30.8481 476.082 30.5526 475.877 30.3535C475.671 30.1484 475.397 30.0458 475.053 30.0458C474.758 30.0458 474.501 30.1212 474.284 30.272C474.073 30.4168 473.94 30.631 473.886 30.9145H473.108C473.138 30.5887 473.246 30.3143 473.433 30.0911C473.627 29.8679 473.865 29.699 474.148 29.5844C474.432 29.4637 474.733 29.4034 475.053 29.4034C475.681 29.4034 476.151 29.5723 476.465 29.9101C476.784 30.2419 476.944 30.6853 476.944 31.2402V34H476.266L476.22 33.1947C476.094 33.448 475.907 33.6652 475.659 33.8462C475.418 34.0211 475.092 34.1086 474.682 34.1086ZM474.8 33.4661C475.089 33.4661 475.337 33.3907 475.542 33.2399C475.753 33.0891 475.913 32.8931 476.021 32.6518C476.13 32.4105 476.184 32.1571 476.184 31.8917V31.8827H475.035C474.589 31.8827 474.272 31.9611 474.085 32.1179C473.904 32.2687 473.814 32.4588 473.814 32.688C473.814 32.9232 473.898 33.1133 474.067 33.258C474.242 33.3968 474.486 33.4661 474.8 33.4661ZM478.266 34V27.4851H479.026V31.4031L480.862 29.512H481.794L479.804 31.5388L482.048 34H481.08L479.026 31.6746V34H478.266ZM484.697 34.1086C484.269 34.1086 483.889 34.0121 483.557 33.819C483.225 33.62 482.963 33.3455 482.77 32.9956C482.583 32.6458 482.489 32.2325 482.489 31.756C482.489 31.2855 482.583 30.8753 482.77 30.5254C482.957 30.1695 483.216 29.895 483.548 29.702C483.886 29.5029 484.275 29.4034 484.715 29.4034C485.149 29.4034 485.523 29.5029 485.837 29.702C486.157 29.895 486.401 30.1514 486.57 30.4711C486.739 30.7908 486.823 31.1347 486.823 31.5026C486.823 31.569 486.82 31.6353 486.814 31.7017C486.814 31.7681 486.814 31.8435 486.814 31.9279H483.24C483.258 32.2718 483.337 32.5583 483.475 32.7875C483.62 33.0107 483.798 33.1796 484.009 33.2942C484.226 33.4088 484.456 33.4661 484.697 33.4661C485.011 33.4661 485.273 33.3938 485.484 33.249C485.695 33.1042 485.849 32.9082 485.946 32.6608H486.697C486.576 33.0771 486.344 33.4239 486 33.7014C485.662 33.9729 485.228 34.1086 484.697 34.1086ZM484.697 30.0458C484.335 30.0458 484.012 30.1574 483.729 30.3806C483.451 30.5978 483.291 30.9175 483.249 31.3398H486.072C486.054 30.9356 485.915 30.6189 485.656 30.3897C485.397 30.1605 485.077 30.0458 484.697 30.0458ZM489.631 35.312C489.306 34.9983 489.004 34.6243 488.726 34.19C488.449 33.7617 488.226 33.2791 488.057 32.7423C487.894 32.1994 487.813 31.6142 487.813 30.9869C487.813 30.3595 487.894 29.7774 488.057 29.2405C488.226 28.6976 488.449 28.212 488.726 27.7837C489.004 27.3494 489.306 26.9754 489.631 26.6617H490.409V26.7341C489.855 27.277 489.408 27.9134 489.07 28.6433C488.739 29.3672 488.573 30.1484 488.573 30.9869C488.573 31.8254 488.742 32.6096 489.079 33.3395C489.417 34.0633 489.861 34.6967 490.409 35.2396V35.312H489.631ZM494.119 34V32.6427H490.907V32.0546L493.984 27.6661H494.87V31.9732H495.811V32.6427H494.87V34H494.119ZM491.749 31.9732H494.156V28.5076L491.749 31.9732ZM498.015 30.6068C497.744 30.6068 497.497 30.5465 497.273 30.4259C497.056 30.2992 496.884 30.1243 496.758 29.9011C496.631 29.6718 496.568 29.4004 496.568 29.0867C496.568 28.773 496.631 28.5046 496.758 28.2814C496.89 28.0522 497.065 27.8772 497.282 27.7566C497.506 27.6299 497.753 27.5666 498.024 27.5666C498.296 27.5666 498.54 27.6299 498.757 27.7566C498.974 27.8772 499.146 28.0522 499.273 28.2814C499.4 28.5046 499.463 28.773 499.463 29.0867C499.463 29.4004 499.397 29.6718 499.264 29.9011C499.137 30.1243 498.965 30.2992 498.748 30.4259C498.531 30.5465 498.287 30.6068 498.015 30.6068ZM497.454 34L501.137 27.6661H501.897L498.214 34H497.454ZM498.015 30.0187C498.226 30.0187 498.41 29.9403 498.567 29.7834C498.73 29.6266 498.812 29.3944 498.812 29.0867C498.812 28.773 498.733 28.5378 498.576 28.3809C498.419 28.2181 498.235 28.1366 498.024 28.1366C497.813 28.1366 497.623 28.2181 497.454 28.3809C497.291 28.5378 497.21 28.773 497.21 29.0867C497.21 29.3944 497.291 29.6266 497.454 29.7834C497.617 29.9403 497.804 30.0187 498.015 30.0187ZM501.399 34.1086C501.128 34.1086 500.881 34.0483 500.657 33.9276C500.44 33.8009 500.268 33.626 500.142 33.4028C500.015 33.1736 499.952 32.9021 499.952 32.5884C499.952 32.2748 500.015 32.0063 500.142 31.7831C500.274 31.5539 500.449 31.379 500.666 31.2583C500.884 31.1317 501.128 31.0683 501.399 31.0683C501.671 31.0683 501.915 31.1317 502.132 31.2583C502.35 31.379 502.521 31.5539 502.648 31.7831C502.775 32.0063 502.838 32.2748 502.838 32.5884C502.838 32.9021 502.775 33.1736 502.648 33.4028C502.521 33.626 502.35 33.8009 502.132 33.9276C501.915 34.0483 501.671 34.1086 501.399 34.1086ZM501.39 33.5204C501.608 33.5204 501.795 33.442 501.951 33.2852C502.114 33.1283 502.196 32.8961 502.196 32.5884C502.196 32.2748 502.117 32.0395 501.96 31.8827C501.804 31.7258 501.617 31.6474 501.399 31.6474C501.188 31.6474 501.001 31.7258 500.838 31.8827C500.676 32.0395 500.594 32.2748 500.594 32.5884C500.594 32.8961 500.673 33.1283 500.829 33.2852C500.992 33.442 501.179 33.5204 501.39 33.5204ZM503.729 35.312V35.2396C504.278 34.6967 504.721 34.0633 505.059 33.3395C505.403 32.6096 505.575 31.8254 505.575 30.9869C505.575 30.1484 505.406 29.3672 505.068 28.6433C504.73 27.9134 504.287 27.277 503.738 26.7341V26.6617H504.507C504.839 26.9754 505.14 27.3494 505.412 27.7837C505.689 28.212 505.909 28.6976 506.072 29.2405C506.241 29.7774 506.326 30.3595 506.326 30.9869C506.326 31.6142 506.241 32.1994 506.072 32.7423C505.909 33.2791 505.689 33.7617 505.412 34.19C505.14 34.6243 504.839 34.9983 504.507 35.312H503.729Z" fill="black"/>
<path d="M432.614 168.636V162.636H433.261V163.33H433.341C433.39 163.254 433.458 163.157 433.545 163.04C433.634 162.92 433.761 162.814 433.926 162.722C434.093 162.627 434.318 162.58 434.602 162.58C434.97 162.58 435.294 162.671 435.574 162.855C435.854 163.039 436.073 163.299 436.23 163.636C436.387 163.973 436.466 164.371 436.466 164.83C436.466 165.292 436.387 165.692 436.23 166.031C436.073 166.368 435.855 166.63 435.577 166.815C435.298 166.999 434.977 167.091 434.614 167.091C434.333 167.091 434.109 167.045 433.94 166.952C433.772 166.857 433.642 166.75 433.551 166.631C433.46 166.509 433.39 166.409 433.341 166.33H433.284V168.636H432.614ZM433.273 164.818C433.273 165.148 433.321 165.438 433.418 165.69C433.514 165.94 433.655 166.136 433.841 166.278C434.027 166.419 434.254 166.489 434.523 166.489C434.803 166.489 435.037 166.415 435.224 166.267C435.414 166.117 435.556 165.917 435.651 165.665C435.747 165.411 435.795 165.129 435.795 164.818C435.795 164.511 435.748 164.235 435.653 163.989C435.561 163.741 435.42 163.545 435.23 163.401C435.043 163.255 434.807 163.182 434.523 163.182C434.25 163.182 434.021 163.251 433.835 163.389C433.65 163.526 433.509 163.717 433.415 163.963C433.32 164.207 433.273 164.492 433.273 164.818ZM441.501 166.727H437.842V166.091H441.501V166.727ZM437.842 164.318V163.864L441.501 162.545V163.239L438.944 164.08L438.967 164.034V164.148L438.944 164.102L441.501 164.943V165.636L437.842 164.318ZM444.968 167.08C444.54 167.08 444.176 166.963 443.875 166.73C443.574 166.495 443.343 166.155 443.184 165.71C443.025 165.263 442.946 164.723 442.946 164.091C442.946 163.462 443.025 162.925 443.184 162.48C443.345 162.033 443.576 161.692 443.878 161.457C444.181 161.221 444.544 161.102 444.968 161.102C445.393 161.102 445.755 161.221 446.057 161.457C446.36 161.692 446.591 162.033 446.75 162.48C446.911 162.925 446.991 163.462 446.991 164.091C446.991 164.723 446.912 165.263 446.753 165.71C446.593 166.155 446.363 166.495 446.062 166.73C445.761 166.963 445.396 167.08 444.968 167.08ZM444.968 166.455C445.393 166.455 445.722 166.25 445.957 165.841C446.192 165.432 446.309 164.848 446.309 164.091C446.309 163.587 446.255 163.158 446.147 162.804C446.041 162.45 445.888 162.18 445.687 161.994C445.488 161.809 445.249 161.716 444.968 161.716C444.548 161.716 444.219 161.923 443.983 162.338C443.746 162.751 443.628 163.335 443.628 164.091C443.628 164.595 443.681 165.023 443.787 165.375C443.893 165.727 444.045 165.995 444.244 166.179C444.445 166.363 444.686 166.455 444.968 166.455ZM448.528 167.045C448.387 167.045 448.267 166.995 448.167 166.895C448.066 166.795 448.016 166.674 448.016 166.534C448.016 166.394 448.066 166.274 448.167 166.173C448.267 166.073 448.387 166.023 448.528 166.023C448.668 166.023 448.788 166.073 448.888 166.173C448.989 166.274 449.039 166.394 449.039 166.534C449.039 166.627 449.015 166.712 448.968 166.79C448.922 166.867 448.861 166.93 448.783 166.977C448.708 167.023 448.622 167.045 448.528 167.045ZM452.085 167.08C451.657 167.08 451.293 166.963 450.992 166.73C450.69 166.495 450.46 166.155 450.301 165.71C450.142 165.263 450.063 164.723 450.063 164.091C450.063 163.462 450.142 162.925 450.301 162.48C450.462 162.033 450.693 161.692 450.994 161.457C451.297 161.221 451.661 161.102 452.085 161.102C452.51 161.102 452.872 161.221 453.173 161.457C453.476 161.692 453.707 162.033 453.867 162.48C454.028 162.925 454.108 163.462 454.108 164.091C454.108 164.723 454.028 165.263 453.869 165.71C453.71 166.155 453.48 166.495 453.179 166.73C452.878 166.963 452.513 167.08 452.085 167.08ZM452.085 166.455C452.51 166.455 452.839 166.25 453.074 165.841C453.309 165.432 453.426 164.848 453.426 164.091C453.426 163.587 453.372 163.158 453.264 162.804C453.158 162.45 453.005 162.18 452.804 161.994C452.605 161.809 452.366 161.716 452.085 161.716C451.665 161.716 451.336 161.923 451.1 162.338C450.863 162.751 450.744 163.335 450.744 164.091C450.744 164.595 450.797 165.023 450.903 165.375C451.01 165.727 451.162 165.995 451.361 166.179C451.562 166.363 451.803 166.455 452.085 166.455ZM457.393 161.182V167H456.688V161.92H456.654L455.234 162.864V162.148L456.688 161.182H457.393Z" fill="black"/>
<path d="M467.614 164.636V158.636H468.261V159.33H468.341C468.39 159.254 468.458 159.157 468.545 159.04C468.634 158.92 468.761 158.814 468.926 158.722C469.093 158.627 469.318 158.58 469.602 158.58C469.97 158.58 470.294 158.671 470.574 158.855C470.854 159.039 471.073 159.299 471.23 159.636C471.387 159.973 471.466 160.371 471.466 160.83C471.466 161.292 471.387 161.692 471.23 162.031C471.073 162.368 470.855 162.63 470.577 162.815C470.298 162.999 469.977 163.091 469.614 163.091C469.333 163.091 469.109 163.045 468.94 162.952C468.772 162.857 468.642 162.75 468.551 162.631C468.46 162.509 468.39 162.409 468.341 162.33H468.284V164.636H467.614ZM468.273 160.818C468.273 161.148 468.321 161.438 468.418 161.69C468.514 161.94 468.655 162.136 468.841 162.278C469.027 162.419 469.254 162.489 469.523 162.489C469.803 162.489 470.037 162.415 470.224 162.267C470.414 162.117 470.556 161.917 470.651 161.665C470.747 161.411 470.795 161.129 470.795 160.818C470.795 160.511 470.748 160.235 470.653 159.989C470.561 159.741 470.42 159.545 470.23 159.401C470.043 159.255 469.807 159.182 469.523 159.182C469.25 159.182 469.021 159.251 468.835 159.389C468.65 159.526 468.509 159.717 468.415 159.963C468.32 160.207 468.273 160.492 468.273 160.818ZM476.501 162.727H472.842V162.091H476.501V162.727ZM472.842 160.318V159.864L476.501 158.545V159.239L473.944 160.08L473.967 160.034V160.148L473.944 160.102L476.501 160.943V161.636L472.842 160.318ZM479.968 163.08C479.54 163.08 479.176 162.963 478.875 162.73C478.574 162.495 478.343 162.155 478.184 161.71C478.025 161.263 477.946 160.723 477.946 160.091C477.946 159.462 478.025 158.925 478.184 158.48C478.345 158.033 478.576 157.692 478.878 157.457C479.181 157.221 479.544 157.102 479.968 157.102C480.393 157.102 480.755 157.221 481.057 157.457C481.36 157.692 481.591 158.033 481.75 158.48C481.911 158.925 481.991 159.462 481.991 160.091C481.991 160.723 481.912 161.263 481.753 161.71C481.593 162.155 481.363 162.495 481.062 162.73C480.761 162.963 480.396 163.08 479.968 163.08ZM479.968 162.455C480.393 162.455 480.722 162.25 480.957 161.841C481.192 161.432 481.309 160.848 481.309 160.091C481.309 159.587 481.255 159.158 481.147 158.804C481.041 158.45 480.888 158.18 480.687 157.994C480.488 157.809 480.249 157.716 479.968 157.716C479.548 157.716 479.219 157.923 478.983 158.338C478.746 158.751 478.628 159.335 478.628 160.091C478.628 160.595 478.681 161.023 478.787 161.375C478.893 161.727 479.045 161.995 479.244 162.179C479.445 162.363 479.686 162.455 479.968 162.455ZM483.528 163.045C483.387 163.045 483.267 162.995 483.167 162.895C483.066 162.795 483.016 162.674 483.016 162.534C483.016 162.394 483.066 162.274 483.167 162.173C483.267 162.073 483.387 162.023 483.528 162.023C483.668 162.023 483.788 162.073 483.888 162.173C483.989 162.274 484.039 162.394 484.039 162.534C484.039 162.627 484.015 162.712 483.968 162.79C483.922 162.867 483.861 162.93 483.783 162.977C483.708 163.023 483.622 163.045 483.528 163.045ZM487.085 163.08C486.657 163.08 486.293 162.963 485.992 162.73C485.69 162.495 485.46 162.155 485.301 161.71C485.142 161.263 485.063 160.723 485.063 160.091C485.063 159.462 485.142 158.925 485.301 158.48C485.462 158.033 485.693 157.692 485.994 157.457C486.297 157.221 486.661 157.102 487.085 157.102C487.51 157.102 487.872 157.221 488.173 157.457C488.476 157.692 488.707 158.033 488.867 158.48C489.028 158.925 489.108 159.462 489.108 160.091C489.108 160.723 489.028 161.263 488.869 161.71C488.71 162.155 488.48 162.495 488.179 162.73C487.878 162.963 487.513 163.08 487.085 163.08ZM487.085 162.455C487.51 162.455 487.839 162.25 488.074 161.841C488.309 161.432 488.426 160.848 488.426 160.091C488.426 159.587 488.372 159.158 488.264 158.804C488.158 158.45 488.005 158.18 487.804 157.994C487.605 157.809 487.366 157.716 487.085 157.716C486.665 157.716 486.336 157.923 486.1 158.338C485.863 158.751 485.744 159.335 485.744 160.091C485.744 160.595 485.797 161.023 485.903 161.375C486.01 161.727 486.162 161.995 486.361 162.179C486.562 162.363 486.803 162.455 487.085 162.455ZM492.393 157.182V163H491.688V157.92H491.654L490.234 158.864V158.148L491.688 157.182H492.393Z" fill="black"/>
<path d="M502.614 140.636V134.636H503.261V135.33H503.341C503.39 135.254 503.458 135.157 503.545 135.04C503.634 134.92 503.761 134.814 503.926 134.722C504.093 134.627 504.318 134.58 504.602 134.58C504.97 134.58 505.294 134.671 505.574 134.855C505.854 135.039 506.073 135.299 506.23 135.636C506.387 135.973 506.466 136.371 506.466 136.83C506.466 137.292 506.387 137.692 506.23 138.031C506.073 138.368 505.855 138.63 505.577 138.815C505.298 138.999 504.977 139.091 504.614 139.091C504.333 139.091 504.109 139.045 503.94 138.952C503.772 138.857 503.642 138.75 503.551 138.631C503.46 138.509 503.39 138.409 503.341 138.33H503.284V140.636H502.614ZM503.273 136.818C503.273 137.148 503.321 137.438 503.418 137.69C503.514 137.94 503.655 138.136 503.841 138.278C504.027 138.419 504.254 138.489 504.523 138.489C504.803 138.489 505.037 138.415 505.224 138.267C505.414 138.117 505.556 137.917 505.651 137.665C505.747 137.411 505.795 137.129 505.795 136.818C505.795 136.511 505.748 136.235 505.653 135.989C505.561 135.741 505.42 135.545 505.23 135.401C505.043 135.255 504.807 135.182 504.523 135.182C504.25 135.182 504.021 135.251 503.835 135.389C503.65 135.526 503.509 135.717 503.415 135.963C503.32 136.207 503.273 136.492 503.273 136.818ZM507.842 136.955V136.5L511.501 134.636V135.364L508.694 136.716L508.717 136.67V136.784L508.694 136.739L511.501 138.091V138.818L507.842 136.955ZM514.968 139.08C514.54 139.08 514.176 138.963 513.875 138.73C513.574 138.495 513.343 138.155 513.184 137.71C513.025 137.263 512.946 136.723 512.946 136.091C512.946 135.462 513.025 134.925 513.184 134.48C513.345 134.033 513.576 133.692 513.878 133.457C514.181 133.221 514.544 133.102 514.968 133.102C515.393 133.102 515.755 133.221 516.057 133.457C516.36 133.692 516.591 134.033 516.75 134.48C516.911 134.925 516.991 135.462 516.991 136.091C516.991 136.723 516.912 137.263 516.753 137.71C516.593 138.155 516.363 138.495 516.062 138.73C515.761 138.963 515.396 139.08 514.968 139.08ZM514.968 138.455C515.393 138.455 515.722 138.25 515.957 137.841C516.192 137.432 516.309 136.848 516.309 136.091C516.309 135.587 516.255 135.158 516.147 134.804C516.041 134.45 515.888 134.18 515.687 133.994C515.488 133.809 515.249 133.716 514.968 133.716C514.548 133.716 514.219 133.923 513.983 134.338C513.746 134.751 513.628 135.335 513.628 136.091C513.628 136.595 513.681 137.023 513.787 137.375C513.893 137.727 514.045 137.995 514.244 138.179C514.445 138.363 514.686 138.455 514.968 138.455ZM518.528 139.045C518.387 139.045 518.267 138.995 518.167 138.895C518.066 138.795 518.016 138.674 518.016 138.534C518.016 138.394 518.066 138.274 518.167 138.173C518.267 138.073 518.387 138.023 518.528 138.023C518.668 138.023 518.788 138.073 518.888 138.173C518.989 138.274 519.039 138.394 519.039 138.534C519.039 138.627 519.015 138.712 518.968 138.79C518.922 138.867 518.861 138.93 518.783 138.977C518.708 139.023 518.622 139.045 518.528 139.045ZM522.085 139.08C521.657 139.08 521.293 138.963 520.992 138.73C520.69 138.495 520.46 138.155 520.301 137.71C520.142 137.263 520.063 136.723 520.063 136.091C520.063 135.462 520.142 134.925 520.301 134.48C520.462 134.033 520.693 133.692 520.994 133.457C521.297 133.221 521.661 133.102 522.085 133.102C522.51 133.102 522.872 133.221 523.173 133.457C523.476 133.692 523.707 134.033 523.867 134.48C524.028 134.925 524.108 135.462 524.108 136.091C524.108 136.723 524.028 137.263 523.869 137.71C523.71 138.155 523.48 138.495 523.179 138.73C522.878 138.963 522.513 139.08 522.085 139.08ZM522.085 138.455C522.51 138.455 522.839 138.25 523.074 137.841C523.309 137.432 523.426 136.848 523.426 136.091C523.426 135.587 523.372 135.158 523.264 134.804C523.158 134.45 523.005 134.18 522.804 133.994C522.605 133.809 522.366 133.716 522.085 133.716C521.665 133.716 521.336 133.923 521.1 134.338C520.863 134.751 520.744 135.335 520.744 136.091C520.744 136.595 520.797 137.023 520.903 137.375C521.01 137.727 521.162 137.995 521.361 138.179C521.562 138.363 521.803 138.455 522.085 138.455ZM527.166 139.08C526.832 139.08 526.532 139.013 526.265 138.881C525.998 138.748 525.784 138.566 525.623 138.335C525.462 138.104 525.374 137.841 525.359 137.545H526.041C526.067 137.809 526.187 138.027 526.399 138.199C526.613 138.369 526.868 138.455 527.166 138.455C527.404 138.455 527.617 138.399 527.802 138.287C527.99 138.175 528.136 138.022 528.242 137.827C528.35 137.63 528.404 137.407 528.404 137.159C528.404 136.905 528.349 136.679 528.237 136.48C528.127 136.279 527.975 136.121 527.782 136.006C527.589 135.89 527.368 135.831 527.12 135.83C526.942 135.828 526.76 135.855 526.572 135.912C526.385 135.967 526.23 136.038 526.109 136.125L525.45 136.045L525.802 133.182H528.825V133.807H526.393L526.188 135.523H526.223C526.342 135.428 526.492 135.349 526.671 135.287C526.851 135.224 527.039 135.193 527.234 135.193C527.59 135.193 527.907 135.278 528.186 135.449C528.466 135.617 528.686 135.848 528.845 136.142C529.006 136.436 529.086 136.771 529.086 137.148C529.086 137.519 529.003 137.85 528.836 138.142C528.671 138.432 528.444 138.661 528.154 138.83C527.865 138.996 527.535 139.08 527.166 139.08Z" fill="black"/>
<path d="M68 204.358L59.2727 206.744L59.2727 205.67L66.3807 203.847L66.3807 203.761L59.2727 201.903L59.2727 200.71L66.3807 198.852L66.3807 198.767L59.2727 196.943L59.2727 195.869L68 198.256L68 199.347L61.0455 201.273L61.0455 201.341L68 203.267L68 204.358ZM68 195.099L61.4545 195.099L61.4545 194.127L62.4432 194.127L62.4432 194.059C62.1193 193.94 61.8565 193.724 61.6548 193.412C61.4531 193.099 61.3523 192.747 61.3523 192.355C61.3523 192.281 61.3537 192.189 61.3565 192.078C61.3594 191.967 61.3636 191.883 61.3693 191.826L62.392 191.826C62.3835 191.86 62.3707 191.939 62.3537 192.061C62.3338 192.18 62.3239 192.306 62.3239 192.44C62.3239 192.758 62.3906 193.042 62.5241 193.292C62.6548 193.539 62.8366 193.735 63.0696 193.88C63.2997 194.022 63.5625 194.093 63.858 194.093L68 194.093L68 195.099ZM68 190.634L61.4545 190.634L61.4545 189.629L68 189.629L68 190.634ZM60.3636 190.123C60.3636 190.319 60.2969 190.488 60.1634 190.63C60.0298 190.769 59.8693 190.839 59.6818 190.839C59.4943 190.839 59.3338 190.769 59.2003 190.63C59.0668 190.488 59 190.319 59 190.123C59 189.927 59.0668 189.759 59.2003 189.62C59.3338 189.478 59.4943 189.407 59.6818 189.407C59.8693 189.407 60.0298 189.478 60.1634 189.62C60.2969 189.759 60.3636 189.927 60.3636 190.123ZM64.0625 186.781L68 186.781L68 187.787L61.4545 187.787L61.4545 186.815L62.4773 186.815L62.4773 186.73C62.1449 186.576 61.8778 186.343 61.6761 186.031C61.4716 185.718 61.3693 185.315 61.3693 184.821C61.3693 184.377 61.4602 183.99 61.642 183.657C61.821 183.325 62.0937 183.066 62.4602 182.882C62.8239 182.697 63.2841 182.605 63.8409 182.605L68 182.605L68 183.61L63.9091 183.61C63.3949 183.61 62.9943 183.744 62.7074 184.011C62.4176 184.278 62.2727 184.645 62.2727 185.11C62.2727 185.431 62.3423 185.718 62.4815 185.971C62.6207 186.221 62.8239 186.419 63.0909 186.564C63.358 186.708 63.6818 186.781 64.0625 186.781ZM65.6136 179.83L64.3693 179.847L64.3693 179.642L61.4545 176.778L61.4545 175.534L64.5398 178.585L64.5398 178.67L65.6136 179.83ZM68 180.767L59.2727 180.767L59.2727 179.761L68 179.761L68 180.767ZM68 176.608L64.7614 179.165L64.0625 178.449L68 175.33L68 176.608ZM59.2727 173.234L68 173.234L68 174.24L59.2727 174.24L59.2727 173.234ZM68.1364 168.648C68.1364 169.278 67.9972 169.822 67.7187 170.28C67.4375 170.734 67.0455 171.085 66.5426 171.332C66.0369 171.577 65.4489 171.699 64.7784 171.699C64.108 171.699 63.517 171.577 63.0057 171.332C62.4915 171.085 62.0909 170.741 61.804 170.301C61.5142 169.858 61.3693 169.341 61.3693 168.75C61.3693 168.409 61.4261 168.072 61.5398 167.74C61.6534 167.408 61.8381 167.105 62.0937 166.832C62.3466 166.56 62.6818 166.342 63.0994 166.18C63.517 166.018 64.0312 165.937 64.642 165.937L65.0682 165.937L65.0682 170.983L64.1989 170.983L64.1989 166.96C63.8295 166.96 63.5 167.034 63.2102 167.182C62.9205 167.327 62.6918 167.534 62.5241 167.804C62.3565 168.071 62.2727 168.386 62.2727 168.75C62.2727 169.151 62.3722 169.497 62.571 169.79C62.767 170.08 63.0227 170.303 63.3381 170.459C63.6534 170.615 63.9915 170.693 64.3523 170.693L64.9318 170.693C65.4261 170.693 65.8452 170.608 66.1889 170.437C66.5298 170.264 66.7898 170.024 66.9687 169.717C67.1449 169.411 67.233 169.054 67.233 168.648C67.233 168.384 67.196 168.145 67.1222 167.932C67.0455 167.716 66.9318 167.53 66.7812 167.374C66.6278 167.217 66.4375 167.097 66.2102 167.011L66.483 166.04C66.8125 166.142 67.1023 166.314 67.3523 166.555C67.5994 166.797 67.7926 167.095 67.9318 167.45C68.0682 167.805 68.1364 168.205 68.1364 168.648ZM70.4545 161.033L61.4545 161.033L61.4545 160.061L62.4943 160.061L62.4943 159.942C62.3807 159.868 62.2358 159.766 62.0597 159.635C61.8807 159.501 61.7216 159.311 61.5824 159.064C61.4403 158.814 61.3693 158.476 61.3693 158.05C61.3693 157.499 61.5071 157.013 61.7827 156.592C62.0582 156.172 62.4489 155.844 62.9545 155.608C63.4602 155.372 64.0568 155.254 64.7443 155.254C65.4375 155.254 66.0383 155.372 66.5469 155.608C67.0526 155.844 67.4446 156.17 67.723 156.588C67.9986 157.006 68.1364 157.487 68.1364 158.033C68.1364 158.453 68.0668 158.79 67.9276 159.043C67.7855 159.295 67.625 159.49 67.446 159.626C67.2642 159.763 67.1136 159.868 66.9943 159.942L66.9943 160.027L70.4545 160.027L70.4545 161.033ZM64.7273 160.044C65.2216 160.044 65.6577 159.972 66.0355 159.827C66.4105 159.682 66.7045 159.47 66.9176 159.192C67.1278 158.913 67.233 158.572 67.233 158.169C67.233 157.749 67.1222 157.398 66.9006 157.116C66.6761 156.832 66.375 156.619 65.9972 156.477C65.6165 156.332 65.1932 156.26 64.7273 156.26C64.267 156.26 63.8523 156.331 63.483 156.473C63.1108 156.612 62.8168 156.824 62.6008 157.108C62.3821 157.389 62.2727 157.743 62.2727 158.169C62.2727 158.578 62.3764 158.922 62.5838 159.2C62.7884 159.479 63.0753 159.689 63.4446 159.831C63.8111 159.973 64.2386 160.044 64.7273 160.044ZM68.1534 151.794C68.1534 152.209 68.0753 152.585 67.919 152.923C67.7599 153.261 67.5312 153.53 67.233 153.729C66.9318 153.928 66.5682 154.027 66.142 154.027C65.767 154.027 65.4631 153.953 65.2301 153.805C64.9943 153.658 64.8097 153.46 64.6761 153.213C64.5426 152.966 64.4432 152.693 64.3778 152.395C64.3097 152.094 64.2557 151.791 64.2159 151.487C64.1648 151.089 64.1264 150.767 64.1008 150.52C64.0724 150.27 64.0256 150.088 63.9602 149.974C63.8949 149.858 63.7812 149.8 63.6193 149.8L63.5852 149.8C63.1648 149.8 62.8381 149.915 62.6051 150.145C62.3722 150.372 62.2557 150.717 62.2557 151.18C62.2557 151.661 62.3608 152.037 62.571 152.31C62.7812 152.582 63.0057 152.774 63.2443 152.885L62.9034 153.839C62.5057 153.669 62.196 153.442 61.9744 153.158C61.75 152.871 61.5937 152.558 61.5057 152.22C61.4148 151.879 61.3693 151.544 61.3693 151.214C61.3693 151.004 61.3949 150.763 61.446 150.49C61.4943 150.214 61.5952 149.949 61.7486 149.693C61.902 149.435 62.1335 149.22 62.4432 149.05C62.7528 148.879 63.1676 148.794 63.6875 148.794L68 148.794L68 149.8L67.1136 149.8L67.1136 149.851C67.2557 149.919 67.4077 150.033 67.5696 150.192C67.7315 150.351 67.8693 150.562 67.983 150.827C68.0966 151.091 68.1534 151.413 68.1534 151.794ZM67.25 151.641C67.25 151.243 67.1719 150.908 67.0156 150.635C66.8594 150.359 66.6577 150.152 66.4105 150.013C66.1633 149.871 65.9034 149.8 65.6307 149.8L64.7102 149.8C64.7614 149.842 64.8082 149.936 64.8508 150.081C64.8906 150.223 64.9261 150.388 64.9574 150.575C64.9858 150.76 65.0114 150.94 65.0341 151.116C65.054 151.29 65.071 151.43 65.0852 151.538C65.1193 151.8 65.1747 152.044 65.2514 152.271C65.3253 152.496 65.4375 152.678 65.5881 152.817C65.7358 152.953 65.9375 153.021 66.1932 153.021C66.5426 153.021 66.8068 152.892 66.9858 152.634C67.1619 152.372 67.25 152.041 67.25 151.641ZM68 146.958L61.4545 146.958L61.4545 145.987L62.4432 145.987L62.4432 145.919C62.1193 145.799 61.8565 145.583 61.6548 145.271C61.4531 144.958 61.3523 144.606 61.3523 144.214C61.3523 144.14 61.3537 144.048 61.3565 143.937C61.3594 143.826 61.3636 143.743 61.3693 143.686L62.392 143.686C62.3835 143.72 62.3707 143.798 62.3537 143.92C62.3338 144.039 62.3239 144.166 62.3239 144.299C62.3239 144.618 62.3906 144.902 62.5241 145.152C62.6548 145.399 62.8366 145.595 63.0696 145.74C63.2997 145.882 63.5625 145.953 63.858 145.953L68 145.953L68 146.958ZM68.1534 140.567C68.1534 140.982 68.0753 141.359 67.919 141.697C67.7599 142.035 67.5312 142.303 67.233 142.502C66.9318 142.701 66.5682 142.8 66.142 142.8C65.767 142.8 65.4631 142.727 65.2301 142.579C64.9943 142.431 64.8097 142.234 64.6761 141.987C64.5426 141.739 64.4432 141.467 64.3778 141.168C64.3097 140.867 64.2557 140.565 64.2159 140.261C64.1648 139.863 64.1264 139.54 64.1008 139.293C64.0724 139.043 64.0256 138.862 63.9602 138.748C63.8949 138.631 63.7812 138.573 63.6193 138.573L63.5852 138.573C63.1648 138.573 62.8381 138.688 62.6051 138.918C62.3722 139.146 62.2557 139.491 62.2557 139.954C62.2557 140.434 62.3608 140.81 62.571 141.083C62.7812 141.356 63.0057 141.548 63.2443 141.658L62.9034 142.613C62.5057 142.442 62.196 142.215 61.9744 141.931C61.75 141.644 61.5937 141.332 61.5057 140.994C61.4148 140.653 61.3693 140.317 61.3693 139.988C61.3693 139.778 61.3949 139.536 61.446 139.263C61.4943 138.988 61.5952 138.722 61.7486 138.467C61.902 138.208 62.1335 137.994 62.4432 137.823C62.7528 137.653 63.1676 137.567 63.6875 137.567L68 137.567L68 138.573L67.1136 138.573L67.1136 138.624C67.2557 138.692 67.4077 138.806 67.5696 138.965C67.7315 139.124 67.8693 139.336 67.983 139.6C68.0966 139.864 68.1534 140.187 68.1534 140.567ZM67.25 140.414C67.25 140.016 67.1719 139.681 67.0156 139.408C66.8594 139.133 66.6577 138.925 66.4105 138.786C66.1633 138.644 65.9034 138.573 65.6307 138.573L64.7102 138.573C64.7614 138.616 64.8082 138.71 64.8508 138.854C64.8906 138.996 64.9261 139.161 64.9574 139.349C64.9858 139.533 65.0114 139.714 65.0341 139.89C65.054 140.063 65.071 140.204 65.0852 140.312C65.1193 140.573 65.1747 140.817 65.2514 141.045C65.3253 141.269 65.4375 141.451 65.5881 141.59C65.7358 141.727 65.9375 141.795 66.1932 141.795C66.5426 141.795 66.8068 141.665 66.9858 141.407C67.1619 141.146 67.25 140.815 67.25 140.414ZM68 135.732L61.4545 135.732L61.4545 134.76L62.4773 134.76L62.4773 134.675C62.1278 134.539 61.8565 134.319 61.6633 134.015C61.4673 133.711 61.3693 133.346 61.3693 132.919C61.3693 132.488 61.4673 132.128 61.6633 131.841C61.8565 131.551 62.1278 131.326 62.4773 131.164L62.4773 131.096C62.1392 130.928 61.8707 130.676 61.6719 130.341C61.4702 130.006 61.3693 129.604 61.3693 129.135C61.3693 128.55 61.5526 128.071 61.919 127.699C62.2827 127.327 62.8494 127.141 63.6193 127.141L68 127.141L68 128.147L63.6193 128.147C63.1364 128.147 62.7912 128.279 62.5838 128.543C62.3764 128.807 62.2727 129.118 62.2727 129.476C62.2727 129.936 62.4119 130.293 62.6903 130.546C62.9659 130.799 63.3153 130.925 63.7386 130.925L68 130.925L68 131.948L63.517 131.948C63.1449 131.948 62.8452 132.069 62.6179 132.31C62.3878 132.551 62.2727 132.863 62.2727 133.243C62.2727 133.505 62.3423 133.749 62.4815 133.976C62.6207 134.201 62.8139 134.382 63.0611 134.522C63.3054 134.658 63.5881 134.726 63.9091 134.726L68 134.726L68 135.732ZM68.1364 122.558C68.1364 123.189 67.9972 123.733 67.7187 124.19C67.4375 124.645 67.0455 124.995 66.5426 125.243C66.0369 125.487 65.4489 125.609 64.7784 125.609C64.108 125.609 63.517 125.487 63.0057 125.243C62.4915 124.995 62.0909 124.652 61.804 124.211C61.5142 123.768 61.3693 123.251 61.3693 122.66C61.3693 122.319 61.4261 121.983 61.5398 121.65C61.6534 121.318 61.8381 121.015 62.0937 120.743C62.3466 120.47 62.6818 120.252 63.0994 120.091C63.517 119.929 64.0312 119.848 64.642 119.848L65.0682 119.848L65.0682 124.893L64.1989 124.893L64.1989 120.87C63.8295 120.87 63.5 120.944 63.2102 121.092C62.9205 121.237 62.6918 121.444 62.5241 121.714C62.3565 121.981 62.2727 122.297 62.2727 122.66C62.2727 123.061 62.3722 123.407 62.571 123.7C62.767 123.99 63.0227 124.213 63.3381 124.369C63.6534 124.525 63.9915 124.603 64.3523 124.603L64.9318 124.603C65.4261 124.603 65.8452 124.518 66.1889 124.348C66.5298 124.174 66.7898 123.934 66.9687 123.627C67.1449 123.321 67.233 122.964 67.233 122.558C67.233 122.294 67.196 122.055 67.1222 121.842C67.0455 121.626 66.9318 121.44 66.7812 121.284C66.6278 121.127 66.4375 121.007 66.2102 120.922L66.483 119.95C66.8125 120.052 67.1023 120.224 67.3523 120.466C67.5994 120.707 67.7926 121.005 67.9318 121.36C68.0682 121.716 68.1364 122.115 68.1364 122.558ZM61.4545 115.471L62.3068 115.471L62.3068 118.863L61.4545 118.863L61.4545 115.471ZM59.8864 117.875L59.8864 116.869L66.125 116.869C66.4091 116.869 66.6222 116.828 66.7642 116.745C66.9034 116.66 66.9972 116.552 67.0455 116.422C67.0909 116.288 67.1136 116.147 67.1136 116C67.1136 115.889 67.108 115.798 67.0966 115.727C67.0824 115.656 67.071 115.599 67.0625 115.556L67.9659 115.352C67.9915 115.42 68.017 115.515 68.0426 115.637C68.071 115.76 68.0852 115.914 68.0852 116.102C68.0852 116.386 68.0241 116.664 67.902 116.937C67.7798 117.207 67.5937 117.431 67.3437 117.61C67.0937 117.787 66.7784 117.875 66.3977 117.875L59.8864 117.875ZM68.1364 111.284C68.1364 111.915 67.9972 112.459 67.7187 112.917C67.4375 113.371 67.0455 113.722 66.5426 113.969C66.0369 114.213 65.4489 114.336 64.7784 114.336C64.108 114.336 63.517 114.213 63.0057 113.969C62.4915 113.722 62.0909 113.378 61.804 112.938C61.5142 112.495 61.3693 111.978 61.3693 111.387C61.3693 111.046 61.4261 110.709 61.5398 110.377C61.6534 110.044 61.8381 109.742 62.0937 109.469C62.3466 109.196 62.6818 108.979 63.0994 108.817C63.517 108.655 64.0312 108.574 64.642 108.574L65.0682 108.574L65.0682 113.62L64.1989 113.62L64.1989 109.597C63.8295 109.597 63.5 109.671 63.2102 109.819C62.9205 109.963 62.6918 110.171 62.5241 110.441C62.3565 110.708 62.2727 111.023 62.2727 111.387C62.2727 111.787 62.3722 112.134 62.571 112.426C62.767 112.716 63.0227 112.939 63.3381 113.096C63.6534 113.252 63.9915 113.33 64.3523 113.33L64.9318 113.33C65.4261 113.33 65.8452 113.245 66.1889 113.074C66.5298 112.901 66.7898 112.661 66.9687 112.354C67.1449 112.047 67.233 111.691 67.233 111.284C67.233 111.02 67.196 110.782 67.1222 110.569C67.0455 110.353 66.9318 110.167 66.7812 110.01C66.6278 109.854 66.4375 109.733 66.2102 109.648L66.483 108.676C66.8125 108.779 67.1023 108.951 67.3523 109.192C67.5994 109.434 67.7926 109.732 67.9318 110.087C68.0682 110.442 68.1364 110.841 68.1364 111.284ZM68 107.044L61.4545 107.044L61.4545 106.073L62.4432 106.073L62.4432 106.005C62.1193 105.885 61.8565 105.669 61.6548 105.357C61.4531 105.044 61.3523 104.692 61.3523 104.3C61.3523 104.226 61.3537 104.134 61.3565 104.023C61.3594 103.912 61.3636 103.828 61.3693 103.772L62.392 103.772C62.3835 103.806 62.3707 103.884 62.3537 104.006C62.3338 104.125 62.3239 104.252 62.3239 104.385C62.3239 104.703 62.3906 104.988 62.5241 105.238C62.6548 105.485 62.8366 105.681 63.0696 105.826C63.2997 105.968 63.5625 106.039 63.8579 106.039L68 106.039L68 107.044ZM63.6364 98.8466C62.5625 98.8466 61.5753 98.7074 60.6747 98.429C59.7713 98.1477 58.9403 97.7472 58.1818 97.2273L58.1818 96.3409C58.4631 96.5455 58.8097 96.7372 59.2216 96.9162C59.6307 97.0923 60.081 97.2472 60.5724 97.3807C61.0611 97.5142 61.5668 97.6193 62.0895 97.696C62.6122 97.7699 63.1278 97.8068 63.6364 97.8068C64.3125 97.8068 64.9986 97.7415 65.6946 97.6108C66.3906 97.4801 67.0369 97.304 67.6335 97.0824C68.2301 96.8608 68.7159 96.6136 69.0909 96.3409L69.0909 97.2273C68.3324 97.7472 67.5028 98.1477 66.6023 98.429C65.6989 98.7074 64.7102 98.8466 63.6364 98.8466ZM66.3636 90.4251L65.9034 90.4251C65.5852 90.4251 65.294 90.3597 65.0298 90.229C64.7628 90.0955 64.5497 89.9023 64.3906 89.6495C64.2287 89.3938 64.1477 89.0842 64.1477 88.7205C64.1477 88.3512 64.2287 88.0415 64.3906 87.7915C64.5497 87.5415 64.7628 87.3526 65.0298 87.2248C65.294 87.0969 65.5852 87.033 65.9034 87.033L66.3636 87.033C66.6818 87.033 66.9744 87.0984 67.2415 87.229C67.5057 87.3569 67.7187 87.5472 67.8807 87.8001C68.0398 88.0501 68.1193 88.3569 68.1193 88.7205C68.1193 89.0898 68.0398 89.4009 67.8807 89.6538C67.7187 89.9066 67.5057 90.0984 67.2415 90.229C66.9744 90.3597 66.6818 90.4251 66.3636 90.4251ZM65.9034 89.5558L66.3636 89.5558C66.6278 89.5558 66.8651 89.4933 67.0753 89.3683C67.2827 89.2433 67.3864 89.0273 67.3864 88.7205C67.3864 88.4222 67.2827 88.212 67.0753 88.0898C66.8651 87.9648 66.6278 87.9023 66.3636 87.9023L65.9034 87.9023C65.6392 87.9023 65.4034 87.962 65.196 88.0813C64.9858 88.2006 64.8807 88.4137 64.8807 88.7205C64.8807 89.0188 64.9858 89.2333 65.196 89.364C65.4034 89.4918 65.6392 89.5558 65.9034 89.5558ZM61.3693 94.7717L60.9091 94.7717C60.5909 94.7717 60.2997 94.7063 60.0355 94.5756C59.7685 94.4421 59.5554 94.2489 59.3963 93.9961C59.2344 93.7404 59.1534 93.4308 59.1534 93.0671C59.1534 92.6978 59.2344 92.3881 59.3963 92.1381C59.5554 91.8881 59.7685 91.6992 60.0355 91.5714C60.2997 91.4435 60.5909 91.3796 60.9091 91.3796L61.3693 91.3796C61.6875 91.3796 61.9801 91.445 62.2472 91.5756C62.5114 91.7035 62.7244 91.8938 62.8864 92.1467C63.0454 92.3967 63.125 92.7035 63.125 93.0671C63.125 93.4364 63.0454 93.7475 62.8864 94.0004C62.7244 94.2532 62.5114 94.445 62.2472 94.5756C61.9801 94.7063 61.6875 94.7717 61.3693 94.7717ZM60.9091 93.9023L61.3693 93.9023C61.6335 93.9023 61.8707 93.8398 62.081 93.7148C62.2883 93.5898 62.392 93.3739 62.392 93.0671C62.392 92.7688 62.2883 92.5586 62.081 92.4364C61.8707 92.3114 61.6335 92.2489 61.3693 92.2489L60.9091 92.2489C60.6449 92.2489 60.4091 92.3086 60.2017 92.4279C59.9915 92.5472 59.8864 92.7603 59.8864 93.0671C59.8864 93.3654 59.9915 93.5799 60.2017 93.7106C60.4091 93.8384 60.6449 93.9023 60.9091 93.9023ZM68 94.4478L59.2727 88.4478L59.2727 87.4762L68 93.4762L68 94.4478ZM68.1364 79.0728C68.1364 79.6637 67.9957 80.1822 67.7145 80.6282C67.4332 81.0714 67.0398 81.418 66.5341 81.668C66.0284 81.9151 65.4375 82.0387 64.7614 82.0387C64.0795 82.0387 63.4844 81.9151 62.9758 81.668C62.4673 81.418 62.0724 81.0714 61.7912 80.6282C61.5099 80.1822 61.3693 79.6637 61.3693 79.0728C61.3693 78.4819 61.5099 77.9648 61.7912 77.5217C62.0724 77.0756 62.4673 76.729 62.9758 76.4819C63.4844 76.2319 64.0795 76.1069 64.7614 76.1069C65.4375 76.1069 66.0284 76.2319 66.5341 76.4819C67.0398 76.729 67.4332 77.0756 67.7145 77.5217C67.9957 77.9648 68.1364 78.4819 68.1364 79.0728ZM67.2329 79.0728C67.2329 78.6239 67.1179 78.2546 66.8878 77.9648C66.6577 77.6751 66.3551 77.4606 65.9801 77.3214C65.6051 77.1822 65.1989 77.1126 64.7614 77.1126C64.3239 77.1126 63.9162 77.1822 63.5383 77.3214C63.1605 77.4606 62.8551 77.6751 62.6222 77.9648C62.3892 78.2546 62.2727 78.6239 62.2727 79.0728C62.2727 79.5217 62.3892 79.891 62.6222 80.1808C62.8551 80.4705 63.1605 80.685 63.5383 80.8242C63.9162 80.9634 64.3239 81.033 64.7614 81.033C65.1989 81.033 65.6051 80.9634 65.9801 80.8242C66.3551 80.685 66.6577 80.4705 66.8878 80.1808C67.1179 79.891 67.2329 79.5217 67.2329 79.0728ZM61.4545 71.657L62.3068 71.657L62.3068 75.1854L61.4545 75.1854L61.4545 71.657ZM68 74.1286L60.5511 74.1286C60.1761 74.1286 59.8636 74.0405 59.6136 73.8643C59.3636 73.6882 59.1761 73.4595 59.0511 73.1783C58.9261 72.897 58.8636 72.6001 58.8636 72.2876C58.8636 72.0405 58.8835 71.8388 58.9233 71.6825C58.9631 71.5263 59 71.4098 59.0341 71.3331L59.9034 71.6229C59.8864 71.674 59.8651 71.745 59.8395 71.8359C59.8139 71.924 59.8011 72.0405 59.8011 72.1854C59.8011 72.5178 59.8849 72.7578 60.0526 72.9055C60.2202 73.0504 60.4659 73.1229 60.7898 73.1229L68 73.1229L68 74.1286ZM68.1364 64.4009C68.1364 64.9464 67.9986 65.4279 67.723 65.8455C67.4446 66.2631 67.0526 66.5898 66.5469 66.8256C66.0383 67.0614 65.4375 67.1793 64.7443 67.1793C64.0568 67.1793 63.4602 67.0614 62.9545 66.8256C62.4489 66.5898 62.0582 66.2617 61.7827 65.8413C61.5071 65.4208 61.3693 64.935 61.3693 64.3839C61.3693 63.9577 61.4403 63.6211 61.5824 63.3739C61.7216 63.1239 61.8807 62.9336 62.0597 62.8029C62.2358 62.6694 62.3807 62.5657 62.4943 62.4918L62.4943 62.4066L59.2727 62.4066L59.2727 61.4009L68 61.4009L68 62.3725L66.9943 62.3725L66.9943 62.4918C67.1136 62.5657 67.2642 62.6708 67.446 62.8072C67.625 62.9435 67.7855 63.1381 67.9276 63.391C68.0668 63.6438 68.1364 63.9805 68.1364 64.4009ZM67.2329 64.2646C67.2329 63.8611 67.1278 63.5202 66.9176 63.2418C66.7045 62.9634 66.4105 62.7518 66.0355 62.6069C65.6577 62.462 65.2216 62.3896 64.7273 62.3896C64.2386 62.3896 63.8111 62.4606 63.4446 62.6026C63.0753 62.7447 62.7883 62.9549 62.5838 63.2333C62.3764 63.5117 62.2727 63.8555 62.2727 64.2646C62.2727 64.6907 62.3821 65.0458 62.6008 65.3299C62.8168 65.6112 63.1108 65.8228 63.4829 65.9648C63.8523 66.104 64.267 66.1737 64.7273 66.1737C65.1932 66.1737 65.6165 66.1026 65.9972 65.9606C66.375 65.8157 66.6761 65.6026 66.9006 65.3214C67.1222 65.0373 67.2329 64.685 67.2329 64.2646ZM68.1534 57.4933C68.1534 57.908 68.0753 58.2844 67.919 58.6225C67.7599 58.9606 67.5312 59.229 67.2329 59.4279C66.9318 59.6268 66.5682 59.7262 66.142 59.7262C65.767 59.7262 65.4631 59.6523 65.2301 59.5046C64.9943 59.3569 64.8097 59.1594 64.6761 58.9123C64.5426 58.6651 64.4432 58.3924 64.3778 58.0941C64.3097 57.793 64.2557 57.4904 64.2159 57.1864C64.1648 56.7887 64.1264 56.4663 64.1008 56.2191C64.0724 55.9691 64.0256 55.7873 63.9602 55.6737C63.8949 55.5572 63.7812 55.4989 63.6193 55.4989L63.5852 55.4989C63.1648 55.4989 62.8381 55.614 62.6051 55.8441C62.3722 56.0714 62.2557 56.4165 62.2557 56.8796C62.2557 57.3597 62.3608 57.7362 62.571 58.0089C62.7812 58.2816 63.0057 58.4734 63.2443 58.5842L62.9034 59.5387C62.5057 59.3683 62.196 59.141 61.9744 58.8569C61.75 58.57 61.5937 58.2575 61.5057 57.9194C61.4148 57.5785 61.3693 57.2433 61.3693 56.9137C61.3693 56.7035 61.3949 56.462 61.446 56.1893C61.4943 55.9137 61.5952 55.6481 61.7486 55.3924C61.902 55.1339 62.1335 54.9194 62.4432 54.7489C62.7528 54.5785 63.1676 54.4933 63.6875 54.4933L68 54.4933L68 55.4989L67.1136 55.4989L67.1136 55.5501C67.2557 55.6183 67.4077 55.7319 67.5696 55.891C67.7315 56.0501 67.8693 56.2617 67.9829 56.5259C68.0966 56.7901 68.1534 57.1126 68.1534 57.4933ZM67.25 57.3398C67.25 56.9421 67.1719 56.6069 67.0156 56.3342C66.8594 56.0586 66.6577 55.8512 66.4105 55.712C66.1633 55.57 65.9034 55.4989 65.6307 55.4989L64.7102 55.4989C64.7614 55.5415 64.8082 55.6353 64.8508 55.7802C64.8906 55.9222 64.9261 56.087 64.9574 56.2745C64.9858 56.4592 65.0114 56.6396 65.0341 56.8157C65.054 56.989 65.071 57.1296 65.0852 57.2376C65.1193 57.4989 65.1747 57.7433 65.2514 57.9705C65.3253 58.195 65.4375 58.3768 65.5881 58.516C65.7358 58.6523 65.9375 58.7205 66.1932 58.7205C66.5426 58.7205 66.8068 58.5913 66.9858 58.3327C67.1619 58.0714 67.25 57.7404 67.25 57.3398ZM70.4545 52.2443C70.4545 52.4148 70.4403 52.5668 70.4119 52.7003C70.3864 52.8338 70.3608 52.9261 70.3352 52.9773L69.4489 52.7216C69.5114 52.4773 69.5341 52.2614 69.517 52.0739C69.5 51.8864 69.4162 51.7202 69.2656 51.5753C69.1179 51.4276 68.8778 51.2926 68.5454 51.1705L68.0341 50.983L61.4545 53.4034L61.4545 52.3125L66.6704 50.5057L66.6704 50.4375L61.4545 48.6307L61.4545 47.5398L68.9545 50.3182C69.2926 50.4432 69.5724 50.598 69.794 50.7827C70.0185 50.9673 70.1847 51.1818 70.2926 51.4261C70.4006 51.6676 70.4545 51.9403 70.4545 52.2443ZM68.1193 40.0078C68.1193 40.6499 67.9446 41.1967 67.5952 41.6484C67.2429 42.1001 66.7329 42.4453 66.0653 42.6839C65.3949 42.9226 64.5852 43.0419 63.6364 43.0419C62.6932 43.0419 61.8878 42.9226 61.2202 42.6839C60.5497 42.4425 60.0383 42.0959 59.6861 41.6442C59.331 41.1896 59.1534 40.6442 59.1534 40.0078C59.1534 39.3714 59.331 38.8274 59.6861 38.3757C60.0383 37.9212 60.5497 37.5746 61.2202 37.3359C61.8878 37.0945 62.6932 36.9737 63.6364 36.9737C64.5852 36.9737 65.3949 37.093 66.0653 37.3317C66.7329 37.5703 67.2429 37.9155 67.5952 38.3672C67.9446 38.8189 68.1193 39.3658 68.1193 40.0078ZM67.1818 40.0078C67.1818 39.3714 66.875 38.8771 66.2614 38.5249C65.6477 38.1726 64.7727 37.9964 63.6364 37.9964C62.8807 37.9964 62.2372 38.0774 61.706 38.2393C61.1747 38.3984 60.7699 38.6286 60.4915 38.9297C60.2131 39.228 60.0739 39.5874 60.0739 40.0078C60.0739 40.6385 60.3849 41.1314 61.0071 41.4865C61.6264 41.8416 62.5028 42.0192 63.6364 42.0192C64.392 42.0192 65.0341 41.9396 65.5625 41.7805C66.0909 41.6214 66.4929 41.3928 66.7685 41.0945C67.044 40.7933 67.1818 40.4311 67.1818 40.0078ZM63.6364 33.1896C64.7102 33.1896 65.6989 33.3303 66.6023 33.6115C67.5028 33.8899 68.3324 34.2891 69.0909 34.8089L69.0909 35.6953C68.8097 35.4908 68.4631 35.3004 68.0511 35.1243C67.642 34.9453 67.1932 34.7891 66.7045 34.6555C66.2131 34.522 65.706 34.4183 65.1832 34.3445C64.6577 34.2678 64.142 34.2294 63.6364 34.2294C62.9602 34.2294 62.2741 34.2947 61.5781 34.4254C60.8821 34.5561 60.2358 34.7322 59.6392 34.9538C59.0426 35.1754 58.5568 35.4226 58.1818 35.6953L58.1818 34.8089C58.9403 34.2891 59.7713 33.8899 60.6747 33.6115C61.5753 33.3303 62.5625 33.1896 63.6364 33.1896Z" fill="black"/>
<rect x="143" y="221.208" width="11.6326" height="11.6326" rx="5.81629" fill="#D9D9D9"/>
<path d="M164.351 230V223.666H166.396C166.891 223.666 167.295 223.748 167.609 223.91C167.922 224.073 168.155 224.296 168.305 224.58C168.456 224.864 168.532 225.177 168.532 225.521C168.532 225.919 168.423 226.278 168.206 226.598C167.995 226.918 167.663 227.144 167.211 227.276L168.595 230H167.699L166.414 227.385H166.36H165.111V230H164.351ZM165.111 226.788H166.342C166.83 226.788 167.186 226.67 167.41 226.435C167.633 226.2 167.744 225.898 167.744 225.53C167.744 225.156 167.633 224.86 167.41 224.643C167.192 224.42 166.834 224.309 166.333 224.309H165.111V226.788ZM171.22 230.109C170.846 230.109 170.535 230.045 170.288 229.919C170.041 229.792 169.857 229.623 169.736 229.412C169.615 229.201 169.555 228.971 169.555 228.724C169.555 228.266 169.73 227.913 170.08 227.666C170.43 227.418 170.906 227.295 171.509 227.295H172.722V227.24C172.722 226.848 172.619 226.553 172.414 226.353C172.209 226.148 171.935 226.046 171.591 226.046C171.295 226.046 171.039 226.121 170.822 226.272C170.611 226.417 170.478 226.631 170.424 226.914H169.645C169.676 226.589 169.784 226.314 169.971 226.091C170.164 225.868 170.403 225.699 170.686 225.584C170.97 225.464 171.271 225.403 171.591 225.403C172.218 225.403 172.689 225.572 173.002 225.91C173.322 226.242 173.482 226.685 173.482 227.24V230H172.803L172.758 229.195C172.631 229.448 172.444 229.665 172.197 229.846C171.956 230.021 171.63 230.109 171.22 230.109ZM171.338 229.466C171.627 229.466 171.874 229.391 172.079 229.24C172.291 229.089 172.45 228.893 172.559 228.652C172.668 228.41 172.722 228.157 172.722 227.892V227.883H171.573C171.126 227.883 170.81 227.961 170.623 228.118C170.442 228.269 170.351 228.459 170.351 228.688C170.351 228.923 170.436 229.113 170.605 229.258C170.78 229.397 171.024 229.466 171.338 229.466Z" fill="black"/>
<rect x="249.031" y="221.208" width="11.6326" height="11.6326" rx="5.81629" fill="#9D9D9D"/>
<path d="M270.382 230V223.666H272.427C272.922 223.666 273.326 223.748 273.64 223.91C273.954 224.073 274.186 224.296 274.337 224.58C274.487 224.864 274.563 225.177 274.563 225.521C274.563 225.919 274.454 226.278 274.237 226.598C274.026 226.918 273.694 227.144 273.242 227.276L274.626 230H273.73L272.446 227.385H272.391H271.143V230H270.382ZM271.143 226.788H272.373C272.862 226.788 273.218 226.67 273.441 226.435C273.664 226.2 273.776 225.898 273.776 225.53C273.776 225.156 273.664 224.86 273.441 224.643C273.224 224.42 272.865 224.309 272.364 224.309H271.143V226.788ZM275.574 230V229.376L278.072 226.145H275.619V225.512H278.922V226.136L276.425 229.367H278.967V230H275.574Z" fill="black"/>
<rect x="346.035" y="221.184" width="11.6326" height="11.6326" rx="5.81629" fill="#E3C84C"/>
<path d="M367.386 230V223.666H369.431C369.926 223.666 370.33 223.748 370.644 223.91C370.957 224.073 371.19 224.296 371.341 224.58C371.491 224.864 371.567 225.177 371.567 225.521C371.567 225.919 371.458 226.278 371.241 226.598C371.03 226.918 370.698 227.144 370.246 227.276L371.63 230H370.734L369.449 227.385H369.395H368.146V230H367.386ZM368.146 226.788H369.377C369.866 226.788 370.222 226.67 370.445 226.435C370.668 226.2 370.78 225.898 370.78 225.53C370.78 225.156 370.668 224.86 370.445 224.643C370.228 224.42 369.869 224.309 369.368 224.309H368.146V226.788ZM374.659 230C374.249 230 373.926 229.9 373.691 229.701C373.456 229.502 373.338 229.143 373.338 228.625V226.154H372.56V225.512H373.338L373.438 224.435H374.098V225.512H375.419V226.154H374.098V228.625C374.098 228.908 374.156 229.101 374.27 229.204C374.385 229.3 374.587 229.349 374.876 229.349H375.347V230H374.659Z" fill="black"/>
</svg>
