<svg width="617" height="228" viewBox="0 0 617 228" fill="none" xmlns="http://www.w3.org/2000/svg">
<rect width="617" height="228" fill="white"/>
<rect width="29.1821" height="1" rx="0.5" transform="matrix(1 0 0 -1 287 27)" fill="#D9D9D9"/>
<rect x="143" y="26" width="29.1821" height="1" rx="0.5" fill="#D9D9D9"/>
<rect width="29.1821" height="15" rx="4.52421" transform="matrix(1 0 0 -1 322 41)" fill="#9D9D9D"/>
<rect width="29.1821" height="48" rx="4.52421" transform="matrix(1 0 0 -1 178.182 74)" fill="#9D9D9D"/>
<rect width="29.1821" height="151" rx="4.52421" transform="matrix(1 0 0 -1 357.363 177)" fill="#E3C84C"/>
<rect width="29.1821" height="15" rx="4.52421" transform="matrix(1 0 0 -1 213.363 41)" fill="#E3C84C"/>
<rect width="29.1821" height="132" rx="4.52421" transform="matrix(1 0 0 -1 430.719 158)" fill="#D9D9D9"/>
<rect width="29.1821" height="132" rx="4.52421" transform="matrix(1 0 0 -1 465.9 158)" fill="#9D9D9D"/>
<rect width="29.1821" height="117" rx="4.52421" transform="matrix(1 0 0 -1 501.082 143)" fill="#E3C84C"/>
<line x1="136" y1="25.6768" x2="538" y2="25.6765" stroke="black" stroke-width="0.646316"/>
<path d="M105.232 31.1028C104.678 31.1028 104.207 30.9523 103.818 30.6511C103.429 30.3476 103.131 29.9081 102.925 29.3328C102.72 28.755 102.617 28.0573 102.617 27.2396C102.617 26.4268 102.72 25.7328 102.925 25.1575C103.134 24.5797 103.432 24.139 103.821 23.8354C104.213 23.5294 104.683 23.3764 105.232 23.3764C105.78 23.3764 106.249 23.5294 106.638 23.8354C107.03 24.139 107.328 24.5797 107.534 25.1575C107.742 25.7328 107.846 26.4268 107.846 27.2396C107.846 28.0573 107.743 28.755 107.538 29.3328C107.332 29.9081 107.035 30.3476 106.645 30.6511C106.256 30.9523 105.785 31.1028 105.232 31.1028ZM105.232 30.2949C105.78 30.2949 106.206 30.0305 106.51 29.5017C106.813 28.9729 106.965 28.2189 106.965 27.2396C106.965 26.5884 106.895 26.0339 106.756 25.5761C106.618 25.1183 106.42 24.7694 106.161 24.5295C105.904 24.2896 105.594 24.1696 105.232 24.1696C104.688 24.1696 104.263 24.4377 103.957 24.9738C103.651 25.5075 103.498 26.2628 103.498 27.2396C103.498 27.8908 103.567 28.4441 103.704 28.8995C103.841 29.3548 104.038 29.7012 104.295 29.9387C104.555 30.1762 104.867 30.2949 105.232 30.2949ZM113.076 29.5899V29.1933C113.076 28.9191 113.132 28.6681 113.244 28.4404C113.359 28.2103 113.526 28.0267 113.744 27.8896C113.964 27.7501 114.231 27.6803 114.544 27.6803C114.863 27.6803 115.13 27.7501 115.345 27.8896C115.56 28.0267 115.723 28.2103 115.833 28.4404C115.944 28.6681 115.999 28.9191 115.999 29.1933V29.5899C115.999 29.8641 115.942 30.1162 115.83 30.3463C115.72 30.574 115.555 30.7576 115.338 30.8972C115.122 31.0343 114.858 31.1028 114.544 31.1028C114.226 31.1028 113.958 31.0343 113.74 30.8972C113.522 30.7576 113.357 30.574 113.244 30.3463C113.132 30.1162 113.076 29.8641 113.076 29.5899ZM113.825 29.1933V29.5899C113.825 29.8175 113.879 30.022 113.986 30.2031C114.094 30.3818 114.28 30.4712 114.544 30.4712C114.801 30.4712 114.983 30.3818 115.088 30.2031C115.196 30.022 115.249 29.8175 115.249 29.5899V29.1933C115.249 28.9656 115.198 28.7624 115.095 28.5837C114.992 28.4025 114.809 28.3119 114.544 28.3119C114.287 28.3119 114.103 28.4025 113.99 28.5837C113.88 28.7624 113.825 28.9656 113.825 29.1933ZM109.33 25.286V24.8894C109.33 24.6152 109.386 24.3642 109.499 24.1366C109.614 23.9064 109.78 23.7228 109.998 23.5857C110.218 23.4462 110.485 23.3764 110.799 23.3764C111.117 23.3764 111.384 23.4462 111.599 23.5857C111.815 23.7228 111.978 23.9064 112.088 24.1366C112.198 24.3642 112.253 24.6152 112.253 24.8894V25.286C112.253 25.5602 112.197 25.8123 112.084 26.0425C111.974 26.2701 111.81 26.4538 111.592 26.5933C111.376 26.7304 111.112 26.7989 110.799 26.7989C110.48 26.7989 110.212 26.7304 109.994 26.5933C109.777 26.4538 109.611 26.2701 109.499 26.0425C109.386 25.8123 109.33 25.5602 109.33 25.286ZM110.079 24.8894V25.286C110.079 25.5137 110.133 25.7181 110.241 25.8992C110.348 26.078 110.534 26.1673 110.799 26.1673C111.056 26.1673 111.237 26.078 111.342 25.8992C111.45 25.7181 111.504 25.5137 111.504 25.286V24.8894C111.504 24.6617 111.452 24.4585 111.35 24.2798C111.247 24.0986 111.063 24.008 110.799 24.008C110.542 24.008 110.357 24.0986 110.244 24.2798C110.134 24.4585 110.079 24.6617 110.079 24.8894ZM109.609 31L114.779 23.4792H115.617L110.446 31H109.609Z" fill="black"/>
<path d="M101.025 59.8357V60.6436H97.7344V59.8357H101.025ZM102.182 64V63.339L104.664 60.6215C104.955 60.3033 105.195 60.0266 105.384 59.7916C105.572 59.5541 105.712 59.3313 105.802 59.1233C105.895 58.9127 105.942 58.6924 105.942 58.4622C105.942 58.1978 105.878 57.9689 105.751 57.7755C105.626 57.5821 105.455 57.4328 105.237 57.3275C105.019 57.2223 104.774 57.1696 104.502 57.1696C104.214 57.1696 103.961 57.2296 103.746 57.3496C103.533 57.4671 103.368 57.6323 103.25 57.8453C103.135 58.0583 103.078 58.308 103.078 58.5944H102.211C102.211 58.1538 102.313 57.767 102.516 57.434C102.719 57.1011 102.996 56.8416 103.346 56.6555C103.698 56.4694 104.094 56.3764 104.532 56.3764C104.972 56.3764 105.363 56.4694 105.703 56.6555C106.044 56.8416 106.31 57.0925 106.504 57.4083C106.697 57.7241 106.794 58.0754 106.794 58.4622C106.794 58.7389 106.744 59.0094 106.643 59.2738C106.545 59.5358 106.374 59.8283 106.129 60.1515C105.887 60.4722 105.55 60.8639 105.119 61.3266L103.43 63.1333V63.1921H106.926V64H102.182ZM112.277 62.5899V62.1933C112.277 61.9191 112.333 61.6681 112.445 61.4404C112.561 61.2103 112.727 61.0267 112.945 60.8896C113.165 60.7501 113.432 60.6803 113.745 60.6803C114.064 60.6803 114.331 60.7501 114.546 60.8896C114.761 61.0267 114.924 61.2103 115.034 61.4404C115.145 61.6681 115.2 61.9191 115.2 62.1933V62.5899C115.2 62.8641 115.143 63.1162 115.031 63.3463C114.921 63.574 114.757 63.7576 114.539 63.8972C114.323 64.0343 114.059 64.1028 113.745 64.1028C113.427 64.1028 113.159 64.0343 112.941 63.8972C112.723 63.7576 112.558 63.574 112.445 63.3463C112.333 63.1162 112.277 62.8641 112.277 62.5899ZM113.026 62.1933V62.5899C113.026 62.8175 113.08 63.022 113.187 63.2031C113.295 63.3818 113.481 63.4712 113.745 63.4712C114.003 63.4712 114.184 63.3818 114.289 63.2031C114.397 63.022 114.451 62.8175 114.451 62.5899V62.1933C114.451 61.9656 114.399 61.7624 114.296 61.5837C114.193 61.4025 114.01 61.3119 113.745 61.3119C113.488 61.3119 113.304 61.4025 113.191 61.5837C113.081 61.7624 113.026 61.9656 113.026 62.1933ZM108.531 58.286V57.8894C108.531 57.6152 108.587 57.3642 108.7 57.1366C108.815 56.9064 108.981 56.7228 109.199 56.5857C109.42 56.4462 109.686 56.3764 110 56.3764C110.318 56.3764 110.585 56.4462 110.8 56.5857C111.016 56.7228 111.179 56.9064 111.289 57.1366C111.399 57.3642 111.454 57.6152 111.454 57.8894V58.286C111.454 58.5602 111.398 58.8123 111.285 59.0425C111.175 59.2701 111.011 59.4538 110.793 59.5933C110.578 59.7304 110.313 59.7989 110 59.7989C109.682 59.7989 109.413 59.7304 109.196 59.5933C108.978 59.4538 108.812 59.2701 108.7 59.0425C108.587 58.8123 108.531 58.5602 108.531 58.286ZM109.28 57.8894V58.286C109.28 58.5137 109.334 58.7181 109.442 58.8992C109.549 59.078 109.735 59.1673 110 59.1673C110.257 59.1673 110.438 59.078 110.543 58.8992C110.651 58.7181 110.705 58.5137 110.705 58.286V57.8894C110.705 57.6617 110.653 57.4585 110.551 57.2798C110.448 57.0986 110.264 57.008 110 57.008C109.743 57.008 109.558 57.0986 109.445 57.2798C109.335 57.4585 109.28 57.6617 109.28 57.8894ZM108.81 64L113.98 56.4792H114.818L109.647 64H108.81Z" fill="black"/>
<path d="M101.025 92.8357V93.6436H97.7344V92.8357H101.025ZM102.359 95.4577V94.7085L105.664 89.4792H106.207V90.6397H105.84L103.343 94.591V94.6498H107.794V95.4577H102.359ZM105.899 97V95.23V94.8811V89.4792H106.765V97H105.899ZM113.004 95.5899V95.1933C113.004 94.9191 113.06 94.6681 113.173 94.4404C113.288 94.2103 113.454 94.0267 113.672 93.8896C113.892 93.7501 114.159 93.6803 114.473 93.6803C114.791 93.6803 115.058 93.7501 115.273 93.8896C115.489 94.0267 115.651 94.2103 115.762 94.4404C115.872 94.6681 115.927 94.9191 115.927 95.1933V95.5899C115.927 95.8641 115.87 96.1162 115.758 96.3463C115.648 96.574 115.484 96.7576 115.266 96.8972C115.05 97.0343 114.786 97.1028 114.473 97.1028C114.154 97.1028 113.886 97.0343 113.668 96.8972C113.45 96.7576 113.285 96.574 113.173 96.3463C113.06 96.1162 113.004 95.8641 113.004 95.5899ZM113.753 95.1933V95.5899C113.753 95.8175 113.807 96.022 113.914 96.2031C114.022 96.3818 114.208 96.4712 114.473 96.4712C114.73 96.4712 114.911 96.3818 115.016 96.2031C115.124 96.022 115.178 95.8175 115.178 95.5899V95.1933C115.178 94.9656 115.126 94.7624 115.023 94.5837C114.921 94.4025 114.737 94.3119 114.473 94.3119C114.216 94.3119 114.031 94.4025 113.918 94.5837C113.808 94.7624 113.753 94.9656 113.753 95.1933ZM109.258 91.286V90.8894C109.258 90.6152 109.314 90.3642 109.427 90.1366C109.542 89.9064 109.708 89.7228 109.926 89.5857C110.147 89.4462 110.414 89.3764 110.727 89.3764C111.045 89.3764 111.312 89.4462 111.527 89.5857C111.743 89.7228 111.906 89.9064 112.016 90.1366C112.126 90.3642 112.181 90.6152 112.181 90.8894V91.286C112.181 91.5602 112.125 91.8123 112.012 92.0425C111.902 92.2701 111.738 92.4538 111.52 92.5933C111.305 92.7304 111.04 92.7989 110.727 92.7989C110.409 92.7989 110.141 92.7304 109.923 92.5933C109.705 92.4538 109.54 92.2701 109.427 92.0425C109.314 91.8123 109.258 91.5602 109.258 91.286ZM110.007 90.8894V91.286C110.007 91.5137 110.061 91.7181 110.169 91.8992C110.276 92.078 110.462 92.1673 110.727 92.1673C110.984 92.1673 111.165 92.078 111.27 91.8992C111.378 91.7181 111.432 91.5137 111.432 91.286V90.8894C111.432 90.6617 111.381 90.4585 111.278 90.2798C111.175 90.0986 110.991 90.008 110.727 90.008C110.47 90.008 110.285 90.0986 110.172 90.2798C110.062 90.4585 110.007 90.6617 110.007 90.8894ZM109.537 97L114.708 89.4792H115.545L110.374 97H109.537Z" fill="black"/>
<path d="M101.025 125.836V126.644H97.7344V125.836H101.025ZM105.032 130.103C104.724 130.098 104.415 130.039 104.107 129.927C103.798 129.814 103.517 129.624 103.262 129.357C103.007 129.088 102.803 128.725 102.649 128.267C102.495 127.806 102.417 127.229 102.417 126.533C102.417 125.867 102.48 125.277 102.605 124.763C102.73 124.247 102.911 123.812 103.148 123.46C103.386 123.105 103.672 122.835 104.008 122.652C104.345 122.468 104.726 122.376 105.15 122.376C105.571 122.376 105.945 122.461 106.273 122.63C106.604 122.796 106.873 123.029 107.081 123.328C107.289 123.626 107.424 123.97 107.485 124.359H106.589C106.506 124.022 106.344 123.741 106.104 123.518C105.865 123.296 105.546 123.184 105.15 123.184C104.567 123.184 104.108 123.438 103.773 123.944C103.44 124.451 103.272 125.162 103.269 126.078H103.328C103.465 125.87 103.628 125.692 103.817 125.546C104.008 125.396 104.218 125.281 104.448 125.2C104.678 125.12 104.922 125.079 105.179 125.079C105.61 125.079 106.004 125.187 106.361 125.402C106.719 125.615 107.005 125.91 107.221 126.287C107.436 126.662 107.544 127.092 107.544 127.576C107.544 128.041 107.44 128.467 107.232 128.854C107.024 129.239 106.731 129.545 106.354 129.772C105.98 129.998 105.539 130.108 105.032 130.103ZM105.032 129.295C105.341 129.295 105.617 129.218 105.862 129.064C106.109 128.909 106.304 128.702 106.446 128.443C106.59 128.183 106.663 127.895 106.663 127.576C106.663 127.265 106.593 126.983 106.453 126.728C106.316 126.471 106.126 126.267 105.884 126.115C105.644 125.963 105.37 125.887 105.062 125.887C104.829 125.887 104.612 125.934 104.412 126.027C104.211 126.117 104.034 126.242 103.883 126.401C103.733 126.56 103.616 126.743 103.53 126.948C103.444 127.152 103.402 127.366 103.402 127.591C103.402 127.89 103.471 128.169 103.611 128.428C103.753 128.688 103.946 128.897 104.191 129.056C104.438 129.215 104.719 129.295 105.032 129.295ZM112.822 128.59V128.193C112.822 127.919 112.878 127.668 112.991 127.44C113.106 127.21 113.272 127.027 113.49 126.89C113.711 126.75 113.977 126.68 114.291 126.68C114.609 126.68 114.876 126.75 115.091 126.89C115.307 127.027 115.47 127.21 115.58 127.44C115.69 127.668 115.745 127.919 115.745 128.193V128.59C115.745 128.864 115.689 129.116 115.576 129.346C115.466 129.574 115.302 129.758 115.084 129.897C114.869 130.034 114.604 130.103 114.291 130.103C113.973 130.103 113.704 130.034 113.487 129.897C113.269 129.758 113.103 129.574 112.991 129.346C112.878 129.116 112.822 128.864 112.822 128.59ZM113.571 128.193V128.59C113.571 128.818 113.625 129.022 113.733 129.203C113.84 129.382 114.026 129.471 114.291 129.471C114.548 129.471 114.729 129.382 114.834 129.203C114.942 129.022 114.996 128.818 114.996 128.59V128.193C114.996 127.966 114.944 127.762 114.842 127.584C114.739 127.402 114.555 127.312 114.291 127.312C114.034 127.312 113.849 127.402 113.736 127.584C113.626 127.762 113.571 127.966 113.571 128.193ZM109.076 124.286V123.889C109.076 123.615 109.132 123.364 109.245 123.137C109.36 122.906 109.527 122.723 109.745 122.586C109.965 122.446 110.232 122.376 110.545 122.376C110.863 122.376 111.13 122.446 111.346 122.586C111.561 122.723 111.724 122.906 111.834 123.137C111.944 123.364 111.999 123.615 111.999 123.889V124.286C111.999 124.56 111.943 124.812 111.83 125.042C111.72 125.27 111.556 125.454 111.338 125.593C111.123 125.73 110.858 125.799 110.545 125.799C110.227 125.799 109.959 125.73 109.741 125.593C109.523 125.454 109.358 125.27 109.245 125.042C109.132 124.812 109.076 124.56 109.076 124.286ZM109.825 123.889V124.286C109.825 124.514 109.879 124.718 109.987 124.899C110.095 125.078 110.281 125.167 110.545 125.167C110.802 125.167 110.983 125.078 111.089 124.899C111.196 124.718 111.25 124.514 111.25 124.286V123.889C111.25 123.662 111.199 123.458 111.096 123.28C110.993 123.099 110.809 123.008 110.545 123.008C110.288 123.008 110.103 123.099 109.991 123.28C109.88 123.458 109.825 123.662 109.825 123.889ZM109.355 130L114.526 122.479H115.363L110.193 130H109.355Z" fill="black"/>
<path d="M101.025 158.836V159.644H97.7344V158.836H101.025ZM104.944 163.103C104.44 163.103 103.994 163.013 103.607 162.835C103.223 162.654 102.923 162.405 102.708 162.089C102.492 161.771 102.386 161.409 102.388 161.002C102.386 160.684 102.448 160.39 102.575 160.121C102.703 159.849 102.877 159.623 103.097 159.442C103.32 159.258 103.568 159.142 103.842 159.093V159.049C103.482 158.956 103.196 158.754 102.983 158.443C102.77 158.129 102.665 157.773 102.667 157.374C102.665 156.992 102.761 156.651 102.957 156.35C103.153 156.048 103.422 155.811 103.765 155.637C104.11 155.463 104.503 155.376 104.944 155.376C105.38 155.376 105.769 155.463 106.112 155.637C106.455 155.811 106.724 156.048 106.92 156.35C107.118 156.651 107.218 156.992 107.221 157.374C107.218 157.773 107.109 158.129 106.894 158.443C106.681 158.754 106.398 158.956 106.046 159.049V159.093C106.317 159.142 106.562 159.258 106.78 159.442C106.998 159.623 107.172 159.849 107.302 160.121C107.431 160.39 107.497 160.684 107.5 161.002C107.497 161.409 107.387 161.771 107.169 162.089C106.954 162.405 106.654 162.654 106.27 162.835C105.888 163.013 105.446 163.103 104.944 163.103ZM104.944 162.295C105.284 162.295 105.578 162.24 105.825 162.13C106.073 162.02 106.264 161.864 106.398 161.663C106.533 161.463 106.601 161.228 106.604 160.958C106.601 160.674 106.528 160.423 106.384 160.205C106.239 159.988 106.042 159.816 105.792 159.691C105.545 159.566 105.262 159.504 104.944 159.504C104.623 159.504 104.337 159.566 104.085 159.691C103.835 159.816 103.638 159.988 103.493 160.205C103.351 160.423 103.282 160.674 103.284 160.958C103.282 161.228 103.347 161.463 103.479 161.663C103.613 161.864 103.806 162.02 104.055 162.13C104.305 162.24 104.601 162.295 104.944 162.295ZM104.944 158.726C105.213 158.726 105.452 158.672 105.66 158.564C105.871 158.456 106.036 158.306 106.156 158.112C106.276 157.919 106.337 157.692 106.339 157.433C106.337 157.178 106.277 156.957 106.16 156.768C106.042 156.577 105.879 156.43 105.671 156.328C105.463 156.222 105.221 156.17 104.944 156.17C104.662 156.17 104.416 156.222 104.206 156.328C103.995 156.43 103.833 156.577 103.717 156.768C103.602 156.957 103.546 157.178 103.549 157.433C103.546 157.692 103.604 157.919 103.721 158.112C103.841 158.306 104.006 158.456 104.217 158.564C104.427 158.672 104.67 158.726 104.944 158.726ZM112.741 161.59V161.193C112.741 160.919 112.797 160.668 112.91 160.44C113.025 160.21 113.192 160.027 113.409 159.89C113.63 159.75 113.897 159.68 114.21 159.68C114.528 159.68 114.795 159.75 115.011 159.89C115.226 160.027 115.389 160.21 115.499 160.44C115.609 160.668 115.664 160.919 115.664 161.193V161.59C115.664 161.864 115.608 162.116 115.495 162.346C115.385 162.574 115.221 162.758 115.003 162.897C114.788 163.034 114.523 163.103 114.21 163.103C113.892 163.103 113.624 163.034 113.406 162.897C113.188 162.758 113.023 162.574 112.91 162.346C112.797 162.116 112.741 161.864 112.741 161.59ZM113.49 161.193V161.59C113.49 161.818 113.544 162.022 113.652 162.203C113.76 162.382 113.946 162.471 114.21 162.471C114.467 162.471 114.648 162.382 114.753 162.203C114.861 162.022 114.915 161.818 114.915 161.59V161.193C114.915 160.966 114.864 160.762 114.761 160.584C114.658 160.402 114.474 160.312 114.21 160.312C113.953 160.312 113.768 160.402 113.655 160.584C113.545 160.762 113.49 160.966 113.49 161.193ZM108.995 157.286V156.889C108.995 156.615 109.052 156.364 109.164 156.137C109.279 155.906 109.446 155.723 109.664 155.586C109.884 155.446 110.151 155.376 110.464 155.376C110.783 155.376 111.049 155.446 111.265 155.586C111.48 155.723 111.643 155.906 111.753 156.137C111.863 156.364 111.919 156.615 111.919 156.889V157.286C111.919 157.56 111.862 157.812 111.75 158.042C111.639 158.27 111.475 158.454 111.258 158.593C111.042 158.73 110.778 158.799 110.464 158.799C110.146 158.799 109.878 158.73 109.66 158.593C109.442 158.454 109.277 158.27 109.164 158.042C109.052 157.812 108.995 157.56 108.995 157.286ZM109.745 156.889V157.286C109.745 157.514 109.798 157.718 109.906 157.899C110.014 158.078 110.2 158.167 110.464 158.167C110.721 158.167 110.903 158.078 111.008 157.899C111.116 157.718 111.169 157.514 111.169 157.286V156.889C111.169 156.662 111.118 156.458 111.015 156.28C110.912 156.099 110.729 156.008 110.464 156.008C110.207 156.008 110.022 156.099 109.91 156.28C109.8 156.458 109.745 156.662 109.745 156.889ZM109.274 163L114.445 155.479H115.282L110.112 163H109.274Z" fill="black"/>
<path d="M96.0248 191.836V192.644H92.7344V191.836H96.0248ZM100.179 188.479V196H99.2683V189.434H99.2242L97.3881 190.653V189.728L99.2683 188.479H100.179ZM104.795 196.103C104.242 196.103 103.77 195.952 103.381 195.651C102.992 195.348 102.695 194.908 102.489 194.333C102.283 193.755 102.18 193.057 102.18 192.24C102.18 191.427 102.283 190.733 102.489 190.157C102.697 189.58 102.996 189.139 103.385 188.835C103.777 188.529 104.247 188.376 104.795 188.376C105.343 188.376 105.812 188.529 106.202 188.835C106.593 189.139 106.892 189.58 107.098 190.157C107.306 190.733 107.41 191.427 107.41 192.24C107.41 193.057 107.307 193.755 107.101 194.333C106.896 194.908 106.598 195.348 106.209 195.651C105.82 195.952 105.348 196.103 104.795 196.103ZM104.795 195.295C105.343 195.295 105.769 195.031 106.073 194.502C106.377 193.973 106.528 193.219 106.528 192.24C106.528 191.588 106.459 191.034 106.319 190.576C106.182 190.118 105.984 189.769 105.724 189.529C105.467 189.29 105.157 189.17 104.795 189.17C104.252 189.17 103.827 189.438 103.521 189.974C103.215 190.508 103.062 191.263 103.062 192.24C103.062 192.891 103.13 193.444 103.267 193.899C103.404 194.355 103.602 194.701 103.859 194.939C104.118 195.176 104.43 195.295 104.795 195.295ZM112.639 194.59V194.193C112.639 193.919 112.695 193.668 112.808 193.44C112.923 193.21 113.089 193.027 113.307 192.89C113.528 192.75 113.794 192.68 114.108 192.68C114.426 192.68 114.693 192.75 114.908 192.89C115.124 193.027 115.287 193.21 115.397 193.44C115.507 193.668 115.562 193.919 115.562 194.193V194.59C115.562 194.864 115.506 195.116 115.393 195.346C115.283 195.574 115.119 195.758 114.901 195.897C114.686 196.034 114.421 196.103 114.108 196.103C113.79 196.103 113.522 196.034 113.304 195.897C113.086 195.758 112.92 195.574 112.808 195.346C112.695 195.116 112.639 194.864 112.639 194.59ZM113.388 194.193V194.59C113.388 194.818 113.442 195.022 113.55 195.203C113.657 195.382 113.843 195.471 114.108 195.471C114.365 195.471 114.546 195.382 114.651 195.203C114.759 195.022 114.813 194.818 114.813 194.59V194.193C114.813 193.966 114.762 193.762 114.659 193.584C114.556 193.402 114.372 193.312 114.108 193.312C113.851 193.312 113.666 193.402 113.553 193.584C113.443 193.762 113.388 193.966 113.388 194.193ZM108.893 190.286V189.889C108.893 189.615 108.95 189.364 109.062 189.137C109.177 188.906 109.344 188.723 109.562 188.586C109.782 188.446 110.049 188.376 110.362 188.376C110.68 188.376 110.947 188.446 111.163 188.586C111.378 188.723 111.541 188.906 111.651 189.137C111.761 189.364 111.816 189.615 111.816 189.889V190.286C111.816 190.56 111.76 190.812 111.647 191.042C111.537 191.27 111.373 191.454 111.155 191.593C110.94 191.73 110.676 191.799 110.362 191.799C110.044 191.799 109.776 191.73 109.558 191.593C109.34 191.454 109.175 191.27 109.062 191.042C108.95 190.812 108.893 190.56 108.893 190.286ZM109.642 189.889V190.286C109.642 190.514 109.696 190.718 109.804 190.899C109.912 191.078 110.098 191.167 110.362 191.167C110.619 191.167 110.8 191.078 110.906 190.899C111.013 190.718 111.067 190.514 111.067 190.286V189.889C111.067 189.662 111.016 189.458 110.913 189.28C110.81 189.099 110.627 189.008 110.362 189.008C110.105 189.008 109.92 189.099 109.808 189.28C109.697 189.458 109.642 189.662 109.642 189.889ZM109.172 196L114.343 188.479H115.18L110.01 196H109.172Z" fill="black"/>
<path d="M176.797 15V8.41933H179.02C179.537 8.41933 179.959 8.51251 180.286 8.69888C180.616 8.8831 180.861 9.13266 181.019 9.44756C181.178 9.76245 181.257 10.1138 181.257 10.5015C181.257 10.8892 181.178 11.2416 181.019 11.5586C180.863 11.8757 180.621 12.1285 180.293 12.317C179.965 12.5033 179.545 12.5965 179.033 12.5965H177.44V11.8896H179.008C179.361 11.8896 179.645 11.8286 179.859 11.7065C180.073 11.5843 180.229 11.4194 180.325 11.2116C180.424 11.0017 180.473 10.765 180.473 10.5015C180.473 10.238 180.424 10.0024 180.325 9.79459C180.229 9.5868 180.072 9.424 179.856 9.30618C179.64 9.18622 179.352 9.12624 178.995 9.12624H177.594V15H176.797ZM183.377 8.41933V15H182.619V8.41933H183.377ZM186.399 15.1157C186.086 15.1157 185.803 15.0568 185.548 14.9389C185.293 14.819 185.09 14.6465 184.94 14.4216C184.79 14.1946 184.716 13.9204 184.716 13.599C184.716 13.3163 184.771 13.0871 184.883 12.9114C184.994 12.7336 185.143 12.5944 185.329 12.4937C185.516 12.393 185.721 12.318 185.946 12.2688C186.173 12.2174 186.401 12.1767 186.631 12.1467C186.93 12.1081 187.174 12.0792 187.36 12.0599C187.548 12.0385 187.686 12.0031 187.771 11.9539C187.859 11.9046 187.903 11.8189 187.903 11.6968V11.6711C187.903 11.3541 187.816 11.1077 187.643 10.9321C187.471 10.7564 187.211 10.6686 186.862 10.6686C186.5 10.6686 186.216 10.7478 186.01 10.9064C185.805 11.0649 185.66 11.2341 185.577 11.414L184.857 11.157C184.985 10.8571 185.157 10.6236 185.371 10.4565C185.587 10.2873 185.823 10.1695 186.078 10.1031C186.335 10.0345 186.588 10.0002 186.836 10.0002C186.995 10.0002 187.177 10.0195 187.382 10.0581C187.59 10.0945 187.791 10.1705 187.983 10.2862C188.178 10.4019 188.34 10.5765 188.469 10.81C188.597 11.0435 188.661 11.3562 188.661 11.7482V15H187.903V14.3317H187.864C187.813 14.4388 187.727 14.5534 187.607 14.6755C187.487 14.7976 187.328 14.9015 187.129 14.9871C186.929 15.0728 186.686 15.1157 186.399 15.1157ZM186.515 14.4345C186.815 14.4345 187.068 14.3756 187.273 14.2577C187.481 14.1399 187.637 13.9878 187.742 13.8015C187.849 13.6151 187.903 13.4191 187.903 13.2135V12.5194C187.871 12.558 187.8 12.5933 187.691 12.6254C187.584 12.6554 187.46 12.6822 187.318 12.7058C187.179 12.7272 187.043 12.7465 186.91 12.7636C186.779 12.7786 186.673 12.7914 186.592 12.8022C186.395 12.8279 186.211 12.8696 186.039 12.9275C185.87 12.9832 185.733 13.0678 185.628 13.1813C185.525 13.2927 185.474 13.4448 185.474 13.6376C185.474 13.9011 185.571 14.1003 185.766 14.2353C185.963 14.3681 186.213 14.4345 186.515 14.4345ZM192.231 15.1028C191.769 15.1028 191.37 14.9936 191.036 14.7751C190.702 14.5566 190.445 14.2556 190.265 13.8722C190.085 13.4887 189.995 13.0506 189.995 12.558C189.995 12.0567 190.087 11.6143 190.271 11.2309C190.458 10.8453 190.717 10.5443 191.049 10.328C191.383 10.1095 191.773 10.0002 192.219 10.0002C192.566 10.0002 192.878 10.0645 193.157 10.193C193.435 10.3216 193.663 10.5015 193.841 10.7328C194.019 10.9642 194.129 11.2341 194.172 11.5426H193.414C193.356 11.3177 193.228 11.1184 193.028 10.9449C192.831 10.7693 192.566 10.6814 192.231 10.6814C191.936 10.6814 191.677 10.7586 191.454 10.9128C191.233 11.0649 191.061 11.2802 190.937 11.5586C190.814 11.835 190.753 12.1595 190.753 12.5322C190.753 12.9136 190.813 13.2456 190.933 13.5283C191.055 13.8111 191.227 14.0307 191.447 14.1871C191.67 14.3434 191.932 14.4216 192.231 14.4216C192.429 14.4216 192.607 14.3873 192.768 14.3188C192.929 14.2502 193.065 14.1517 193.176 14.0232C193.288 13.8947 193.367 13.7404 193.414 13.5605H194.172C194.129 13.8518 194.023 14.1142 193.854 14.3477C193.687 14.5791 193.465 14.7633 193.189 14.9004C192.915 15.0353 192.596 15.1028 192.231 15.1028ZM197.531 15.1028C197.056 15.1028 196.645 14.9979 196.3 14.7879C195.958 14.5759 195.693 14.2802 195.507 13.9011C195.323 13.5198 195.23 13.0764 195.23 12.5708C195.23 12.0653 195.323 11.6197 195.507 11.2341C195.693 10.8464 195.952 10.5443 196.284 10.328C196.619 10.1095 197.008 10.0002 197.454 10.0002C197.711 10.0002 197.965 10.0431 198.215 10.1288C198.466 10.2144 198.694 10.3537 198.9 10.5465C199.106 10.7371 199.269 10.9899 199.392 11.3048C199.514 11.6197 199.575 12.0074 199.575 12.468V12.7893H195.77V12.1338H198.804C198.804 11.8553 198.748 11.6068 198.636 11.3883C198.527 11.1698 198.371 10.9974 198.167 10.871C197.966 10.7446 197.728 10.6814 197.454 10.6814C197.152 10.6814 196.891 10.7564 196.67 10.9064C196.451 11.0542 196.283 11.247 196.165 11.4847C196.048 11.7225 195.989 11.9774 195.989 12.2495V12.6865C195.989 13.0592 196.053 13.3752 196.182 13.6344C196.312 13.8914 196.493 14.0874 196.725 14.2224C196.956 14.3552 197.225 14.4216 197.531 14.4216C197.73 14.4216 197.91 14.3938 198.071 14.3381C198.234 14.2802 198.374 14.1946 198.492 14.081C198.61 13.9653 198.701 13.8218 198.765 13.6504L199.498 13.8561C199.42 14.1046 199.291 14.3231 199.109 14.5116C198.927 14.698 198.702 14.8436 198.434 14.9486C198.166 15.0514 197.865 15.1028 197.531 15.1028ZM201.012 15V8.41933H201.77V10.8485H201.835C201.89 10.7628 201.967 10.6536 202.066 10.5208C202.167 10.3858 202.31 10.2659 202.497 10.1609C202.685 10.0538 202.94 10.0002 203.261 10.0002C203.677 10.0002 204.043 10.1041 204.36 10.3119C204.677 10.5197 204.925 10.8142 205.102 11.1955C205.28 11.5769 205.369 12.0267 205.369 12.5451C205.369 13.0678 205.28 13.5208 205.102 13.9043C204.925 14.2856 204.678 14.5812 204.363 14.7911C204.049 14.9989 203.685 15.1028 203.274 15.1028C202.957 15.1028 202.703 15.0503 202.513 14.9454C202.322 14.8383 202.175 14.7172 202.072 14.5823C201.97 14.4452 201.89 14.3317 201.835 14.2417H201.745V15H201.012ZM201.757 12.5322C201.757 12.905 201.812 13.2338 201.921 13.5187C202.031 13.8015 202.19 14.0232 202.4 14.1838C202.61 14.3424 202.867 14.4216 203.171 14.4216C203.488 14.4216 203.753 14.3381 203.965 14.171C204.179 14.0018 204.34 13.7747 204.447 13.4898C204.556 13.2027 204.611 12.8836 204.611 12.5322C204.611 12.1852 204.557 11.8725 204.45 11.594C204.345 11.3134 204.186 11.0917 203.971 10.9289C203.759 10.7639 203.493 10.6814 203.171 10.6814C202.863 10.6814 202.604 10.7596 202.394 10.916C202.184 11.0702 202.025 11.2866 201.918 11.5651C201.811 11.8414 201.757 12.1638 201.757 12.5322ZM208.715 15.1028C208.27 15.1028 207.879 14.9968 207.542 14.7847C207.208 14.5726 206.947 14.276 206.758 13.8947C206.572 13.5134 206.479 13.0678 206.479 12.558C206.479 12.0438 206.572 11.5951 206.758 11.2116C206.947 10.8282 207.208 10.5304 207.542 10.3183C207.879 10.1063 208.27 10.0002 208.715 10.0002C209.161 10.0002 209.551 10.1063 209.885 10.3183C210.221 10.5304 210.482 10.8282 210.669 11.2116C210.857 11.5951 210.952 12.0438 210.952 12.558C210.952 13.0678 210.857 13.5134 210.669 13.8947C210.482 14.276 210.221 14.5726 209.885 14.7847C209.551 14.9968 209.161 15.1028 208.715 15.1028ZM208.715 14.4216C209.054 14.4216 209.332 14.3349 209.551 14.1614C209.769 13.9878 209.931 13.7597 210.036 13.4769C210.141 13.1942 210.193 12.8878 210.193 12.558C210.193 12.2281 210.141 11.9207 210.036 11.6358C209.931 11.3509 209.769 11.1206 209.551 10.9449C209.332 10.7693 209.054 10.6814 208.715 10.6814C208.377 10.6814 208.098 10.7693 207.88 10.9449C207.661 11.1206 207.499 11.3509 207.394 11.6358C207.29 11.9207 207.237 12.2281 207.237 12.558C207.237 12.8878 207.29 13.1942 207.394 13.4769C207.499 13.7597 207.661 13.9878 207.88 14.1614C208.098 14.3349 208.377 14.4216 208.715 14.4216ZM275.357 15H274.522L276.938 8.41933H277.761L280.177 15H279.341L277.375 9.46041H277.324L275.357 15ZM275.666 12.4294H279.033V13.1363H275.666V12.4294ZM283.285 15.1028C282.822 15.1028 282.424 14.9936 282.09 14.7751C281.756 14.5566 281.499 14.2556 281.319 13.8722C281.139 13.4887 281.049 13.0506 281.049 12.558C281.049 12.0567 281.141 11.6143 281.325 11.2309C281.511 10.8453 281.771 10.5443 282.103 10.328C282.437 10.1095 282.827 10.0002 283.272 10.0002C283.619 10.0002 283.932 10.0645 284.21 10.193C284.489 10.3216 284.717 10.5015 284.895 10.7328C285.073 10.9642 285.183 11.2341 285.226 11.5426H284.468C284.41 11.3177 284.281 11.1184 284.082 10.9449C283.885 10.7693 283.619 10.6814 283.285 10.6814C282.989 10.6814 282.73 10.7586 282.507 10.9128C282.287 11.0649 282.114 11.2802 281.99 11.5586C281.868 11.835 281.807 12.1595 281.807 12.5322C281.807 12.9136 281.867 13.2456 281.987 13.5283C282.109 13.8111 282.28 14.0307 282.501 14.1871C282.724 14.3434 282.985 14.4216 283.285 14.4216C283.482 14.4216 283.661 14.3873 283.822 14.3188C283.982 14.2502 284.118 14.1517 284.23 14.0232C284.341 13.8947 284.42 13.7404 284.468 13.5605H285.226C285.183 13.8518 285.077 14.1142 284.908 14.3477C284.741 14.5791 284.519 14.7633 284.243 14.9004C283.968 15.0353 283.649 15.1028 283.285 15.1028ZM288.585 15.1028C288.109 15.1028 287.699 14.9979 287.354 14.7879C287.011 14.5759 286.747 14.2802 286.56 13.9011C286.376 13.5198 286.284 13.0764 286.284 12.5708C286.284 12.0653 286.376 11.6197 286.56 11.2341C286.747 10.8464 287.006 10.5443 287.338 10.328C287.672 10.1095 288.062 10.0002 288.508 10.0002C288.765 10.0002 289.018 10.0431 289.269 10.1288C289.52 10.2144 289.748 10.3537 289.954 10.5465C290.159 10.7371 290.323 10.9899 290.445 11.3048C290.567 11.6197 290.628 12.0074 290.628 12.468V12.7893H286.824V12.1338H289.857C289.857 11.8553 289.801 11.6068 289.69 11.3883C289.581 11.1698 289.424 10.9974 289.221 10.871C289.02 10.7446 288.782 10.6814 288.508 10.6814C288.206 10.6814 287.944 10.7564 287.724 10.9064C287.505 11.0542 287.337 11.247 287.219 11.4847C287.101 11.7225 287.042 11.9774 287.042 12.2495V12.6865C287.042 13.0592 287.107 13.3752 287.235 13.6344C287.366 13.8914 287.547 14.0874 287.778 14.2224C288.01 14.3552 288.278 14.4216 288.585 14.4216C288.784 14.4216 288.964 14.3938 289.125 14.3381C289.287 14.2802 289.428 14.1946 289.545 14.081C289.663 13.9653 289.754 13.8218 289.819 13.6504L290.551 13.8561C290.474 14.1046 290.344 14.3231 290.162 14.5116C289.98 14.698 289.755 14.8436 289.488 14.9486C289.22 15.0514 288.919 15.1028 288.585 15.1028ZM294.109 10.0645V10.7071H291.552V10.0645H294.109ZM292.297 8.88203H293.055V13.5862C293.055 13.8004 293.086 13.9611 293.149 14.0682C293.213 14.1731 293.294 14.2438 293.393 14.2802C293.493 14.3145 293.599 14.3317 293.711 14.3317C293.794 14.3317 293.863 14.3274 293.916 14.3188C293.97 14.3081 294.013 14.2995 294.045 14.2931L294.199 14.9743C294.148 14.9936 294.076 15.0129 293.984 15.0321C293.892 15.0536 293.775 15.0643 293.634 15.0643C293.419 15.0643 293.21 15.0182 293.004 14.9261C292.8 14.834 292.631 14.6937 292.496 14.5052C292.363 14.3167 292.297 14.0789 292.297 13.7918V8.88203ZM295.919 16.8508C295.791 16.8508 295.676 16.8401 295.576 16.8187C295.475 16.7994 295.405 16.7801 295.367 16.7608L295.559 16.0925C295.744 16.1396 295.906 16.1568 296.048 16.1439C296.189 16.1311 296.315 16.0679 296.424 15.9543C296.535 15.8429 296.637 15.6619 296.729 15.4113L296.87 15.0257L295.045 10.0645H295.868L297.23 13.9975H297.282L298.644 10.0645H299.467L297.372 15.7198C297.277 15.9747 297.161 16.1857 297.021 16.3528C296.882 16.522 296.72 16.6473 296.536 16.7287C296.354 16.8101 296.149 16.8508 295.919 16.8508ZM301.407 8.41933V15H300.649V8.41933H301.407ZM306.461 12.031V15H305.703V8.41933H306.461V10.8357H306.525C306.641 10.5808 306.814 10.3783 307.046 10.2284C307.279 10.0763 307.59 10.0002 307.978 10.0002C308.314 10.0002 308.608 10.0677 308.861 10.2027C309.114 10.3355 309.31 10.5401 309.449 10.8164C309.591 11.0906 309.661 11.4398 309.661 11.8639V15H308.903V11.9153C308.903 11.5233 308.801 11.2202 308.598 11.006C308.396 10.7896 308.117 10.6814 307.759 10.6814C307.511 10.6814 307.288 10.7339 307.091 10.8389C306.896 10.9438 306.742 11.097 306.628 11.2984C306.517 11.4997 306.461 11.7439 306.461 12.031ZM313.299 15.1028C312.823 15.1028 312.413 14.9979 312.068 14.7879C311.725 14.5759 311.461 14.2802 311.275 13.9011C311.09 13.5198 310.998 13.0764 310.998 12.5708C310.998 12.0653 311.09 11.6197 311.275 11.2341C311.461 10.8464 311.72 10.5443 312.052 10.328C312.386 10.1095 312.776 10.0002 313.222 10.0002C313.479 10.0002 313.733 10.0431 313.983 10.1288C314.234 10.2144 314.462 10.3537 314.668 10.5465C314.873 10.7371 315.037 10.9899 315.159 11.3048C315.281 11.6197 315.343 12.0074 315.343 12.468V12.7893H311.538V12.1338H314.571C314.571 11.8553 314.516 11.6068 314.404 11.3883C314.295 11.1698 314.139 10.9974 313.935 10.871C313.734 10.7446 313.496 10.6814 313.222 10.6814C312.92 10.6814 312.658 10.7564 312.438 10.9064C312.219 11.0542 312.051 11.247 311.933 11.4847C311.815 11.7225 311.757 11.9774 311.757 12.2495V12.6865C311.757 13.0592 311.821 13.3752 311.949 13.6344C312.08 13.8914 312.261 14.0874 312.492 14.2224C312.724 14.3552 312.993 14.4216 313.299 14.4216C313.498 14.4216 313.678 14.3938 313.839 14.3381C314.002 14.2802 314.142 14.1946 314.26 14.081C314.377 13.9653 314.469 13.8218 314.533 13.6504L315.265 13.8561C315.188 14.1046 315.059 14.3231 314.877 14.5116C314.695 14.698 314.47 14.8436 314.202 14.9486C313.934 15.0514 313.633 15.1028 313.299 15.1028ZM317.11 10.0645L318.292 12.0824L319.475 10.0645H320.349L318.755 12.5322L320.349 15H319.475L318.292 13.0849L317.11 15H316.236L317.804 12.5322L316.236 10.0645H317.11ZM323.064 15.1157C322.752 15.1157 322.468 15.0568 322.213 14.9389C321.958 14.819 321.755 14.6465 321.606 14.4216C321.456 14.1946 321.381 13.9204 321.381 13.599C321.381 13.3163 321.436 13.0871 321.548 12.9114C321.659 12.7336 321.808 12.5944 321.994 12.4937C322.181 12.393 322.386 12.318 322.611 12.2688C322.838 12.2174 323.066 12.1767 323.296 12.1467C323.596 12.1081 323.839 12.0792 324.025 12.0599C324.214 12.0385 324.351 12.0031 324.436 11.9539C324.524 11.9046 324.568 11.8189 324.568 11.6968V11.6711C324.568 11.3541 324.481 11.1077 324.308 10.9321C324.136 10.7564 323.876 10.6686 323.527 10.6686C323.165 10.6686 322.881 10.7478 322.676 10.9064C322.47 11.0649 322.325 11.2341 322.242 11.414L321.522 11.157C321.651 10.8571 321.822 10.6236 322.036 10.4565C322.252 10.2873 322.488 10.1695 322.743 10.1031C323 10.0345 323.253 10.0002 323.501 10.0002C323.66 10.0002 323.842 10.0195 324.048 10.0581C324.255 10.0945 324.456 10.1705 324.648 10.2862C324.843 10.4019 325.005 10.5765 325.134 10.81C325.262 11.0435 325.326 11.3562 325.326 11.7482V15H324.568V14.3317H324.53C324.478 14.4388 324.392 14.5534 324.273 14.6755C324.153 14.7976 323.993 14.9015 323.794 14.9871C323.595 15.0728 323.351 15.1157 323.064 15.1157ZM323.18 14.4345C323.48 14.4345 323.733 14.3756 323.938 14.2577C324.146 14.1399 324.302 13.9878 324.407 13.8015C324.515 13.6151 324.568 13.4191 324.568 13.2135V12.5194C324.536 12.558 324.465 12.5933 324.356 12.6254C324.249 12.6554 324.125 12.6822 323.983 12.7058C323.844 12.7272 323.708 12.7465 323.575 12.7636C323.445 12.7786 323.339 12.7914 323.257 12.8022C323.06 12.8279 322.876 12.8696 322.704 12.9275C322.535 12.9832 322.398 13.0678 322.293 13.1813C322.19 13.2927 322.139 13.4448 322.139 13.6376C322.139 13.9011 322.236 14.1003 322.431 14.2353C322.628 14.3681 322.878 14.4345 323.18 14.4345ZM326.892 16.8508V10.0645H327.624V10.8485H327.714C327.77 10.7628 327.847 10.6536 327.945 10.5208C328.046 10.3858 328.19 10.2659 328.376 10.1609C328.565 10.0538 328.819 10.0002 329.141 10.0002C329.556 10.0002 329.923 10.1041 330.24 10.3119C330.557 10.5197 330.804 10.8142 330.982 11.1955C331.16 11.5769 331.249 12.0267 331.249 12.5451C331.249 13.0678 331.16 13.5208 330.982 13.9043C330.804 14.2856 330.558 14.5812 330.243 14.7911C329.928 14.9989 329.565 15.1028 329.154 15.1028C328.837 15.1028 328.583 15.0503 328.392 14.9454C328.201 14.8383 328.055 14.7172 327.952 14.5823C327.849 14.4452 327.77 14.3317 327.714 14.2417H327.65V16.8508H326.892ZM327.637 12.5322C327.637 12.905 327.692 13.2338 327.801 13.5187C327.91 13.8015 328.07 14.0232 328.28 14.1838C328.49 14.3424 328.747 14.4216 329.051 14.4216C329.368 14.4216 329.632 14.3381 329.844 14.171C330.059 14.0018 330.219 13.7747 330.326 13.4898C330.436 13.2027 330.49 12.8836 330.49 12.5322C330.49 12.1852 330.437 11.8725 330.33 11.594C330.225 11.3134 330.065 11.0917 329.851 10.9289C329.639 10.7639 329.372 10.6814 329.051 10.6814C328.742 10.6814 328.483 10.7596 328.273 10.916C328.063 11.0702 327.905 11.2866 327.798 11.5651C327.691 11.8414 327.637 12.1638 327.637 12.5322ZM334.656 15.1028C334.18 15.1028 333.77 14.9979 333.425 14.7879C333.082 14.5759 332.818 14.2802 332.631 13.9011C332.447 13.5198 332.355 13.0764 332.355 12.5708C332.355 12.0653 332.447 11.6197 332.631 11.2341C332.818 10.8464 333.077 10.5443 333.409 10.328C333.743 10.1095 334.133 10.0002 334.579 10.0002C334.836 10.0002 335.089 10.0431 335.34 10.1288C335.591 10.2144 335.819 10.3537 336.024 10.5465C336.23 10.7371 336.394 10.9899 336.516 11.3048C336.638 11.6197 336.699 12.0074 336.699 12.468V12.7893H332.895V12.1338H335.928C335.928 11.8553 335.872 11.6068 335.761 11.3883C335.652 11.1698 335.495 10.9974 335.292 10.871C335.091 10.7446 334.853 10.6814 334.579 10.6814C334.276 10.6814 334.015 10.7564 333.795 10.9064C333.576 11.0542 333.408 11.247 333.29 11.4847C333.172 11.7225 333.113 11.9774 333.113 12.2495V12.6865C333.113 13.0592 333.178 13.3752 333.306 13.6344C333.437 13.8914 333.618 14.0874 333.849 14.2224C334.08 14.3552 334.349 14.4216 334.656 14.4216C334.855 14.4216 335.035 14.3938 335.195 14.3381C335.358 14.2802 335.499 14.1946 335.616 14.081C335.734 13.9653 335.825 13.8218 335.89 13.6504L336.622 13.8561C336.545 14.1046 336.415 14.3231 336.233 14.5116C336.051 14.698 335.826 14.8436 335.559 14.9486C335.291 15.0514 334.99 15.1028 334.656 15.1028ZM338.034 16.8508V10.0645H338.766V10.8485H338.856C338.912 10.7628 338.989 10.6536 339.088 10.5208C339.188 10.3858 339.332 10.2659 339.518 10.1609C339.707 10.0538 339.962 10.0002 340.283 10.0002C340.699 10.0002 341.065 10.1041 341.382 10.3119C341.699 10.5197 341.946 10.8142 342.124 11.1955C342.302 11.5769 342.391 12.0267 342.391 12.5451C342.391 13.0678 342.302 13.5208 342.124 13.9043C341.946 14.2856 341.7 14.5812 341.385 14.7911C341.07 14.9989 340.707 15.1028 340.296 15.1028C339.979 15.1028 339.725 15.0503 339.534 14.9454C339.344 14.8383 339.197 14.7172 339.094 14.5823C338.991 14.4452 338.912 14.3317 338.856 14.2417H338.792V16.8508H338.034ZM338.779 12.5322C338.779 12.905 338.834 13.2338 338.943 13.5187C339.052 13.8015 339.212 14.0232 339.422 14.1838C339.632 14.3424 339.889 14.4216 340.193 14.4216C340.51 14.4216 340.775 14.3381 340.987 14.171C341.201 14.0018 341.362 13.7747 341.469 13.4898C341.578 13.2027 341.633 12.8836 341.633 12.5322C341.633 12.1852 341.579 11.8725 341.472 11.594C341.367 11.3134 341.207 11.0917 340.993 10.9289C340.781 10.7639 340.514 10.6814 340.193 10.6814C339.885 10.6814 339.625 10.7596 339.415 10.916C339.206 11.0702 339.047 11.2866 338.94 11.5651C338.833 11.8414 338.779 12.1638 338.779 12.5322ZM345.875 10.0645V10.7071H343.317V10.0645H345.875ZM344.063 8.88203H344.821V13.5862C344.821 13.8004 344.852 13.9611 344.914 14.0682C344.979 14.1731 345.06 14.2438 345.159 14.2802C345.259 14.3145 345.365 14.3317 345.477 14.3317C345.56 14.3317 345.629 14.3274 345.682 14.3188C345.736 14.3081 345.779 14.2995 345.811 14.2931L345.965 14.9743C345.914 14.9936 345.842 15.0129 345.75 15.0321C345.658 15.0536 345.541 15.0643 345.4 15.0643C345.185 15.0643 344.975 15.0182 344.77 14.9261C344.566 14.834 344.397 14.6937 344.262 14.5052C344.129 14.3167 344.063 14.0789 344.063 13.7918V8.88203ZM347.197 15V10.0645H347.955V15H347.197ZM347.582 9.24191C347.435 9.24191 347.307 9.19157 347.2 9.09089C347.095 8.99021 347.042 8.86918 347.042 8.7278C347.042 8.58642 347.095 8.46539 347.2 8.3647C347.307 8.26402 347.435 8.21368 347.582 8.21368C347.73 8.21368 347.857 8.26402 347.961 8.3647C348.069 8.46539 348.122 8.58642 348.122 8.7278C348.122 8.86918 348.069 8.99021 347.961 9.09089C347.857 9.19157 347.73 9.24191 347.582 9.24191ZM351.389 15.1028C350.977 15.1028 350.614 14.9989 350.299 14.7911C349.984 14.5812 349.738 14.2856 349.56 13.9043C349.382 13.5208 349.294 13.0678 349.294 12.5451C349.294 12.0267 349.382 11.5769 349.56 11.1955C349.738 10.8142 349.985 10.5197 350.303 10.3119C350.62 10.1041 350.986 10.0002 351.401 10.0002C351.723 10.0002 351.977 10.0538 352.163 10.1609C352.351 10.2659 352.495 10.3858 352.594 10.5208C352.694 10.6536 352.772 10.7628 352.828 10.8485H352.892V8.41933H353.651V15H352.918V14.2417H352.828C352.772 14.3317 352.693 14.4452 352.59 14.5823C352.488 14.7172 352.341 14.8383 352.15 14.9454C351.959 15.0503 351.706 15.1028 351.389 15.1028ZM351.491 14.4216C351.796 14.4216 352.053 14.3424 352.263 14.1838C352.473 14.0232 352.632 13.8015 352.741 13.5187C352.851 13.2338 352.905 12.905 352.905 12.5322C352.905 12.1638 352.852 11.8414 352.745 11.5651C352.637 11.2866 352.479 11.0702 352.269 10.916C352.059 10.7596 351.8 10.6814 351.491 10.6814C351.17 10.6814 350.902 10.7639 350.688 10.9289C350.476 11.0917 350.316 11.3134 350.209 11.594C350.104 11.8725 350.052 12.1852 350.052 12.5322C350.052 12.8836 350.105 13.2027 350.213 13.4898C350.322 13.7747 350.482 14.0018 350.695 14.171C350.909 14.3381 351.174 14.4216 351.491 14.4216ZM357.395 15.1028C356.92 15.1028 356.509 14.9979 356.164 14.7879C355.822 14.5759 355.557 14.2802 355.371 13.9011C355.187 13.5198 355.094 13.0764 355.094 12.5708C355.094 12.0653 355.187 11.6197 355.371 11.2341C355.557 10.8464 355.816 10.5443 356.148 10.328C356.483 10.1095 356.872 10.0002 357.318 10.0002C357.575 10.0002 357.829 10.0431 358.08 10.1288C358.33 10.2144 358.558 10.3537 358.764 10.5465C358.97 10.7371 359.133 10.9899 359.256 11.3048C359.378 11.6197 359.439 12.0074 359.439 12.468V12.7893H355.634V12.1338H358.668C358.668 11.8553 358.612 11.6068 358.5 11.3883C358.391 11.1698 358.235 10.9974 358.031 10.871C357.83 10.7446 357.592 10.6814 357.318 10.6814C357.016 10.6814 356.755 10.7564 356.534 10.9064C356.315 11.0542 356.147 11.247 356.03 11.4847C355.912 11.7225 355.853 11.9774 355.853 12.2495V12.6865C355.853 13.0592 355.917 13.3752 356.046 13.6344C356.176 13.8914 356.357 14.0874 356.589 14.2224C356.82 14.3552 357.089 14.4216 357.395 14.4216C357.594 14.4216 357.774 14.3938 357.935 14.3381C358.098 14.2802 358.238 14.1946 358.356 14.081C358.474 13.9653 358.565 13.8218 358.629 13.6504L359.362 13.8561C359.284 14.1046 359.155 14.3231 358.973 14.5116C358.791 14.698 358.566 14.8436 358.298 14.9486C358.03 15.0514 357.729 15.1028 357.395 15.1028ZM363.601 11.8253V12.5322H360.722V11.8253H363.601ZM367.221 15.09C366.797 15.09 366.419 15.0171 366.087 14.8715C365.757 14.7258 365.494 14.5234 365.299 14.2642C365.106 14.0028 365.002 13.6997 364.984 13.3548H365.794C365.811 13.5669 365.884 13.7501 366.013 13.9043C366.141 14.0564 366.309 14.1742 366.517 14.2577C366.725 14.3413 366.955 14.3831 367.208 14.3831C367.491 14.3831 367.741 14.3338 367.96 14.2353C368.178 14.1367 368.35 13.9996 368.474 13.824C368.598 13.6483 368.66 13.4448 368.66 13.2135C368.66 12.9714 368.6 12.7582 368.48 12.574C368.36 12.3877 368.185 12.242 367.953 12.137C367.722 12.0321 367.439 11.9796 367.105 11.9796H366.578V11.2727H367.105C367.366 11.2727 367.596 11.2255 367.793 11.1313C367.992 11.037 368.147 10.9042 368.259 10.7328C368.372 10.5615 368.429 10.3601 368.429 10.1288C368.429 9.90598 368.38 9.71211 368.281 9.54717C368.183 9.38222 368.043 9.25369 367.863 9.16158C367.686 9.06947 367.476 9.02341 367.234 9.02341C367.007 9.02341 366.792 9.06519 366.591 9.14873C366.392 9.23013 366.229 9.34902 366.103 9.5054C365.976 9.65963 365.908 9.846 365.897 10.0645H365.126C365.139 9.71961 365.243 9.41757 365.437 9.15837C365.632 8.89703 365.887 8.69352 366.202 8.54786C366.519 8.40219 366.867 8.32936 367.246 8.32936C367.654 8.32936 368.003 8.41183 368.294 8.57678C368.585 8.73958 368.809 8.95487 368.966 9.22263C369.122 9.4904 369.2 9.77959 369.2 10.0902C369.2 10.4608 369.103 10.7768 368.908 11.0381C368.715 11.2994 368.453 11.4805 368.12 11.5811V11.6325C368.536 11.7011 368.861 11.8778 369.094 12.1627C369.328 12.4455 369.444 12.7957 369.444 13.2135C369.444 13.5712 369.347 13.8925 369.152 14.1774C368.959 14.4602 368.696 14.683 368.361 14.8458C368.027 15.0086 367.647 15.09 367.221 15.09ZM377.174 11.1698L376.493 11.3626C376.45 11.2491 376.387 11.1388 376.303 11.0317C376.222 10.9224 376.111 10.8325 375.969 10.7618C375.828 10.6911 375.647 10.6557 375.426 10.6557C375.124 10.6557 374.872 10.7253 374.671 10.8646C374.472 11.0017 374.372 11.1763 374.372 11.3883C374.372 11.5769 374.441 11.7257 374.578 11.835C374.715 11.9442 374.929 12.0353 375.221 12.1081L375.953 12.288C376.394 12.3952 376.723 12.559 376.94 12.7797C377.156 12.9982 377.264 13.2799 377.264 13.6247C377.264 13.9075 377.183 14.1603 377.02 14.3831C376.859 14.6058 376.634 14.7815 376.345 14.91C376.056 15.0386 375.72 15.1028 375.336 15.1028C374.833 15.1028 374.416 14.9936 374.086 14.7751C373.756 14.5566 373.548 14.2374 373.46 13.8175L374.179 13.6376C374.248 13.9032 374.378 14.1024 374.568 14.2353C374.761 14.3681 375.013 14.4345 375.323 14.4345C375.677 14.4345 375.957 14.3595 376.165 14.2095C376.375 14.0575 376.48 13.8754 376.48 13.6633C376.48 13.4919 376.42 13.3484 376.3 13.2327C376.18 13.1149 375.996 13.0271 375.748 12.9692L374.925 12.7765C374.473 12.6693 374.141 12.5033 373.929 12.2784C373.719 12.0513 373.614 11.7675 373.614 11.4269C373.614 11.1484 373.692 10.9021 373.849 10.6879C374.007 10.4736 374.222 10.3055 374.494 10.1834C374.769 10.0613 375.079 10.0002 375.426 10.0002C375.915 10.0002 376.298 10.1073 376.577 10.3216C376.857 10.5358 377.056 10.8185 377.174 11.1698ZM380.592 15.1028C380.146 15.1028 379.755 14.9968 379.419 14.7847C379.085 14.5726 378.823 14.276 378.635 13.8947C378.448 13.5134 378.355 13.0678 378.355 12.558C378.355 12.0438 378.448 11.5951 378.635 11.2116C378.823 10.8282 379.085 10.5304 379.419 10.3183C379.755 10.1063 380.146 10.0002 380.592 10.0002C381.037 10.0002 381.427 10.1063 381.761 10.3183C382.098 10.5304 382.359 10.8282 382.545 11.2116C382.734 11.5951 382.828 12.0438 382.828 12.558C382.828 13.0678 382.734 13.5134 382.545 13.8947C382.359 14.276 382.098 14.5726 381.761 14.7847C381.427 14.9968 381.037 15.1028 380.592 15.1028ZM380.592 14.4216C380.93 14.4216 381.209 14.3349 381.427 14.1614C381.646 13.9878 381.807 13.7597 381.912 13.4769C382.017 13.1942 382.07 12.8878 382.07 12.558C382.07 12.2281 382.017 11.9207 381.912 11.6358C381.807 11.3509 381.646 11.1206 381.427 10.9449C381.209 10.7693 380.93 10.6814 380.592 10.6814C380.253 10.6814 379.975 10.7693 379.756 10.9449C379.538 11.1206 379.376 11.3509 379.271 11.6358C379.166 11.9207 379.114 12.2281 379.114 12.558C379.114 12.8878 379.166 13.1942 379.271 13.4769C379.376 13.7597 379.538 13.9878 379.756 14.1614C379.975 14.3349 380.253 14.4216 380.592 14.4216ZM384.925 8.41933V15H384.167V8.41933H384.925ZM389.605 12.9821V10.0645H390.364V15H389.605V14.1646H389.554C389.438 14.4152 389.258 14.6283 389.014 14.804C388.77 14.9775 388.461 15.0643 388.089 15.0643C387.78 15.0643 387.506 14.9968 387.266 14.8618C387.026 14.7247 386.838 14.5191 386.7 14.2449C386.563 13.9686 386.495 13.6205 386.495 13.2006V10.0645H387.253V13.1492C387.253 13.5091 387.354 13.7961 387.555 14.0103C387.759 14.2245 388.018 14.3317 388.333 14.3317C388.521 14.3317 388.713 14.2835 388.908 14.1871C389.105 14.0907 389.27 13.9429 389.403 13.7436C389.538 13.5444 389.605 13.2906 389.605 12.9821ZM394.08 10.0645V10.7071H391.522V10.0645H394.08ZM392.268 8.88203H393.026V13.5862C393.026 13.8004 393.057 13.9611 393.119 14.0682C393.183 14.1731 393.265 14.2438 393.363 14.2802C393.464 14.3145 393.57 14.3317 393.681 14.3317C393.765 14.3317 393.833 14.3274 393.887 14.3188C393.941 14.3081 393.983 14.2995 394.016 14.2931L394.17 14.9743C394.118 14.9936 394.047 15.0129 393.955 15.0321C393.862 15.0536 393.746 15.0643 393.604 15.0643C393.39 15.0643 393.18 15.0182 392.974 14.9261C392.771 14.834 392.602 14.6937 392.467 14.5052C392.334 14.3167 392.268 14.0789 392.268 13.7918V8.88203ZM395.401 15V10.0645H396.16V15H395.401ZM395.787 9.24191C395.639 9.24191 395.512 9.19157 395.405 9.09089C395.3 8.99021 395.247 8.86918 395.247 8.7278C395.247 8.58642 395.3 8.46539 395.405 8.3647C395.512 8.26402 395.639 8.21368 395.787 8.21368C395.935 8.21368 396.061 8.26402 396.166 8.3647C396.273 8.46539 396.327 8.58642 396.327 8.7278C396.327 8.86918 396.273 8.99021 396.166 9.09089C396.061 9.19157 395.935 9.24191 395.787 9.24191ZM399.735 15.1028C399.289 15.1028 398.898 14.9968 398.562 14.7847C398.228 14.5726 397.966 14.276 397.778 13.8947C397.592 13.5134 397.498 13.0678 397.498 12.558C397.498 12.0438 397.592 11.5951 397.778 11.2116C397.966 10.8282 398.228 10.5304 398.562 10.3183C398.898 10.1063 399.289 10.0002 399.735 10.0002C400.18 10.0002 400.57 10.1063 400.904 10.3183C401.241 10.5304 401.502 10.8282 401.688 11.2116C401.877 11.5951 401.971 12.0438 401.971 12.558C401.971 13.0678 401.877 13.5134 401.688 13.8947C401.502 14.276 401.241 14.5726 400.904 14.7847C400.57 14.9968 400.18 15.1028 399.735 15.1028ZM399.735 14.4216C400.073 14.4216 400.352 14.3349 400.57 14.1614C400.789 13.9878 400.95 13.7597 401.055 13.4769C401.16 13.1942 401.213 12.8878 401.213 12.558C401.213 12.2281 401.16 11.9207 401.055 11.6358C400.95 11.3509 400.789 11.1206 400.57 10.9449C400.352 10.7693 400.073 10.6814 399.735 10.6814C399.396 10.6814 399.118 10.7693 398.899 10.9449C398.681 11.1206 398.519 11.3509 398.414 11.6358C398.309 11.9207 398.257 12.2281 398.257 12.558C398.257 12.8878 398.309 13.1942 398.414 13.4769C398.519 13.7597 398.681 13.9878 398.899 14.1614C399.118 14.3349 399.396 14.4216 399.735 14.4216ZM404.068 12.031V15H403.31V10.0645H404.042V10.8357H404.107C404.222 10.585 404.398 10.3837 404.634 10.2316C404.869 10.0774 405.173 10.0002 405.546 10.0002C405.88 10.0002 406.173 10.0688 406.423 10.2059C406.674 10.3408 406.869 10.5465 407.008 10.8228C407.147 11.097 407.217 11.444 407.217 11.8639V15H406.459V11.9153C406.459 11.5276 406.358 11.2255 406.157 11.0092C405.955 10.7907 405.679 10.6814 405.328 10.6814C405.085 10.6814 404.869 10.7339 404.678 10.8389C404.49 10.9438 404.341 11.097 404.232 11.2984C404.123 11.4997 404.068 11.7439 404.068 12.031ZM409.054 12.2238C409.054 11.414 409.158 10.6697 409.368 9.99059C409.58 9.30939 409.883 8.68281 410.275 8.11086H410.943C410.789 8.32293 410.644 8.58427 410.509 8.89489C410.376 9.20335 410.26 9.54288 410.159 9.91348C410.058 10.2819 409.979 10.6632 409.921 11.0574C409.865 11.4515 409.838 11.8403 409.838 12.2238C409.838 12.7336 409.887 13.2509 409.985 13.7758C410.084 14.3006 410.217 14.7879 410.384 15.2378C410.551 15.6876 410.737 16.0539 410.943 16.3367H410.275C409.883 15.7647 409.58 15.1392 409.368 14.4602C409.158 13.779 409.054 13.0335 409.054 12.2238ZM414.544 8.41933V15H413.747V9.25477H413.708L412.101 10.3216V9.51182L413.747 8.41933H414.544ZM418.763 15.09C418.279 15.09 417.867 14.9582 417.526 14.6947C417.186 14.4291 416.926 14.0446 416.746 13.5412C416.566 13.0357 416.476 12.4251 416.476 11.7097C416.476 10.9985 416.566 10.3912 416.746 9.88777C416.928 9.38222 417.189 8.99664 417.53 8.73101C417.872 8.46324 418.284 8.32936 418.763 8.32936C419.243 8.32936 419.654 8.46324 419.994 8.73101C420.337 8.99664 420.598 9.38222 420.778 9.88777C420.96 10.3912 421.051 10.9985 421.051 11.7097C421.051 12.4251 420.961 13.0357 420.781 13.5412C420.601 14.0446 420.341 14.4291 420.001 14.6947C419.66 14.9582 419.248 15.09 418.763 15.09ZM418.763 14.3831C419.243 14.3831 419.616 14.1517 419.882 13.689C420.147 13.2263 420.28 12.5665 420.28 11.7097C420.28 11.1399 420.219 10.6547 420.097 10.2541C419.977 9.8535 419.804 9.54824 419.576 9.33831C419.352 9.12838 419.081 9.02341 418.763 9.02341C418.288 9.02341 417.916 9.25798 417.649 9.72711C417.381 10.1941 417.247 10.8549 417.247 11.7097C417.247 12.2795 417.307 12.7636 417.427 13.162C417.547 13.5605 417.719 13.8636 417.944 14.0714C418.171 14.2792 418.444 14.3831 418.763 14.3831ZM425.808 13.7661V13.4191C425.808 13.1792 425.857 12.9596 425.956 12.7604C426.056 12.559 426.202 12.3984 426.393 12.2784C426.586 12.1563 426.819 12.0953 427.093 12.0953C427.372 12.0953 427.605 12.1563 427.794 12.2784C427.982 12.3984 428.125 12.559 428.221 12.7604C428.317 12.9596 428.366 13.1792 428.366 13.4191V13.7661C428.366 14.006 428.316 14.2267 428.218 14.428C428.121 14.6273 427.978 14.7879 427.787 14.91C427.599 15.03 427.367 15.09 427.093 15.09C426.815 15.09 426.58 15.03 426.39 14.91C426.199 14.7879 426.054 14.6273 425.956 14.428C425.857 14.2267 425.808 14.006 425.808 13.7661ZM426.463 13.4191V13.7661C426.463 13.9653 426.511 14.1442 426.605 14.3027C426.699 14.4591 426.862 14.5373 427.093 14.5373C427.318 14.5373 427.477 14.4591 427.569 14.3027C427.663 14.1442 427.71 13.9653 427.71 13.7661V13.4191C427.71 13.2199 427.665 13.0421 427.575 12.8857C427.485 12.7272 427.325 12.6479 427.093 12.6479C426.868 12.6479 426.707 12.7272 426.608 12.8857C426.512 13.0421 426.463 13.2199 426.463 13.4191ZM422.53 10.0002V9.6532C422.53 9.41328 422.58 9.19371 422.678 8.9945C422.779 8.79313 422.925 8.63247 423.115 8.51251C423.308 8.39041 423.542 8.32936 423.816 8.32936C424.094 8.32936 424.328 8.39041 424.516 8.51251C424.705 8.63247 424.847 8.79313 424.944 8.9945C425.04 9.19371 425.088 9.41328 425.088 9.6532V10.0002C425.088 10.2402 425.039 10.4608 424.94 10.6622C424.844 10.8614 424.7 11.022 424.51 11.1441C424.321 11.2641 424.09 11.3241 423.816 11.3241C423.537 11.3241 423.303 11.2641 423.112 11.1441C422.921 11.022 422.777 10.8614 422.678 10.6622C422.58 10.4608 422.53 10.2402 422.53 10.0002ZM423.186 9.6532V10.0002C423.186 10.1995 423.233 10.3783 423.327 10.5368C423.422 10.6932 423.584 10.7714 423.816 10.7714C424.041 10.7714 424.199 10.6932 424.291 10.5368C424.386 10.3783 424.433 10.1995 424.433 10.0002V9.6532C424.433 9.45399 424.388 9.27619 424.298 9.11981C424.208 8.96129 424.047 8.88203 423.816 8.88203C423.591 8.88203 423.429 8.96129 423.331 9.11981C423.234 9.27619 423.186 9.45399 423.186 9.6532ZM422.775 15L427.299 8.41933H428.031L423.507 15H422.775ZM431.618 12.2238C431.618 13.0335 431.512 13.779 431.3 14.4602C431.09 15.1392 430.789 15.7647 430.397 16.3367H429.729C429.883 16.1246 430.027 15.8633 430.16 15.5527C430.295 15.2442 430.412 14.9057 430.513 14.5373C430.614 14.1667 430.692 13.7843 430.748 13.3902C430.805 12.9939 430.834 12.6051 430.834 12.2238C430.834 11.7139 430.785 11.1966 430.687 10.6718C430.588 10.147 430.455 9.65963 430.288 9.20978C430.121 8.75993 429.935 8.39362 429.729 8.11086H430.397C430.789 8.68281 431.09 9.30939 431.3 9.99059C431.512 10.6697 431.618 11.414 431.618 12.2238ZM469.87 10.0645C469.831 9.73889 469.675 9.48612 469.401 9.30618C469.127 9.12624 468.79 9.03627 468.392 9.03627C468.1 9.03627 467.846 9.08339 467.627 9.17765C467.411 9.2719 467.241 9.4015 467.119 9.56645C466.999 9.73139 466.939 9.91883 466.939 10.1288C466.939 10.3044 466.981 10.4554 467.065 10.5818C467.15 10.7061 467.26 10.81 467.393 10.8935C467.525 10.9749 467.665 11.0424 467.81 11.0959C467.956 11.1474 468.09 11.1891 468.212 11.2213L468.88 11.4012C469.052 11.4462 469.242 11.5083 469.452 11.5876C469.664 11.6668 469.867 11.775 470.059 11.9121C470.254 12.0471 470.415 12.2206 470.541 12.4326C470.668 12.6447 470.731 12.905 470.731 13.2135C470.731 13.569 470.638 13.8904 470.451 14.1774C470.267 14.4645 469.997 14.6926 469.642 14.8618C469.288 15.0311 468.859 15.1157 468.353 15.1157C467.882 15.1157 467.474 15.0396 467.129 14.8875C466.786 14.7354 466.516 14.5234 466.319 14.2513C466.124 13.9793 466.014 13.6633 465.988 13.3034H466.811C466.832 13.5519 466.916 13.7576 467.062 13.9204C467.209 14.081 467.396 14.201 467.621 14.2802C467.848 14.3574 468.092 14.3959 468.353 14.3959C468.657 14.3959 468.931 14.3466 469.173 14.2481C469.415 14.1474 469.606 14.0082 469.748 13.8304C469.889 13.6504 469.96 13.4405 469.96 13.2006C469.96 12.9821 469.899 12.8043 469.777 12.6672C469.655 12.5301 469.494 12.4187 469.295 12.333C469.096 12.2473 468.88 12.1724 468.649 12.1081L467.839 11.8768C467.325 11.7289 466.918 11.5179 466.618 11.2437C466.318 10.9696 466.168 10.6107 466.168 10.1673C466.168 9.79887 466.268 9.47755 466.467 9.20335C466.668 8.92702 466.938 8.7128 467.277 8.56071C467.617 8.40648 467.998 8.32936 468.418 8.32936C468.842 8.32936 469.219 8.40541 469.549 8.5575C469.878 8.70745 470.14 8.91309 470.333 9.17444C470.528 9.43578 470.63 9.73246 470.641 10.0645H469.87ZM472.608 16.8508C472.479 16.8508 472.365 16.8401 472.264 16.8187C472.163 16.7994 472.094 16.7801 472.055 16.7608L472.248 16.0925C472.432 16.1396 472.595 16.1568 472.736 16.1439C472.878 16.1311 473.003 16.0679 473.112 15.9543C473.224 15.8429 473.325 15.6619 473.418 15.4113L473.559 15.0257L471.734 10.0645H472.556L473.919 13.9975H473.97L475.333 10.0645H476.155L474.06 15.7198C473.966 15.9747 473.849 16.1857 473.71 16.3528C473.571 16.522 473.409 16.6473 473.225 16.7287C473.043 16.8101 472.837 16.8508 472.608 16.8508ZM478.095 12.031V15H477.337V10.0645H478.07V10.8357H478.134C478.25 10.585 478.425 10.3837 478.661 10.2316C478.897 10.0774 479.201 10.0002 479.573 10.0002C479.908 10.0002 480.2 10.0688 480.451 10.2059C480.701 10.3408 480.896 10.5465 481.035 10.8228C481.175 11.097 481.244 11.444 481.244 11.8639V15H480.486V11.9153C480.486 11.5276 480.385 11.2255 480.184 11.0092C479.983 10.7907 479.706 10.6814 479.355 10.6814C479.113 10.6814 478.897 10.7339 478.706 10.8389C478.517 10.9438 478.369 11.097 478.259 11.2984C478.15 11.4997 478.095 11.7439 478.095 12.031ZM484.263 15.1157C483.951 15.1157 483.667 15.0568 483.412 14.9389C483.157 14.819 482.955 14.6465 482.805 14.4216C482.655 14.1946 482.58 13.9204 482.58 13.599C482.58 13.3163 482.635 13.0871 482.747 12.9114C482.858 12.7336 483.007 12.5944 483.193 12.4937C483.38 12.393 483.585 12.318 483.81 12.2688C484.037 12.2174 484.266 12.1767 484.495 12.1467C484.795 12.1081 485.038 12.0792 485.224 12.0599C485.413 12.0385 485.55 12.0031 485.635 11.9539C485.723 11.9046 485.767 11.8189 485.767 11.6968V11.6711C485.767 11.3541 485.68 11.1077 485.507 10.9321C485.336 10.7564 485.075 10.6686 484.726 10.6686C484.364 10.6686 484.08 10.7478 483.875 10.9064C483.669 11.0649 483.524 11.2341 483.441 11.414L482.721 11.157C482.85 10.8571 483.021 10.6236 483.235 10.4565C483.451 10.2873 483.687 10.1695 483.942 10.1031C484.199 10.0345 484.452 10.0002 484.7 10.0002C484.859 10.0002 485.041 10.0195 485.247 10.0581C485.454 10.0945 485.655 10.1705 485.847 10.2862C486.042 10.4019 486.204 10.5765 486.333 10.81C486.461 11.0435 486.525 11.3562 486.525 11.7482V15H485.767V14.3317H485.729C485.677 14.4388 485.592 14.5534 485.472 14.6755C485.352 14.7976 485.192 14.9015 484.993 14.9871C484.794 15.0728 484.55 15.1157 484.263 15.1157ZM484.379 14.4345C484.679 14.4345 484.932 14.3756 485.137 14.2577C485.345 14.1399 485.502 13.9878 485.606 13.8015C485.714 13.6151 485.767 13.4191 485.767 13.2135V12.5194C485.735 12.558 485.664 12.5933 485.555 12.6254C485.448 12.6554 485.324 12.6822 485.182 12.7058C485.043 12.7272 484.907 12.7465 484.774 12.7636C484.644 12.7786 484.538 12.7914 484.456 12.8022C484.259 12.8279 484.075 12.8696 483.903 12.9275C483.734 12.9832 483.597 13.0678 483.492 13.1813C483.389 13.2927 483.338 13.4448 483.338 13.6376C483.338 13.9011 483.435 14.1003 483.63 14.2353C483.827 14.3681 484.077 14.4345 484.379 14.4345ZM488.797 13.2006L488.785 12.2623H488.939L491.098 10.0645H492.036L489.736 12.3909H489.671L488.797 13.2006ZM488.091 15V8.41933H488.849V15H488.091ZM491.227 15L489.299 12.558L489.839 12.031L492.191 15H491.227ZM495.059 15.1028C494.584 15.1028 494.174 14.9979 493.829 14.7879C493.486 14.5759 493.221 14.2802 493.035 13.9011C492.851 13.5198 492.759 13.0764 492.759 12.5708C492.759 12.0653 492.851 11.6197 493.035 11.2341C493.221 10.8464 493.481 10.5443 493.813 10.328C494.147 10.1095 494.537 10.0002 494.982 10.0002C495.239 10.0002 495.493 10.0431 495.744 10.1288C495.994 10.2144 496.223 10.3537 496.428 10.5465C496.634 10.7371 496.798 10.9899 496.92 11.3048C497.042 11.6197 497.103 12.0074 497.103 12.468V12.7893H493.299V12.1338H496.332C496.332 11.8553 496.276 11.6068 496.165 11.3883C496.056 11.1698 495.899 10.9974 495.696 10.871C495.494 10.7446 495.257 10.6814 494.982 10.6814C494.68 10.6814 494.419 10.7564 494.198 10.9064C493.98 11.0542 493.812 11.247 493.694 11.4847C493.576 11.7225 493.517 11.9774 493.517 12.2495V12.6865C493.517 13.0592 493.581 13.3752 493.71 13.6344C493.841 13.8914 494.022 14.0874 494.253 14.2224C494.484 14.3552 494.753 14.4216 495.059 14.4216C495.259 14.4216 495.439 14.3938 495.599 14.3381C495.762 14.2802 495.902 14.1946 496.02 14.081C496.138 13.9653 496.229 13.8218 496.293 13.6504L497.026 13.8561C496.949 14.1046 496.819 14.3231 496.637 14.5116C496.455 14.698 496.23 14.8436 495.962 14.9486C495.695 15.0514 495.394 15.1028 495.059 15.1028ZM498.707 12.2238C498.707 11.414 498.812 10.6697 499.022 9.99059C499.234 9.30939 499.536 8.68281 499.928 8.11086H500.597C500.443 8.32293 500.298 8.58427 500.163 8.89489C500.03 9.20335 499.913 9.54288 499.813 9.91348C499.712 10.2819 499.633 10.6632 499.575 11.0574C499.519 11.4515 499.491 11.8403 499.491 12.2238C499.491 12.7336 499.541 13.2509 499.639 13.7758C499.738 14.3006 499.871 14.7879 500.038 15.2378C500.205 15.6876 500.391 16.0539 500.597 16.3367H499.928C499.536 15.7647 499.234 15.1392 499.022 14.4602C498.812 13.779 498.707 13.0335 498.707 12.2238ZM501.73 13.6504V12.995L504.622 8.41933H505.097V9.43471H504.776L502.591 12.8921V12.9435H506.485V13.6504H501.73ZM504.827 15V13.4512V13.146V8.41933H505.586V15H504.827ZM511.225 13.7661V13.4191C511.225 13.1792 511.274 12.9596 511.373 12.7604C511.473 12.559 511.619 12.3984 511.81 12.2784C512.003 12.1563 512.236 12.0953 512.51 12.0953C512.789 12.0953 513.022 12.1563 513.211 12.2784C513.399 12.3984 513.542 12.559 513.638 12.7604C513.735 12.9596 513.783 13.1792 513.783 13.4191V13.7661C513.783 14.006 513.733 14.2267 513.635 14.428C513.539 14.6273 513.395 14.7879 513.204 14.91C513.016 15.03 512.784 15.09 512.51 15.09C512.232 15.09 511.997 15.03 511.807 14.91C511.616 14.7879 511.471 14.6273 511.373 14.428C511.274 14.2267 511.225 14.006 511.225 13.7661ZM511.881 13.4191V13.7661C511.881 13.9653 511.928 14.1442 512.022 14.3027C512.116 14.4591 512.279 14.5373 512.51 14.5373C512.735 14.5373 512.894 14.4591 512.986 14.3027C513.08 14.1442 513.127 13.9653 513.127 13.7661V13.4191C513.127 13.2199 513.082 13.0421 512.992 12.8857C512.902 12.7272 512.742 12.6479 512.51 12.6479C512.285 12.6479 512.124 12.7272 512.025 12.8857C511.929 13.0421 511.881 13.2199 511.881 13.4191ZM507.948 10.0002V9.6532C507.948 9.41328 507.997 9.19371 508.095 8.9945C508.196 8.79313 508.342 8.63247 508.532 8.51251C508.725 8.39041 508.959 8.32936 509.233 8.32936C509.511 8.32936 509.745 8.39041 509.933 8.51251C510.122 8.63247 510.264 8.79313 510.361 8.9945C510.457 9.19371 510.505 9.41328 510.505 9.6532V10.0002C510.505 10.2402 510.456 10.4608 510.357 10.6622C510.261 10.8614 510.118 11.022 509.927 11.1441C509.738 11.2641 509.507 11.3241 509.233 11.3241C508.954 11.3241 508.72 11.2641 508.529 11.1441C508.338 11.022 508.194 10.8614 508.095 10.6622C507.997 10.4608 507.948 10.2402 507.948 10.0002ZM508.603 9.6532V10.0002C508.603 10.1995 508.65 10.3783 508.744 10.5368C508.839 10.6932 509.001 10.7714 509.233 10.7714C509.458 10.7714 509.616 10.6932 509.708 10.5368C509.803 10.3783 509.85 10.1995 509.85 10.0002V9.6532C509.85 9.45399 509.805 9.27619 509.715 9.11981C509.625 8.96129 509.464 8.88203 509.233 8.88203C509.008 8.88203 508.846 8.96129 508.748 9.11981C508.651 9.27619 508.603 9.45399 508.603 9.6532ZM508.192 15L512.716 8.41933H513.449L508.924 15H508.192ZM517.036 12.2238C517.036 13.0335 516.929 13.779 516.717 14.4602C516.507 15.1392 516.207 15.7647 515.815 16.3367H515.146C515.3 16.1246 515.444 15.8633 515.577 15.5527C515.712 15.2442 515.83 14.9057 515.93 14.5373C516.031 14.1667 516.109 13.7843 516.165 13.3902C516.223 12.9939 516.252 12.6051 516.252 12.2238C516.252 11.7139 516.202 11.1966 516.104 10.6718C516.005 10.147 515.872 9.65963 515.705 9.20978C515.538 8.75993 515.352 8.39362 515.146 8.11086H515.815C516.207 8.68281 516.507 9.30939 516.717 9.99059C516.929 10.6697 517.036 11.414 517.036 12.2238Z" fill="black"/>
<path d="M68 184.358L59.2727 186.744L59.2727 185.67L66.3807 183.847L66.3807 183.761L59.2727 181.903L59.2727 180.71L66.3807 178.852L66.3807 178.767L59.2727 176.943L59.2727 175.869L68 178.256L68 179.347L61.0455 181.273L61.0455 181.341L68 183.267L68 184.358ZM68 175.099L61.4545 175.099L61.4545 174.127L62.4432 174.127L62.4432 174.059C62.1193 173.94 61.8565 173.724 61.6548 173.412C61.4531 173.099 61.3523 172.747 61.3523 172.355C61.3523 172.281 61.3537 172.189 61.3565 172.078C61.3594 171.967 61.3636 171.883 61.3693 171.826L62.392 171.826C62.3835 171.86 62.3707 171.939 62.3537 172.061C62.3338 172.18 62.3239 172.306 62.3239 172.44C62.3239 172.758 62.3906 173.042 62.5241 173.292C62.6548 173.539 62.8366 173.735 63.0696 173.88C63.2997 174.022 63.5625 174.093 63.858 174.093L68 174.093L68 175.099ZM68 170.634L61.4545 170.634L61.4545 169.629L68 169.629L68 170.634ZM60.3636 170.123C60.3636 170.319 60.2969 170.488 60.1634 170.63C60.0298 170.769 59.8693 170.839 59.6818 170.839C59.4943 170.839 59.3338 170.769 59.2003 170.63C59.0668 170.488 59 170.319 59 170.123C59 169.927 59.0668 169.759 59.2003 169.62C59.3338 169.478 59.4943 169.407 59.6818 169.407C59.8693 169.407 60.0298 169.478 60.1634 169.62C60.2969 169.759 60.3636 169.927 60.3636 170.123ZM64.0625 166.781L68 166.781L68 167.787L61.4545 167.787L61.4545 166.815L62.4773 166.815L62.4773 166.73C62.1449 166.576 61.8778 166.343 61.6761 166.031C61.4716 165.718 61.3693 165.315 61.3693 164.821C61.3693 164.377 61.4602 163.99 61.642 163.657C61.821 163.325 62.0937 163.066 62.4602 162.882C62.8239 162.697 63.2841 162.605 63.8409 162.605L68 162.605L68 163.61L63.9091 163.61C63.3949 163.61 62.9943 163.744 62.7074 164.011C62.4176 164.278 62.2727 164.645 62.2727 165.11C62.2727 165.431 62.3423 165.718 62.4815 165.971C62.6207 166.221 62.8239 166.419 63.0909 166.564C63.358 166.708 63.6818 166.781 64.0625 166.781ZM65.6136 159.83L64.3693 159.847L64.3693 159.642L61.4545 156.778L61.4545 155.534L64.5398 158.585L64.5398 158.67L65.6136 159.83ZM68 160.767L59.2727 160.767L59.2727 159.761L68 159.761L68 160.767ZM68 156.608L64.7614 159.165L64.0625 158.449L68 155.33L68 156.608ZM59.2727 153.234L68 153.234L68 154.24L59.2727 154.24L59.2727 153.234ZM68.1364 148.648C68.1364 149.278 67.9972 149.822 67.7187 150.28C67.4375 150.734 67.0455 151.085 66.5426 151.332C66.0369 151.577 65.4489 151.699 64.7784 151.699C64.108 151.699 63.517 151.577 63.0057 151.332C62.4915 151.085 62.0909 150.741 61.804 150.301C61.5142 149.858 61.3693 149.341 61.3693 148.75C61.3693 148.409 61.4261 148.072 61.5398 147.74C61.6534 147.408 61.8381 147.105 62.0937 146.832C62.3466 146.56 62.6818 146.342 63.0994 146.18C63.517 146.018 64.0312 145.937 64.642 145.937L65.0682 145.937L65.0682 150.983L64.1989 150.983L64.1989 146.96C63.8295 146.96 63.5 147.034 63.2102 147.182C62.9205 147.327 62.6918 147.534 62.5241 147.804C62.3565 148.071 62.2727 148.386 62.2727 148.75C62.2727 149.151 62.3722 149.497 62.571 149.79C62.767 150.08 63.0227 150.303 63.3381 150.459C63.6534 150.615 63.9915 150.693 64.3523 150.693L64.9318 150.693C65.4261 150.693 65.8452 150.608 66.1889 150.437C66.5298 150.264 66.7898 150.024 66.9687 149.717C67.1449 149.411 67.233 149.054 67.233 148.648C67.233 148.384 67.196 148.145 67.1222 147.932C67.0455 147.716 66.9318 147.53 66.7812 147.374C66.6278 147.217 66.4375 147.097 66.2102 147.011L66.483 146.04C66.8125 146.142 67.1023 146.314 67.3523 146.555C67.5994 146.797 67.7926 147.095 67.9318 147.45C68.0682 147.805 68.1364 148.205 68.1364 148.648ZM70.4545 141.033L61.4545 141.033L61.4545 140.061L62.4943 140.061L62.4943 139.942C62.3807 139.868 62.2358 139.766 62.0597 139.635C61.8807 139.501 61.7216 139.311 61.5824 139.064C61.4403 138.814 61.3693 138.476 61.3693 138.05C61.3693 137.499 61.5071 137.013 61.7827 136.592C62.0582 136.172 62.4489 135.844 62.9545 135.608C63.4602 135.372 64.0568 135.254 64.7443 135.254C65.4375 135.254 66.0383 135.372 66.5469 135.608C67.0526 135.844 67.4446 136.17 67.723 136.588C67.9986 137.006 68.1364 137.487 68.1364 138.033C68.1364 138.453 68.0668 138.79 67.9276 139.043C67.7855 139.295 67.625 139.49 67.446 139.626C67.2642 139.763 67.1136 139.868 66.9943 139.942L66.9943 140.027L70.4545 140.027L70.4545 141.033ZM64.7273 140.044C65.2216 140.044 65.6577 139.972 66.0355 139.827C66.4105 139.682 66.7045 139.47 66.9176 139.192C67.1278 138.913 67.233 138.572 67.233 138.169C67.233 137.749 67.1222 137.398 66.9006 137.116C66.6761 136.832 66.375 136.619 65.9972 136.477C65.6165 136.332 65.1932 136.26 64.7273 136.26C64.267 136.26 63.8523 136.331 63.483 136.473C63.1108 136.612 62.8168 136.824 62.6008 137.108C62.3821 137.389 62.2727 137.743 62.2727 138.169C62.2727 138.578 62.3764 138.922 62.5838 139.2C62.7884 139.479 63.0753 139.689 63.4446 139.831C63.8111 139.973 64.2386 140.044 64.7273 140.044ZM68.1534 131.794C68.1534 132.209 68.0753 132.585 67.919 132.923C67.7599 133.261 67.5312 133.53 67.233 133.729C66.9318 133.928 66.5682 134.027 66.142 134.027C65.767 134.027 65.4631 133.953 65.2301 133.805C64.9943 133.658 64.8097 133.46 64.6761 133.213C64.5426 132.966 64.4432 132.693 64.3778 132.395C64.3097 132.094 64.2557 131.791 64.2159 131.487C64.1648 131.089 64.1264 130.767 64.1008 130.52C64.0724 130.27 64.0256 130.088 63.9602 129.974C63.8949 129.858 63.7812 129.8 63.6193 129.8L63.5852 129.8C63.1648 129.8 62.8381 129.915 62.6051 130.145C62.3722 130.372 62.2557 130.717 62.2557 131.18C62.2557 131.661 62.3608 132.037 62.571 132.31C62.7812 132.582 63.0057 132.774 63.2443 132.885L62.9034 133.839C62.5057 133.669 62.196 133.442 61.9744 133.158C61.75 132.871 61.5937 132.558 61.5057 132.22C61.4148 131.879 61.3693 131.544 61.3693 131.214C61.3693 131.004 61.3949 130.763 61.446 130.49C61.4943 130.214 61.5952 129.949 61.7486 129.693C61.902 129.435 62.1335 129.22 62.4432 129.05C62.7528 128.879 63.1676 128.794 63.6875 128.794L68 128.794L68 129.8L67.1136 129.8L67.1136 129.851C67.2557 129.919 67.4077 130.033 67.5696 130.192C67.7315 130.351 67.8693 130.562 67.983 130.827C68.0966 131.091 68.1534 131.413 68.1534 131.794ZM67.25 131.641C67.25 131.243 67.1719 130.908 67.0156 130.635C66.8594 130.359 66.6577 130.152 66.4105 130.013C66.1633 129.871 65.9034 129.8 65.6307 129.8L64.7102 129.8C64.7614 129.842 64.8082 129.936 64.8508 130.081C64.8906 130.223 64.9261 130.388 64.9574 130.575C64.9858 130.76 65.0114 130.94 65.0341 131.116C65.054 131.29 65.071 131.43 65.0852 131.538C65.1193 131.8 65.1747 132.044 65.2514 132.271C65.3253 132.496 65.4375 132.678 65.5881 132.817C65.7358 132.953 65.9375 133.021 66.1932 133.021C66.5426 133.021 66.8068 132.892 66.9858 132.634C67.1619 132.372 67.25 132.041 67.25 131.641ZM68 126.958L61.4545 126.958L61.4545 125.987L62.4432 125.987L62.4432 125.919C62.1193 125.799 61.8565 125.583 61.6548 125.271C61.4531 124.958 61.3523 124.606 61.3523 124.214C61.3523 124.14 61.3537 124.048 61.3565 123.937C61.3594 123.826 61.3636 123.743 61.3693 123.686L62.392 123.686C62.3835 123.72 62.3707 123.798 62.3537 123.92C62.3338 124.039 62.3239 124.166 62.3239 124.299C62.3239 124.618 62.3906 124.902 62.5241 125.152C62.6548 125.399 62.8366 125.595 63.0696 125.74C63.2997 125.882 63.5625 125.953 63.858 125.953L68 125.953L68 126.958ZM68.1534 120.567C68.1534 120.982 68.0753 121.359 67.919 121.697C67.7599 122.035 67.5312 122.303 67.233 122.502C66.9318 122.701 66.5682 122.8 66.142 122.8C65.767 122.8 65.4631 122.727 65.2301 122.579C64.9943 122.431 64.8097 122.234 64.6761 121.987C64.5426 121.739 64.4432 121.467 64.3778 121.168C64.3097 120.867 64.2557 120.565 64.2159 120.261C64.1648 119.863 64.1264 119.54 64.1008 119.293C64.0724 119.043 64.0256 118.862 63.9602 118.748C63.8949 118.631 63.7812 118.573 63.6193 118.573L63.5852 118.573C63.1648 118.573 62.8381 118.688 62.6051 118.918C62.3722 119.146 62.2557 119.491 62.2557 119.954C62.2557 120.434 62.3608 120.81 62.571 121.083C62.7812 121.356 63.0057 121.548 63.2443 121.658L62.9034 122.613C62.5057 122.442 62.196 122.215 61.9744 121.931C61.75 121.644 61.5937 121.332 61.5057 120.994C61.4148 120.653 61.3693 120.317 61.3693 119.988C61.3693 119.778 61.3949 119.536 61.446 119.263C61.4943 118.988 61.5952 118.722 61.7486 118.467C61.902 118.208 62.1335 117.994 62.4432 117.823C62.7528 117.653 63.1676 117.567 63.6875 117.567L68 117.567L68 118.573L67.1136 118.573L67.1136 118.624C67.2557 118.692 67.4077 118.806 67.5696 118.965C67.7315 119.124 67.8693 119.336 67.983 119.6C68.0966 119.864 68.1534 120.187 68.1534 120.567ZM67.25 120.414C67.25 120.016 67.1719 119.681 67.0156 119.408C66.8594 119.133 66.6577 118.925 66.4105 118.786C66.1633 118.644 65.9034 118.573 65.6307 118.573L64.7102 118.573C64.7614 118.616 64.8082 118.71 64.8508 118.854C64.8906 118.996 64.9261 119.161 64.9574 119.349C64.9858 119.533 65.0114 119.714 65.0341 119.89C65.054 120.063 65.071 120.204 65.0852 120.312C65.1193 120.573 65.1747 120.817 65.2514 121.045C65.3253 121.269 65.4375 121.451 65.5881 121.59C65.7358 121.727 65.9375 121.795 66.1932 121.795C66.5426 121.795 66.8068 121.665 66.9858 121.407C67.1619 121.146 67.25 120.815 67.25 120.414ZM68 115.732L61.4545 115.732L61.4545 114.76L62.4773 114.76L62.4773 114.675C62.1278 114.539 61.8565 114.319 61.6633 114.015C61.4673 113.711 61.3693 113.346 61.3693 112.919C61.3693 112.488 61.4673 112.128 61.6633 111.841C61.8565 111.551 62.1278 111.326 62.4773 111.164L62.4773 111.096C62.1392 110.928 61.8707 110.676 61.6719 110.341C61.4702 110.006 61.3693 109.604 61.3693 109.135C61.3693 108.55 61.5526 108.071 61.919 107.699C62.2827 107.327 62.8494 107.141 63.6193 107.141L68 107.141L68 108.147L63.6193 108.147C63.1364 108.147 62.7912 108.279 62.5838 108.543C62.3764 108.807 62.2727 109.118 62.2727 109.476C62.2727 109.936 62.4119 110.293 62.6903 110.546C62.9659 110.799 63.3153 110.925 63.7386 110.925L68 110.925L68 111.948L63.517 111.948C63.1449 111.948 62.8452 112.069 62.6179 112.31C62.3878 112.551 62.2727 112.863 62.2727 113.243C62.2727 113.505 62.3423 113.749 62.4815 113.976C62.6207 114.201 62.8139 114.382 63.0611 114.522C63.3054 114.658 63.5881 114.726 63.9091 114.726L68 114.726L68 115.732ZM68.1364 102.558C68.1364 103.189 67.9972 103.733 67.7187 104.19C67.4375 104.645 67.0455 104.995 66.5426 105.243C66.0369 105.487 65.4489 105.609 64.7784 105.609C64.108 105.609 63.517 105.487 63.0057 105.243C62.4915 104.995 62.0909 104.652 61.804 104.211C61.5142 103.768 61.3693 103.251 61.3693 102.66C61.3693 102.319 61.4261 101.983 61.5398 101.65C61.6534 101.318 61.8381 101.015 62.0937 100.743C62.3466 100.47 62.6818 100.252 63.0994 100.091C63.517 99.9286 64.0312 99.8477 64.642 99.8477L65.0682 99.8477L65.0682 104.893L64.1989 104.893L64.1989 100.87C63.8295 100.87 63.5 100.944 63.2102 101.092C62.9205 101.237 62.6918 101.444 62.5241 101.714C62.3565 101.981 62.2727 102.297 62.2727 102.66C62.2727 103.061 62.3722 103.407 62.571 103.7C62.767 103.99 63.0227 104.213 63.3381 104.369C63.6534 104.525 63.9915 104.603 64.3523 104.603L64.9318 104.603C65.4261 104.603 65.8452 104.518 66.1889 104.348C66.5298 104.174 66.7898 103.934 66.9687 103.627C67.1449 103.321 67.233 102.964 67.233 102.558C67.233 102.294 67.196 102.055 67.1222 101.842C67.0455 101.626 66.9318 101.44 66.7812 101.284C66.6278 101.127 66.4375 101.007 66.2102 100.922L66.483 99.9499C66.8125 100.052 67.1023 100.224 67.3523 100.466C67.5994 100.707 67.7926 101.005 67.9318 101.36C68.0682 101.716 68.1364 102.115 68.1364 102.558ZM61.4545 95.4712L62.3068 95.4712L62.3068 98.8633L61.4545 98.8633L61.4545 95.4712ZM59.8864 97.8746L59.8864 96.869L66.125 96.869C66.4091 96.869 66.6222 96.8278 66.7642 96.7454C66.9034 96.6602 66.9972 96.5522 67.0455 96.4215C67.0909 96.288 67.1136 96.1474 67.1136 95.9996C67.1136 95.8888 67.108 95.7979 67.0966 95.7269C67.0824 95.6559 67.071 95.5991 67.0625 95.5565L67.9659 95.3519C67.9915 95.4201 68.017 95.5153 68.0426 95.6374C68.071 95.7596 68.0852 95.9144 68.0852 96.1019C68.0852 96.386 68.0241 96.6644 67.902 96.9371C67.7798 97.207 67.5937 97.4315 67.3437 97.6104C67.0937 97.7866 66.7784 97.8746 66.3977 97.8746L59.8864 97.8746ZM68.1364 91.2844C68.1364 91.9151 67.9972 92.4592 67.7187 92.9165C67.4375 93.3711 67.0455 93.7219 66.5426 93.9691C66.0369 94.2134 65.4489 94.3356 64.7784 94.3356C64.108 94.3356 63.517 94.2134 63.0057 93.9691C62.4915 93.7219 62.0909 93.3782 61.804 92.9379C61.5142 92.4947 61.3693 91.9776 61.3693 91.3867C61.3693 91.0458 61.4261 90.7092 61.5398 90.3768C61.6534 90.0444 61.8381 89.7418 62.0937 89.4691C62.3466 89.1964 62.6818 88.979 63.0994 88.8171C63.517 88.6552 64.0312 88.5742 64.642 88.5742L65.0682 88.5742L65.0682 93.6197L64.1989 93.6197L64.1989 89.5969C63.8295 89.5969 63.5 89.6708 63.2102 89.8185C62.9205 89.9634 62.6918 90.1708 62.5241 90.4407C62.3565 90.7077 62.2727 91.0231 62.2727 91.3867C62.2727 91.7873 62.3722 92.1339 62.571 92.4265C62.767 92.7163 63.0227 92.9393 63.3381 93.0955C63.6534 93.2518 63.9915 93.3299 64.3523 93.3299L64.9318 93.3299C65.4261 93.3299 65.8452 93.2447 66.1889 93.0742C66.5298 92.9009 66.7898 92.6609 66.9687 92.354C67.1449 92.0472 67.233 91.6907 67.233 91.2844C67.233 91.0202 67.196 90.7816 67.1222 90.5685C67.0455 90.3526 66.9318 90.1665 66.7812 90.0103C66.6278 89.854 66.4375 89.7333 66.2102 89.6481L66.483 88.6765C66.8125 88.7788 67.1023 88.9506 67.3523 89.1921C67.5994 89.4336 67.7926 89.7319 67.9318 90.087C68.0682 90.4421 68.1364 90.8413 68.1364 91.2844ZM68 87.0444L61.4545 87.0444L61.4545 86.0728L62.4432 86.0728L62.4432 86.0046C62.1193 85.8853 61.8565 85.6694 61.6548 85.3569C61.4531 85.0444 61.3523 84.6921 61.3523 84.3001C61.3523 84.2262 61.3537 84.1339 61.3565 84.0231C61.3594 83.9123 61.3636 83.8285 61.3693 83.7717L62.392 83.7717C62.3835 83.8058 62.3707 83.8839 62.3537 84.006C62.3338 84.1254 62.3239 84.2518 62.3239 84.3853C62.3239 84.7035 62.3906 84.9876 62.5241 85.2376C62.6548 85.4847 62.8366 85.6808 63.0696 85.8256C63.2997 85.9677 63.5625 86.0387 63.8579 86.0387L68 86.0387L68 87.0444ZM63.6364 78.8466C62.5625 78.8466 61.5753 78.7074 60.6747 78.429C59.7713 78.1477 58.9403 77.7472 58.1818 77.2273L58.1818 76.3409C58.4631 76.5455 58.8097 76.7372 59.2216 76.9162C59.6307 77.0923 60.081 77.2472 60.5724 77.3807C61.0611 77.5142 61.5668 77.6193 62.0895 77.696C62.6122 77.7699 63.1278 77.8068 63.6364 77.8068C64.3125 77.8068 64.9986 77.7415 65.6946 77.6108C66.3906 77.4801 67.0369 77.304 67.6335 77.0824C68.2301 76.8608 68.7159 76.6136 69.0909 76.3409L69.0909 77.2273C68.3324 77.7472 67.5028 78.1477 66.6023 78.429C65.6989 78.7074 64.7102 78.8466 63.6364 78.8466ZM66.3636 70.4251L65.9034 70.4251C65.5852 70.4251 65.294 70.3597 65.0298 70.229C64.7628 70.0955 64.5497 69.9023 64.3906 69.6495C64.2287 69.3938 64.1477 69.0842 64.1477 68.7205C64.1477 68.3512 64.2287 68.0415 64.3906 67.7915C64.5497 67.5415 64.7628 67.3526 65.0298 67.2248C65.294 67.0969 65.5852 67.033 65.9034 67.033L66.3636 67.033C66.6818 67.033 66.9744 67.0984 67.2415 67.229C67.5057 67.3569 67.7187 67.5472 67.8807 67.8001C68.0398 68.0501 68.1193 68.3569 68.1193 68.7205C68.1193 69.0898 68.0398 69.4009 67.8807 69.6538C67.7187 69.9066 67.5057 70.0984 67.2415 70.229C66.9744 70.3597 66.6818 70.4251 66.3636 70.4251ZM65.9034 69.5558L66.3636 69.5558C66.6278 69.5558 66.8651 69.4933 67.0753 69.3683C67.2827 69.2433 67.3864 69.0273 67.3864 68.7205C67.3864 68.4222 67.2827 68.212 67.0753 68.0898C66.8651 67.9648 66.6278 67.9023 66.3636 67.9023L65.9034 67.9023C65.6392 67.9023 65.4034 67.962 65.196 68.0813C64.9858 68.2006 64.8807 68.4137 64.8807 68.7205C64.8807 69.0188 64.9858 69.2333 65.196 69.364C65.4034 69.4918 65.6392 69.5558 65.9034 69.5558ZM61.3693 74.7717L60.9091 74.7717C60.5909 74.7717 60.2997 74.7063 60.0355 74.5756C59.7685 74.4421 59.5554 74.2489 59.3963 73.9961C59.2344 73.7404 59.1534 73.4308 59.1534 73.0671C59.1534 72.6978 59.2344 72.3881 59.3963 72.1381C59.5554 71.8881 59.7685 71.6992 60.0355 71.5714C60.2997 71.4435 60.5909 71.3796 60.9091 71.3796L61.3693 71.3796C61.6875 71.3796 61.9801 71.445 62.2472 71.5756C62.5114 71.7035 62.7244 71.8938 62.8864 72.1467C63.0454 72.3967 63.125 72.7035 63.125 73.0671C63.125 73.4364 63.0454 73.7475 62.8864 74.0004C62.7244 74.2532 62.5114 74.445 62.2472 74.5756C61.9801 74.7063 61.6875 74.7717 61.3693 74.7717ZM60.9091 73.9023L61.3693 73.9023C61.6335 73.9023 61.8707 73.8398 62.081 73.7148C62.2883 73.5898 62.392 73.3739 62.392 73.0671C62.392 72.7688 62.2883 72.5586 62.081 72.4364C61.8707 72.3114 61.6335 72.2489 61.3693 72.2489L60.9091 72.2489C60.6449 72.2489 60.4091 72.3086 60.2017 72.4279C59.9915 72.5472 59.8864 72.7603 59.8864 73.0671C59.8864 73.3654 59.9915 73.5799 60.2017 73.7106C60.4091 73.8384 60.6449 73.9023 60.9091 73.9023ZM68 74.4478L59.2727 68.4478L59.2727 67.4762L68 73.4762L68 74.4478ZM68.1364 59.0728C68.1364 59.6637 67.9957 60.1822 67.7145 60.6282C67.4332 61.0714 67.0398 61.418 66.5341 61.668C66.0284 61.9151 65.4375 62.0387 64.7614 62.0387C64.0795 62.0387 63.4844 61.9151 62.9758 61.668C62.4673 61.418 62.0724 61.0714 61.7912 60.6282C61.5099 60.1822 61.3693 59.6637 61.3693 59.0728C61.3693 58.4819 61.5099 57.9648 61.7912 57.5217C62.0724 57.0756 62.4673 56.729 62.9758 56.4819C63.4844 56.2319 64.0795 56.1069 64.7614 56.1069C65.4375 56.1069 66.0284 56.2319 66.5341 56.4819C67.0398 56.729 67.4332 57.0756 67.7145 57.5217C67.9957 57.9648 68.1364 58.4819 68.1364 59.0728ZM67.2329 59.0728C67.2329 58.6239 67.1179 58.2546 66.8878 57.9648C66.6577 57.6751 66.3551 57.4606 65.9801 57.3214C65.6051 57.1822 65.1989 57.1126 64.7614 57.1126C64.3239 57.1126 63.9162 57.1822 63.5383 57.3214C63.1605 57.4606 62.8551 57.6751 62.6222 57.9648C62.3892 58.2546 62.2727 58.6239 62.2727 59.0728C62.2727 59.5217 62.3892 59.891 62.6222 60.1808C62.8551 60.4705 63.1605 60.685 63.5383 60.8242C63.9162 60.9634 64.3239 61.033 64.7614 61.033C65.1989 61.033 65.6051 60.9634 65.9801 60.8242C66.3551 60.685 66.6577 60.4705 66.8878 60.1808C67.1179 59.891 67.2329 59.5217 67.2329 59.0728ZM61.4545 51.657L62.3068 51.657L62.3068 55.1854L61.4545 55.1854L61.4545 51.657ZM68 54.1286L60.5511 54.1286C60.1761 54.1286 59.8636 54.0405 59.6136 53.8643C59.3636 53.6882 59.1761 53.4595 59.0511 53.1783C58.9261 52.897 58.8636 52.6001 58.8636 52.2876C58.8636 52.0405 58.8835 51.8388 58.9233 51.6825C58.9631 51.5263 59 51.4098 59.0341 51.3331L59.9034 51.6229C59.8864 51.674 59.8651 51.745 59.8395 51.8359C59.8139 51.924 59.8011 52.0405 59.8011 52.1854C59.8011 52.5178 59.8849 52.7578 60.0526 52.9055C60.2202 53.0504 60.4659 53.1229 60.7898 53.1229L68 53.1229L68 54.1286ZM68.1364 44.4009C68.1364 44.9464 67.9986 45.4279 67.723 45.8455C67.4446 46.2631 67.0526 46.5898 66.5469 46.8256C66.0383 47.0614 65.4375 47.1793 64.7443 47.1793C64.0568 47.1793 63.4602 47.0614 62.9545 46.8256C62.4489 46.5898 62.0582 46.2617 61.7827 45.8413C61.5071 45.4208 61.3693 44.935 61.3693 44.3839C61.3693 43.9577 61.4403 43.6211 61.5824 43.3739C61.7216 43.1239 61.8807 42.9336 62.0597 42.8029C62.2358 42.6694 62.3807 42.5657 62.4943 42.4918L62.4943 42.4066L59.2727 42.4066L59.2727 41.4009L68 41.4009L68 42.3725L66.9943 42.3725L66.9943 42.4918C67.1136 42.5657 67.2642 42.6708 67.446 42.8072C67.625 42.9435 67.7855 43.1381 67.9276 43.391C68.0668 43.6438 68.1364 43.9805 68.1364 44.4009ZM67.2329 44.2646C67.2329 43.8611 67.1278 43.5202 66.9176 43.2418C66.7045 42.9634 66.4105 42.7518 66.0355 42.6069C65.6577 42.462 65.2216 42.3896 64.7273 42.3896C64.2386 42.3896 63.8111 42.4606 63.4446 42.6026C63.0753 42.7447 62.7883 42.9549 62.5838 43.2333C62.3764 43.5117 62.2727 43.8555 62.2727 44.2646C62.2727 44.6907 62.3821 45.0458 62.6008 45.3299C62.8168 45.6112 63.1108 45.8228 63.4829 45.9648C63.8523 46.104 64.267 46.1737 64.7273 46.1737C65.1932 46.1737 65.6165 46.1026 65.9972 45.9606C66.375 45.8157 66.6761 45.6026 66.9006 45.3214C67.1222 45.0373 67.2329 44.685 67.2329 44.2646ZM68.1534 37.4933C68.1534 37.908 68.0753 38.2844 67.919 38.6225C67.7599 38.9606 67.5312 39.229 67.2329 39.4279C66.9318 39.6268 66.5682 39.7262 66.142 39.7262C65.767 39.7262 65.4631 39.6523 65.2301 39.5046C64.9943 39.3569 64.8097 39.1594 64.6761 38.9123C64.5426 38.6651 64.4432 38.3924 64.3778 38.0941C64.3097 37.793 64.2557 37.4904 64.2159 37.1864C64.1648 36.7887 64.1264 36.4663 64.1008 36.2191C64.0724 35.9691 64.0256 35.7873 63.9602 35.6737C63.8949 35.5572 63.7812 35.4989 63.6193 35.4989L63.5852 35.4989C63.1648 35.4989 62.8381 35.614 62.6051 35.8441C62.3722 36.0714 62.2557 36.4165 62.2557 36.8796C62.2557 37.3597 62.3608 37.7362 62.571 38.0089C62.7812 38.2816 63.0057 38.4734 63.2443 38.5842L62.9034 39.5387C62.5057 39.3683 62.196 39.141 61.9744 38.8569C61.75 38.57 61.5937 38.2575 61.5057 37.9194C61.4148 37.5785 61.3693 37.2433 61.3693 36.9137C61.3693 36.7035 61.3949 36.462 61.446 36.1893C61.4943 35.9137 61.5952 35.6481 61.7486 35.3924C61.902 35.1339 62.1335 34.9194 62.4432 34.7489C62.7528 34.5785 63.1676 34.4933 63.6875 34.4933L68 34.4933L68 35.4989L67.1136 35.4989L67.1136 35.5501C67.2557 35.6183 67.4077 35.7319 67.5696 35.891C67.7315 36.0501 67.8693 36.2617 67.9829 36.5259C68.0966 36.7901 68.1534 37.1126 68.1534 37.4933ZM67.25 37.3398C67.25 36.9421 67.1719 36.6069 67.0156 36.3342C66.8594 36.0586 66.6577 35.8512 66.4105 35.712C66.1633 35.57 65.9034 35.4989 65.6307 35.4989L64.7102 35.4989C64.7614 35.5415 64.8082 35.6353 64.8508 35.7802C64.8906 35.9222 64.9261 36.087 64.9574 36.2745C64.9858 36.4592 65.0114 36.6396 65.0341 36.8157C65.054 36.989 65.071 37.1296 65.0852 37.2376C65.1193 37.4989 65.1747 37.7433 65.2514 37.9705C65.3253 38.195 65.4375 38.3768 65.5881 38.516C65.7358 38.6523 65.9375 38.7205 66.1932 38.7205C66.5426 38.7205 66.8068 38.5913 66.9858 38.3327C67.1619 38.0714 67.25 37.7404 67.25 37.3398ZM70.4545 32.2443C70.4545 32.4148 70.4403 32.5668 70.4119 32.7003C70.3864 32.8338 70.3608 32.9261 70.3352 32.9773L69.4489 32.7216C69.5114 32.4773 69.5341 32.2614 69.517 32.0739C69.5 31.8864 69.4162 31.7202 69.2656 31.5753C69.1179 31.4276 68.8778 31.2926 68.5454 31.1705L68.0341 30.983L61.4545 33.4034L61.4545 32.3125L66.6704 30.5057L66.6704 30.4375L61.4545 28.6307L61.4545 27.5398L68.9545 30.3182C69.2926 30.4432 69.5724 30.598 69.794 30.7827C70.0185 30.9673 70.1847 31.1818 70.2926 31.4261C70.4006 31.6676 70.4545 31.9403 70.4545 32.2443ZM68.1193 20.0078C68.1193 20.6499 67.9446 21.1967 67.5952 21.6484C67.2429 22.1001 66.7329 22.4453 66.0653 22.6839C65.3949 22.9226 64.5852 23.0419 63.6364 23.0419C62.6932 23.0419 61.8878 22.9226 61.2202 22.6839C60.5497 22.4425 60.0383 22.0959 59.6861 21.6442C59.331 21.1896 59.1534 20.6442 59.1534 20.0078C59.1534 19.3714 59.331 18.8274 59.6861 18.3757C60.0383 17.9212 60.5497 17.5746 61.2202 17.3359C61.8878 17.0945 62.6932 16.9737 63.6364 16.9737C64.5852 16.9737 65.3949 17.093 66.0653 17.3317C66.7329 17.5703 67.2429 17.9155 67.5952 18.3672C67.9446 18.8189 68.1193 19.3658 68.1193 20.0078ZM67.1818 20.0078C67.1818 19.3714 66.875 18.8771 66.2614 18.5249C65.6477 18.1726 64.7727 17.9964 63.6364 17.9964C62.8807 17.9964 62.2372 18.0774 61.706 18.2393C61.1747 18.3984 60.7699 18.6286 60.4915 18.9297C60.2131 19.228 60.0739 19.5874 60.0739 20.0078C60.0739 20.6385 60.3849 21.1314 61.0071 21.4865C61.6264 21.8416 62.5028 22.0192 63.6364 22.0192C64.392 22.0192 65.0341 21.9396 65.5625 21.7805C66.0909 21.6214 66.4929 21.3928 66.7685 21.0945C67.044 20.7933 67.1818 20.4311 67.1818 20.0078ZM63.6364 13.1896C64.7102 13.1896 65.6989 13.3303 66.6023 13.6115C67.5028 13.8899 68.3324 14.2891 69.0909 14.8089L69.0909 15.6953C68.8097 15.4908 68.4631 15.3004 68.0511 15.1243C67.642 14.9453 67.1932 14.7891 66.7045 14.6555C66.2131 14.522 65.706 14.4183 65.1832 14.3445C64.6577 14.2678 64.142 14.2294 63.6364 14.2294C62.9602 14.2294 62.2741 14.2947 61.5781 14.4254C60.8821 14.5561 60.2358 14.7322 59.6392 14.9538C59.0426 15.1754 58.5568 15.4226 58.1818 15.6953L58.1818 14.8089C58.9403 14.2891 59.7713 13.8899 60.6747 13.6115C61.5753 13.3303 62.5625 13.1896 63.6364 13.1896Z" fill="black"/>
<rect x="143" y="209.208" width="11.6326" height="11.6326" rx="5.81629" fill="#D9D9D9"/>
<path d="M164.351 218V211.666H166.396C166.891 211.666 167.295 211.748 167.609 211.91C167.922 212.073 168.155 212.296 168.305 212.58C168.456 212.864 168.532 213.177 168.532 213.521C168.532 213.919 168.423 214.278 168.206 214.598C167.995 214.918 167.663 215.144 167.211 215.276L168.595 218H167.699L166.414 215.385H166.36H165.111V218H164.351ZM165.111 214.788H166.342C166.83 214.788 167.186 214.67 167.41 214.435C167.633 214.2 167.744 213.898 167.744 213.53C167.744 213.156 167.633 212.86 167.41 212.643C167.192 212.42 166.834 212.309 166.333 212.309H165.111V214.788ZM171.22 218.109C170.846 218.109 170.535 218.045 170.288 217.919C170.041 217.792 169.857 217.623 169.736 217.412C169.615 217.201 169.555 216.971 169.555 216.724C169.555 216.266 169.73 215.913 170.08 215.666C170.43 215.418 170.906 215.295 171.509 215.295H172.722V215.24C172.722 214.848 172.619 214.553 172.414 214.353C172.209 214.148 171.935 214.046 171.591 214.046C171.295 214.046 171.039 214.121 170.822 214.272C170.611 214.417 170.478 214.631 170.424 214.914H169.645C169.676 214.589 169.784 214.314 169.971 214.091C170.164 213.868 170.403 213.699 170.686 213.584C170.97 213.464 171.271 213.403 171.591 213.403C172.218 213.403 172.689 213.572 173.002 213.91C173.322 214.242 173.482 214.685 173.482 215.24V218H172.803L172.758 217.195C172.631 217.448 172.444 217.665 172.197 217.846C171.956 218.021 171.63 218.109 171.22 218.109ZM171.338 217.466C171.627 217.466 171.874 217.391 172.079 217.24C172.291 217.089 172.45 216.893 172.559 216.652C172.668 216.41 172.722 216.157 172.722 215.892V215.883H171.573C171.126 215.883 170.81 215.961 170.623 216.118C170.442 216.269 170.351 216.459 170.351 216.688C170.351 216.923 170.436 217.113 170.605 217.258C170.78 217.397 171.024 217.466 171.338 217.466Z" fill="black"/>
<rect x="249.031" y="209.208" width="11.6326" height="11.6326" rx="5.81629" fill="#9D9D9D"/>
<path d="M270.382 218V211.666H272.427C272.922 211.666 273.326 211.748 273.64 211.91C273.954 212.073 274.186 212.296 274.337 212.58C274.487 212.864 274.563 213.177 274.563 213.521C274.563 213.919 274.454 214.278 274.237 214.598C274.026 214.918 273.694 215.144 273.242 215.276L274.626 218H273.73L272.446 215.385H272.391H271.143V218H270.382ZM271.143 214.788H272.373C272.862 214.788 273.218 214.67 273.441 214.435C273.664 214.2 273.776 213.898 273.776 213.53C273.776 213.156 273.664 212.86 273.441 212.643C273.224 212.42 272.865 212.309 272.364 212.309H271.143V214.788ZM275.574 218V217.376L278.072 214.145H275.619V213.512H278.922V214.136L276.425 217.367H278.967V218H275.574Z" fill="black"/>
<rect x="346.035" y="209.184" width="11.6326" height="11.6326" rx="5.81629" fill="#E3C84C"/>
<path d="M367.386 218V211.666H369.431C369.926 211.666 370.33 211.748 370.644 211.91C370.957 212.073 371.19 212.296 371.341 212.58C371.491 212.864 371.567 213.177 371.567 213.521C371.567 213.919 371.458 214.278 371.241 214.598C371.03 214.918 370.698 215.144 370.246 215.276L371.63 218H370.734L369.449 215.385H369.395H368.146V218H367.386ZM368.146 214.788H369.377C369.866 214.788 370.222 214.67 370.445 214.435C370.668 214.2 370.78 213.898 370.78 213.53C370.78 213.156 370.668 212.86 370.445 212.643C370.228 212.42 369.869 212.309 369.368 212.309H368.146V214.788ZM374.659 218C374.249 218 373.926 217.9 373.691 217.701C373.456 217.502 373.338 217.143 373.338 216.625V214.154H372.56V213.512H373.338L373.438 212.435H374.098V213.512H375.419V214.154H374.098V216.625C374.098 216.908 374.156 217.101 374.27 217.204C374.385 217.3 374.587 217.349 374.876 217.349H375.347V218H374.659Z" fill="black"/>
</svg>
