<svg width="128" height="20" viewBox="0 0 128 20" fill="none" xmlns="http://www.w3.org/2000/svg">
<g clip-path="url(#clip0_220_1915)">
<path d="M25.5879 5.42648H27.1917C27.3418 5.41952 27.4898 5.46481 27.6115 5.55497C27.7208 5.64093 27.8049 5.75587 27.8549 5.88732L30.3635 12.5537C30.4465 12.7701 30.5264 13.0081 30.6031 13.2676C30.6786 13.5275 30.7512 13.8 30.8201 14.0869C30.9178 13.5646 31.0586 13.0517 31.2408 12.5537L33.7418 5.88732C33.7925 5.76267 33.8738 5.65352 33.9777 5.57043C34.0964 5.47204 34.2458 5.42092 34.3985 5.42648H36.0023L31.6871 16.3496H29.8946L25.5879 5.42648Z" fill="white"/>
<path d="M39.0363 6.34061C39.0374 6.49688 39.0052 6.65153 38.9419 6.79373C38.8163 7.07454 38.5925 7.29691 38.3146 7.41688C38.1701 7.48091 38.0144 7.5138 37.857 7.51349C37.7033 7.5134 37.5513 7.4805 37.4108 7.41688C37.1369 7.29649 36.9183 7.0736 36.7994 6.79373C36.7365 6.6514 36.7043 6.49684 36.7051 6.34061C36.7044 6.1794 36.7365 6.01981 36.7994 5.87203C36.8575 5.73132 36.941 5.60314 37.0457 5.49427C37.1513 5.38784 37.275 5.30205 37.4108 5.24115C37.5513 5.17751 37.7033 5.1446 37.857 5.14453C38.0144 5.1442 38.1701 5.17709 38.3146 5.24115C38.4527 5.30171 38.579 5.38748 38.6872 5.49427C38.7945 5.60275 38.8809 5.73089 38.9419 5.87203C39.0053 6.01967 39.0374 6.17935 39.0363 6.34061ZM38.7646 8.59846V16.3488H36.9419V8.59846H38.7646Z" fill="white"/>
<path d="M40.5059 16.3505V5.12109H42.3276V9.55179C42.6187 9.23118 42.9634 8.96648 43.3455 8.77018C43.7601 8.56851 44.2151 8.46923 44.6739 8.48034C45.0647 8.47337 45.4515 8.56215 45.802 8.73928C46.1525 8.91641 46.4567 9.17677 46.689 9.49865C46.9551 9.86833 47.1504 10.2863 47.2645 10.7305C47.4071 11.2796 47.4754 11.8463 47.4673 12.4144C47.4721 12.9598 47.3951 13.5026 47.239 14.024C47.1005 14.4895 46.8791 14.9248 46.5862 15.308C46.3096 15.665 45.9595 15.955 45.5607 16.1572C45.1416 16.3659 44.6804 16.4708 44.2144 16.4635C44.0011 16.4654 43.7883 16.4414 43.5805 16.392C43.2219 16.3073 42.8904 16.1304 42.6172 15.878C42.4785 15.7509 42.3492 15.6133 42.2304 15.4665L42.1493 15.9882C42.1437 16.0419 42.1277 16.0939 42.1023 16.1413C42.0769 16.1886 42.0426 16.2304 42.0014 16.2641C41.9602 16.2977 41.9128 16.3227 41.8621 16.3376C41.8114 16.3524 41.7583 16.3568 41.7059 16.3505H40.5059ZM44.0474 9.92954C43.7084 9.91946 43.3731 10.0043 43.0776 10.1749C42.7893 10.3574 42.5355 10.5918 42.3285 10.8667V14.3448C42.5053 14.5825 42.7376 14.7709 43.004 14.8926C43.2556 14.9974 43.5249 15.0499 43.7965 15.0472C44.0533 15.051 44.3077 14.9969 44.5418 14.8887C44.7679 14.7802 44.9629 14.6138 45.1078 14.4056C45.2768 14.1579 45.3981 13.8796 45.4654 13.5854C45.5551 13.2033 45.5972 12.8112 45.5909 12.4183C45.5971 12.0316 45.5614 11.6453 45.4843 11.2667C45.4297 10.9936 45.3257 10.7334 45.1777 10.4996C45.0577 10.314 44.8908 10.1654 44.6946 10.0696C44.4917 9.97429 44.2707 9.92644 44.0474 9.92954Z" fill="white"/>
<path d="M48.7129 16.3534V8.60214H49.7827C49.9714 8.60214 50.0997 8.63692 50.1733 8.70745C50.261 8.80815 50.3131 8.93606 50.3214 9.07071L50.4318 10.0069C50.6703 9.56658 50.9942 9.18091 51.3837 8.87362C51.7366 8.60036 52.1678 8.45429 52.6101 8.45818C52.9392 8.44548 53.264 8.538 53.5394 8.72291L53.3026 10.1199C53.2967 10.1944 53.2629 10.2636 53.2083 10.3132C53.1496 10.3535 53.0797 10.3731 53.0092 10.3692C52.9065 10.3646 52.8047 10.3467 52.7064 10.3161C52.5397 10.277 52.3688 10.2594 52.1979 10.2639C51.8448 10.2533 51.4989 10.3668 51.2177 10.5856C50.9182 10.8382 50.6826 11.161 50.5309 11.5266V16.3573L48.7129 16.3534Z" fill="white"/>
<path d="M60.3287 16.3518H59.5098C59.3703 16.3588 59.2313 16.3317 59.1041 16.2726C59.0483 16.2368 59 16.19 58.9619 16.1349C58.9238 16.0799 58.8968 16.0176 58.8824 15.9518L58.7202 15.4001C58.5405 15.5662 58.3515 15.7214 58.1541 15.8648C57.9748 15.9956 57.7833 16.1079 57.5824 16.2001C57.382 16.2928 57.1718 16.3616 56.956 16.4049C56.7128 16.4522 56.4657 16.4748 56.2182 16.4725C55.918 16.4754 55.6192 16.4307 55.3323 16.3402C55.0753 16.259 54.8378 16.1233 54.6351 15.9421C54.4373 15.7605 54.2825 15.5352 54.1823 15.2832C54.0687 14.9915 54.0135 14.6794 54.02 14.3654C54.0223 14.0608 54.0995 13.7618 54.2446 13.4959C54.4261 13.1772 54.6839 12.9112 54.9937 12.723C55.4256 12.4579 55.8959 12.2648 56.3871 12.151C56.9676 11.9997 57.6881 11.9237 58.5484 11.923V11.466C58.5484 10.943 58.4415 10.5566 58.2277 10.3067C58.0138 10.0568 57.7028 9.93117 57.2946 9.92988C57.0448 9.92344 56.7955 9.95901 56.5569 10.0352C56.379 10.0975 56.2074 10.1774 56.0446 10.2738C55.8993 10.3614 55.7654 10.4406 55.6427 10.5115C55.5187 10.582 55.3789 10.6183 55.2371 10.6168C55.1237 10.6205 55.0122 10.5866 54.9191 10.5202C54.8322 10.456 54.7596 10.3737 54.7059 10.2787L54.3738 9.68158C55.2449 8.86488 56.2949 8.45685 57.5239 8.45749C57.9291 8.45036 58.3317 8.52623 58.7079 8.68067C59.0414 8.82029 59.3419 9.03146 59.589 9.29996C59.8346 9.57322 60.0216 9.89606 60.1381 10.2477C60.2671 10.6368 60.3309 11.0455 60.3268 11.4564L60.3287 16.3518ZM56.788 15.1924C56.9614 15.1937 57.1343 15.1763 57.3041 15.1402C57.4584 15.1066 57.6083 15.0541 57.7503 14.9837C57.8938 14.9129 58.0297 14.8271 58.156 14.7277C58.296 14.6174 58.4278 14.4966 58.5503 14.3664V13.066C58.1045 13.0589 57.659 13.0931 57.2192 13.1684C56.9229 13.2179 56.634 13.3062 56.3597 13.4312C56.1761 13.5105 56.017 13.6394 55.8993 13.8041C55.8094 13.9412 55.7618 14.1027 55.7625 14.2678C55.7625 14.597 55.8569 14.8327 56.0456 14.975C56.2628 15.126 56.522 15.2009 56.7843 15.1885L56.788 15.1924Z" fill="white"/>
<path d="M61.9062 16.3521V8.60079H63.0204C63.124 8.59396 63.2267 8.62425 63.3109 8.68648C63.3951 8.7487 63.4555 8.83898 63.4818 8.94183L63.6072 9.55339C63.7568 9.39475 63.9183 9.24841 64.0903 9.11574C64.2589 8.98515 64.4393 8.87128 64.629 8.77566C64.8227 8.67837 65.0269 8.60476 65.2375 8.55634C65.4702 8.50436 65.7078 8.47909 65.946 8.48098C66.324 8.47351 66.6994 8.54723 67.0479 8.6974C67.3565 8.8328 67.6303 9.03946 67.8479 9.30123C68.0693 9.57452 68.2348 9.89059 68.3347 10.2307C68.4489 10.6161 68.5049 11.0172 68.5007 11.42V16.353H66.679V11.419C66.679 10.9456 66.5721 10.5794 66.3582 10.3205C66.1444 10.0616 65.8233 9.93276 65.395 9.93405C65.0875 9.93 64.7837 10.003 64.5101 10.1466C64.2211 10.303 63.9573 10.5041 63.728 10.7427V16.3463L61.9062 16.3521Z" fill="white"/>
<path d="M72.3973 16.4738C71.7426 16.4738 71.2394 16.2838 70.8878 15.9037C70.5362 15.5237 70.3592 14.9988 70.3567 14.3289V9.9997H69.5897C69.5398 10.0019 69.49 9.99308 69.4437 9.97384C69.3974 9.95459 69.3557 9.92537 69.3215 9.88816C69.2872 9.85095 69.2611 9.80662 69.2451 9.75819C69.229 9.70975 69.2233 9.65834 69.2283 9.60745V8.86643L70.4454 8.66257L70.8284 6.5477C70.8438 6.45498 70.8926 6.37156 70.9652 6.3139C71.0432 6.25618 71.1379 6.22692 71.2341 6.23081H72.1775V8.6703H74.169V9.9997H72.1756V14.2053C72.1638 14.41 72.227 14.6119 72.353 14.7714C72.412 14.839 72.4849 14.8923 72.5665 14.9276C72.648 14.9628 72.7362 14.9791 72.8247 14.9753C72.9206 14.9779 73.0163 14.9639 73.1077 14.9337C73.1763 14.9097 73.2431 14.8806 73.3077 14.8468C73.3634 14.8168 73.4143 14.7879 73.4586 14.7598C73.4982 14.734 73.5438 14.7196 73.5907 14.7183C73.6384 14.7164 73.6852 14.731 73.7237 14.7598C73.766 14.7962 73.8035 14.8381 73.8351 14.8845L74.3804 15.7907C74.1104 16.0201 73.8001 16.1945 73.4662 16.3047C73.121 16.419 72.7601 16.4761 72.3973 16.4738Z" fill="white"/>
<path d="M74.3535 5.66109H74.9809C75.0427 5.65576 75.1043 5.67344 75.1544 5.71089C75.2045 5.74834 75.2397 5.80304 75.2535 5.86494L77.8876 14.651C77.9168 14.7476 77.9423 14.8597 77.9649 14.9756C77.9876 15.0915 78.0102 15.2123 78.0347 15.3379C78.0593 15.2091 78.0838 15.0883 78.1083 14.9756C78.1311 14.8656 78.1607 14.7571 78.197 14.651L81.148 5.86494C81.1684 5.80829 81.2041 5.75872 81.2508 5.72195C81.3011 5.68095 81.3639 5.65941 81.4282 5.66109H81.6339C81.6954 5.65837 81.7557 5.67863 81.8037 5.71809C81.8492 5.75792 81.8847 5.80826 81.9075 5.86494L84.8575 14.651C84.8943 14.7549 84.9258 14.8606 84.9519 14.9679C84.9792 15.079 85.0047 15.1968 85.0292 15.3224C85.0538 15.2017 85.0764 15.0848 85.0962 14.9717C85.1149 14.8635 85.1394 14.7564 85.1698 14.651L87.801 5.86494C87.8178 5.80747 87.8526 5.75724 87.9 5.72195C87.952 5.68131 88.0158 5.65986 88.0812 5.66109H88.6567L85.3745 16.3504H84.6962L81.6122 7.07551C81.5712 6.94865 81.5369 6.81965 81.5093 6.68905C81.4791 6.82431 81.4452 6.95281 81.4056 7.07551L78.3149 16.3504H77.6432L74.3535 5.66109Z" fill="white"/>
<path d="M92.1546 8.71535C92.5473 8.71157 92.9369 8.78605 93.3018 8.93466C93.6485 9.0769 93.9608 9.29483 94.2169 9.57327C94.4856 9.87066 94.6914 10.2216 94.8216 10.6041C94.9731 11.0559 95.0466 11.5313 95.0386 12.0089C95.0466 12.0878 95.0301 12.1672 94.9915 12.2359C94.9722 12.2568 94.9487 12.273 94.9226 12.2833C94.8965 12.2937 94.8684 12.298 94.8405 12.2958H89.5442V12.4398C89.5348 12.9426 89.5984 13.444 89.7328 13.9276C89.8421 14.3203 90.0276 14.6863 90.2781 15.0039C90.5084 15.2887 90.8018 15.5129 91.1338 15.658C91.4894 15.8078 91.8711 15.8821 92.2555 15.8763C92.5802 15.8824 92.9041 15.8401 93.2169 15.7507C93.4531 15.6821 93.6817 15.5885 93.899 15.4715C94.0516 15.3889 94.1985 15.2956 94.3386 15.1923C94.4047 15.1296 94.4862 15.0865 94.5745 15.0677C94.6034 15.0664 94.6321 15.0726 94.658 15.0858C94.6839 15.099 94.7061 15.1187 94.7226 15.143L94.9113 15.3846C94.777 15.5504 94.6177 15.6932 94.4396 15.8077C94.2358 15.9436 94.0181 16.0564 93.7905 16.144C93.5415 16.2403 93.2849 16.3147 93.0235 16.3662C92.7527 16.422 92.4771 16.4502 92.2008 16.4502C91.7306 16.4562 91.264 16.3649 90.8291 16.1816C90.4215 16.0069 90.0579 15.7397 89.7659 15.4C89.4566 15.033 89.223 14.6058 89.0791 14.1441C88.9095 13.5933 88.8276 13.0182 88.8366 12.4408C88.8317 11.9343 88.9079 11.4303 89.0621 10.9491C89.1997 10.5158 89.4204 10.1151 89.7112 9.77037C89.998 9.43843 90.3522 9.17465 90.7489 8.99746C91.1928 8.80311 91.6719 8.70697 92.1546 8.71535ZM92.1659 9.25155C91.8191 9.24598 91.4743 9.3076 91.1499 9.43319C90.8564 9.5482 90.5902 9.72569 90.3687 9.95393C90.1439 10.1899 89.9641 10.4668 89.8385 10.7703C89.6981 11.109 89.6075 11.4672 89.5696 11.8331H94.4009C94.4064 11.465 94.3515 11.0986 94.2386 10.7491C94.1425 10.4493 93.9871 10.173 93.782 9.93751C93.5864 9.71583 93.345 9.54157 93.0754 9.42739C92.7866 9.30747 92.4775 9.24769 92.1659 9.25155Z" fill="white"/>
<path d="M97.3435 5.35938V16.3501H96.6426V5.35938H97.3435Z" fill="white"/>
<path d="M100.234 5.35938V16.3501H99.5332V5.35938H100.234Z" fill="white"/>
<path d="M102.33 16.3489V8.83241H102.713C102.74 8.82935 102.768 8.83199 102.794 8.84018C102.82 8.84836 102.844 8.86192 102.865 8.88002C102.885 8.89811 102.902 8.92037 102.914 8.94541C102.926 8.97045 102.933 8.99776 102.935 9.02564L103.001 10.158C103.322 9.73664 103.72 9.38188 104.171 9.11259C104.622 8.84595 105.135 8.70878 105.657 8.71551C106.021 8.70741 106.383 8.77307 106.723 8.90874C107.018 9.03158 107.28 9.22621 107.486 9.47586C107.695 9.73813 107.851 10.0411 107.943 10.3666C108.051 10.7496 108.103 11.1468 108.098 11.5453V16.3499H107.397V11.5444C107.397 10.8391 107.24 10.2864 106.925 9.88647C106.611 9.48649 106.129 9.28618 105.479 9.28553C105.007 9.28416 104.545 9.41622 104.141 9.66715C103.71 9.93961 103.334 10.2949 103.035 10.7135V16.3489H102.33Z" fill="white"/>
<path d="M112.872 8.71536C113.265 8.71158 113.655 8.78607 114.02 8.93468C114.366 9.07668 114.678 9.29465 114.934 9.57329C115.203 9.87036 115.409 10.2214 115.539 10.6042C115.691 11.0559 115.764 11.5313 115.756 12.0089C115.764 12.0878 115.748 12.1672 115.709 12.236C115.69 12.2569 115.666 12.2732 115.64 12.2835C115.614 12.2939 115.585 12.2981 115.557 12.2959H110.261V12.4398C110.252 12.9426 110.316 13.4439 110.45 13.9277C110.56 14.3202 110.745 14.6862 110.996 15.0039C111.226 15.2887 111.519 15.513 111.852 15.658C112.207 15.8081 112.589 15.8824 112.973 15.8764C113.298 15.8824 113.622 15.8401 113.935 15.7508C114.171 15.6821 114.399 15.5886 114.617 15.4715C114.769 15.3889 114.916 15.2956 115.056 15.1923C115.122 15.1294 115.204 15.0863 115.292 15.0677C115.321 15.0663 115.35 15.0725 115.375 15.0857C115.401 15.0988 115.423 15.1186 115.439 15.1431L115.628 15.3846C115.494 15.5505 115.335 15.6934 115.156 15.8078C114.952 15.9435 114.735 16.0562 114.507 16.144C114.258 16.2404 114.002 16.3147 113.74 16.3662C113.469 16.422 113.194 16.4501 112.918 16.4502C112.447 16.4564 111.98 16.365 111.545 16.1816C111.138 16.0065 110.774 15.7393 110.482 15.4C110.173 15.0328 109.94 14.6056 109.796 14.1441C109.626 13.5933 109.544 13.0182 109.553 12.4408C109.549 11.9343 109.625 11.4304 109.779 10.9491C109.916 10.5157 110.137 10.1149 110.428 9.77038C110.715 9.43824 111.069 9.17442 111.466 8.99747C111.91 8.80299 112.389 8.70685 112.872 8.71536ZM112.884 9.25157C112.537 9.24599 112.191 9.30761 111.867 9.4332C111.575 9.54895 111.31 9.72639 111.09 9.95395C110.865 10.1902 110.685 10.4669 110.559 10.7703C110.419 11.1089 110.328 11.4671 110.291 11.8331H115.122C115.128 11.465 115.073 11.0986 114.96 10.7491C114.864 10.4493 114.709 10.173 114.504 9.93752C114.308 9.71561 114.066 9.54132 113.796 9.4274C113.506 9.30698 113.196 9.24719 112.884 9.25157Z" fill="white"/>
<path d="M121.441 9.77031C121.427 9.80259 121.404 9.82992 121.375 9.84872C121.346 9.86752 121.313 9.87689 121.278 9.87562C121.2 9.86554 121.127 9.8319 121.068 9.779C120.959 9.70168 120.846 9.63134 120.728 9.56839C120.564 9.47995 120.391 9.40905 120.212 9.3568C119.969 9.28794 119.717 9.2554 119.464 9.26019C119.217 9.25695 118.971 9.29647 118.737 9.37709C118.533 9.44633 118.344 9.55199 118.176 9.68915C118.027 9.81402 117.904 9.96928 117.815 10.1452C117.73 10.314 117.686 10.5011 117.686 10.691C117.678 10.9021 117.74 11.1098 117.863 11.2794C117.99 11.4433 118.148 11.579 118.328 11.6784C118.536 11.7971 118.754 11.8942 118.98 11.9683C119.224 12.0485 119.474 12.1296 119.729 12.2098C119.985 12.29 120.234 12.3798 120.477 12.4784C120.71 12.5701 120.93 12.6932 121.131 12.8445C121.321 12.9882 121.479 13.1708 121.595 13.3808C121.72 13.618 121.781 13.8845 121.773 14.1537C121.775 14.4671 121.716 14.7779 121.599 15.0676C121.486 15.3461 121.314 15.5959 121.097 15.8C120.862 16.0167 120.588 16.1838 120.29 16.2917C119.939 16.4176 119.57 16.4788 119.198 16.4724C118.741 16.4841 118.286 16.3978 117.863 16.2193C117.496 16.0558 117.157 15.8326 116.859 15.5584L117.029 15.3014C117.05 15.2658 117.078 15.2349 117.11 15.2106C117.148 15.1884 117.192 15.178 117.236 15.1807C117.325 15.1929 117.408 15.2354 117.472 15.3014C117.587 15.3982 117.709 15.4855 117.838 15.5623C118.015 15.6685 118.203 15.7559 118.398 15.8231C118.666 15.9103 118.946 15.9511 119.227 15.9439C119.506 15.949 119.783 15.9042 120.046 15.8115C120.265 15.7342 120.466 15.6119 120.637 15.4521C120.793 15.3036 120.915 15.1219 120.994 14.9198C121.076 14.7149 121.117 14.4956 121.116 14.2744C121.124 14.0513 121.062 13.8315 120.939 13.6474C120.814 13.4751 120.656 13.331 120.475 13.2242C120.268 13.1017 120.049 13.0029 119.822 12.9296C119.577 12.8494 119.327 12.7682 119.067 12.688C118.807 12.6078 118.558 12.519 118.312 12.4233C118.079 12.3337 117.86 12.2118 117.659 12.061C117.47 11.9184 117.312 11.7372 117.194 11.5287C117.069 11.2883 117.008 11.0183 117.018 10.7461C117.017 10.4788 117.075 10.2147 117.187 9.9732C117.302 9.72434 117.466 9.50286 117.67 9.32299C117.896 9.12769 118.155 8.97671 118.434 8.8776C118.759 8.76279 119.101 8.70657 119.444 8.71143C119.85 8.70447 120.253 8.77187 120.636 8.91045C120.992 9.04808 121.318 9.25549 121.596 9.52105L121.441 9.77031Z" fill="white"/>
<path d="M127.412 9.77027C127.399 9.80246 127.376 9.82972 127.347 9.84851C127.318 9.86729 127.284 9.87672 127.25 9.87558C127.172 9.8655 127.099 9.83186 127.04 9.77896C126.931 9.70164 126.817 9.6313 126.7 9.56834C126.536 9.47991 126.363 9.40901 126.184 9.35676C125.94 9.28783 125.688 9.25529 125.435 9.26015C125.188 9.25697 124.942 9.2965 124.708 9.37705C124.505 9.44628 124.315 9.55194 124.148 9.68911C123.998 9.81398 123.875 9.96923 123.787 10.1451C123.702 10.3139 123.658 10.5011 123.658 10.691C123.65 10.902 123.712 11.1095 123.835 11.2794C123.962 11.4429 124.12 11.5786 124.299 11.6784C124.507 11.7971 124.725 11.8942 124.952 11.9682C125.195 12.0484 125.445 12.1296 125.701 12.2098C125.957 12.2899 126.206 12.3798 126.45 12.4783C126.682 12.5701 126.902 12.6932 127.102 12.8445C127.292 12.9878 127.45 13.1705 127.567 13.3807C127.691 13.6179 127.753 13.8845 127.744 14.1536C127.747 14.4671 127.688 14.7779 127.571 15.0676C127.458 15.3462 127.286 15.5961 127.069 15.7999C126.834 16.0164 126.559 16.1835 126.261 16.2917C125.911 16.4176 125.541 16.4787 125.17 16.4723C124.712 16.484 124.258 16.3978 123.835 16.2192C123.468 16.0548 123.129 15.8303 122.832 15.5545L123.001 15.2975C123.022 15.2619 123.049 15.231 123.082 15.2067C123.12 15.1844 123.164 15.174 123.208 15.1768C123.297 15.189 123.38 15.2315 123.443 15.2975C123.558 15.3941 123.68 15.4813 123.808 15.5584C123.986 15.6642 124.174 15.7516 124.369 15.8192C124.637 15.9063 124.918 15.9471 125.199 15.94C125.477 15.9451 125.755 15.9003 126.018 15.8076C126.237 15.7303 126.438 15.608 126.609 15.4482C126.764 15.2995 126.886 15.1178 126.966 14.9159C127.047 14.711 127.089 14.4917 127.088 14.2705C127.096 14.0474 127.034 13.8276 126.91 13.6435C126.786 13.4712 126.628 13.3271 126.446 13.2203C126.24 13.098 126.021 12.9991 125.793 12.9257C125.55 12.8455 125.299 12.7643 125.039 12.6841C124.778 12.6039 124.53 12.5151 124.284 12.4194C124.052 12.3295 123.832 12.2076 123.632 12.0571C123.443 11.9145 123.284 11.7333 123.167 11.5248C123.042 11.2845 122.98 11.0145 122.99 10.7422C122.989 10.4748 123.047 10.2107 123.159 9.96929C123.274 9.72019 123.439 9.49865 123.643 9.31908C123.869 9.1236 124.128 8.97258 124.407 8.87369C124.732 8.75904 125.073 8.70282 125.417 8.70752C125.822 8.70057 126.226 8.76798 126.608 8.90654C126.962 9.04445 127.286 9.25149 127.563 9.51617L127.412 9.77027Z" fill="white"/>
<path d="M15.5872 12.9085C16.7496 12.9085 17.6919 11.9435 17.6919 10.7531C17.6919 9.56268 16.7496 8.59766 15.5872 8.59766C14.4248 8.59766 13.4824 9.56268 13.4824 10.7531C13.4824 11.9435 14.4248 12.9085 15.5872 12.9085Z" fill="white"/>
<path d="M3.81597 7.08838C5.51142 7.08838 6.88585 5.68086 6.88585 3.94458C6.88585 2.20831 5.51142 0.800781 3.81597 0.800781C2.12053 0.800781 0.746094 2.20831 0.746094 3.94458C0.746094 5.68086 2.12053 7.08838 3.81597 7.08838Z" fill="white"/>
<path d="M17.7711 7.08838C19.4665 7.08838 20.8409 5.68086 20.8409 3.94458C20.8409 2.20831 19.4665 0.800781 17.7711 0.800781C16.0756 0.800781 14.7012 2.20831 14.7012 3.94458C14.7012 5.68086 16.0756 7.08838 17.7711 7.08838Z" fill="white"/>
<path d="M10.7437 19.0962C12.4392 19.0962 13.8136 17.6887 13.8136 15.9524C13.8136 14.2161 12.4392 12.8086 10.7437 12.8086C9.04826 12.8086 7.67383 14.2161 7.67383 15.9524C7.67383 17.6887 9.04826 19.0962 10.7437 19.0962Z" fill="white"/>
<path d="M6.75799 3.04587C6.75799 3.04587 7.73254 6.37613 10.7468 6.37613C13.9544 6.37613 14.8318 3.04297 14.8318 3.04297L17.096 7.01185C17.096 7.01185 13.5902 6.12107 12.0741 8.82142C10.5581 11.5218 12.7176 13.541 12.7176 13.541H8.77124C8.77124 13.541 10.7524 11.3189 9.42031 8.82142C7.93066 6.03799 4.76172 6.93939 4.76172 6.93939L6.75799 3.04587Z" fill="white"/>
<path d="M10.7942 4.40855C11.9566 4.40855 12.899 3.44352 12.899 2.2531C12.899 1.06268 11.9566 0.0976562 10.7942 0.0976562C9.63179 0.0976562 8.68945 1.06268 8.68945 2.2531C8.68945 3.44352 9.63179 4.40855 10.7942 4.40855Z" fill="white"/>
<path d="M5.91922 12.9085C7.08165 12.9085 8.02398 11.9435 8.02398 10.7531C8.02398 9.56268 7.08165 8.59766 5.91922 8.59766C4.75679 8.59766 3.81445 9.56268 3.81445 10.7531C3.81445 11.9435 4.75679 12.9085 5.91922 12.9085Z" fill="white"/>
</g>
<defs>
<clipPath id="clip0_220_1915">
<rect width="127" height="19" fill="white" transform="translate(0.742188 0.0976562)"/>
</clipPath>
</defs>
</svg>
