<svg width="18" height="18" viewBox="0 0 18 18" fill="none" xmlns="http://www.w3.org/2000/svg">
<path d="M0.434431 0.434418C0.492477 0.376308 0.561407 0.330208 0.637281 0.298756C0.713154 0.267303 0.794484 0.251114 0.876618 0.251114C0.958753 0.251114 1.04008 0.267303 1.11596 0.298756C1.19183 0.330208 1.26076 0.376308 1.31881 0.434418L9.00006 8.11567L16.6844 0.434418C16.8017 0.317142 16.9608 0.251259 17.1266 0.251259C17.2925 0.251259 17.4515 0.317142 17.5688 0.434418C17.6861 0.551693 17.752 0.710754 17.752 0.876606C17.752 1.04246 17.6861 1.20152 17.5688 1.31879L9.88443 9.00004L17.5657 16.6844C17.683 16.8017 17.7488 16.9608 17.7488 17.1266C17.7488 17.2925 17.683 17.4515 17.5657 17.5688C17.4484 17.6861 17.2893 17.752 17.1235 17.752C16.9576 17.752 16.7986 17.6861 16.6813 17.5688L9.00006 9.88442L1.31568 17.5657C1.19612 17.6681 1.04232 17.7216 0.885023 17.7155C0.727725 17.7094 0.578513 17.6442 0.467204 17.5329C0.355895 17.4216 0.290687 17.2724 0.284611 17.1151C0.278536 16.9578 0.332039 16.804 0.434431 16.6844L8.11568 9.00004L0.434431 1.31567C0.318024 1.19857 0.252686 1.04016 0.252686 0.875044C0.252686 0.709927 0.318024 0.551519 0.434431 0.434418Z" fill="black"/>
</svg>
