<svg width="49" height="39" viewBox="0 0 49 39" fill="none" xmlns="http://www.w3.org/2000/svg">
<path d="M48.4754 36.3291V26.6624C48.4754 26.0215 48.2208 25.4068 47.7676 24.9536C47.3144 24.5003 46.6997 24.2457 46.0588 24.2457C45.4178 24.2457 44.8031 24.5003 44.3499 24.9536C43.8967 25.4068 43.6421 26.0215 43.6421 26.6624V30.2391L28.5379 12.9841C28.3115 12.7263 28.0327 12.5197 27.7202 12.378C27.4077 12.2363 27.0686 12.1628 26.7254 12.1624C26.3935 12.1539 26.0634 12.2139 25.7558 12.3386C25.4481 12.4634 25.1694 12.6502 24.9371 12.8874L19.5238 18.3491L4.29876 0.900723C4.09412 0.646656 3.84016 0.436649 3.55219 0.283363C3.26421 0.130077 2.94818 0.0366859 2.62315 0.00881195C2.29811 -0.019062 1.9708 0.0191612 1.66093 0.121181C1.35106 0.223202 1.06505 0.386902 0.820149 0.602421C0.575244 0.817936 0.376509 1.08081 0.235921 1.37519C0.0953335 1.66957 0.0158041 1.98937 0.00212542 2.31532C-0.0115533 2.64126 0.0409019 2.96659 0.15633 3.27172C0.271759 3.57685 0.447771 3.85545 0.673757 4.09072L17.5904 23.4241C17.8081 23.6734 18.0747 23.8754 18.3736 24.0175C18.6726 24.1596 18.9976 24.2388 19.3284 24.2501C19.6592 24.2615 19.9888 24.2047 20.2968 24.0834C20.6048 23.9621 20.8845 23.7788 21.1188 23.5449L26.7254 18.1316L40.4279 33.9124H36.3921C35.7512 33.9124 35.1365 34.167 34.6832 34.6202C34.23 35.0734 33.9754 35.6881 33.9754 36.3291C33.9754 36.97 34.23 37.5847 34.6832 38.0379C35.1365 38.4911 35.7512 38.7457 36.3921 38.7457H46.0588C46.6997 38.7457 47.3144 38.4911 47.7676 38.0379C48.2208 37.5847 48.4754 36.97 48.4754 36.3291Z" fill="black"/>
</svg>
