<svg width="49" height="39" viewBox="0 0 49 39" fill="none" xmlns="http://www.w3.org/2000/svg">
<path d="M48.4754 2.41667V12.0833C48.4754 12.7243 48.2208 13.339 47.7676 13.7922C47.3144 14.2454 46.6997 14.5 46.0588 14.5C45.4178 14.5 44.8031 14.2454 44.3499 13.7922C43.8967 13.339 43.6421 12.7243 43.6421 12.0833V8.50667L28.5379 25.7617C28.3115 26.0195 28.0327 26.2261 27.7202 26.3677C27.4077 26.5094 27.0686 26.5829 26.7254 26.5833C26.3935 26.5918 26.0634 26.5318 25.7558 26.4071C25.4481 26.2823 25.1694 26.0955 24.9371 25.8583L19.5238 20.3967L4.29876 37.845C4.09412 38.0991 3.84016 38.3091 3.55219 38.4624C3.26421 38.6157 2.94818 38.709 2.62315 38.7369C2.29811 38.7648 1.9708 38.7266 1.66093 38.6245C1.35106 38.5225 1.06505 38.3588 0.820149 38.1433C0.575244 37.9278 0.376509 37.6649 0.235921 37.3705C0.0953335 37.0762 0.0158041 36.7564 0.00212542 36.4304C-0.0115533 36.1045 0.0409019 35.7791 0.15633 35.474C0.271759 35.1689 0.447771 34.8903 0.673757 34.655L17.5904 15.3217C17.8081 15.0723 18.0747 14.8703 18.3736 14.7282C18.6726 14.5861 18.9976 14.5069 19.3284 14.4956C19.6592 14.4843 19.9888 14.541 20.2968 14.6623C20.6048 14.7836 20.8845 14.9669 21.1188 15.2008L26.7254 20.6142L40.4279 4.83333H36.3921C35.7512 4.83333 35.1365 4.57872 34.6832 4.12551C34.23 3.6723 33.9754 3.05761 33.9754 2.41667C33.9754 1.77573 34.23 1.16104 34.6832 0.707826C35.1365 0.254613 35.7512 0 36.3921 0H46.0588C46.6997 0 47.3144 0.254613 47.7676 0.707826C48.2208 1.16104 48.4754 1.77573 48.4754 2.41667Z" fill="black"/>
</svg>
