<svg width="21" height="20" viewBox="0 0 21 20" fill="none" xmlns="http://www.w3.org/2000/svg">
<g clip-path="url(#clip0_365_2587)">
<path d="M10.8226 19.6774L10.8226 10.3226L20.1774 10.3226C20.3556 10.3226 20.5 10.1781 20.5 10C20.5 9.82185 20.3556 9.67742 20.1774 9.67742L10.8226 9.67742L10.8226 0.32258C10.8226 0.144435 10.6781 -4.29327e-07 10.5 -4.37114e-07C10.3219 -4.44901e-07 10.1774 0.144435 10.1774 0.32258L10.1774 9.67742L0.822582 9.67742C0.644435 9.67742 0.5 9.82185 0.5 10C0.5 10.1781 0.644435 10.3226 0.822582 10.3226L10.1774 10.3226L10.1774 19.6774C10.1774 19.8556 10.3219 20 10.5 20C10.6781 20 10.8226 19.8556 10.8226 19.6774Z" fill="black"/>
</g>
<defs>
<clipPath id="clip0_365_2587">
<rect width="20" height="20" fill="white" transform="translate(20.5) rotate(90)"/>
</clipPath>
</defs>
</svg>
