<svg width="61" height="61" viewBox="0 0 61 61" fill="none" xmlns="http://www.w3.org/2000/svg">
<path d="M18.5 43.0749C18.1476 43.0749 17.8608 43.3612 17.8608 43.7137C17.8608 44.0661 18.1476 44.3572 18.5 44.3572C18.8525 44.3572 19.1388 44.0687 19.1388 43.7137C19.1388 43.3586 18.8525 43.0749 18.5 43.0749ZM18.5 45.2766C17.6407 45.2766 16.9414 44.5756 16.9414 43.7137C16.9414 42.8518 17.6407 42.1555 18.5 42.1555C19.3594 42.1555 20.0582 42.8543 20.0582 43.7137C20.0582 44.573 19.3594 45.2766 18.5 45.2766Z" fill="black"/>
<path d="M22.1066 36.8969C21.8146 36.8969 21.5776 37.1339 21.5776 37.4258C21.5776 37.7178 21.8146 37.9548 22.1066 37.9548C22.3985 37.9548 22.6398 37.7178 22.6398 37.4258C22.6398 37.1339 22.4006 36.8969 22.1066 36.8969ZM22.1066 38.8742C21.3078 38.8742 20.6582 38.2246 20.6582 37.4258C20.6582 36.6271 21.3078 35.9775 22.1066 35.9775C22.9053 35.9775 23.5592 36.6271 23.5592 37.4258C23.5592 38.2246 22.9075 38.8742 22.1066 38.8742Z" fill="black"/>
<path d="M25.0104 40.1841C24.7189 40.1841 24.4819 40.4211 24.4819 40.713C24.4819 41.0049 24.7189 41.2419 25.0104 41.2419C25.3019 41.2419 25.5437 41.0049 25.5437 40.713C25.5437 40.4211 25.3045 40.1841 25.0104 40.1841ZM25.0104 42.1613C24.2121 42.1613 23.5625 41.5118 23.5625 40.713C23.5625 39.9142 24.2121 39.2646 25.0104 39.2646C25.8088 39.2646 26.4631 39.9142 26.4631 40.713C26.4631 41.5118 25.8114 42.1613 25.0104 42.1613Z" fill="black"/>
<path d="M22.4941 43.8243C22.1723 43.8243 21.9106 44.0881 21.9106 44.4129C21.9106 44.7376 22.1723 44.9967 22.4941 44.9967C22.8158 44.9967 23.0827 44.7346 23.0827 44.4129C23.0827 44.0911 22.8188 43.8243 22.4941 43.8243ZM22.4941 45.9161C21.6654 45.9161 20.9912 45.2419 20.9912 44.4129C20.9912 43.5838 21.6654 42.9048 22.4941 42.9048C23.3227 42.9048 24.0021 43.5812 24.0021 44.4129C24.0021 45.2445 23.3257 45.9161 22.4941 45.9161Z" fill="black"/>
<path d="M36.1122 38.3037C36.1122 38.3037 36.1114 38.3037 36.1101 38.3041C36.1114 38.3041 36.1122 38.3037 36.1122 38.3037ZM34.4502 38.1722C34.5376 38.2012 34.6219 38.2267 34.7063 38.2453C35.0985 38.3361 35.4804 38.3629 35.835 38.3331C35.9293 38.3244 36.0197 38.3167 36.1058 38.3045L36.1602 38.2946C36.2446 38.2829 36.325 38.2678 36.4016 38.2483C36.5045 38.2258 36.5901 38.2072 36.6719 38.18C36.7869 38.148 36.8751 38.1181 36.9642 38.0887C37.039 38.0632 37.1195 38.0342 37.1956 38.004L37.2484 37.9815C37.3132 37.9542 37.3759 37.9283 37.4386 37.8967C37.5156 37.8634 37.5619 37.8405 37.6069 37.8184L37.6912 37.7778C38.0882 37.5763 38.4069 37.3613 38.602 37.2169L38.7992 37.0659C38.8783 37.0011 38.9579 36.9375 39.0332 36.8661C39.3476 36.5876 39.6205 36.2819 39.8553 35.948C39.915 35.865 39.9673 35.7871 40.0188 35.7093C40.1226 35.548 40.2169 35.3845 40.3029 35.221C40.3392 35.1518 40.3717 35.0835 40.4041 35.0147C40.5265 34.76 40.6203 34.5368 40.6891 34.3375L40.7215 34.2479C40.7388 34.1973 40.7561 34.148 40.7752 34.1005C40.8318 33.9223 40.8906 33.7329 40.9404 33.5659C40.981 33.4262 41.0195 33.2922 41.0545 33.1538L41.1246 32.8506C41.1735 32.6309 41.2133 32.3978 41.2466 32.1353C41.2656 32.0181 41.2777 31.9152 41.2859 31.8166C41.295 31.7232 41.3037 31.6393 41.3075 31.5554C41.3235 31.4325 41.3266 31.3491 41.33 31.2686C41.3352 31.1752 41.3395 31.0918 41.3395 31.0083V30.9966C41.3646 30.0305 41.2686 29.012 41.055 27.9697C40.6588 26.0106 39.8514 23.9136 38.7084 21.868C37.6324 23.2121 36.4245 24.4278 35.2521 25.6089L34.5692 26.2956C34.4801 26.383 34.3919 26.4708 34.3054 26.5599C33.8764 26.998 33.4854 27.4564 33.1412 27.9243C32.764 28.4364 32.4414 29.0029 32.1819 29.6101L32.156 29.6767C31.5618 31.1082 31.3762 32.6698 31.6193 34.1965C31.9531 34.9611 32.3437 35.7149 32.7822 36.4376L33.5645 37.7268C33.8115 37.8976 34.0762 38.036 34.3529 38.1385H34.3772L34.4502 38.1722ZM35.5474 39.2646C35.2058 39.2646 34.855 39.2235 34.5052 39.1422C34.4122 39.1223 34.3153 39.0947 34.2146 39.0622H34.1838L34.1095 39.0276C33.6977 38.8841 33.3077 38.6791 32.9496 38.4174L32.8756 38.3634L31.996 36.9146C31.5263 36.1391 31.1077 35.33 30.753 34.5096L30.7215 34.4028C30.4421 32.7187 30.6319 30.9944 31.2716 29.4099V29.4077L31.307 29.3182C31.5994 28.6197 31.9674 27.9676 32.4008 27.3794C32.7701 26.8769 33.1896 26.386 33.6458 25.9194C33.7349 25.8268 33.8288 25.7343 33.9226 25.6413L34.5995 24.961C35.9068 23.6446 37.2587 22.2831 38.3983 20.769L38.8109 20.2211L39.1607 20.8114C40.5356 23.1278 41.5017 25.5401 41.9563 27.7859C42.1833 28.8935 42.2849 29.9803 42.259 31.0143C42.259 31.1121 42.2542 31.2102 42.249 31.3084C42.2439 31.4209 42.2378 31.5342 42.2222 31.6436C42.2214 31.7007 42.2118 31.8006 42.2015 31.9005C42.1928 32.0129 42.1768 32.1396 42.1569 32.2668C42.1219 32.5427 42.0773 32.8026 42.0229 33.0478L41.9493 33.3644C41.9087 33.5261 41.8672 33.671 41.8252 33.8159C41.7699 34.0023 41.7093 34.1986 41.6392 34.414C41.6146 34.478 41.6021 34.5135 41.5895 34.5498L41.5545 34.6484C41.4775 34.8707 41.3703 35.1267 41.2392 35.3996C41.1977 35.4878 41.1592 35.5691 41.116 35.6505C41.0187 35.8351 40.911 36.0211 40.7886 36.2118C40.7259 36.3061 40.6675 36.3939 40.6043 36.4812C40.3319 36.8692 40.0106 37.2285 39.6533 37.5447C39.5716 37.6221 39.4756 37.7012 39.3735 37.7834L39.1517 37.9542C38.9246 38.1216 38.5605 38.3677 38.0947 38.6038L38.0121 38.644C37.9511 38.6734 37.8884 38.7041 37.8218 38.7323C37.7682 38.7599 37.6882 38.7937 37.6056 38.8287L37.5437 38.8551C37.4408 38.8953 37.3461 38.9299 37.257 38.9597C37.1519 38.9952 37.0473 39.0294 36.9383 39.0596C36.8487 39.0895 36.7315 39.1176 36.61 39.144C36.5257 39.1652 36.4254 39.1846 36.3203 39.2002L36.2671 39.2097C36.1386 39.2287 36.0305 39.2387 35.9172 39.2486C35.7939 39.2594 35.6703 39.2646 35.5474 39.2646Z" fill="black"/>
<path d="M34.4536 38.9312C34.403 38.9312 34.3511 38.9225 34.3005 38.9052C34.0614 38.8205 33.9355 38.5575 34.0199 38.3184C34.224 37.7402 34.5362 36.87 34.9341 35.8178C35.582 34.1048 36.0499 32.9791 36.4266 32.0748C36.6601 31.5143 36.8513 31.055 37.0173 30.6147C37.5627 29.1729 38.2988 26.9132 38.403 23.9521C38.4354 23.0222 38.3991 22.0812 38.2944 21.1557C38.2659 20.9035 38.4475 20.6756 38.6997 20.6471C38.9553 20.6181 39.1797 20.8002 39.2083 21.0523C39.3177 22.0228 39.3562 23.0093 39.3216 23.9845C39.213 27.0814 38.4458 29.4371 37.8775 30.94C37.7084 31.3884 37.5134 31.8564 37.2751 32.4281C36.9019 33.3259 36.4361 34.4434 35.7943 36.1426C35.399 37.187 35.0898 38.0507 34.8874 38.6246C34.8204 38.8131 34.6431 38.9312 34.4536 38.9312Z" fill="black"/>
<path d="M35.3997 36.3845C35.222 36.3845 35.0533 36.2811 34.9777 36.1081C34.8765 35.8754 34.9833 35.6047 35.2159 35.5031L41.3177 32.8455C41.5512 32.7435 41.822 32.8507 41.9232 33.0834C42.0244 33.3161 41.9176 33.5868 41.6849 33.6884L35.5831 36.3464C35.5234 36.3723 35.4607 36.3845 35.3997 36.3845Z" fill="black"/>
<path d="M37.9169 29.886C37.7391 29.886 37.5692 29.7822 37.4948 29.6084C37.394 29.3753 37.5021 29.1045 37.7348 29.0046L41.3243 27.4585C41.5566 27.3595 41.8282 27.4659 41.9281 27.699C42.0288 27.9321 41.9211 28.2028 41.688 28.3027L38.0985 29.8484C38.0392 29.8739 37.9778 29.886 37.9169 29.886Z" fill="black"/>
<path d="M35.8199 35.26C35.6819 35.26 35.5452 35.1986 35.4553 35.0809L31.3714 29.7775C31.2166 29.5764 31.2538 29.288 31.4549 29.1327C31.656 28.977 31.9453 29.0151 32.0997 29.2166L36.1831 34.52C36.3384 34.7211 36.3008 35.0096 36.0997 35.1644C36.0162 35.2293 35.9176 35.26 35.8199 35.26Z" fill="black"/>
<path d="M37.6158 30.7938C37.4726 30.7938 37.3316 30.7276 37.2417 30.6022L34.0128 26.098C33.8649 25.8917 33.9125 25.6041 34.1183 25.4566C34.3259 25.3074 34.6122 25.3563 34.7597 25.5621L37.9886 30.0663C38.1369 30.2726 38.0893 30.5602 37.883 30.7077C37.8022 30.7661 37.7083 30.7938 37.6158 30.7938Z" fill="black"/>
<path d="M35.1345 39.2451C35.5362 39.8207 36.0081 40.1581 36.2005 40.2956C36.5962 40.5776 37.142 40.8081 37.8219 40.9819C39.6183 41.4382 41.548 41.2747 43.2533 40.5192C43.8696 40.2467 44.4495 39.902 44.9776 39.4959C45.4464 39.1344 45.8953 38.7335 46.3117 38.304C46.4289 38.1838 46.5427 38.0653 46.6573 37.9459L47.1897 37.3911C48.3591 36.1719 49.5635 34.9156 50.9046 33.7894C48.923 32.7463 45.6496 31.3546 42.3001 31.3546C42.2802 31.3546 42.2608 31.3546 42.2409 31.3551C42.1929 32.2209 42.0514 33.0516 41.8192 33.8305C41.6553 34.3746 41.3811 35.2841 40.7826 36.2135C40.3877 36.825 39.9077 37.3565 39.3554 37.7946C39.3061 37.8339 39.2356 37.8902 39.1405 37.9585C38.4848 38.439 36.9279 39.4038 35.1345 39.2451ZM39.8579 42.1543C39.0968 42.1543 38.3361 42.0614 37.5952 41.8728C36.8047 41.6708 36.156 41.3923 35.6664 41.0438C35.3386 40.8094 34.3426 40.0984 33.8522 38.7685L33.8327 38.7006L33.6602 37.907L34.4282 38.1631C36.204 38.7672 37.9369 37.7012 38.5994 37.2151C38.6812 37.1563 38.7396 37.1095 38.7746 37.0814C39.2577 36.6987 39.6698 36.2416 40.0102 35.7153C40.5382 34.8944 40.789 34.0632 40.9391 33.5663C41.1861 32.7372 41.3206 31.8386 41.3379 30.8966L41.3461 30.4633L41.779 30.446C45.8879 30.2786 49.9142 32.169 51.9512 33.3116L52.5502 33.6476L52.0113 34.0732C50.5011 35.2663 49.1552 36.6702 47.8531 38.0277L47.3211 38.5817C47.2048 38.7036 47.0889 38.8243 46.9704 38.9454C46.5249 39.4051 46.0427 39.8359 45.5389 40.2242C44.952 40.6757 44.3081 41.0576 43.6256 41.3599C42.4355 41.8866 41.1463 42.1543 39.8579 42.1543Z" fill="black"/>
<path d="M40.3955 36.4252C40.2195 36.4252 40.0509 36.324 39.9752 36.1527C39.8714 35.9209 39.976 35.6489 40.2078 35.546L40.3385 35.4876C40.9227 35.2272 41.3993 35.0149 41.8547 34.8311C41.9451 34.7939 42.0428 34.7554 42.1432 34.7161L42.6232 34.5249L42.628 34.5323C42.8161 34.4622 43.0129 34.3921 43.217 34.3221C45.0541 33.6967 46.871 33.3386 48.7725 33.2275C49.7633 33.17 50.7507 33.1847 51.7073 33.2729C51.9607 33.2962 52.1467 33.5198 52.1238 33.7724C52.1004 34.0258 51.8734 34.2135 51.6238 34.1889C50.7122 34.1041 49.7707 34.0903 48.8262 34.1452C47.0089 34.252 45.2708 34.5941 43.5145 35.1918C43.2023 35.2995 42.9078 35.4067 42.634 35.5131L42.3101 35.639C42.2742 35.6532 42.2383 35.6675 42.2033 35.6822C41.7522 35.8643 41.2851 36.0719 40.713 36.327L40.5819 36.3854C40.521 36.4126 40.4578 36.4252 40.3955 36.4252Z" fill="black"/>
<path d="M43.379 35.2158C43.3215 35.2158 43.2631 35.205 43.2069 35.1825C42.9712 35.0874 42.8574 34.8192 42.9526 34.584L44.4148 30.9598C44.5099 30.7237 44.7798 30.6113 45.0129 30.7051C45.2486 30.8003 45.3623 31.0684 45.2676 31.3037L43.8054 34.9278C43.7332 35.1068 43.5606 35.2158 43.379 35.2158Z" fill="black"/>
<path d="M43.4444 41.3992C43.3501 41.3992 43.255 41.3706 43.1728 41.3105L38.6041 37.9567C38.3996 37.807 38.3555 37.519 38.5055 37.3145C38.6556 37.1103 38.9428 37.0649 39.1482 37.2154L43.7168 40.5688C43.9214 40.7193 43.9655 41.0069 43.8154 41.2115C43.7255 41.3343 43.5858 41.3992 43.4444 41.3992Z" fill="black"/>
<path d="M47.0507 38.6687C46.9611 38.6687 46.8708 38.6423 46.792 38.5887L42.2139 35.4649C42.0041 35.3218 41.9501 35.0355 42.0932 34.8262C42.2364 34.6155 42.5235 34.5628 42.732 34.7051L47.3101 37.8288C47.5195 37.972 47.574 38.2583 47.4308 38.468C47.3417 38.5986 47.1973 38.6687 47.0507 38.6687Z" fill="black"/>
<path d="M27.9099 35.126C27.6059 35.126 27.298 35.0915 26.9939 35.0076C25.9491 34.7195 25.3064 34.2256 24.7395 33.7901C24.1288 33.3213 23.647 32.9507 22.7829 32.9408C21.9487 32.9317 21.3523 33.1674 20.7754 33.3957C20.5432 33.4878 20.3165 33.5778 20.0834 33.6509C19.8395 33.7266 19.5835 33.5916 19.507 33.3499C19.4313 33.1081 19.5653 32.8499 19.808 32.7734C20.019 32.7072 20.2253 32.6251 20.4363 32.5412C21.0518 32.2968 21.748 32.0209 22.7298 32.0209C22.7514 32.0209 22.7726 32.0209 22.7938 32.0209C23.964 32.0352 24.643 32.5563 25.2991 33.0606C25.8241 33.4632 26.3669 33.8801 27.2387 34.121C28.1456 34.3722 29.1887 34.0185 29.9477 33.7603C30.1994 33.6751 30.417 33.6016 30.6025 33.5583C30.849 33.5021 31.0968 33.6556 31.1539 33.903C31.211 34.1504 31.0566 34.3973 30.8092 34.4544C30.6687 34.4869 30.4715 34.5535 30.2435 34.6313C29.6316 34.8389 28.7874 35.1252 27.9099 35.1256V35.126Z" fill="#F5F0E7"/>
<path d="M30.143 41.4929C29.3646 41.4929 28.7315 42.1244 28.7315 42.9002C28.7315 43.6761 29.3646 44.3118 30.143 44.3118C30.9215 44.3118 31.5546 43.6787 31.5546 42.9002C31.5546 42.1218 30.9215 41.4929 30.143 41.4929ZM30.143 45.2312C28.8577 45.2312 27.812 44.1855 27.812 42.9002C27.812 41.6149 28.8577 40.5735 30.143 40.5735C31.4284 40.5735 32.4741 41.6175 32.4741 42.9002C32.4741 44.1829 31.4284 45.2312 30.143 45.2312Z" fill="black"/>
<path d="M29.2438 20.8254L21.6651 20.8239C21.7183 22.3389 21.5582 26.414 21.3647 28.7849C21.1521 31.3895 20.6451 32.9013 19.646 34.5893L19.8721 34.4098C20.7669 33.8251 22.1668 32.7834 24.116 33.6358C25.7007 34.3287 27.323 35.2393 28.1558 35.3367C29.4847 35.3279 31.7437 34.9168 30.1491 33.3434C28.5544 31.77 28.8811 24.3425 29.2438 20.8254Z" fill="black" stroke="black" stroke-linejoin="round"/>
<path d="M20.924 18.1265C20.447 18.1265 20.0591 18.5144 20.0591 18.991C20.0591 19.4676 20.447 19.8564 20.924 19.8564H29.7396C30.217 19.8564 30.6049 19.4684 30.6049 18.991C30.6049 18.5135 30.217 18.1265 29.7396 18.1265H20.924ZM29.7396 20.7758H20.924C19.9402 20.7758 19.1396 19.9753 19.1396 18.991C19.1396 18.0067 19.9402 17.207 20.924 17.207H29.7396C30.7239 17.207 31.5244 18.0075 31.5244 18.991C31.5244 19.9744 30.7239 20.7758 29.7396 20.7758Z" fill="black"/>
<path d="M21.0051 31.333L20.9904 31.3901C20.4844 33.3345 19.6998 35.1933 18.6585 36.9141L13.0501 46.1595C12.9105 46.4371 12.9252 46.7965 13.1064 47.091C13.2876 47.3864 13.6024 47.5624 13.9484 47.5624H36.7004C37.0433 47.5624 37.356 47.3869 37.5376 47.0936C37.7197 46.7974 37.7366 46.4367 37.5809 46.1279L31.9951 36.9145C31.5254 36.1391 31.1068 35.3299 30.7521 34.5095C30.3149 33.5304 29.9464 32.4799 29.6584 31.3918L29.6493 31.3581H29.6489C29.2839 29.9603 29.0871 28.4597 29.0456 26.7713L28.9133 20.7742H21.7312L21.598 26.7752C21.5625 28.445 21.3688 29.9366 21.0051 31.333ZM36.7004 48.4819H13.9484C13.2802 48.4819 12.6726 48.1419 12.3227 47.5724C11.9737 47.0032 11.9447 46.3083 12.247 45.7132L17.8718 36.4375C18.8574 34.8097 19.6017 33.053 20.0856 31.2149V31.1925L20.1202 31.0887C20.4588 29.7891 20.6448 28.3611 20.6785 26.7548L20.8312 19.8547H29.8128L29.965 26.7497C30.0044 28.3658 30.1917 29.7977 30.5389 31.1263L30.5476 31.1566C30.8226 32.1971 31.1747 33.2004 31.5937 34.1398C31.9341 34.9269 32.3328 35.6984 32.7813 36.4375L38.3853 45.6829C38.7019 46.3109 38.6712 47.0067 38.32 47.5763C37.9701 48.1432 37.3647 48.4819 36.7004 48.4819Z" fill="black"/>
<circle cx="30.2031" cy="30.9473" r="29.5" stroke="black"/>
<line x1="12.3926" y1="6.53032" x2="50.7533" y2="52.7598" stroke="black"/>
</svg>
