<svg width="39" height="39" viewBox="0 0 39 39" fill="none" xmlns="http://www.w3.org/2000/svg">
<g clip-path="url(#clip0_141_1169)">
<path d="M19.5 0.5625C8.8855 0.5625 0.25 9.198 0.25 19.8125C1.21776 45.3151 37.7861 45.3082 38.75 19.8123C38.75 9.198 30.1145 0.5625 19.5 0.5625ZM19.5 36.8066C15.2197 36.8066 11.3045 35.2154 8.31334 32.5942L11.2365 29.6711C11.677 29.2306 11.677 28.5164 11.2365 28.0759C10.7961 27.6354 10.0819 27.6354 9.64137 28.0759L6.7183 30.9991C-6.7297 14.6826 14.387 -6.41186 30.6866 7.03073L27.7634 9.95387C27.3229 10.3944 27.3229 11.1085 27.7634 11.549C28.2039 11.9895 28.9181 11.9895 29.3586 11.549L32.2817 8.62584C41.866 19.3042 33.9865 36.9269 19.5 36.8066Z" fill="url(#paint0_linear_141_1169)"/>
<path d="M27.875 14.6682C27.875 14.0453 27.37 13.5403 26.747 13.5403C26.671 13.5403 25.0074 13.5486 23.1957 14.1736C23.2945 13.0594 23.0886 11.887 22.5822 10.6874C21.7457 8.70596 20.3582 7.30515 20.2995 7.24642C20.088 7.0349 19.801 6.91602 19.5019 6.91602C19.2028 6.91602 18.9158 7.0349 18.7043 7.24642C18.6457 7.30508 17.2582 8.70596 16.4216 10.6874C15.9152 11.8869 15.7094 13.0593 15.8081 14.1736C13.9964 13.5486 12.3329 13.5403 12.2568 13.5403C11.6339 13.5403 11.1289 14.0453 11.1289 14.6682C11.1289 14.7511 11.1382 16.7228 11.9477 18.7154C12.0712 19.0192 12.207 19.3084 12.3546 19.5825C11.6951 19.5324 11.128 20.0474 11.1289 20.7089C11.1289 20.7919 11.1382 22.7635 11.9477 24.756C12.1253 25.1933 13.519 29.082 18.1435 29.082H18.3739V31.5822C18.4294 33.0771 20.5748 33.076 20.6298 31.5822V29.082H20.8604C25.484 29.082 26.8774 25.196 27.0562 24.756C27.8657 22.7635 27.875 20.7919 27.875 20.7089C27.8759 20.0474 27.3089 19.5325 26.6493 19.5825C26.797 19.3084 26.9328 19.0192 27.0563 18.7154C27.8657 16.7228 27.875 14.7511 27.875 14.6682ZM18.3739 26.8262H18.1433C16.1959 26.8262 14.8598 25.888 14.0585 23.9581C13.7665 23.2548 13.601 22.5393 13.5072 21.9593C14.0872 22.0531 14.8026 22.2186 15.506 22.5107C17.4358 23.312 18.3739 24.6481 18.3739 26.5955V26.8262ZM18.3739 20.7855H18.1433C16.1959 20.7855 14.8598 19.8474 14.0585 17.9175C13.7665 17.2141 13.601 16.4987 13.5072 15.9186C14.0872 16.0125 14.8026 16.178 15.506 16.47C17.4358 17.2713 18.3739 18.6075 18.3739 20.5548V20.7855ZM19.6646 16.5324L19.5018 16.6952L19.3388 16.5321C17.2818 14.5997 17.9569 11.8933 19.5018 9.81246C21.0478 11.8947 21.7211 14.6005 19.6646 16.5324ZM24.9662 23.9069C24.1682 25.8713 22.8252 26.8261 20.8604 26.8261H20.6298V26.5955C20.6298 24.6481 21.5679 23.3119 23.4978 22.5107C24.2009 22.2187 24.916 22.0532 25.4959 21.9594C25.4042 22.5263 25.2445 23.2219 24.9662 23.9069ZM24.9452 17.9175C24.1439 19.8474 22.8078 20.7855 20.8605 20.7855H20.6298V20.5548C20.6298 18.6075 21.5679 17.2712 23.4978 16.47C24.2012 16.178 24.9166 16.0125 25.4965 15.9186C25.4028 16.4987 25.2371 17.2142 24.9452 17.9175Z" fill="url(#paint1_linear_141_1169)"/>
</g>
<defs>
<linearGradient id="paint0_linear_141_1169" x1="19.5" y1="0.5625" x2="19.5" y2="38.9369" gradientUnits="userSpaceOnUse">
<stop stop-color="#D1AF52"/>
<stop offset="1" stop-color="#C9A54A"/>
</linearGradient>
<linearGradient id="paint1_linear_141_1169" x1="19.5019" y1="6.91602" x2="19.5019" y2="32.703" gradientUnits="userSpaceOnUse">
<stop stop-color="#D1AF52"/>
<stop offset="1" stop-color="#C9A54A"/>
</linearGradient>
<clipPath id="clip0_141_1169">
<rect width="38.5" height="38.5" fill="white" transform="translate(0.25 0.5)"/>
</clipPath>
</defs>
</svg>
