<svg width="61" height="61" viewBox="0 0 61 61" fill="none" xmlns="http://www.w3.org/2000/svg">
<g clip-path="url(#clip0_141_786)">
<mask id="mask0_141_786" style="mask-type:luminance" maskUnits="userSpaceOnUse" x="13" y="14" width="36" height="36">
<path d="M13.7305 14.2383H48.7305V49.2383H13.7305V14.2383Z" fill="white"/>
</mask>
<g mask="url(#mask0_141_786)">
<path d="M24.2539 32.7798C24.3733 35.2562 25.7832 37.3937 27.8256 38.5352" stroke="black" stroke-width="1.02539" stroke-miterlimit="10" stroke-linecap="round" stroke-linejoin="round"/>
<path d="M34.9752 26.5488C33.892 25.8576 32.6055 25.457 31.2254 25.457C29.9033 25.457 28.6671 25.8246 27.6133 26.4631" stroke="black" stroke-width="1.02539" stroke-miterlimit="10" stroke-linecap="round" stroke-linejoin="round"/>
<path d="M34.6016 38.5488C36.621 37.4318 38.0279 35.3435 38.1921 32.914" stroke="black" stroke-width="1.02539" stroke-miterlimit="10" stroke-linecap="round" stroke-linejoin="round"/>
<path d="M31.0956 33.7042C30.5539 33.7042 30.1148 33.265 30.1148 32.7233C30.1148 32.1817 30.5539 31.7426 31.0956 31.7426C31.6373 31.7426 32.0764 32.1817 32.0764 32.7233C32.0764 33.265 31.6373 33.7042 31.0956 33.7042ZM38.1552 22.6474C38.1866 22.9156 38.2029 23.187 38.2029 23.4608C38.2029 27.2504 35.1197 30.3335 31.3302 30.3335C27.5405 30.3335 24.4574 27.2504 24.4574 23.4608C24.4574 21.665 25.1462 19.9659 26.3967 18.6766C26.8523 18.2069 26.8409 17.4568 26.3712 17.0012C25.9014 16.5455 25.1514 16.557 24.6957 17.0267C23.0139 18.7606 22.0878 21.0456 22.0878 23.4608C22.0878 25.1908 22.566 26.8111 23.3966 28.1971C21.7138 28.1533 20.0466 28.5726 18.5519 29.4355C16.4603 30.6431 14.9445 32.5877 14.2838 34.9111C14.1048 35.5406 14.4699 36.1959 15.0993 36.3749C15.7288 36.5539 16.3841 36.1888 16.563 35.5594C16.8285 34.6262 17.2807 33.7765 17.8841 33.0496M17.8841 33.0496C18.1006 32.7135 19.532 31.6059 19.7367 31.4877C21.3265 30.57 23.1787 30.326 24.9519 30.8011C26.7251 31.2763 28.2072 32.4135 29.125 34.0034C29.7201 35.034 30.0168 36.1562 30.0425 37.2696C30.0381 37.4097 30.0371 37.5498 30.039 37.6897C29.9522 39.9738 28.7309 42.1668 26.6095 43.3917C25.0541 44.2897 23.2383 44.5427 21.4966 44.1044C20.8621 43.9445 20.2181 44.3295 20.0584 44.9641C19.8987 45.5987 20.2837 46.2426 20.9182 46.4023C21.669 46.5913 22.4296 46.6847 23.186 46.6847C24.7897 46.6847 26.373 46.2645 27.7943 45.4439C29.2587 44.5984 30.404 43.4097 31.188 42.0376C31.9732 43.4662 33.145 44.7047 34.6569 45.5776C36.0783 46.3982 37.6614 46.8184 39.2652 46.8184C40.0214 46.8184 40.7823 46.7249 41.533 46.536C42.1675 46.3763 42.5525 45.7323 42.3928 45.0978C42.2331 44.4632 41.5894 44.0782 40.9546 44.238C39.2127 44.6765 37.397 44.4233 35.8417 43.5254C33.687 42.2813 32.4606 40.0387 32.4085 37.7162C32.4129 37.5777 32.4141 37.439 32.4122 37.3001C32.4533 36.2207 32.7495 35.1358 33.3262 34.137C34.2441 32.5472 35.7261 31.41 37.4993 30.9349C39.2726 30.4596 41.1247 30.7035 42.7145 31.6214C44.2697 32.5193 45.3967 33.9653 45.8882 35.693C46.0671 36.3224 46.7224 36.6875 47.3519 36.5085C47.9813 36.3295 48.3464 35.6742 48.1673 35.0448C47.5066 32.7214 45.9908 30.7767 43.8993 29.5692C42.4428 28.7283 40.8225 28.3085 39.1836 28.3281C40.0635 26.9136 40.5725 25.2456 40.5725 23.4608C40.5725 21.0456 39.6463 18.7606 37.9646 17.0267C37.509 16.557 36.7588 16.5456 36.2891 17.0012C35.8194 17.4568 35.808 18.2069 36.2636 18.6766C38.1552 21.533 38.0311 22.0191 38.1552 22.6474" stroke="black" stroke-width="1.02539" stroke-miterlimit="10" stroke-linecap="round" stroke-linejoin="round"/>
</g>
</g>
<circle cx="30.7305" cy="30.2383" r="29.5" stroke="black"/>
<line x1="12.9199" y1="5.82134" x2="51.2806" y2="52.0508" stroke="black"/>
<defs>
<clipPath id="clip0_141_786">
<rect width="35" height="35" fill="white" transform="translate(13.7305 14.2383)"/>
</clipPath>
</defs>
</svg>
