<svg width="39" height="39" viewBox="0 0 39 39" fill="none" xmlns="http://www.w3.org/2000/svg">
<g clip-path="url(#clip0_141_1176)">
<path d="M33.1119 6.13822C29.476 2.50238 24.6419 0.5 19.5 0.5C14.3581 0.5 9.52406 2.50238 5.88822 6.13822C2.25238 9.77406 0.25 14.6081 0.25 19.75C0.25 24.8919 2.25238 29.7259 5.88814 33.3618C9.52406 36.9976 14.3581 39 19.5 39C24.6419 39 29.476 36.9976 33.1119 33.3618C36.7476 29.7259 38.75 24.8919 38.75 19.75C38.75 14.6081 36.7476 9.77406 33.1119 6.13822ZM19.5 36.7441C15.3388 36.7441 11.4066 35.2577 8.30755 32.5376L14.2022 26.6429H11.012L6.71244 30.9424C3.99232 27.8434 2.50586 23.9112 2.50586 19.75C2.50586 15.2107 4.27355 10.9431 7.48334 7.73334C10.6931 4.52355 14.9607 2.75586 19.5 2.75586C23.6612 2.75586 27.5934 4.24232 30.6924 6.96244L24.6733 12.9817H27.8635L32.2876 8.55763C35.0077 11.6566 36.4941 15.5888 36.4941 19.75C36.4941 24.2893 34.7264 28.5569 31.5167 31.7667C28.3069 34.9764 24.0393 36.7441 19.5 36.7441Z" fill="url(#paint0_linear_141_1176)"/>
<path d="M16.753 24.3878L17.4305 20.6229L18.4879 24.2068H20.4839L21.4893 20.6134L22.2274 24.3878H24.526L22.7367 15.2383L20.6484 15.246L19.4548 19.5123L18.1949 15.2417H16.1068L14.4609 24.3878H16.753Z" fill="url(#paint1_linear_141_1176)"/>
<path d="M9.57783 24.3394C12.0014 24.3394 13.694 22.4521 13.694 19.7498V18.6218H9.59257V20.8777H11.2529C11.0034 21.5588 10.4827 22.0835 9.57783 22.0835C8.29101 22.0835 7.24414 21.0366 7.24414 19.7498C7.24414 18.463 8.29101 17.416 9.57783 17.416C9.89605 17.416 10.204 17.4786 10.493 17.602L11.3787 15.5273C10.8081 15.2837 10.2022 15.1602 9.57783 15.1602C7.04713 15.1602 4.98828 17.2191 4.98828 19.7498C4.98828 22.2805 7.04713 24.3394 9.57783 24.3394Z" fill="url(#paint2_linear_141_1176)"/>
<path d="M34.312 19.7498C34.312 17.2191 32.2531 15.1602 29.7224 15.1602C27.1917 15.1602 25.1328 17.2191 25.1328 19.7498C25.1328 22.2805 27.1917 24.3394 29.7224 24.3394C32.2531 24.3394 34.312 22.2805 34.312 19.7498ZM29.7224 22.0835C28.4356 22.0835 27.3887 21.0366 27.3887 19.7498C27.3887 18.463 28.4356 17.416 29.7224 17.416C31.0093 17.416 32.0561 18.463 32.0561 19.7498C32.0561 21.0366 31.0093 22.0835 29.7224 22.0835Z" fill="url(#paint3_linear_141_1176)"/>
</g>
<defs>
<linearGradient id="paint0_linear_141_1176" x1="19.5" y1="0.5" x2="19.5" y2="39" gradientUnits="userSpaceOnUse">
<stop stop-color="#E2C25F"/>
<stop offset="1" stop-color="#D7B556"/>
</linearGradient>
<linearGradient id="paint1_linear_141_1176" x1="19.4935" y1="15.2383" x2="19.4935" y2="24.3878" gradientUnits="userSpaceOnUse">
<stop stop-color="#E2C25F"/>
<stop offset="1" stop-color="#D7B556"/>
</linearGradient>
<linearGradient id="paint2_linear_141_1176" x1="9.34115" y1="15.1602" x2="9.34115" y2="24.3394" gradientUnits="userSpaceOnUse">
<stop stop-color="#E2C25F"/>
<stop offset="1" stop-color="#D7B556"/>
</linearGradient>
<linearGradient id="paint3_linear_141_1176" x1="29.7224" y1="15.1602" x2="29.7224" y2="24.3394" gradientUnits="userSpaceOnUse">
<stop stop-color="#E2C25F"/>
<stop offset="1" stop-color="#D7B556"/>
</linearGradient>
<clipPath id="clip0_141_1176">
<rect width="38.5" height="38.5" fill="white" transform="translate(0.25 0.5)"/>
</clipPath>
</defs>
</svg>
