<svg width="61" height="61" viewBox="0 0 61 61" fill="none" xmlns="http://www.w3.org/2000/svg">
<path fill-rule="evenodd" clip-rule="evenodd" d="M33.239 16.5534L41.647 21.4077C41.8875 21.5466 42.1957 21.464 42.3346 21.2235C42.4734 20.9829 42.3909 20.6748 42.1504 20.5359L33.7423 15.6815C33.5017 15.5426 33.1937 15.6251 33.0547 15.8658C32.9158 16.1064 32.9985 16.4144 33.239 16.5534Z" fill="black"/>
<path fill-rule="evenodd" clip-rule="evenodd" d="M44.1587 25.5877V35.7551C44.1587 36.033 44.3842 36.2585 44.6621 36.2585C44.9398 36.2585 45.1653 36.033 45.1653 35.7551V25.5877C45.1653 25.3099 44.9398 25.0844 44.6621 25.0844C44.3842 25.0844 44.1587 25.3099 44.1587 25.5877Z" fill="black"/>
<path fill-rule="evenodd" clip-rule="evenodd" d="M41.7255 40.0607L33.3176 44.9151C33.077 45.054 32.9945 45.3621 33.1334 45.6027C33.2723 45.8432 33.5803 45.9257 33.8209 45.7869L42.2289 40.9326C42.4695 40.7936 42.552 40.4855 42.4131 40.245C42.2742 40.0043 41.9662 39.9218 41.7255 40.0607Z" fill="black"/>
<path fill-rule="evenodd" clip-rule="evenodd" d="M27.8022 44.9293L19.3428 40.0453C19.1023 39.9064 18.7943 39.989 18.6554 40.2295C18.5164 40.4702 18.5989 40.7782 18.8396 40.9171L27.2988 45.8011C27.5395 45.94 27.8475 45.8575 27.9864 45.6169C28.1254 45.3763 28.0429 45.0682 27.8022 44.9293Z" fill="black"/>
<path fill-rule="evenodd" clip-rule="evenodd" d="M16.8871 35.7551V25.5877C16.8871 25.3099 16.6616 25.0844 16.3837 25.0844C16.1059 25.0844 15.8804 25.3099 15.8804 25.5877V35.7551C15.8804 36.033 16.1059 36.2585 16.3837 36.2585C16.6616 36.2585 16.8871 36.033 16.8871 35.7551Z" fill="black"/>
<path fill-rule="evenodd" clip-rule="evenodd" d="M19.4131 21.3967L27.8725 16.5128C28.113 16.3738 28.1957 16.0658 28.0568 15.8252C27.9178 15.5845 27.6098 15.502 27.3692 15.6409L18.9099 20.5249C18.6693 20.6638 18.5867 20.972 18.7257 21.2125C18.8645 21.4531 19.1726 21.5356 19.4131 21.3967Z" fill="black"/>
<path fill-rule="evenodd" clip-rule="evenodd" d="M27.4161 37.1384C30.5139 38.6414 34.2806 37.7863 36.182 34.1521C37.6118 31.4194 37.4424 28.523 36.7088 26.0299C35.6293 22.3615 33.3322 19.5862 33.3322 19.5862C33.2122 19.4412 33.0216 19.3752 32.8377 19.415C32.654 19.4549 32.5077 19.5938 32.4584 19.7753C31.7234 22.4889 30.1693 23.8452 28.6387 25.1523C27.5351 26.0949 26.4421 27.0145 25.6113 28.3149C24.2844 30.392 24.443 32.7802 25.2219 34.5688C25.7572 35.7979 26.5898 36.7375 27.4161 37.1384ZM27.8556 36.2328C27.1996 35.9145 26.5697 35.1426 26.1448 34.1669C25.4837 32.6484 25.3331 30.6202 26.4596 28.8568C27.4375 27.3263 28.8164 26.3708 30.0993 25.2147C31.2922 24.1395 32.4101 22.9066 33.1249 20.9918C33.8388 22.0129 35.0536 23.9708 35.7431 26.3141C36.4087 28.5761 36.5874 31.2059 35.29 33.6855C33.6764 36.7695 30.4844 37.5083 27.8556 36.2328Z" fill="black"/>
<path fill-rule="evenodd" clip-rule="evenodd" d="M28.0756 37.6816C31.1978 34.3603 32.5578 30.164 32.9418 27.2881C32.9785 27.0128 32.7849 26.7594 32.5094 26.7225C32.2341 26.6858 31.9807 26.8794 31.944 27.1549C31.5805 29.8764 30.2967 33.8491 27.3421 36.9921C27.1518 37.1944 27.1616 37.5132 27.3641 37.7036C27.5664 37.8939 27.8852 37.884 28.0756 37.6816Z" fill="black"/>
<path fill-rule="evenodd" clip-rule="evenodd" d="M44.6613 35.2518C42.6669 35.2518 41.0479 36.8709 41.0479 38.8653C41.0479 40.8596 42.6669 42.4788 44.6613 42.4788C46.6556 42.4788 48.2748 40.8596 48.2748 38.8653C48.2748 36.8709 46.6556 35.2518 44.6613 35.2518ZM44.6613 36.2585C46.1001 36.2585 47.2681 37.4266 47.2681 38.8653C47.2681 40.3041 46.1001 41.4721 44.6613 41.4721C43.2225 41.4721 42.0545 40.3041 42.0545 38.8653C42.0545 37.4266 43.2225 36.2585 44.6613 36.2585Z" fill="black"/>
<path fill-rule="evenodd" clip-rule="evenodd" d="M24.7345 40.3973C26.0229 39.6122 27.1288 38.6869 28.074 37.6817C28.2642 37.4793 28.2543 37.1605 28.052 36.9702C27.8495 36.78 27.5307 36.7898 27.3405 36.9922C26.4547 37.9343 25.4183 38.8018 24.2107 39.5377C23.9734 39.6823 23.8982 39.9922 24.0428 40.2294C24.1874 40.4667 24.4972 40.5419 24.7345 40.3973Z" fill="black"/>
<path fill-rule="evenodd" clip-rule="evenodd" d="M16.3835 35.2518C14.3892 35.2518 12.77 36.8709 12.77 38.8653C12.77 40.8596 14.3892 42.4788 16.3835 42.4788C18.3778 42.4788 19.997 40.8596 19.997 38.8653C19.997 36.8709 18.3778 35.2518 16.3835 35.2518ZM16.3835 36.2585C17.8222 36.2585 18.9904 37.4266 18.9904 38.8653C18.9904 40.3041 17.8222 41.4721 16.3835 41.4721C14.9448 41.4721 13.7766 40.3041 13.7766 38.8653C13.7766 37.4266 14.9448 36.2585 16.3835 36.2585Z" fill="black"/>
<path fill-rule="evenodd" clip-rule="evenodd" d="M44.6613 18.8646C42.6669 18.8646 41.0479 20.4837 41.0479 22.4781C41.0479 24.4724 42.6669 26.0916 44.6613 26.0916C46.6556 26.0916 48.2748 24.4724 48.2748 22.4781C48.2748 20.4837 46.6556 18.8646 44.6613 18.8646ZM44.6613 19.8713C46.1001 19.8713 47.2681 21.0393 47.2681 22.4781C47.2681 23.9168 46.1001 25.0849 44.6613 25.0849C43.2225 25.0849 42.0545 23.9168 42.0545 22.4781C42.0545 21.0393 43.2225 19.8713 44.6613 19.8713Z" fill="black"/>
<path fill-rule="evenodd" clip-rule="evenodd" d="M16.3835 18.8646C14.3892 18.8646 12.77 20.4837 12.77 22.4781C12.77 24.4724 14.3892 26.0916 16.3835 26.0916C18.3778 26.0916 19.997 24.4724 19.997 22.4781C19.997 20.4837 18.3778 18.8646 16.3835 18.8646ZM16.3835 19.8713C17.8222 19.8713 18.9904 21.0393 18.9904 22.4781C18.9904 23.9168 17.8222 25.0849 16.3835 25.0849C14.9448 25.0849 13.7766 23.9168 13.7766 22.4781C13.7766 21.0393 14.9448 19.8713 16.3835 19.8713Z" fill="black"/>
<path fill-rule="evenodd" clip-rule="evenodd" d="M30.5227 11.2212C28.5283 11.2212 26.9092 12.8403 26.9092 14.8347C26.9092 16.829 28.5283 18.4482 30.5227 18.4482C32.517 18.4482 34.1362 16.829 34.1362 14.8347C34.1362 12.8403 32.517 11.2212 30.5227 11.2212ZM30.5227 12.2278C31.9614 12.2278 33.1294 13.3958 33.1294 14.8347C33.1294 16.2734 31.9614 17.4414 30.5227 17.4414C29.0839 17.4414 27.9158 16.2734 27.9158 14.8347C27.9158 13.3958 29.0839 12.2278 30.5227 12.2278Z" fill="black"/>
<path fill-rule="evenodd" clip-rule="evenodd" d="M30.5227 42.5831C28.5283 42.5831 26.9092 44.2023 26.9092 46.1966C26.9092 48.1909 28.5283 49.8101 30.5227 49.8101C32.517 49.8101 34.1362 48.1909 34.1362 46.1966C34.1362 44.2023 32.517 42.5831 30.5227 42.5831ZM30.5227 43.5897C31.9614 43.5897 33.1294 44.7578 33.1294 46.1966C33.1294 47.6353 31.9614 48.8034 30.5227 48.8034C29.0839 48.8034 27.9158 47.6353 27.9158 46.1966C27.9158 44.7578 29.0839 43.5897 30.5227 43.5897Z" fill="black"/>
<circle cx="30.5225" cy="30.5156" r="29.5" stroke="black"/>
<line x1="12.7119" y1="6.09868" x2="51.0726" y2="52.3282" stroke="black"/>
</svg>
