<svg width="111" height="19" viewBox="0 0 111 19" fill="none" xmlns="http://www.w3.org/2000/svg">
<path d="M19.2358 8.19999L15.0966 12.235L16.0741 17.9339C16.1166 18.1831 16.0143 18.4349 15.8096 18.5838C15.694 18.6682 15.5564 18.7107 15.4188 18.7107C15.3132 18.7107 15.2069 18.6854 15.1098 18.6343L9.99172 15.9436L4.87426 18.6336C4.65098 18.7519 4.37919 18.7326 4.17452 18.5831C3.96985 18.4343 3.86751 18.1824 3.91004 17.9332L4.88755 12.2343L0.747591 8.19999C0.566842 8.02323 0.501055 7.75875 0.579468 7.51886C0.657881 7.27897 0.865876 7.10287 1.1164 7.06632L6.83725 6.23567L9.39565 1.05109C9.61959 0.597227 10.3638 0.597227 10.5878 1.05109L13.1462 6.23567L18.867 7.06632C19.1176 7.10287 19.3256 7.2783 19.404 7.51886C19.4824 7.75942 19.4166 8.02257 19.2358 8.19999Z" fill="#9A7D35"/>
<path d="M42.1255 8.19999L37.9862 12.235L38.9637 17.9339C39.0062 18.1831 38.9039 18.4349 38.6992 18.5838C38.5836 18.6682 38.4461 18.7107 38.3085 18.7107C38.2028 18.7107 38.0965 18.6854 37.9995 18.6343L32.8814 15.9436L27.7639 18.6336C27.5406 18.7519 27.2688 18.7326 27.0642 18.5831C26.8595 18.4343 26.7572 18.1824 26.7997 17.9332L27.7772 12.2343L23.6372 8.19999C23.4565 8.02323 23.3907 7.75875 23.4691 7.51886C23.5475 7.27897 23.7555 7.10287 24.006 7.06632L29.7269 6.23567L32.2853 1.05109C32.5092 0.597227 33.2535 0.597227 33.4774 1.05109L36.0358 6.23567L41.7567 7.06632C42.0072 7.10287 42.2152 7.2783 42.2936 7.51886C42.372 7.75942 42.3062 8.02257 42.1255 8.19999Z" fill="#9A7D35"/>
<path d="M65.0161 8.19999L60.8768 12.235L61.8543 17.9339C61.8969 18.1831 61.7945 18.4349 61.5899 18.5838C61.4742 18.6682 61.3367 18.7107 61.1991 18.7107C61.0935 18.7107 60.9871 18.6854 60.8901 18.6343L55.772 15.9436L50.6545 18.6336C50.4313 18.7519 50.1595 18.7326 49.9548 18.5831C49.7501 18.4343 49.6478 18.1824 49.6903 17.9332L50.6678 12.2343L46.5279 8.19999C46.3471 8.02323 46.2813 7.75875 46.3597 7.51886C46.4382 7.27897 46.6461 7.10287 46.8967 7.06632L52.6175 6.23567L55.1759 1.05109C55.3999 0.597227 56.1441 0.597227 56.3681 1.05109L58.9265 6.23567L64.6473 7.06632C64.8978 7.10287 65.1058 7.2783 65.1842 7.51886C65.2627 7.75942 65.1969 8.02257 65.0161 8.19999Z" fill="#9A7D35"/>
<path d="M87.9067 8.19999L83.7675 12.235L84.745 17.9339C84.7875 18.1831 84.6852 18.4349 84.4805 18.5838C84.3649 18.6682 84.2273 18.7107 84.0897 18.7107C83.9841 18.7107 83.8778 18.6854 83.7807 18.6343L78.6626 15.9436L73.5452 18.6336C73.3219 18.7519 73.0501 18.7326 72.8454 18.5831C72.6407 18.4343 72.5384 18.1824 72.5809 17.9332L73.5584 12.2343L69.4185 8.19999C69.2377 8.02323 69.172 7.75875 69.2504 7.51886C69.3288 7.27897 69.5368 7.10287 69.7873 7.06632L75.5081 6.23567L78.0665 1.05109C78.2905 0.597227 79.0347 0.597227 79.2587 1.05109L81.8171 6.23567L87.5379 7.06632C87.7885 7.10287 87.9965 7.2783 88.0749 7.51886C88.1533 7.75942 88.0875 8.02257 87.9067 8.19999Z" fill="#9A7D35"/>
<path d="M110.797 8.19999L106.658 12.235L107.636 17.9339C107.678 18.1831 107.576 18.4349 107.371 18.5838C107.255 18.6682 107.118 18.7107 106.98 18.7107C106.875 18.7107 106.768 18.6854 106.671 18.6343L101.553 15.9436L96.4358 18.6336C96.2125 18.7519 95.9407 18.7326 95.736 18.5831C95.5314 18.4343 95.429 18.1824 95.4716 17.9332L96.4491 12.2343L92.3091 8.19999C92.1284 8.02323 92.0626 7.75875 92.141 7.51886C92.2194 7.27897 92.4274 7.10287 92.6779 7.06632L98.3988 6.23567L100.957 1.05109C101.181 0.597227 101.925 0.597227 102.149 1.05109L104.708 6.23567L110.429 7.06632C110.679 7.10287 110.887 7.2783 110.965 7.51886C111.044 7.75942 110.978 8.02257 110.797 8.19999Z" fill="#9A7D35"/>
</svg>
