<svg width="35" height="35" viewBox="0 0 35 35" fill="none" xmlns="http://www.w3.org/2000/svg">
<rect width="35" height="35" fill="#F5F5F5"/>
<g id="Frame 427322242" clip-path="url(#clip0_141_6)">
<rect width="1440" height="6794" transform="translate(-96 -2012)" fill="white"/>
<rect id="Rectangle 34626132" x="-107.266" y="-166.152" width="1463" height="1391.67" fill="#FAFAFA"/>
<g id="us-map 1" clip-path="url(#clip1_141_6)">
<g id="Group">
<path id="Vector" d="M34.7136 11.3828C34.7102 11.3782 34.7049 11.3741 34.7001 11.3696C34.4287 11.1139 32.5702 11.273 32.5702 11.273C32.5702 11.273 32.5587 11.3126 32.529 11.3696C32.466 11.491 32.3194 11.6927 32.0203 11.7676C31.5807 11.8774 25.315 11.9872 25.1501 11.5476C25.1224 11.4733 25.0729 11.4158 25.0118 11.3696C24.7118 11.1431 24.1058 11.2179 24.1058 11.2179C24.1058 11.2179 24.0589 11.2803 23.983 11.3696C23.812 11.5713 23.4931 11.9111 23.2265 11.9872C22.9287 12.0724 22.8619 11.6968 22.8976 11.3696C22.908 11.2742 22.9268 11.1825 22.9515 11.108C23.0285 10.8771 22.2964 10.0802 21.6811 9.67988C21.4182 9.50897 21.1761 9.40977 21.0279 9.45915C20.5334 9.62404 17.9499 8.63477 17.9499 8.63477H8.93893H1.95574C1.95574 8.63477 1.92211 8.98556 1.86457 9.2913C1.85918 9.31962 1.85366 9.34735 1.84788 9.37465C1.82079 9.50294 1.78945 9.61614 1.75417 9.67988C1.73124 9.72154 1.70673 9.74247 1.68104 9.73381C1.65743 9.726 1.623 9.70608 1.58223 9.67988C1.33802 9.52315 0.8409 9.11363 0.746546 9.34909C0.716439 9.42429 0.74506 9.54158 0.800857 9.67988C0.949267 10.0472 1.29615 10.5689 1.29615 10.8881C1.29615 10.9583 1.29615 11.1295 1.29615 11.3696C1.29615 11.6436 1.29615 12.0074 1.29615 12.4148C1.29615 12.9394 1.29615 13.5356 1.29615 14.1045C1.29615 14.4738 1.29615 14.8311 1.29615 15.1497C1.29615 15.7195 1.29615 16.165 1.29615 16.3294C1.29615 16.5439 1.4348 16.6963 1.6086 16.8393C1.92432 17.0995 2.35639 17.3296 2.28543 17.8486C2.28377 17.8607 2.28352 17.8726 2.2825 17.8846C2.23082 18.497 2.98196 19.1386 3.50299 19.5742C3.65794 19.7038 3.79268 19.8152 3.87943 19.902C4.03969 20.0623 4.26665 20.3465 4.50076 20.6194C4.82887 21.0022 5.171 21.3631 5.36341 21.3312C5.69318 21.2762 6.29782 21.0562 6.68254 21.4961C7.00356 21.8631 8.47247 22.2295 9.20543 22.3091H9.62752C10.045 22.2532 11.1331 22.1024 11.7701 22.3091C12.0045 22.3852 12.1779 22.5095 12.2338 22.7051C12.2987 22.9321 12.4167 23.1538 12.5501 23.3543C12.8689 23.8333 13.278 24.1891 13.278 24.1891C13.278 24.1891 13.5529 23.7494 13.7177 23.4196C13.7304 23.3943 13.7469 23.3727 13.7661 23.3543C13.8586 23.265 14.0226 23.2561 14.209 23.3543C14.4906 23.5028 14.823 23.8962 15.0369 24.6289C15.0799 24.7766 15.1387 24.9144 15.2078 25.0439C15.4499 25.4972 15.8277 25.8434 16.1759 26.0891C16.6203 26.4026 17.0156 26.5524 17.0156 26.5524C17.0156 26.5524 17.0156 26.3593 17.0191 26.0891C17.023 25.7837 17.0314 25.38 17.0494 25.0439C17.0553 24.9329 17.0622 24.829 17.0704 24.7387C17.1254 24.1343 18.9392 23.5844 19.2689 23.5294C19.5987 23.4745 21.7972 24.4639 21.7972 24.1342C21.7972 23.8573 22.1465 23.6187 22.5512 23.3543C22.6284 23.3038 22.7075 23.2525 22.7867 23.1997C22.9615 23.083 23.1775 23.1865 23.386 23.3543C23.768 23.6608 24.1251 24.1823 24.1606 23.9693C24.2155 23.6393 25.26 23.8044 25.3698 24.189C25.4345 24.416 25.5183 24.7384 25.5651 25.0439C25.5976 25.2561 25.6121 25.4605 25.5898 25.6182C25.5744 25.7263 25.6457 25.8996 25.76 26.0889C26.0524 26.5739 26.6255 27.1656 26.7441 27.047C26.8165 26.9747 26.8997 26.5615 26.9327 26.0889C26.9575 25.7345 26.9535 25.3469 26.8962 25.0439C26.8561 24.8326 26.7902 24.6625 26.6891 24.5739C26.4936 24.4028 26.3417 23.8948 26.2717 23.3543C26.2246 22.989 26.2147 22.6099 26.2544 22.3089C26.288 22.0535 26.3572 21.8548 26.4693 21.7707C26.6421 21.6411 27.2554 21.1643 27.9 20.6194C28.308 20.2745 28.7286 19.9025 29.0579 19.5742C29.5335 19.1001 29.8192 18.7168 29.6021 18.6378C29.2468 18.5085 29.196 18.2642 29.2363 17.8846C29.2644 17.6186 29.3369 17.2868 29.3822 16.8792C29.3838 16.865 29.3858 16.8527 29.3876 16.8393C29.5114 15.9241 30.1556 17.0258 30.4269 15.7797C30.4838 15.5175 30.6314 15.3126 30.8258 15.1497C31.5672 14.5274 32.9967 14.5251 32.7352 14.3508C32.6547 14.2969 32.597 14.2098 32.5625 14.1045C32.4558 13.78 32.5683 13.2806 32.9001 13.0317C33.0702 12.9042 33.4125 12.6701 33.7556 12.4148C34.3006 12.0096 34.8486 11.5514 34.7136 11.3828Z" fill="black"/>
</g>
</g>
</g>
<defs>
<clipPath id="clip0_141_6">
<rect width="1440" height="6794" fill="white" transform="translate(-96 -2012)"/>
</clipPath>
<clipPath id="clip1_141_6">
<rect width="34" height="34" fill="white" transform="translate(0.734375 0.847656)"/>
</clipPath>
</defs>
</svg>
