<svg width="40" height="39" viewBox="0 0 40 39" fill="none" xmlns="http://www.w3.org/2000/svg">
<g clip-path="url(#clip0_141_1163)">
<path d="M33.6118 6.13822C29.9759 2.50238 25.1419 0.5 20 0.5C14.8581 0.5 10.0241 2.50238 6.38822 6.13822C2.75238 9.77406 0.75 14.6081 0.75 19.75C0.75 24.8919 2.7523 29.7259 6.38814 33.3618C10.0241 36.9976 14.8581 39 20 39C25.1419 39 29.9759 36.9976 33.6119 33.3618C37.2476 29.7259 39.25 24.8919 39.25 19.75C39.25 14.6081 37.2476 9.77406 33.6118 6.13822ZM32.0167 31.7667C28.8069 34.9764 24.5393 36.7441 20 36.7441C15.4607 36.7441 11.1931 34.9764 7.98334 31.7667C4.77355 28.5569 3.00586 24.2893 3.00586 19.75C3.00586 15.2107 4.77355 10.9431 7.98334 7.73334C11.1931 4.52355 15.4607 2.75586 20 2.75586C24.5393 2.75586 28.8069 4.52355 32.0167 7.73334C35.2264 10.9431 36.9941 15.2107 36.9941 19.75C36.9941 24.2893 35.2264 28.5569 32.0167 31.7667Z" fill="url(#paint0_linear_141_1163)"/>
<path d="M19.3809 15.092C18.5177 17.6869 19.6443 20.473 21.9275 21.7875L19.4516 29.2426L12.6869 9.66132L10.5547 10.3979L18.2036 32.5386H20.734L24.0668 22.5029C25.3874 22.6316 26.4923 22.3441 27.2914 21.9438C28.6441 21.2664 29.6521 20.1027 30.1295 18.6672C31.7332 13.8459 27.7211 8.61498 27.5692 8.41992C27.3307 8.48512 20.9847 10.2706 19.3809 15.092ZM27.9889 17.9553C27.7017 18.8191 27.0952 19.5193 26.2813 19.9268C25.8138 20.1609 25.31 20.2818 24.8022 20.2884L25.9223 16.9159L23.7814 16.2049L22.6638 19.57C21.5568 18.7078 21.0538 17.2095 21.5213 15.804C22.441 13.0391 25.3154 11.6018 26.692 11.057C27.468 12.3177 28.9087 15.1904 27.9889 17.9553Z" fill="url(#paint1_linear_141_1163)"/>
</g>
<defs>
<linearGradient id="paint0_linear_141_1163" x1="20" y1="0.5" x2="20" y2="39" gradientUnits="userSpaceOnUse">
<stop stop-color="#CFAC4E"/>
<stop offset="1" stop-color="#D6B556"/>
</linearGradient>
<linearGradient id="paint1_linear_141_1163" x1="20.531" y1="8.41992" x2="20.531" y2="32.5386" gradientUnits="userSpaceOnUse">
<stop stop-color="#CFAC4E"/>
<stop offset="1" stop-color="#D6B556"/>
</linearGradient>
<clipPath id="clip0_141_1163">
<rect width="38.5" height="38.5" fill="white" transform="translate(0.75 0.5)"/>
</clipPath>
</defs>
</svg>
