<svg width="26" height="26" viewBox="0 0 26 26" fill="none" xmlns="http://www.w3.org/2000/svg">
<path d="M17.2627 16.8142C17.226 16.8099 17.1905 16.7984 17.1582 16.7804C17.126 16.7623 17.0976 16.7381 17.0747 16.7091C17.0518 16.6801 17.0349 16.6468 17.0248 16.6113C17.0148 16.5757 17.0119 16.5385 17.0162 16.5018L17.776 10.0662L8.59325 17.3097C8.53469 17.3558 8.46017 17.3769 8.38609 17.3681C8.31202 17.3594 8.24445 17.3216 8.19825 17.263C8.15205 17.2045 8.13101 17.1299 8.13976 17.0559C8.14851 16.9818 8.18632 16.9142 8.24489 16.868L17.4277 9.62454L10.9921 8.86474C10.9554 8.86041 10.9199 8.84889 10.8876 8.83084C10.8554 8.8128 10.827 8.78857 10.8041 8.75956C10.7812 8.73055 10.7643 8.69731 10.7542 8.66174C10.7442 8.62618 10.7412 8.58898 10.7456 8.55228C10.7499 8.51558 10.7614 8.4801 10.7795 8.44785C10.7975 8.4156 10.8218 8.38722 10.8508 8.36434C10.8798 8.34145 10.913 8.3245 10.9486 8.31446C10.9841 8.30442 11.0213 8.30148 11.058 8.30581L18.1681 9.14524C18.2048 9.14955 18.2403 9.16105 18.2726 9.1791C18.3048 9.19714 18.3332 9.22136 18.3561 9.25038C18.379 9.2794 18.396 9.31265 18.406 9.34822C18.416 9.38379 18.4189 9.42099 18.4146 9.4577L17.5752 16.5678C17.5709 16.6045 17.5593 16.64 17.5413 16.6722C17.5233 16.7045 17.499 16.7329 17.47 16.7558C17.441 16.7787 17.4078 16.7956 17.3722 16.8056C17.3366 16.8157 17.2994 16.8186 17.2627 16.8142Z" fill="black"/>
</svg>
