<svg width="61" height="61" viewBox="0 0 61 61" fill="none" xmlns="http://www.w3.org/2000/svg">
<path d="M18.4338 42.6433C18.0813 42.6433 17.7946 42.9296 17.7946 43.2821C17.7946 43.6345 18.0813 43.9256 18.4338 43.9256C18.7862 43.9256 19.0725 43.6371 19.0725 43.2821C19.0725 42.927 18.7862 42.6433 18.4338 42.6433ZM18.4338 44.845C17.5744 44.845 16.8751 44.144 16.8751 43.2821C16.8751 42.4202 17.5744 41.7239 18.4338 41.7239C19.2931 41.7239 19.992 42.4228 19.992 43.2821C19.992 44.1414 19.2931 44.845 18.4338 44.845Z" fill="black"/>
<path d="M22.0403 36.4652C21.7484 36.4652 21.5114 36.7022 21.5114 36.9941C21.5114 37.286 21.7484 37.523 22.0403 37.523C22.3322 37.523 22.5735 37.286 22.5735 36.9941C22.5735 36.7022 22.3344 36.4652 22.0403 36.4652ZM22.0403 38.4425C21.2415 38.4425 20.5919 37.7929 20.5919 36.9941C20.5919 36.1954 21.2415 35.5458 22.0403 35.5458C22.839 35.5458 23.4929 36.1954 23.4929 36.9941C23.4929 37.7929 22.8412 38.4425 22.0403 38.4425Z" fill="black"/>
<path d="M24.9439 39.7524C24.6524 39.7524 24.4154 39.9894 24.4154 40.2814C24.4154 40.5733 24.6524 40.8103 24.9439 40.8103C25.2354 40.8103 25.4771 40.5733 25.4771 40.2814C25.4771 39.9894 25.238 39.7524 24.9439 39.7524ZM24.9439 41.7297C24.1455 41.7297 23.496 41.0801 23.496 40.2814C23.496 39.4826 24.1455 38.833 24.9439 38.833C25.7422 38.833 26.3966 39.4826 26.3966 40.2814C26.3966 41.0801 25.7448 41.7297 24.9439 41.7297Z" fill="black"/>
<path d="M22.4278 43.3926C22.106 43.3926 21.8444 43.6564 21.8444 43.9812C21.8444 44.306 22.106 44.565 22.4278 44.565C22.7495 44.565 23.0164 44.3029 23.0164 43.9812C23.0164 43.6594 22.7526 43.3926 22.4278 43.3926ZM22.4278 45.4845C21.5992 45.4845 20.9249 44.8102 20.9249 43.9812C20.9249 43.1521 21.5992 42.4731 22.4278 42.4731C23.2564 42.4731 23.9358 43.1495 23.9358 43.9812C23.9358 44.8128 23.2594 45.4845 22.4278 45.4845Z" fill="black"/>
<path d="M36.0461 37.872C36.0461 37.872 36.0452 37.872 36.0439 37.8724C36.0452 37.8724 36.0461 37.872 36.0461 37.872ZM34.3841 37.7405C34.4714 37.7695 34.5558 37.795 34.6401 37.8136C35.0324 37.9044 35.4142 37.9313 35.7689 37.9014C35.8631 37.8928 35.9535 37.885 36.0396 37.8729L36.0941 37.8629C36.1784 37.8512 36.2589 37.8361 36.3354 37.8166C36.4383 37.7942 36.524 37.7756 36.6057 37.7483C36.7207 37.7163 36.809 37.6865 36.8981 37.6571C36.9729 37.6315 37.0533 37.6026 37.1294 37.5723L37.1822 37.5498C37.2471 37.5226 37.3098 37.4966 37.3725 37.465C37.4495 37.4317 37.4957 37.4088 37.5407 37.3868L37.625 37.3461C38.0221 37.1446 38.3408 36.9296 38.5358 36.7852L38.733 36.6343C38.8122 36.5694 38.8918 36.5058 38.967 36.4345C39.2814 36.156 39.5543 35.8502 39.7891 35.5163C39.8488 35.4333 39.9011 35.3554 39.9526 35.2776C40.0564 35.1163 40.1507 34.9528 40.2367 34.7893C40.2731 34.7201 40.3055 34.6518 40.3379 34.583C40.4603 34.3283 40.5542 34.1052 40.6229 33.9058L40.6554 33.8163C40.6727 33.7657 40.69 33.7164 40.709 33.6688C40.7657 33.4906 40.8245 33.3012 40.8742 33.1343C40.9149 32.9946 40.9534 32.8605 40.9884 32.7221L41.0584 32.4189C41.1073 32.1993 41.1471 31.9661 41.1804 31.7036C41.1994 31.5864 41.2115 31.4835 41.2198 31.3849C41.2288 31.2915 41.2375 31.2076 41.2414 31.1237C41.2574 31.0009 41.2604 30.9174 41.2639 30.837C41.2691 30.7435 41.2734 30.6601 41.2734 30.5766V30.5649C41.2985 29.5988 41.2025 28.5803 40.9888 27.5381C40.5927 25.579 39.7852 23.4819 38.6422 21.4363C37.5662 22.7804 36.3583 23.9961 35.1859 25.1772L34.503 25.8639C34.4139 25.9513 34.3257 26.0391 34.2392 26.1282C33.8102 26.5663 33.4192 27.0247 33.075 27.4926C32.6979 28.0047 32.3752 28.5712 32.1158 29.1784L32.0898 29.245C31.4956 30.6765 31.3101 32.2382 31.5531 33.7648C31.887 34.5294 32.2775 35.2832 32.716 36.0059L33.4984 37.2951C33.7453 37.4659 34.01 37.6043 34.2868 37.7068H34.311L34.3841 37.7405ZM35.4813 38.833C35.1396 38.833 34.7889 38.7919 34.439 38.7106C34.346 38.6907 34.2492 38.663 34.1484 38.6306H34.1177L34.0433 38.596C33.6316 38.4524 33.2415 38.2474 32.8834 37.9857L32.8094 37.9317L31.9298 36.4829C31.4601 35.7075 31.0415 34.8983 30.6869 34.0779L30.6553 33.9711C30.3759 32.287 30.5658 30.5628 31.2054 28.9782V28.976L31.2409 28.8865C31.5332 28.1881 31.9013 27.5359 32.3346 26.9477C32.7039 26.4452 33.1234 25.9543 33.5797 25.4877C33.6688 25.3951 33.7626 25.3026 33.8565 25.2096L34.5333 24.5293C35.8407 23.2129 37.1926 21.8515 38.3321 20.3374L38.7447 19.7894L39.0946 20.3798C40.4694 22.6961 41.4356 25.1084 41.8901 27.3543C42.1171 28.4618 42.2188 29.5486 42.1928 30.5827C42.1928 30.6804 42.1881 30.7786 42.1829 30.8767C42.1777 30.9892 42.1716 31.1025 42.1561 31.2119C42.1552 31.269 42.1457 31.3689 42.1353 31.4688C42.1267 31.5812 42.1107 31.708 42.0908 31.8351C42.0557 32.111 42.0112 32.3709 41.9567 32.6162L41.8832 32.9327C41.8425 33.0945 41.801 33.2393 41.7591 33.3842C41.7037 33.5706 41.6431 33.767 41.5731 33.9823C41.5484 34.0463 41.5359 34.0818 41.5234 34.1181L41.4883 34.2167C41.4113 34.439 41.3041 34.6951 41.173 34.9679C41.1315 35.0562 41.093 35.1375 41.0498 35.2188C40.9525 35.4034 40.8448 35.5894 40.7224 35.7801C40.6597 35.8744 40.6013 35.9622 40.5382 36.0496C40.2657 36.4375 39.9444 36.7969 39.5872 37.113C39.5054 37.1904 39.4094 37.2696 39.3074 37.3517L39.0855 37.5226C38.8585 37.6899 38.4943 37.936 38.0285 38.1721L37.9459 38.2124C37.885 38.2418 37.8222 38.2725 37.7556 38.3006C37.702 38.3283 37.622 38.362 37.5394 38.397L37.4776 38.4234C37.3746 38.4636 37.2799 38.4982 37.1908 38.5281C37.0857 38.5635 36.9811 38.5977 36.8721 38.628C36.7826 38.6578 36.6654 38.6859 36.5439 38.7123C36.4595 38.7335 36.3592 38.753 36.2541 38.7685L36.2009 38.778C36.0725 38.7971 35.9643 38.807 35.851 38.817C35.7278 38.8278 35.6041 38.833 35.4813 38.833Z" fill="black"/>
<path d="M34.387 38.4995C34.3364 38.4995 34.2845 38.4909 34.2339 38.4736C33.9947 38.3888 33.8689 38.1259 33.9532 37.8867C34.1573 37.3085 34.4696 36.4384 34.8675 35.3862C35.5153 33.6731 35.9833 32.5474 36.3599 31.6431C36.5935 31.0826 36.7846 30.6233 36.9507 30.1831C37.496 28.7412 38.2321 26.4815 38.3363 23.5204C38.3688 22.5906 38.3324 21.6495 38.2278 20.724C38.1992 20.4719 38.3809 20.244 38.633 20.2154C38.8886 20.1865 39.1131 20.3685 39.1416 20.6207C39.251 21.5911 39.2895 22.5776 39.2549 23.5528C39.1464 26.6498 38.3792 29.0055 37.8109 30.5083C37.6418 30.9568 37.4467 31.4247 37.2084 31.9964C36.8352 32.8943 36.3695 34.0118 35.7277 35.711C35.3324 36.7554 35.0232 37.619 34.8208 38.1929C34.7537 38.3815 34.5764 38.4995 34.387 38.4995Z" fill="black"/>
<path d="M35.3331 35.9528C35.1554 35.9528 34.9867 35.8494 34.911 35.6765C34.8098 35.4438 34.9166 35.1731 35.1493 35.0714L41.2511 32.4139C41.4846 32.3118 41.7553 32.4191 41.8565 32.6517C41.9577 32.8844 41.8509 33.1551 41.6182 33.2568L35.5165 35.9148C35.4568 35.9407 35.3941 35.9528 35.3331 35.9528Z" fill="black"/>
<path d="M37.8505 29.4543C37.6727 29.4543 37.5027 29.3505 37.4284 29.1767C37.3276 28.9436 37.4357 28.6729 37.6684 28.573L41.2579 27.0269C41.4902 26.9278 41.7617 27.0342 41.8616 27.2673C41.9624 27.5004 41.8547 27.7712 41.6216 27.8711L38.0321 29.4167C37.9728 29.4422 37.9114 29.4543 37.8505 29.4543Z" fill="black"/>
<path d="M35.7534 34.8284C35.6155 34.8284 35.4788 34.767 35.3889 34.6494L31.305 29.3459C31.1502 29.1448 31.1874 28.8564 31.3885 28.7011C31.5896 28.5454 31.8789 28.5835 32.0333 28.785L36.1167 34.0884C36.272 34.2895 36.2344 34.578 36.0333 34.7328C35.9498 34.7977 35.8512 34.8284 35.7534 34.8284Z" fill="black"/>
<path d="M37.5494 30.3621C37.4062 30.3621 37.2652 30.296 37.1753 30.1705L33.9464 25.6663C33.7985 25.46 33.8461 25.1725 34.0519 25.025C34.2595 24.8758 34.5458 24.9246 34.6933 25.1305L37.9221 29.6347C38.0705 29.841 38.0229 30.1286 37.8166 30.2761C37.7357 30.3345 37.6419 30.3621 37.5494 30.3621Z" fill="black"/>
<path d="M35.0683 38.8134C35.4701 39.389 35.9419 39.7264 36.1343 39.8639C36.5301 40.1459 37.0758 40.3764 37.7557 40.5502C39.5522 41.0065 41.4819 40.843 43.1871 40.0875C43.8034 39.815 44.3833 39.4703 44.9114 39.0642C45.3802 38.7027 45.8291 38.3018 46.2456 37.8724C46.3628 37.7521 46.4765 37.6336 46.5911 37.5143L47.1235 36.9594C48.2929 35.7403 49.4973 34.4839 50.8384 33.3578C48.8568 32.3146 45.5835 30.9229 42.2339 30.9229C42.2141 30.9229 42.1946 30.9229 42.1747 30.9234C42.1267 31.7892 41.9853 32.62 41.753 33.3988C41.5891 33.9429 41.3149 34.8524 40.7164 35.7818C40.3216 36.3933 39.8415 36.9248 39.2892 37.3629C39.2399 37.4023 39.1694 37.4585 39.0743 37.5268C38.4187 38.0073 36.8618 38.9721 35.0683 38.8134ZM39.7918 41.7227C39.0306 41.7227 38.2699 41.6297 37.5291 41.4411C36.7385 41.2392 36.0898 40.9606 35.6002 40.6121C35.2724 40.3777 34.2764 39.6667 33.786 38.3368L33.7666 38.2689L33.594 37.4753L34.3621 37.7314C36.1378 38.3355 37.8707 37.2695 38.5333 36.7834C38.615 36.7246 38.6734 36.6779 38.7084 36.6497C39.1915 36.267 39.6036 35.8099 39.944 35.2836C40.4721 34.4627 40.7229 33.6315 40.873 33.1346C41.1199 32.3056 41.2544 31.4069 41.2717 30.4649L41.2799 30.0316L41.7128 30.0143C45.8217 29.8469 49.8481 31.7373 51.885 32.8799L52.484 33.2159L51.9451 33.6415C50.4349 34.8347 49.0891 36.2385 47.7869 37.596L47.255 38.15C47.1386 38.272 47.0227 38.3926 46.9042 38.5137C46.4588 38.9734 45.9766 39.4042 45.4727 39.7925C44.8859 40.244 44.2419 40.6259 43.5595 40.9282C42.3693 41.455 41.0801 41.7227 39.7918 41.7227Z" fill="black"/>
<path d="M40.3291 35.9936C40.1531 35.9936 39.9845 35.8924 39.9088 35.7211C39.805 35.4893 39.9096 35.2173 40.1414 35.1144L40.272 35.056C40.8563 34.7956 41.3329 34.5833 41.7883 34.3995C41.8787 34.3623 41.9764 34.3238 42.0768 34.2844L42.5568 34.0933L42.5616 34.1006C42.7497 34.0306 42.9465 33.9605 43.1506 33.8905C44.9877 33.2651 46.8046 32.907 48.7061 32.7959C49.6969 32.7384 50.6843 32.7531 51.6409 32.8413C51.8943 32.8646 52.0803 33.0882 52.0574 33.3408C52.034 33.5942 51.807 33.7819 51.5574 33.7573C50.6458 33.6725 49.7043 33.6587 48.7598 33.7136C46.9425 33.8204 45.2044 34.1625 43.4481 34.7602C43.1359 34.8679 42.8414 34.9751 42.5676 35.0815L42.2437 35.2073C42.2078 35.2216 42.1719 35.2359 42.1369 35.2506C41.6858 35.4327 41.2187 35.6402 40.6466 35.8954L40.5155 35.9538C40.4546 35.981 40.3914 35.9936 40.3291 35.9936Z" fill="black"/>
<path d="M43.3126 34.7842C43.2551 34.7842 43.1967 34.7734 43.1404 34.7509C42.9047 34.6558 42.791 34.3877 42.8861 34.1524L44.3483 30.5283C44.4435 30.2921 44.7133 30.1797 44.9465 30.2735C45.1822 30.3687 45.2959 30.6368 45.2012 30.8721L43.739 34.4962C43.6668 34.6753 43.4942 34.7842 43.3126 34.7842Z" fill="black"/>
<path d="M43.3777 40.9675C43.2835 40.9675 43.1883 40.939 43.1061 40.8789L38.5375 37.525C38.3329 37.3754 38.2888 37.0874 38.4389 36.8828C38.589 36.6787 38.8761 36.6333 39.0815 36.7838L43.6502 40.1372C43.8548 40.2877 43.8989 40.5753 43.7488 40.7798C43.6588 40.9026 43.5191 40.9675 43.3777 40.9675Z" fill="black"/>
<path d="M46.9843 38.2371C46.8947 38.2371 46.8043 38.2107 46.7256 38.1571L42.1475 35.0333C41.9377 34.8902 41.8837 34.6039 42.0268 34.3946C42.17 34.184 42.4571 34.1312 42.6656 34.2735L47.2437 37.3972C47.4531 37.5404 47.5075 37.8267 47.3644 38.0364C47.2753 38.167 47.1309 38.2371 46.9843 38.2371Z" fill="black"/>
<path d="M27.8436 34.6944C27.5396 34.6944 27.2317 34.6598 26.9277 34.5759C25.8828 34.2879 25.2401 33.794 24.6732 33.3585C24.0625 32.8897 23.5807 32.5191 22.7167 32.5091C21.8824 32.5 21.286 32.7357 20.7091 32.9641C20.4769 33.0562 20.2503 33.1461 20.0172 33.2192C19.7732 33.2949 19.5172 33.16 19.4407 32.9182C19.365 32.6765 19.4991 32.4183 19.7417 32.3417C19.9527 32.2756 20.159 32.1934 20.3701 32.1095C20.9855 31.8652 21.6818 31.5892 22.6635 31.5892C22.6851 31.5892 22.7063 31.5892 22.7275 31.5892C23.8977 31.6035 24.5767 32.1246 25.2328 32.6289C25.7578 33.0315 26.3006 33.4484 27.1724 33.6893C28.0793 33.9406 29.1225 33.5868 29.8814 33.3286C30.1331 33.2434 30.3507 33.1699 30.5362 33.1267C30.7827 33.0705 31.0305 33.224 31.0876 33.4714C31.1447 33.7187 30.9903 33.9657 30.7429 34.0228C30.6024 34.0552 30.4052 34.1218 30.1773 34.1996C29.5653 34.4072 28.7211 34.6935 27.8436 34.694V34.6944Z" fill="#F5F0E7"/>
<path d="M30.0766 41.0613C29.2982 41.0613 28.665 41.6927 28.665 42.4686C28.665 43.2444 29.2982 43.8801 30.0766 43.8801C30.8551 43.8801 31.4882 43.247 31.4882 42.4686C31.4882 41.6901 30.8551 41.0613 30.0766 41.0613ZM30.0766 44.7996C28.7913 44.7996 27.7456 43.7539 27.7456 42.4686C27.7456 41.1832 28.7913 40.1418 30.0766 40.1418C31.3619 40.1418 32.4077 41.1858 32.4077 42.4686C32.4077 43.7513 31.3619 44.7996 30.0766 44.7996Z" fill="black"/>
<path d="M29.1773 20.3938L21.5986 20.3923C21.6518 21.9073 21.4917 25.9824 21.2982 28.3533C21.0855 30.9579 20.5786 32.4697 19.5795 34.1576L19.8056 33.9781C20.7003 33.3934 22.1003 32.3517 24.0495 33.2041C25.6342 33.897 27.2565 34.8076 28.0893 34.905C29.4181 34.8962 31.6772 34.4851 30.0826 32.9117C28.4879 31.3383 28.8146 23.9109 29.1773 20.3938Z" fill="black" stroke="black" stroke-linejoin="round"/>
<path d="M20.8576 17.6948C20.3806 17.6948 19.9927 18.0828 19.9927 18.5593C19.9927 19.0359 20.3806 19.4247 20.8576 19.4247H29.6732C30.1506 19.4247 30.5385 19.0368 30.5385 18.5593C30.5385 18.0819 30.1506 17.6948 29.6732 17.6948H20.8576ZM29.6732 20.3442H20.8576C19.8738 20.3442 19.0732 19.5437 19.0732 18.5593C19.0732 17.575 19.8738 16.7754 20.8576 16.7754H29.6732C30.6575 16.7754 31.458 17.5759 31.458 18.5593C31.458 19.5428 30.6575 20.3442 29.6732 20.3442Z" fill="black"/>
<path d="M20.9386 30.9014L20.9239 30.9585C20.418 32.9029 19.6334 34.7616 18.592 36.4824L12.9837 45.7279C12.844 46.0055 12.8587 46.3649 13.04 46.6594C13.2212 46.9548 13.536 47.1308 13.882 47.1308H36.634C36.9769 47.1308 37.2896 46.9552 37.4712 46.662C37.6533 46.3657 37.6702 46.0051 37.5145 45.6963L31.9287 36.4829C31.459 35.7074 31.0404 34.8983 30.6857 34.0779C30.2485 33.0988 29.88 32.0483 29.592 30.9602L29.5829 30.9265H29.5825C29.2175 29.5287 29.0207 28.028 28.9792 26.3396L28.8469 20.3425H21.6648L21.5316 26.3435C21.4961 28.0133 21.3024 29.5049 20.9386 30.9014ZM36.634 48.0502H13.882C13.2138 48.0502 12.6062 47.7103 12.2563 47.1407C11.9073 46.5716 11.8783 45.8766 12.1806 45.2815L17.8054 36.0059C18.791 34.378 19.5353 32.6213 20.0192 30.7833V30.7608L20.0538 30.657C20.3924 29.3574 20.5784 27.9294 20.6121 26.3232L20.7648 19.4231H29.7464L29.8986 26.318C29.938 27.9342 30.1252 29.3661 30.4725 30.6946L30.4812 30.7249C30.7562 31.7655 31.1083 32.7688 31.5273 33.7081C31.8677 34.4952 32.2664 35.2668 32.7149 36.0059L38.3189 45.2513C38.6355 45.8792 38.6047 46.5751 38.2536 47.1446C37.9037 47.7116 37.2983 48.0502 36.634 48.0502Z" fill="black"/>
<circle cx="30.1367" cy="30.5156" r="29.5" stroke="black"/>
<line x1="12.3262" y1="6.09868" x2="50.6868" y2="52.3282" stroke="black"/>
</svg>
