<svg width="61" height="61" viewBox="0 0 61 61" fill="none" xmlns="http://www.w3.org/2000/svg">
<g clip-path="url(#clip0_141_436)">
<mask id="mask0_141_436" style="mask-type:luminance" maskUnits="userSpaceOnUse" x="13" y="14" width="36" height="36">
<path d="M13.75 14.5156H48.75V49.5156H13.75V14.5156Z" fill="white"/>
</mask>
<g mask="url(#mask0_141_436)">
<path d="M24.2734 33.0572C24.3929 35.5336 25.8028 37.671 27.8451 38.8125" stroke="black" stroke-width="1.02539" stroke-miterlimit="10" stroke-linecap="round" stroke-linejoin="round"/>
<path d="M34.9947 26.8262C33.9115 26.135 32.625 25.7343 31.2449 25.7343C29.9228 25.7343 28.6866 26.102 27.6328 26.7404" stroke="black" stroke-width="1.02539" stroke-miterlimit="10" stroke-linecap="round" stroke-linejoin="round"/>
<path d="M34.6211 38.8262C36.6405 37.7092 38.0475 35.6208 38.2116 33.1913" stroke="black" stroke-width="1.02539" stroke-miterlimit="10" stroke-linecap="round" stroke-linejoin="round"/>
<path d="M31.1151 33.9815C30.5735 33.9815 30.1343 33.5424 30.1343 33.0007C30.1343 32.459 30.5735 32.0199 31.1151 32.0199C31.6568 32.0199 32.096 32.459 32.096 33.0007C32.096 33.5424 31.6568 33.9815 31.1151 33.9815ZM38.1747 22.9248C38.2061 23.193 38.2224 23.4643 38.2224 23.7381C38.2224 27.5278 35.1393 30.6108 31.3497 30.6108C27.56 30.6108 24.477 27.5278 24.477 23.7381C24.477 21.9423 25.1657 20.2433 26.4163 18.9539C26.8718 18.4842 26.8604 17.7341 26.3907 17.2785C25.9209 16.8228 25.1709 16.8344 24.7152 17.3041C23.0334 19.0379 22.1073 21.3229 22.1073 23.7381C22.1073 25.4682 22.5855 27.0884 23.4161 28.4744C21.7333 28.4307 20.0662 28.8499 18.5714 29.7129C16.4798 30.9204 14.964 32.8651 14.3033 35.1885C14.1243 35.8179 14.4895 36.4733 15.1188 36.6522C15.7483 36.8312 16.4036 36.4661 16.5826 35.8367C16.848 34.9035 17.3002 34.0538 17.9037 33.327M17.9037 33.327C18.1201 32.9909 19.5515 31.8833 19.7562 31.7651C21.346 30.8473 23.1982 30.6034 24.9714 31.0785C26.7446 31.5537 28.2267 32.6909 29.1445 34.2807C29.7396 35.3113 30.0363 36.4336 30.062 37.5469C30.0576 37.6871 30.0566 37.8271 30.0586 37.9671C29.9717 40.2512 28.7505 42.4442 26.629 43.6691C25.0737 44.567 23.2578 44.8201 21.5161 44.3817C20.8817 44.2219 20.2377 44.6069 20.0779 45.2415C19.9182 45.876 20.3032 46.52 20.9377 46.6797C21.6885 46.8686 22.4492 46.9621 23.2056 46.9621C24.8092 46.9621 26.3925 46.5419 27.8138 45.7213C29.2783 44.8757 30.4235 43.687 31.2075 42.3149C31.9927 43.7435 33.1646 44.982 34.6765 45.8549C36.0979 46.6756 37.6809 47.0957 39.2847 47.0957C40.0409 47.0957 40.8019 47.0023 41.5525 46.8133C42.187 46.6536 42.572 46.0097 42.4123 45.3751C42.2527 44.7406 41.6089 44.3555 40.9741 44.5153C39.2323 44.9539 37.4166 44.7006 35.8613 43.8027C33.7066 42.5587 32.4801 40.316 32.428 37.9935C32.4324 37.855 32.4336 37.7163 32.4317 37.5775C32.4728 36.498 32.769 35.4132 33.3457 34.4144C34.2636 32.8245 35.7456 31.6873 37.5188 31.2122C39.2922 30.7369 41.1443 30.9808 42.734 31.8987C44.2892 32.7966 45.4163 34.2426 45.9077 35.9704C46.0866 36.5997 46.742 36.9648 47.3714 36.7859C48.0008 36.6068 48.3659 35.9516 48.1869 35.3221C47.5261 32.9987 46.0104 31.0541 43.9189 29.8466C42.4623 29.0056 40.842 28.5858 39.2031 28.6055C40.083 27.191 40.5921 25.523 40.5921 23.7381C40.5921 21.3229 39.6659 19.0379 37.9841 17.3041C37.5286 16.8344 36.7784 16.8229 36.3087 17.2785C35.839 17.7341 35.8276 18.4842 36.2831 18.9539C38.1747 21.8103 38.0507 22.2964 38.1747 22.9248" stroke="black" stroke-width="1.02539" stroke-miterlimit="10" stroke-linecap="round" stroke-linejoin="round"/>
</g>
</g>
<circle cx="30.75" cy="30.5156" r="29.5" stroke="black"/>
<line x1="12.9395" y1="6.09868" x2="51.3001" y2="52.3282" stroke="black"/>
<defs>
<clipPath id="clip0_141_436">
<rect width="35" height="35" fill="white" transform="translate(13.75 14.5156)"/>
</clipPath>
</defs>
</svg>
