<svg width="61" height="61" viewBox="0 0 61 61" fill="none" xmlns="http://www.w3.org/2000/svg">
<path fill-rule="evenodd" clip-rule="evenodd" d="M33.2388 16.5533L41.6469 21.4076C41.8874 21.5466 42.1956 21.4639 42.3345 21.2234C42.4733 20.9828 42.3908 20.6748 42.1503 20.5358L33.7422 15.6815C33.5016 15.5426 33.1935 15.6251 33.0546 15.8657C32.9157 16.1063 32.9983 16.4144 33.2388 16.5533Z" fill="black"/>
<path fill-rule="evenodd" clip-rule="evenodd" d="M44.1584 25.5877V35.7551C44.1584 36.0329 44.384 36.2585 44.6618 36.2585C44.9395 36.2585 45.1651 36.0329 45.1651 35.7551V25.5877C45.1651 25.3099 44.9395 25.0844 44.6618 25.0844C44.384 25.0844 44.1584 25.3099 44.1584 25.5877Z" fill="black"/>
<path fill-rule="evenodd" clip-rule="evenodd" d="M41.7252 40.0608L33.3172 44.9151C33.0766 45.054 32.9941 45.3621 33.133 45.6027C33.2719 45.8432 33.58 45.9257 33.8205 45.7869L42.2285 40.9326C42.4692 40.7936 42.5517 40.4855 42.4128 40.245C42.2738 40.0043 41.9658 39.9218 41.7252 40.0608Z" fill="black"/>
<path fill-rule="evenodd" clip-rule="evenodd" d="M27.8022 44.9293L19.3428 40.0453C19.1023 39.9064 18.7943 39.9891 18.6554 40.2296C18.5164 40.4702 18.5989 40.7782 18.8396 40.9172L27.2988 45.8011C27.5395 45.94 27.8475 45.8575 27.9864 45.6169C28.1254 45.3764 28.0429 45.0682 27.8022 44.9293Z" fill="black"/>
<path fill-rule="evenodd" clip-rule="evenodd" d="M16.8872 35.7551V25.5877C16.8872 25.3099 16.6617 25.0844 16.3839 25.0844C16.106 25.0844 15.8805 25.3099 15.8805 25.5877V35.7551C15.8805 36.0329 16.106 36.2585 16.3839 36.2585C16.6617 36.2585 16.8872 36.0329 16.8872 35.7551Z" fill="black"/>
<path fill-rule="evenodd" clip-rule="evenodd" d="M19.4128 21.3967L27.8722 16.5128C28.1127 16.3738 28.1953 16.0658 28.0564 15.8252C27.9175 15.5845 27.6094 15.502 27.3688 15.641L18.9095 20.5249C18.6689 20.6638 18.5864 20.972 18.7253 21.2125C18.8641 21.4531 19.1723 21.5356 19.4128 21.3967Z" fill="black"/>
<path fill-rule="evenodd" clip-rule="evenodd" d="M27.4159 37.1384C30.5137 38.6414 34.2803 37.7862 36.1817 34.1521C37.6115 31.4193 37.4421 28.5229 36.7085 26.0298C35.6291 22.3615 33.3319 19.5861 33.3319 19.5861C33.212 19.4412 33.0213 19.3752 32.8375 19.415C32.6538 19.4548 32.5075 19.5937 32.4582 19.7753C31.7231 22.4888 30.169 23.8452 28.6385 25.1522C27.5348 26.0948 26.4418 27.0145 25.6111 28.3149C24.2841 30.3919 24.4427 32.7802 25.2216 34.5687C25.7569 35.7979 26.5896 36.7374 27.4159 37.1384ZM27.8553 36.2327C27.1994 35.9144 26.5694 35.1425 26.1446 34.1668C25.4834 32.6484 25.3329 30.6201 26.4594 28.8568C27.4372 27.3263 28.8162 26.3707 30.0991 25.2147C31.292 24.1394 32.4099 22.9066 33.1246 20.9918C33.8386 22.0129 35.0533 23.9708 35.7429 26.3141C36.4085 28.5761 36.5871 31.2059 35.2897 33.6854C33.6762 36.7695 30.4842 37.5083 27.8553 36.2327Z" fill="black"/>
<path fill-rule="evenodd" clip-rule="evenodd" d="M28.0757 37.6816C31.1979 34.3603 32.5579 30.164 32.9419 27.2881C32.9786 27.0128 32.785 26.7593 32.5096 26.7225C32.2342 26.6858 31.9808 26.8794 31.9441 27.1548C31.5806 29.8763 30.2969 33.8491 27.3422 36.9921C27.1519 37.1944 27.1617 37.5132 27.3642 37.7036C27.5665 37.8938 27.8853 37.8839 28.0757 37.6816Z" fill="black"/>
<path fill-rule="evenodd" clip-rule="evenodd" d="M44.6612 35.2518C42.6668 35.2518 41.0477 36.8709 41.0477 38.8653C41.0477 40.8596 42.6668 42.4788 44.6612 42.4788C46.6555 42.4788 48.2747 40.8596 48.2747 38.8653C48.2747 36.8709 46.6555 35.2518 44.6612 35.2518ZM44.6612 36.2585C46.1 36.2585 47.268 37.4266 47.268 38.8653C47.268 40.3041 46.1 41.4721 44.6612 41.4721C43.2224 41.4721 42.0544 40.3041 42.0544 38.8653C42.0544 37.4266 43.2224 36.2585 44.6612 36.2585Z" fill="black"/>
<path fill-rule="evenodd" clip-rule="evenodd" d="M24.7343 40.3974C26.0228 39.6123 27.1287 38.6869 28.0739 37.6818C28.2641 37.4793 28.2542 37.1605 28.0519 36.9703C27.8494 36.78 27.5306 36.7898 27.3404 36.9922C26.4545 37.9344 25.4182 38.8018 24.2106 39.5377C23.9733 39.6823 23.898 39.9922 24.0426 40.2294C24.1872 40.4667 24.4971 40.542 24.7343 40.3974Z" fill="black"/>
<path fill-rule="evenodd" clip-rule="evenodd" d="M16.3834 35.2518C14.3891 35.2518 12.7699 36.8709 12.7699 38.8653C12.7699 40.8596 14.3891 42.4788 16.3834 42.4788C18.3777 42.4788 19.9969 40.8596 19.9969 38.8653C19.9969 36.8709 18.3777 35.2518 16.3834 35.2518ZM16.3834 36.2585C17.8221 36.2585 18.9903 37.4266 18.9903 38.8653C18.9903 40.3041 17.8221 41.4721 16.3834 41.4721C14.9447 41.4721 13.7765 40.3041 13.7765 38.8653C13.7765 37.4266 14.9447 36.2585 16.3834 36.2585Z" fill="black"/>
<path fill-rule="evenodd" clip-rule="evenodd" d="M44.6613 18.8646C42.6669 18.8646 41.0479 20.4837 41.0479 22.4781C41.0479 24.4724 42.6669 26.0916 44.6613 26.0916C46.6556 26.0916 48.2748 24.4724 48.2748 22.4781C48.2748 20.4837 46.6556 18.8646 44.6613 18.8646ZM44.6613 19.8713C46.1001 19.8713 47.2681 21.0393 47.2681 22.4781C47.2681 23.9168 46.1001 25.0849 44.6613 25.0849C43.2225 25.0849 42.0545 23.9168 42.0545 22.4781C42.0545 21.0393 43.2225 19.8713 44.6613 19.8713Z" fill="black"/>
<path fill-rule="evenodd" clip-rule="evenodd" d="M16.3834 18.8646C14.3891 18.8646 12.7699 20.4837 12.7699 22.4781C12.7699 24.4724 14.3891 26.0916 16.3834 26.0916C18.3777 26.0916 19.9969 24.4724 19.9969 22.4781C19.9969 20.4837 18.3777 18.8646 16.3834 18.8646ZM16.3834 19.8713C17.8221 19.8713 18.9903 21.0393 18.9903 22.4781C18.9903 23.9168 17.8221 25.0849 16.3834 25.0849C14.9447 25.0849 13.7765 23.9168 13.7765 22.4781C13.7765 21.0393 14.9447 19.8713 16.3834 19.8713Z" fill="black"/>
<path fill-rule="evenodd" clip-rule="evenodd" d="M30.5223 11.2212C28.5279 11.2212 26.9088 12.8403 26.9088 14.8347C26.9088 16.829 28.5279 18.4482 30.5223 18.4482C32.5166 18.4482 34.1358 16.829 34.1358 14.8347C34.1358 12.8403 32.5166 11.2212 30.5223 11.2212ZM30.5223 12.2278C31.961 12.2278 33.1291 13.3958 33.1291 14.8347C33.1291 16.2734 31.961 17.4414 30.5223 17.4414C29.0836 17.4414 27.9154 16.2734 27.9154 14.8347C27.9154 13.3958 29.0836 12.2278 30.5223 12.2278Z" fill="black"/>
<path fill-rule="evenodd" clip-rule="evenodd" d="M30.5223 42.5831C28.5279 42.5831 26.9088 44.2023 26.9088 46.1966C26.9088 48.1909 28.5279 49.8101 30.5223 49.8101C32.5166 49.8101 34.1358 48.1909 34.1358 46.1966C34.1358 44.2023 32.5166 42.5831 30.5223 42.5831ZM30.5223 43.5898C31.961 43.5898 33.1291 44.7579 33.1291 46.1966C33.1291 47.6354 31.961 48.8035 30.5223 48.8035C29.0836 48.8035 27.9154 47.6354 27.9154 46.1966C27.9154 44.7579 29.0836 43.5898 30.5223 43.5898Z" fill="black"/>
<circle cx="30.5223" cy="30.5156" r="29.5" stroke="black"/>
<line x1="12.7118" y1="6.09868" x2="51.0725" y2="52.3282" stroke="black"/>
</svg>
