<svg width="20" height="19" viewBox="0 0 20 19" fill="none" xmlns="http://www.w3.org/2000/svg">
<path d="M18.8921 8.30375L14.7528 12.3387L15.7303 18.0376C15.7728 18.2868 15.6705 18.5387 15.4658 18.6875C15.3502 18.7719 15.2127 18.8145 15.0751 18.8145C14.9694 18.8145 14.8631 18.7892 14.7661 18.738L9.64797 16.0474L4.53051 18.7374C4.30723 18.8557 4.03544 18.8364 3.83077 18.6869C3.6261 18.538 3.52376 18.2862 3.56629 18.037L4.5438 12.338L0.403841 8.30375C0.223092 8.12699 0.157305 7.86251 0.235718 7.62262C0.314131 7.38273 0.522126 7.20663 0.77265 7.17008L6.4935 6.33943L9.0519 1.15485C9.27584 0.700986 10.0201 0.700986 10.244 1.15485L12.8024 6.33943L18.5233 7.17008C18.7738 7.20663 18.9818 7.38206 19.0602 7.62262C19.1386 7.86318 19.0728 8.12633 18.8921 8.30375Z" fill="#9A7D35"/>
</svg>
