<svg width="213" height="205" viewBox="0 0 213 205" fill="none" xmlns="http://www.w3.org/2000/svg">
<rect width="212.604" height="204.544" transform="translate(0.396484)" fill="white"/>
<rect x="131.668" y="71.413" width="28.9486" height="77.3243" rx="1.94539" fill="#E3C84C"/>
<rect x="80.7188" y="118.849" width="28.9486" height="29.8888" rx="1.94539" fill="#E3C84C"/>
<line x1="57.8789" y1="148.598" x2="204.042" y2="148.598" stroke="black" stroke-width="0.277913"/>
<path d="M41.3885 33.358V32.9234L43.3061 29.8893H43.6214V30.5626H43.4084L41.9595 32.8552V32.8893H44.5419V33.358H41.3885ZM43.4425 34.2529V33.2259V33.0235V29.8893H43.9453V34.2529H43.4425ZM46.7637 34.3126C46.4426 34.3126 46.1692 34.2252 45.9434 34.0505C45.7175 33.8744 45.5449 33.6194 45.4256 33.2856C45.3063 32.9504 45.2466 32.5455 45.2466 32.0711C45.2466 31.5995 45.3063 31.1968 45.4256 30.863C45.5463 30.5278 45.7196 30.2721 45.9455 30.096C46.1728 29.9184 46.4455 29.8296 46.7637 29.8296C47.0819 29.8296 47.3539 29.9184 47.5797 30.096C47.807 30.2721 47.9803 30.5278 48.0996 30.863C48.2203 31.1968 48.2807 31.5995 48.2807 32.0711C48.2807 32.5455 48.2211 32.9504 48.1017 33.2856C47.9824 33.6194 47.8098 33.8744 47.584 34.0505C47.3581 34.2252 47.0847 34.3126 46.7637 34.3126ZM46.7637 33.8438C47.0819 33.8438 47.329 33.6904 47.5051 33.3836C47.6813 33.0768 47.7694 32.6393 47.7694 32.0711C47.7694 31.6933 47.7289 31.3715 47.6479 31.1059C47.5684 30.8403 47.4533 30.6379 47.3027 30.4987C47.1536 30.3595 46.9739 30.2899 46.7637 30.2899C46.4483 30.2899 46.2019 30.4454 46.0243 30.7565C45.8468 31.0661 45.758 31.5043 45.758 32.0711C45.758 32.449 45.7978 32.77 45.8773 33.0342C45.9569 33.2984 46.0712 33.4994 46.2203 33.6372C46.3709 33.7749 46.552 33.8438 46.7637 33.8438Z" fill="black"/>
<path d="M42.9652 57.7095C42.6839 57.7095 42.4332 57.6612 42.2131 57.5646C41.9943 57.468 41.8203 57.3338 41.6911 57.1619C41.5632 56.9886 41.4936 56.7876 41.4822 56.5589H42.0192C42.0305 56.6995 42.0788 56.821 42.1641 56.9232C42.2493 57.0241 42.3608 57.1022 42.4986 57.1576C42.6364 57.213 42.7891 57.2407 42.9567 57.2407C43.1442 57.2407 43.3104 57.208 43.4553 57.1427C43.6001 57.0774 43.7138 56.9865 43.7962 56.87C43.8786 56.7535 43.9197 56.6186 43.9197 56.4652C43.9197 56.3046 43.88 56.1633 43.8004 56.0411C43.7209 55.9176 43.6044 55.821 43.451 55.7514C43.2976 55.6818 43.1101 55.647 42.8885 55.647H42.5391V55.1782H42.8885C43.0618 55.1782 43.2138 55.147 43.3445 55.0845C43.4766 55.022 43.5795 54.9339 43.6534 54.8203C43.7287 54.7066 43.7663 54.5731 43.7663 54.4197C43.7663 54.272 43.7337 54.1434 43.6683 54.034C43.603 53.9247 43.5107 53.8394 43.3913 53.7784C43.2734 53.7173 43.1342 53.6867 42.9737 53.6867C42.8232 53.6867 42.6811 53.7144 42.5476 53.7698C42.4155 53.8238 42.3075 53.9027 42.2237 54.0063C42.1399 54.1086 42.0945 54.2322 42.0874 54.3771H41.576C41.5845 54.1484 41.6534 53.9481 41.7827 53.7762C41.9119 53.6029 42.081 53.468 42.2898 53.3714C42.5 53.2748 42.7308 53.2265 42.9822 53.2265C43.2521 53.2265 43.4837 53.2812 43.6768 53.3906C43.87 53.4985 44.0185 53.6413 44.1222 53.8188C44.2259 53.9964 44.2777 54.1882 44.2777 54.3941C44.2777 54.6399 44.2131 54.8494 44.0838 55.0227C43.956 55.196 43.782 55.316 43.5618 55.3828V55.4169C43.8374 55.4623 44.0526 55.5795 44.2074 55.7684C44.3622 55.9559 44.4396 56.1882 44.4396 56.4652C44.4396 56.7024 44.375 56.9154 44.2457 57.1044C44.1179 57.2919 43.9432 57.4396 43.7216 57.5475C43.5 57.6555 43.2479 57.7095 42.9652 57.7095ZM45.4474 57.6498L47.3991 53.789V53.7549H45.1491V53.2862H47.9446V53.7805L46.0014 57.6498H45.4474Z" fill="black"/>
<path d="M42.9652 81.1064C42.6839 81.1064 42.4332 81.0581 42.2131 80.9615C41.9943 80.8649 41.8203 80.7306 41.6911 80.5588C41.5632 80.3855 41.4936 80.1845 41.4822 79.9558H42.0192C42.0305 80.0964 42.0788 80.2179 42.1641 80.3201C42.2493 80.421 42.3608 80.4991 42.4986 80.5545C42.6364 80.6099 42.7891 80.6376 42.9567 80.6376C43.1442 80.6376 43.3104 80.6049 43.4553 80.5396C43.6001 80.4742 43.7138 80.3833 43.7962 80.2669C43.8786 80.1504 43.9197 80.0154 43.9197 79.862C43.9197 79.7015 43.88 79.5602 43.8004 79.438C43.7209 79.3144 43.6044 79.2179 43.451 79.1483C43.2976 79.0787 43.1101 79.0439 42.8885 79.0439H42.5391V78.5751H42.8885C43.0618 78.5751 43.2138 78.5439 43.3445 78.4814C43.4766 78.4189 43.5795 78.3308 43.6534 78.2171C43.7287 78.1035 43.7663 77.97 43.7663 77.8166C43.7663 77.6689 43.7337 77.5403 43.6683 77.4309C43.603 77.3215 43.5107 77.2363 43.3913 77.1752C43.2734 77.1142 43.1342 77.0836 42.9737 77.0836C42.8232 77.0836 42.6811 77.1113 42.5476 77.1667C42.4155 77.2207 42.3075 77.2995 42.2237 77.4032C42.1399 77.5055 42.0945 77.6291 42.0874 77.774H41.576C41.5845 77.5453 41.6534 77.345 41.7827 77.1731C41.9119 76.9998 42.081 76.8649 42.2898 76.7683C42.5 76.6717 42.7308 76.6234 42.9822 76.6234C43.2521 76.6234 43.4837 76.6781 43.6768 76.7875C43.87 76.8954 44.0185 77.0382 44.1222 77.2157C44.2259 77.3933 44.2777 77.585 44.2777 77.791C44.2777 78.0367 44.2131 78.2463 44.0838 78.4196C43.956 78.5929 43.782 78.7129 43.5618 78.7796V78.8137C43.8374 78.8592 44.0526 78.9764 44.2074 79.1653C44.3622 79.3528 44.4396 79.585 44.4396 79.862C44.4396 80.0992 44.375 80.3123 44.2457 80.5012C44.1179 80.6887 43.9432 80.8365 43.7216 80.9444C43.5 81.0524 43.2479 81.1064 42.9652 81.1064ZM45.2088 80.1518V79.7171L47.1264 76.6831H47.4418V77.3564H47.2287L45.7798 79.649V79.6831H48.3622V80.1518H45.2088ZM47.2628 81.0467V80.0197V79.8173V76.6831H47.7656V81.0467H47.2628Z" fill="black"/>
<path d="M43.9652 104.503C43.6839 104.503 43.4332 104.455 43.2131 104.358C42.9943 104.262 42.8203 104.127 42.6911 103.956C42.5632 103.782 42.4936 103.581 42.4822 103.353H43.0192C43.0305 103.493 43.0788 103.615 43.1641 103.717C43.2493 103.818 43.3608 103.896 43.4986 103.951C43.6364 104.007 43.7891 104.034 43.9567 104.034C44.1442 104.034 44.3104 104.002 44.4553 103.936C44.6001 103.871 44.7138 103.78 44.7962 103.664C44.8786 103.547 44.9197 103.412 44.9197 103.259C44.9197 103.098 44.88 102.957 44.8004 102.835C44.7209 102.711 44.6044 102.615 44.451 102.545C44.2976 102.476 44.1101 102.441 43.8885 102.441H43.5391V101.972H43.8885C44.0618 101.972 44.2138 101.941 44.3445 101.878C44.4766 101.816 44.5795 101.728 44.6534 101.614C44.7287 101.5 44.7663 101.367 44.7663 101.213C44.7663 101.066 44.7337 100.937 44.6683 100.828C44.603 100.718 44.5107 100.633 44.3913 100.572C44.2734 100.511 44.1342 100.48 43.9737 100.48C43.8232 100.48 43.6811 100.508 43.5476 100.564C43.4155 100.618 43.3075 100.696 43.2237 100.8C43.1399 100.902 43.0945 101.026 43.0874 101.171H42.576C42.5845 100.942 42.6534 100.742 42.7827 100.57C42.9119 100.397 43.081 100.262 43.2898 100.165C43.5 100.069 43.7308 100.02 43.9822 100.02C44.2521 100.02 44.4837 100.075 44.6768 100.184C44.87 100.292 45.0185 100.435 45.1222 100.613C45.2259 100.79 45.2777 100.982 45.2777 101.188C45.2777 101.434 45.2131 101.643 45.0838 101.816C44.956 101.99 44.782 102.11 44.5618 102.176V102.211C44.8374 102.256 45.0526 102.373 45.2074 102.562C45.3622 102.75 45.4396 102.982 45.4396 103.259C45.4396 103.496 45.375 103.709 45.2457 103.898C45.1179 104.086 44.9432 104.233 44.7216 104.341C44.5 104.449 44.2479 104.503 43.9652 104.503ZM47.8452 100.08V104.444H47.3168V100.634H47.2912L46.2259 101.341V100.804L47.3168 100.08H47.8452Z" fill="black"/>
<path d="M41.4908 127.84V127.457L42.9311 125.88C43.1001 125.696 43.2393 125.535 43.3487 125.399C43.4581 125.261 43.5391 125.132 43.5916 125.011C43.6456 124.889 43.6726 124.761 43.6726 124.627C43.6726 124.474 43.6357 124.341 43.5618 124.229C43.4893 124.117 43.3899 124.03 43.2635 123.969C43.1371 123.908 42.995 123.877 42.8374 123.877C42.6697 123.877 42.5234 123.912 42.3984 123.982C42.2749 124.05 42.179 124.146 42.1108 124.269C42.044 124.393 42.0107 124.538 42.0107 124.704H41.5078C41.5078 124.448 41.5668 124.224 41.6847 124.031C41.8026 123.838 41.9631 123.687 42.1662 123.579C42.3707 123.471 42.6001 123.417 42.8544 123.417C43.1101 123.417 43.3366 123.471 43.5341 123.579C43.7315 123.687 43.8864 123.833 43.9986 124.016C44.1108 124.199 44.1669 124.403 44.1669 124.627C44.1669 124.788 44.1378 124.945 44.0795 125.098C44.0227 125.25 43.9233 125.42 43.7812 125.607C43.6406 125.794 43.4453 126.021 43.1953 126.289L42.2152 127.338V127.372H44.2436V127.84H41.4908ZM46.5213 127.9C46.2287 127.9 45.9702 127.848 45.7457 127.745C45.5227 127.639 45.3487 127.495 45.2237 127.312C45.0987 127.127 45.0369 126.917 45.0384 126.681C45.0369 126.497 45.0732 126.326 45.147 126.17C45.2209 126.012 45.3217 125.881 45.4496 125.776C45.5788 125.669 45.723 125.602 45.8821 125.573V125.548C45.6733 125.494 45.5071 125.377 45.3835 125.196C45.2599 125.014 45.1989 124.808 45.2003 124.576C45.1989 124.355 45.255 124.156 45.3686 123.982C45.4822 123.807 45.6385 123.669 45.8374 123.568C46.0376 123.468 46.2656 123.417 46.5213 123.417C46.7741 123.417 47 123.468 47.1989 123.568C47.3977 123.669 47.554 123.807 47.6676 123.982C47.7827 124.156 47.8409 124.355 47.8423 124.576C47.8409 124.808 47.7777 125.014 47.6527 125.196C47.5291 125.377 47.3651 125.494 47.1605 125.548V125.573C47.3182 125.602 47.4602 125.669 47.5866 125.776C47.7131 125.881 47.8139 126.012 47.8892 126.17C47.9645 126.326 48.0028 126.497 48.0043 126.681C48.0028 126.917 47.9389 127.127 47.8125 127.312C47.6875 127.495 47.5135 127.639 47.2905 127.745C47.0689 127.848 46.8125 127.9 46.5213 127.9ZM46.5213 127.431C46.7188 127.431 46.8892 127.399 47.0327 127.335C47.1761 127.272 47.2869 127.181 47.3651 127.065C47.4432 126.948 47.483 126.812 47.4844 126.656C47.483 126.491 47.4403 126.345 47.3565 126.219C47.2727 126.093 47.1584 125.993 47.0135 125.921C46.87 125.848 46.706 125.812 46.5213 125.812C46.3352 125.812 46.169 125.848 46.0227 125.921C45.8778 125.993 45.7635 126.093 45.6797 126.219C45.5973 126.345 45.5568 126.491 45.5582 126.656C45.5568 126.812 45.5945 126.948 45.6712 127.065C45.7493 127.181 45.8608 127.272 46.0057 127.335C46.1506 127.399 46.3224 127.431 46.5213 127.431ZM46.5213 125.36C46.6776 125.36 46.8161 125.329 46.9368 125.267C47.0589 125.204 47.1548 125.117 47.2244 125.004C47.294 124.892 47.3295 124.761 47.331 124.61C47.3295 124.463 47.2947 124.334 47.2266 124.225C47.1584 124.114 47.0639 124.029 46.9432 123.969C46.8224 123.908 46.6818 123.877 46.5213 123.877C46.358 123.877 46.2152 123.908 46.093 123.969C45.9709 124.029 45.8764 124.114 45.8097 124.225C45.7429 124.334 45.7102 124.463 45.7116 124.61C45.7102 124.761 45.7436 124.892 45.8118 125.004C45.8814 125.117 45.9773 125.204 46.0994 125.267C46.2216 125.329 46.3622 125.36 46.5213 125.36Z" fill="black"/>
<path d="M41.4908 151.237V150.854L42.9311 149.277C43.1001 149.092 43.2393 148.932 43.3487 148.796C43.4581 148.658 43.5391 148.528 43.5916 148.408C43.6456 148.286 43.6726 148.158 43.6726 148.024C43.6726 147.871 43.6357 147.738 43.5618 147.626C43.4893 147.514 43.3899 147.427 43.2635 147.366C43.1371 147.305 42.995 147.274 42.8374 147.274C42.6697 147.274 42.5234 147.309 42.3984 147.379C42.2749 147.447 42.179 147.543 42.1108 147.666C42.044 147.79 42.0107 147.935 42.0107 148.101H41.5078C41.5078 147.845 41.5668 147.621 41.6847 147.428C41.8026 147.234 41.9631 147.084 42.1662 146.976C42.3707 146.868 42.6001 146.814 42.8544 146.814C43.1101 146.814 43.3366 146.868 43.5341 146.976C43.7315 147.084 43.8864 147.229 43.9986 147.413C44.1108 147.596 44.1669 147.8 44.1669 148.024C44.1669 148.185 44.1378 148.342 44.0795 148.495C44.0227 148.647 43.9233 148.817 43.7812 149.004C43.6406 149.19 43.4453 149.418 43.1953 149.686L42.2152 150.734V150.769H44.2436V151.237H41.4908ZM46.4872 151.297C46.2372 151.297 46.0121 151.247 45.8118 151.148C45.6115 151.048 45.451 150.912 45.3303 150.739C45.2095 150.565 45.1435 150.368 45.1321 150.146H45.6435C45.6634 150.344 45.7528 150.507 45.9119 150.636C46.0724 150.764 46.2642 150.828 46.4872 150.828C46.6662 150.828 46.8253 150.786 46.9645 150.703C47.1051 150.619 47.2152 150.504 47.2947 150.357C47.3757 150.21 47.4162 150.043 47.4162 149.857C47.4162 149.666 47.3743 149.497 47.2905 149.347C47.2081 149.197 47.0945 149.078 46.9496 148.992C46.8047 148.905 46.6392 148.861 46.4531 148.859C46.3196 148.858 46.1825 148.879 46.0419 148.921C45.9013 148.962 45.7855 149.016 45.6946 149.081L45.2003 149.021L45.4645 146.874H47.7315V147.342H45.9077L45.7543 148.629H45.7798C45.8693 148.558 45.9815 148.499 46.1165 148.453C46.2514 148.406 46.392 148.382 46.5384 148.382C46.8054 148.382 47.0433 148.446 47.2521 148.574C47.4624 148.7 47.6271 148.874 47.7464 149.094C47.8672 149.314 47.9276 149.565 47.9276 149.848C47.9276 150.127 47.8651 150.375 47.7401 150.594C47.6165 150.811 47.446 150.983 47.2287 151.109C47.0114 151.234 46.7642 151.297 46.4872 151.297Z" fill="black"/>
<rect x="57.8789" y="183.499" width="5.00196" height="5.00196" rx="2.50098" fill="#E3C84C"/>
<path d="M67.9155 189V184.152L67.0115 184.352V183.888L68.1395 183.4H68.5955V189H67.9155ZM72.1215 189.096C71.6255 189.096 71.1962 188.976 70.8335 188.736C70.4762 188.491 70.2015 188.152 70.0095 187.72C69.8175 187.283 69.7215 186.776 69.7215 186.2C69.7215 185.624 69.8175 185.12 70.0095 184.688C70.2015 184.251 70.4762 183.912 70.8335 183.672C71.1962 183.427 71.6255 183.304 72.1215 183.304C72.6175 183.304 73.0442 183.427 73.4015 183.672C73.7589 183.912 74.0335 184.251 74.2255 184.688C74.4175 185.12 74.5135 185.624 74.5135 186.2C74.5135 186.776 74.4175 187.283 74.2255 187.72C74.0335 188.152 73.7589 188.491 73.4015 188.736C73.0442 188.976 72.6175 189.096 72.1215 189.096ZM72.1215 188.504C72.4469 188.504 72.7375 188.413 72.9935 188.232C73.2549 188.045 73.4575 187.781 73.6015 187.44C73.7509 187.093 73.8255 186.68 73.8255 186.2C73.8255 185.72 73.7509 185.309 73.6015 184.968C73.4575 184.627 73.2549 184.365 72.9935 184.184C72.7375 183.997 72.4469 183.904 72.1215 183.904C71.7909 183.904 71.4975 183.997 71.2415 184.184C70.9855 184.365 70.7829 184.627 70.6335 184.968C70.4842 185.309 70.4095 185.72 70.4095 186.2C70.4095 186.68 70.4842 187.093 70.6335 187.44C70.7829 187.781 70.9855 188.045 71.2415 188.232C71.4975 188.413 71.7909 188.504 72.1215 188.504ZM76.6524 186C76.4124 186 76.1938 185.947 75.9964 185.84C75.8044 185.728 75.6524 185.573 75.5404 185.376C75.4284 185.173 75.3724 184.933 75.3724 184.656C75.3724 184.379 75.4284 184.141 75.5404 183.944C75.6578 183.741 75.8124 183.587 76.0044 183.48C76.2018 183.368 76.4204 183.312 76.6604 183.312C76.9004 183.312 77.1164 183.368 77.3084 183.48C77.5004 183.587 77.6524 183.741 77.7644 183.944C77.8764 184.141 77.9324 184.379 77.9324 184.656C77.9324 184.933 77.8738 185.173 77.7564 185.376C77.6444 185.573 77.4924 185.728 77.3004 185.84C77.1084 185.947 76.8924 186 76.6524 186ZM76.1564 189L79.4124 183.4H80.0844L76.8284 189H76.1564ZM76.6524 185.48C76.8391 185.48 77.0018 185.411 77.1404 185.272C77.2844 185.133 77.3564 184.928 77.3564 184.656C77.3564 184.379 77.2871 184.171 77.1484 184.032C77.0098 183.888 76.8471 183.816 76.6604 183.816C76.4738 183.816 76.3058 183.888 76.1564 184.032C76.0124 184.171 75.9404 184.379 75.9404 184.656C75.9404 184.928 76.0124 185.133 76.1564 185.272C76.3004 185.411 76.4658 185.48 76.6524 185.48ZM79.6444 189.096C79.4044 189.096 79.1858 189.043 78.9884 188.936C78.7964 188.824 78.6444 188.669 78.5324 188.472C78.4204 188.269 78.3644 188.029 78.3644 187.752C78.3644 187.475 78.4204 187.237 78.5324 187.04C78.6498 186.837 78.8044 186.683 78.9964 186.576C79.1884 186.464 79.4044 186.408 79.6444 186.408C79.8844 186.408 80.1004 186.464 80.2924 186.576C80.4844 186.683 80.6364 186.837 80.7484 187.04C80.8604 187.237 80.9164 187.475 80.9164 187.752C80.9164 188.029 80.8604 188.269 80.7484 188.472C80.6364 188.669 80.4844 188.824 80.2924 188.936C80.1004 189.043 79.8844 189.096 79.6444 189.096ZM79.6364 188.576C79.8284 188.576 79.9938 188.507 80.1324 188.368C80.2764 188.229 80.3484 188.024 80.3484 187.752C80.3484 187.475 80.2791 187.267 80.1404 187.128C80.0018 186.989 79.8364 186.92 79.6444 186.92C79.4578 186.92 79.2924 186.989 79.1484 187.128C79.0044 187.267 78.9324 187.475 78.9324 187.752C78.9324 188.024 79.0018 188.229 79.1404 188.368C79.2844 188.507 79.4498 188.576 79.6364 188.576ZM127.309 190.76L128.325 185.032H128.949L128.885 185.688C129.051 185.48 129.253 185.304 129.493 185.16C129.739 185.011 130.04 184.936 130.397 184.936C130.739 184.936 131.032 185.011 131.277 185.16C131.523 185.309 131.709 185.512 131.837 185.768C131.971 186.024 132.037 186.315 132.037 186.64C132.037 187.104 131.936 187.523 131.733 187.896C131.536 188.264 131.264 188.557 130.917 188.776C130.571 188.989 130.179 189.096 129.741 189.096C129.528 189.096 129.331 189.059 129.149 188.984C128.973 188.909 128.821 188.813 128.693 188.696C128.571 188.579 128.48 188.456 128.421 188.328L127.981 190.76H127.309ZM129.781 188.512C130.085 188.512 130.355 188.435 130.589 188.28C130.824 188.125 131.008 187.915 131.141 187.648C131.275 187.381 131.341 187.077 131.341 186.736C131.341 186.384 131.24 186.093 131.037 185.864C130.84 185.635 130.571 185.52 130.229 185.52C129.925 185.52 129.653 185.6 129.413 185.76C129.173 185.92 128.984 186.139 128.845 186.416C128.707 186.688 128.637 186.992 128.637 187.328C128.637 187.685 128.741 187.973 128.949 188.192C129.157 188.405 129.435 188.512 129.781 188.512ZM134.51 189.096C134.02 189.096 133.625 188.944 133.326 188.64C133.033 188.336 132.886 187.928 132.886 187.416C132.886 186.957 132.988 186.541 133.19 186.168C133.393 185.789 133.67 185.491 134.022 185.272C134.38 185.048 134.785 184.936 135.238 184.936C135.585 184.936 135.876 185.005 136.11 185.144C136.35 185.277 136.529 185.459 136.646 185.688C136.769 185.917 136.83 186.171 136.83 186.448C136.83 186.555 136.817 186.677 136.79 186.816C136.769 186.949 136.748 187.067 136.726 187.168H133.558C133.548 187.259 133.542 187.339 133.542 187.408C133.542 187.787 133.649 188.069 133.862 188.256C134.076 188.437 134.326 188.528 134.614 188.528C134.892 188.528 135.134 188.464 135.342 188.336C135.556 188.203 135.721 188.029 135.838 187.816H136.502C136.337 188.184 136.081 188.491 135.734 188.736C135.388 188.976 134.98 189.096 134.51 189.096ZM135.15 185.504C134.83 185.504 134.529 185.603 134.246 185.8C133.964 185.992 133.769 186.275 133.662 186.648H136.158C136.164 186.616 136.166 186.587 136.166 186.56C136.172 186.528 136.174 186.499 136.174 186.472C136.174 186.168 136.081 185.931 135.894 185.76C135.708 185.589 135.46 185.504 135.15 185.504ZM137.137 190.76L138.153 185.032H138.777L138.713 185.688C138.879 185.48 139.081 185.304 139.321 185.16C139.567 185.011 139.868 184.936 140.225 184.936C140.567 184.936 140.86 185.011 141.105 185.16C141.351 185.309 141.537 185.512 141.665 185.768C141.799 186.024 141.865 186.315 141.865 186.64C141.865 187.104 141.764 187.523 141.561 187.896C141.364 188.264 141.092 188.557 140.745 188.776C140.399 188.989 140.007 189.096 139.569 189.096C139.356 189.096 139.159 189.059 138.977 188.984C138.801 188.909 138.649 188.813 138.521 188.696C138.399 188.579 138.308 188.456 138.249 188.328L137.809 190.76H137.137ZM139.609 188.512C139.913 188.512 140.183 188.435 140.417 188.28C140.652 188.125 140.836 187.915 140.969 187.648C141.103 187.381 141.169 187.077 141.169 186.736C141.169 186.384 141.068 186.093 140.865 185.864C140.668 185.635 140.399 185.52 140.057 185.52C139.753 185.52 139.481 185.6 139.241 185.76C139.001 185.92 138.812 186.139 138.673 186.416C138.535 186.688 138.465 186.992 138.465 187.328C138.465 187.685 138.569 187.973 138.777 188.192C138.985 188.405 139.263 188.512 139.609 188.512ZM143.854 189C143.523 189 143.267 188.936 143.086 188.808C142.905 188.675 142.814 188.451 142.814 188.136C142.814 188.083 142.817 188.027 142.822 187.968C142.827 187.904 142.835 187.837 142.846 187.768L143.23 185.6H142.614L142.718 185.032H143.334L143.59 184.08H144.182L144.006 185.032H145.182L145.078 185.6H143.91L143.518 187.768C143.507 187.853 143.502 187.928 143.502 187.992C143.502 188.157 143.545 188.272 143.63 188.336C143.721 188.395 143.865 188.424 144.062 188.424H144.582L144.478 189H143.854ZM146.887 184.152C146.754 184.152 146.642 184.109 146.551 184.024C146.466 183.939 146.423 183.829 146.423 183.696C146.423 183.563 146.466 183.453 146.551 183.368C146.642 183.283 146.754 183.24 146.887 183.24C147.015 183.24 147.124 183.283 147.215 183.368C147.306 183.453 147.351 183.563 147.351 183.696C147.351 183.829 147.306 183.939 147.215 184.024C147.124 184.109 147.015 184.152 146.887 184.152ZM145.615 189L146.311 185.032H146.983L146.287 189H145.615ZM149.401 189.096C149.059 189.096 148.766 189.019 148.521 188.864C148.281 188.704 148.097 188.491 147.969 188.224C147.841 187.957 147.777 187.664 147.777 187.344C147.777 186.875 147.875 186.461 148.073 186.104C148.275 185.741 148.547 185.456 148.889 185.248C149.23 185.04 149.611 184.936 150.033 184.936C150.385 184.936 150.673 185.005 150.897 185.144C151.121 185.283 151.286 185.467 151.393 185.696L151.825 183.24H152.497L151.481 189H150.865L150.921 188.344C150.766 188.536 150.566 188.709 150.321 188.864C150.075 189.019 149.769 189.096 149.401 189.096ZM149.593 188.512C149.897 188.512 150.166 188.429 150.401 188.264C150.641 188.099 150.827 187.877 150.961 187.6C151.099 187.317 151.169 187.008 151.169 186.672C151.169 186.325 151.07 186.048 150.873 185.84C150.675 185.627 150.403 185.52 150.057 185.52C149.753 185.52 149.481 185.597 149.241 185.752C149.001 185.907 148.811 186.117 148.673 186.384C148.539 186.645 148.473 186.944 148.473 187.28C148.473 187.632 148.571 187.925 148.769 188.16C148.971 188.395 149.246 188.512 149.593 188.512ZM154.514 189.096C154.023 189.096 153.628 188.944 153.33 188.64C153.036 188.336 152.89 187.928 152.89 187.416C152.89 186.957 152.991 186.541 153.194 186.168C153.396 185.789 153.674 185.491 154.026 185.272C154.383 185.048 154.788 184.936 155.242 184.936C155.588 184.936 155.879 185.005 156.114 185.144C156.354 185.277 156.532 185.459 156.65 185.688C156.772 185.917 156.834 186.171 156.834 186.448C156.834 186.555 156.82 186.677 156.794 186.816C156.772 186.949 156.751 187.067 156.73 187.168H153.562C153.551 187.259 153.546 187.339 153.546 187.408C153.546 187.787 153.652 188.069 153.866 188.256C154.079 188.437 154.33 188.528 154.618 188.528C154.895 188.528 155.138 188.464 155.346 188.336C155.559 188.203 155.724 188.029 155.842 187.816H156.506C156.34 188.184 156.084 188.491 155.738 188.736C155.391 188.976 154.983 189.096 154.514 189.096ZM155.154 185.504C154.834 185.504 154.532 185.603 154.25 185.8C153.967 185.992 153.772 186.275 153.666 186.648H156.162C156.167 186.616 156.17 186.587 156.17 186.56C156.175 186.528 156.178 186.499 156.178 186.472C156.178 186.168 156.084 185.931 155.898 185.76C155.711 185.589 155.463 185.504 155.154 185.504ZM161.437 189.096C160.941 189.096 160.555 188.971 160.277 188.72C160 188.464 159.88 188.12 159.917 187.688H160.597C160.587 187.912 160.653 188.109 160.797 188.28C160.941 188.445 161.187 188.528 161.533 188.528C161.816 188.528 162.043 188.467 162.213 188.344C162.384 188.216 162.469 188.04 162.469 187.816C162.469 187.64 162.389 187.512 162.229 187.432C162.075 187.352 161.867 187.285 161.605 187.232C161.408 187.189 161.216 187.131 161.029 187.056C160.843 186.976 160.685 186.867 160.557 186.728C160.435 186.589 160.373 186.413 160.373 186.2C160.373 185.96 160.443 185.747 160.581 185.56C160.72 185.368 160.909 185.216 161.149 185.104C161.395 184.992 161.672 184.936 161.981 184.936C162.403 184.936 162.739 185.043 162.989 185.256C163.245 185.464 163.363 185.763 163.341 186.152H162.669C162.68 185.955 162.616 185.797 162.477 185.68C162.344 185.563 162.155 185.504 161.909 185.504C161.664 185.504 161.461 185.563 161.301 185.68C161.147 185.792 161.069 185.931 161.069 186.096C161.069 186.256 161.144 186.376 161.293 186.456C161.448 186.536 161.653 186.605 161.909 186.664C162.128 186.712 162.333 186.776 162.525 186.856C162.717 186.936 162.872 187.045 162.989 187.184C163.112 187.323 163.173 187.504 163.173 187.728C163.173 188.005 163.099 188.248 162.949 188.456C162.8 188.659 162.595 188.816 162.333 188.928C162.072 189.04 161.773 189.096 161.437 189.096ZM165.784 189.096C165.454 189.096 165.16 189.021 164.904 188.872C164.648 188.723 164.448 188.517 164.304 188.256C164.16 187.995 164.088 187.699 164.088 187.368C164.088 187.016 164.15 186.693 164.272 186.4C164.395 186.107 164.563 185.851 164.776 185.632C164.99 185.413 165.238 185.243 165.52 185.12C165.803 184.997 166.11 184.936 166.44 184.936C166.771 184.936 167.064 185.008 167.32 185.152C167.576 185.296 167.776 185.496 167.92 185.752C168.064 186.008 168.136 186.304 168.136 186.64C168.136 186.987 168.075 187.309 167.952 187.608C167.835 187.907 167.667 188.168 167.448 188.392C167.235 188.611 166.987 188.784 166.704 188.912C166.422 189.035 166.115 189.096 165.784 189.096ZM165.872 188.52C166.171 188.52 166.438 188.44 166.672 188.28C166.912 188.12 167.102 187.901 167.24 187.624C167.379 187.347 167.448 187.035 167.448 186.688C167.448 186.315 167.339 186.027 167.12 185.824C166.907 185.616 166.651 185.512 166.352 185.512C166.059 185.512 165.795 185.592 165.56 185.752C165.326 185.912 165.139 186.131 165 186.408C164.862 186.685 164.792 186.997 164.792 187.344C164.792 187.595 164.84 187.808 164.936 187.984C165.038 188.155 165.171 188.288 165.336 188.384C165.502 188.475 165.68 188.52 165.872 188.52ZM168.846 189L169.87 183.24H170.542L169.518 189H168.846ZM172.228 189.096C171.828 189.096 171.513 188.987 171.284 188.768C171.06 188.544 170.948 188.227 170.948 187.816C170.948 187.741 170.95 187.667 170.956 187.592C170.961 187.512 170.972 187.432 170.988 187.352L171.404 185.032H172.076L171.676 187.28C171.665 187.349 171.654 187.416 171.644 187.48C171.638 187.544 171.636 187.605 171.636 187.664C171.636 188.235 171.916 188.52 172.476 188.52C172.812 188.52 173.113 188.403 173.38 188.168C173.646 187.933 173.825 187.597 173.916 187.16L174.292 185.032H174.964L174.268 189H173.66L173.74 188.28C173.569 188.536 173.35 188.736 173.084 188.88C172.817 189.024 172.532 189.096 172.228 189.096ZM176.974 189C176.643 189 176.387 188.936 176.206 188.808C176.024 188.675 175.934 188.451 175.934 188.136C175.934 188.083 175.936 188.027 175.942 187.968C175.947 187.904 175.955 187.837 175.966 187.768L176.35 185.6H175.734L175.838 185.032H176.454L176.71 184.08H177.302L177.126 185.032H178.302L178.198 185.6H177.03L176.638 187.768C176.627 187.853 176.622 187.928 176.622 187.992C176.622 188.157 176.664 188.272 176.75 188.336C176.84 188.395 176.984 188.424 177.182 188.424H177.702L177.598 189H176.974ZM180.007 184.152C179.873 184.152 179.761 184.109 179.671 184.024C179.585 183.939 179.543 183.829 179.543 183.696C179.543 183.563 179.585 183.453 179.671 183.368C179.761 183.283 179.873 183.24 180.007 183.24C180.135 183.24 180.244 183.283 180.335 183.368C180.425 183.453 180.471 183.563 180.471 183.696C180.471 183.829 180.425 183.939 180.335 184.024C180.244 184.109 180.135 184.152 180.007 184.152ZM178.735 189L179.431 185.032H180.103L179.407 189H178.735ZM182.584 189.096C182.254 189.096 181.96 189.021 181.704 188.872C181.448 188.723 181.248 188.517 181.104 188.256C180.96 187.995 180.888 187.699 180.888 187.368C180.888 187.016 180.95 186.693 181.072 186.4C181.195 186.107 181.363 185.851 181.576 185.632C181.79 185.413 182.038 185.243 182.32 185.12C182.603 184.997 182.91 184.936 183.24 184.936C183.571 184.936 183.864 185.008 184.12 185.152C184.376 185.296 184.576 185.496 184.72 185.752C184.864 186.008 184.936 186.304 184.936 186.64C184.936 186.987 184.875 187.309 184.752 187.608C184.635 187.907 184.467 188.168 184.248 188.392C184.035 188.611 183.787 188.784 183.504 188.912C183.222 189.035 182.915 189.096 182.584 189.096ZM182.672 188.52C182.971 188.52 183.238 188.44 183.472 188.28C183.712 188.12 183.902 187.901 184.04 187.624C184.179 187.347 184.248 187.035 184.248 186.688C184.248 186.315 184.139 186.027 183.92 185.824C183.707 185.616 183.451 185.512 183.152 185.512C182.859 185.512 182.595 185.592 182.36 185.752C182.126 185.912 181.939 186.131 181.8 186.408C181.662 186.685 181.592 186.997 181.592 187.344C181.592 187.595 181.64 187.808 181.736 187.984C181.838 188.155 181.971 188.288 182.136 188.384C182.302 188.475 182.48 188.52 182.672 188.52ZM185.654 189L186.35 185.032H186.958L186.878 185.752C187.049 185.496 187.268 185.296 187.534 185.152C187.801 185.008 188.086 184.936 188.39 184.936C188.785 184.936 189.097 185.048 189.326 185.272C189.556 185.491 189.67 185.805 189.67 186.216C189.67 186.291 189.665 186.368 189.654 186.448C189.649 186.523 189.638 186.6 189.622 186.68L189.214 189H188.542L188.934 186.752C188.945 186.683 188.953 186.616 188.958 186.552C188.969 186.488 188.974 186.427 188.974 186.368C188.974 185.797 188.694 185.512 188.134 185.512C187.798 185.512 187.497 185.629 187.23 185.864C186.969 186.099 186.793 186.435 186.702 186.872L186.326 189H185.654Z" fill="black"/>
<path d="M84.0102 189V183.4H87.6662V184.224H85.0342V185.76H87.4262V186.56H85.0342V188.176H87.6662V189H84.0102ZM89.2672 190.76L90.1872 188.736H89.9472L88.4032 185.032H89.5152L90.6272 187.824L91.7872 185.032H92.8752L90.3552 190.76H89.2672ZM95.2889 189.096C94.8889 189.096 94.5342 189.011 94.2249 188.84C93.9155 188.669 93.6729 188.429 93.4969 188.12C93.3209 187.811 93.2329 187.453 93.2329 187.048C93.2329 186.637 93.3182 186.272 93.4889 185.952C93.6649 185.632 93.9049 185.384 94.2089 185.208C94.5182 185.027 94.8809 184.936 95.2969 184.936C95.6862 184.936 96.0302 185.021 96.3289 185.192C96.6275 185.363 96.8595 185.597 97.0249 185.896C97.1955 186.189 97.2809 186.517 97.2809 186.88C97.2809 186.939 97.2782 187 97.2729 187.064C97.2729 187.128 97.2702 187.195 97.2649 187.264H94.2489C94.2702 187.573 94.3769 187.816 94.5689 187.992C94.7662 188.168 95.0035 188.256 95.2809 188.256C95.4889 188.256 95.6622 188.211 95.8009 188.12C95.9449 188.024 96.0515 187.901 96.1209 187.752H97.1609C97.0862 188.003 96.9609 188.232 96.7849 188.44C96.6142 188.643 96.4009 188.803 96.1449 188.92C95.8942 189.037 95.6089 189.096 95.2889 189.096ZM95.2969 185.768C95.0462 185.768 94.8249 185.84 94.6329 185.984C94.4409 186.123 94.3182 186.336 94.2649 186.624H96.2409C96.2249 186.363 96.1289 186.155 95.9529 186C95.7769 185.845 95.5582 185.768 95.2969 185.768ZM99.9421 189.096C99.5901 189.096 99.2808 189.04 99.0141 188.928C98.7474 188.811 98.5341 188.651 98.3741 188.448C98.2141 188.245 98.1181 188.011 98.0861 187.744H99.1181C99.1501 187.899 99.2354 188.032 99.3741 188.144C99.5181 188.251 99.7021 188.304 99.9261 188.304C100.15 188.304 100.313 188.259 100.414 188.168C100.521 188.077 100.574 187.973 100.574 187.856C100.574 187.685 100.499 187.571 100.35 187.512C100.201 187.448 99.9928 187.387 99.7261 187.328C99.5554 187.291 99.3821 187.245 99.2061 187.192C99.0301 187.139 98.8674 187.072 98.7181 186.992C98.5741 186.907 98.4568 186.8 98.3661 186.672C98.2754 186.539 98.2301 186.376 98.2301 186.184C98.2301 185.832 98.3688 185.536 98.6461 185.296C98.9288 185.056 99.3234 184.936 99.8301 184.936C100.299 184.936 100.673 185.045 100.95 185.264C101.233 185.483 101.401 185.784 101.454 186.168H100.486C100.427 185.875 100.206 185.728 99.8221 185.728C99.6301 185.728 99.4808 185.765 99.3741 185.84C99.2728 185.915 99.2221 186.008 99.2221 186.12C99.2221 186.237 99.2994 186.331 99.4541 186.4C99.6088 186.469 99.8141 186.533 100.07 186.592C100.347 186.656 100.601 186.728 100.83 186.808C101.065 186.883 101.251 186.997 101.39 187.152C101.529 187.301 101.598 187.517 101.598 187.8C101.603 188.045 101.539 188.267 101.406 188.464C101.273 188.661 101.081 188.816 100.83 188.928C100.579 189.04 100.283 189.096 99.9421 189.096ZM104.593 189.096C104.193 189.096 103.839 189.011 103.529 188.84C103.22 188.669 102.977 188.429 102.801 188.12C102.625 187.811 102.537 187.453 102.537 187.048C102.537 186.637 102.623 186.272 102.793 185.952C102.969 185.632 103.209 185.384 103.513 185.208C103.823 185.027 104.185 184.936 104.601 184.936C104.991 184.936 105.335 185.021 105.633 185.192C105.932 185.363 106.164 185.597 106.329 185.896C106.5 186.189 106.585 186.517 106.585 186.88C106.585 186.939 106.583 187 106.577 187.064C106.577 187.128 106.575 187.195 106.569 187.264H103.553C103.575 187.573 103.681 187.816 103.873 187.992C104.071 188.168 104.308 188.256 104.585 188.256C104.793 188.256 104.967 188.211 105.105 188.12C105.249 188.024 105.356 187.901 105.425 187.752H106.465C106.391 188.003 106.265 188.232 106.089 188.44C105.919 188.643 105.705 188.803 105.449 188.92C105.199 189.037 104.913 189.096 104.593 189.096ZM104.601 185.768C104.351 185.768 104.129 185.84 103.937 185.984C103.745 186.123 103.623 186.336 103.569 186.624H105.545C105.529 186.363 105.433 186.155 105.257 186C105.081 185.845 104.863 185.768 104.601 185.768ZM107.606 189V185.032H108.518L108.614 185.776C108.758 185.52 108.953 185.317 109.198 185.168C109.449 185.013 109.742 184.936 110.078 184.936V186.016H109.79C109.566 186.016 109.366 186.051 109.19 186.12C109.014 186.189 108.876 186.309 108.774 186.48C108.678 186.651 108.63 186.888 108.63 187.192V189H107.606ZM111.434 190.76L112.354 188.736H112.114L110.57 185.032H111.682L112.794 187.824L113.954 185.032H115.042L112.522 190.76H111.434ZM115.872 189V183.24H116.896V189H115.872ZM118.102 189V185.032H119.014L119.11 185.776C119.254 185.52 119.449 185.317 119.694 185.168C119.945 185.013 120.238 184.936 120.574 184.936V186.016H120.286C120.062 186.016 119.862 186.051 119.686 186.12C119.51 186.189 119.371 186.309 119.27 186.48C119.174 186.651 119.126 186.888 119.126 187.192V189H118.102ZM122.954 186.656C122.629 186.656 122.338 186.584 122.082 186.44C121.831 186.296 121.634 186.099 121.49 185.848C121.346 185.592 121.274 185.304 121.274 184.984C121.274 184.659 121.346 184.371 121.49 184.12C121.634 183.864 121.831 183.664 122.082 183.52C122.338 183.376 122.629 183.304 122.954 183.304C123.279 183.304 123.567 183.376 123.818 183.52C124.069 183.664 124.263 183.864 124.402 184.12C124.546 184.371 124.618 184.659 124.618 184.984C124.618 185.304 124.546 185.592 124.402 185.848C124.263 186.099 124.069 186.296 123.818 186.44C123.567 186.584 123.279 186.656 122.954 186.656ZM122.954 186.288C123.338 186.288 123.645 186.168 123.874 185.928C124.109 185.683 124.226 185.368 124.226 184.984C124.226 184.595 124.109 184.28 123.874 184.04C123.645 183.8 123.338 183.68 122.954 183.68C122.565 183.68 122.253 183.8 122.018 184.04C121.789 184.28 121.674 184.595 121.674 184.984C121.674 185.368 121.789 185.683 122.018 185.928C122.253 186.168 122.565 186.288 122.954 186.288ZM122.266 185.816V184.112H123.098C123.279 184.112 123.423 184.16 123.53 184.256C123.642 184.352 123.698 184.483 123.698 184.648C123.698 184.899 123.578 185.064 123.338 185.144L123.77 185.808L123.226 185.816L122.85 185.184H122.746V185.816H122.266ZM122.738 184.84H123.034C123.082 184.84 123.122 184.827 123.154 184.8C123.191 184.773 123.21 184.731 123.21 184.672C123.21 184.619 123.191 184.581 123.154 184.56C123.122 184.533 123.082 184.52 123.034 184.52H122.738V184.84Z" fill="#E3C84C"/>
<path d="M14.7148 133.677L14.4079 133.677C14.1958 133.677 14.0017 133.633 13.8256 133.546C13.6475 133.457 13.5055 133.328 13.3994 133.16C13.2915 132.989 13.2375 132.783 13.2375 132.541C13.2375 132.294 13.2915 132.088 13.3994 131.921C13.5055 131.755 13.6475 131.629 13.8256 131.543C14.0017 131.458 14.1958 131.416 14.4079 131.416L14.7148 131.416C14.9269 131.416 15.122 131.459 15.3 131.546C15.4761 131.631 15.6182 131.758 15.7261 131.927C15.8322 132.094 15.8852 132.298 15.8852 132.541C15.8852 132.787 15.8322 132.994 15.7261 133.163C15.6182 133.331 15.4761 133.459 15.3 133.546C15.122 133.633 14.9269 133.677 14.7148 133.677ZM14.4079 133.097L14.7148 133.097C14.8909 133.097 15.049 133.056 15.1892 132.972C15.3274 132.889 15.3966 132.745 15.3966 132.541C15.3966 132.342 15.3274 132.202 15.1892 132.12C15.049 132.037 14.8909 131.995 14.7148 131.995L14.4079 131.995C14.2318 131.995 14.0746 132.035 13.9363 132.114C13.7962 132.194 13.7261 132.336 13.7261 132.541C13.7261 132.739 13.7962 132.882 13.9363 132.97C14.0746 133.055 14.2318 133.097 14.4079 133.097ZM11.3852 136.575L11.0784 136.575C10.8663 136.575 10.6721 136.531 10.496 136.444C10.318 136.355 10.1759 136.226 10.0699 136.058C9.96191 135.887 9.90794 135.681 9.90794 135.438C9.90794 135.192 9.96191 134.986 10.0699 134.819C10.1759 134.652 10.318 134.526 10.496 134.441C10.6721 134.356 10.8663 134.313 11.0784 134.313L11.3852 134.313C11.5973 134.313 11.7924 134.357 11.9704 134.444C12.1466 134.529 12.2886 134.656 12.3966 134.825C12.5026 134.991 12.5557 135.196 12.5557 135.438C12.5557 135.685 12.5026 135.892 12.3966 136.06C12.2886 136.229 12.1466 136.357 11.9704 136.444C11.7924 136.531 11.5973 136.575 11.3852 136.575ZM11.0784 135.995L11.3852 135.995C11.5613 135.995 11.7195 135.953 11.8596 135.87C11.9979 135.787 12.067 135.643 12.067 135.438C12.067 135.239 11.9979 135.099 11.8596 135.018C11.7195 134.935 11.5613 134.893 11.3852 134.893L11.0784 134.893C10.9023 134.893 10.7451 134.933 10.6068 135.012C10.4666 135.092 10.3966 135.234 10.3966 135.438C10.3966 135.637 10.4666 135.78 10.6068 135.867C10.7451 135.953 10.9023 135.995 11.0784 135.995ZM15.8057 136.359L9.98748 132.359L9.98748 131.711L15.8057 135.711L15.8057 136.359ZM9.98748 127.086L15.8057 127.086L15.8057 127.791L9.98748 127.791L9.98748 127.086ZM13.1807 125.094L15.8057 125.094L15.8057 125.764L11.442 125.764L11.442 125.117L12.1238 125.117L12.1238 125.06C11.9023 124.957 11.7242 124.802 11.5898 124.594C11.4534 124.386 11.3852 124.117 11.3852 123.787C11.3852 123.492 11.4458 123.233 11.567 123.011C11.6863 122.79 11.8682 122.618 12.1125 122.494C12.3549 122.371 12.6617 122.31 13.0329 122.31L15.8057 122.31L15.8057 122.98L13.0784 122.98C12.7356 122.98 12.4685 123.069 12.2773 123.247C12.0841 123.425 11.9875 123.67 11.9875 123.98C11.9875 124.194 12.0339 124.386 12.1267 124.554C12.2195 124.721 12.3549 124.852 12.5329 124.949C12.711 125.046 12.9269 125.094 13.1807 125.094ZM15.8966 119.312C15.8966 119.721 15.8 120.073 15.6068 120.369C15.4136 120.664 15.1475 120.891 14.8085 121.051C14.4695 121.21 14.0822 121.289 13.6466 121.289C13.2034 121.289 12.8123 121.208 12.4733 121.045C12.1324 120.88 11.8663 120.651 11.675 120.357C11.4818 120.062 11.3852 119.717 11.3852 119.323C11.3852 119.016 11.442 118.74 11.5557 118.494C11.6693 118.247 11.8284 118.046 12.0329 117.889C12.2375 117.731 12.4761 117.634 12.7488 117.596L12.7488 118.266C12.55 118.318 12.3738 118.431 12.2204 118.607C12.0651 118.782 11.9875 119.016 11.9875 119.312C11.9875 119.573 12.0557 119.802 12.192 119.999C12.3265 120.194 12.5168 120.347 12.763 120.457C13.0074 120.565 13.2943 120.619 13.6238 120.619C13.961 120.619 14.2545 120.566 14.5045 120.46C14.7545 120.352 14.9487 120.2 15.0869 120.005C15.2252 119.808 15.2943 119.577 15.2943 119.312C15.2943 119.138 15.264 118.979 15.2034 118.837C15.1428 118.695 15.0557 118.575 14.942 118.477C14.8284 118.378 14.692 118.308 14.5329 118.266L14.5329 117.596C14.7905 117.634 15.0225 117.728 15.229 117.877C15.4335 118.025 15.5964 118.221 15.7176 118.465C15.8369 118.708 15.8966 118.99 15.8966 119.312ZM15.8057 116.616L11.442 116.616L11.442 115.968L12.1011 115.968L12.1011 115.923C11.8852 115.843 11.71 115.699 11.5755 115.491C11.4411 115.283 11.3738 115.048 11.3738 114.786C11.3738 114.737 11.3748 114.676 11.3767 114.602C11.3786 114.528 11.3814 114.472 11.3852 114.434L12.067 114.434C12.0613 114.457 12.0528 114.509 12.0415 114.59C12.0282 114.67 12.0216 114.754 12.0216 114.843C12.0216 115.055 12.0661 115.245 12.1551 115.411C12.2422 115.576 12.3634 115.707 12.5187 115.803C12.6721 115.898 12.8473 115.945 13.0443 115.945L15.8057 115.945L15.8057 116.616ZM15.8966 111.943C15.8966 112.363 15.8038 112.726 15.6182 113.031C15.4307 113.334 15.1693 113.568 14.8341 113.732C14.497 113.895 14.1049 113.977 13.6579 113.977C13.211 113.977 12.817 113.895 12.4761 113.732C12.1333 113.568 11.8663 113.338 11.675 113.045C11.4818 112.749 11.3852 112.405 11.3852 112.011C11.3852 111.783 11.4231 111.559 11.4988 111.337C11.5746 111.116 11.6977 110.914 11.8682 110.732C12.0367 110.551 12.2602 110.406 12.5386 110.298C12.817 110.19 13.1598 110.136 13.567 110.136L13.8511 110.136L13.8511 113.499L13.2716 113.499L13.2716 110.818C13.0254 110.818 12.8057 110.867 12.6125 110.965C12.4193 111.062 12.2668 111.2 12.1551 111.38C12.0434 111.558 11.9875 111.768 11.9875 112.011C11.9875 112.278 12.0538 112.509 12.1863 112.704C12.317 112.897 12.4875 113.046 12.6977 113.15C12.9079 113.254 13.1333 113.306 13.3738 113.306L13.7602 113.306C14.0898 113.306 14.3691 113.249 14.5983 113.136C14.8255 113.02 14.9988 112.86 15.1182 112.656C15.2356 112.451 15.2943 112.213 15.2943 111.943C15.2943 111.766 15.2697 111.607 15.2204 111.465C15.1693 111.321 15.0935 111.197 14.9932 111.093C14.8909 110.989 14.764 110.908 14.6125 110.852L14.7943 110.204C15.014 110.272 15.2072 110.387 15.3738 110.548C15.5386 110.709 15.6674 110.908 15.7602 111.144C15.8511 111.381 15.8966 111.647 15.8966 111.943ZM15.9079 107.832C15.9079 108.108 15.8559 108.359 15.7517 108.585C15.6456 108.81 15.4932 108.989 15.2943 109.122C15.0935 109.254 14.8511 109.32 14.567 109.32C14.317 109.32 14.1144 109.271 13.9591 109.173C13.8019 109.074 13.6788 108.943 13.5898 108.778C13.5007 108.613 13.4345 108.431 13.3909 108.232C13.3454 108.032 13.3095 107.83 13.2829 107.627C13.2488 107.362 13.2233 107.147 13.2062 106.982C13.1873 106.816 13.156 106.694 13.1125 106.619C13.0689 106.541 12.9932 106.502 12.8852 106.502L12.8625 106.502C12.5822 106.502 12.3644 106.579 12.2091 106.732C12.0538 106.884 11.9761 107.114 11.9761 107.423C11.9761 107.743 12.0462 107.994 12.1863 108.176C12.3265 108.357 12.4761 108.485 12.6352 108.559L12.4079 109.195C12.1428 109.082 11.9363 108.93 11.7886 108.741C11.639 108.55 11.5348 108.341 11.4761 108.116C11.4155 107.889 11.3852 107.665 11.3852 107.445C11.3852 107.305 11.4023 107.144 11.4363 106.962C11.4685 106.779 11.5358 106.602 11.638 106.431C11.7403 106.259 11.8947 106.116 12.1011 106.002C12.3076 105.889 12.5841 105.832 12.9307 105.832L15.8057 105.832L15.8057 106.502L15.2148 106.502L15.2148 106.536C15.3095 106.582 15.4108 106.658 15.5187 106.764C15.6267 106.87 15.7185 107.011 15.7943 107.187C15.8701 107.363 15.9079 107.578 15.9079 107.832ZM15.3057 107.729C15.3057 107.464 15.2536 107.241 15.1494 107.059C15.0452 106.875 14.9108 106.737 14.746 106.644C14.5812 106.55 14.4079 106.502 14.2261 106.502L13.6125 106.502C13.6466 106.531 13.6778 106.593 13.7062 106.69C13.7327 106.784 13.7564 106.894 13.7773 107.019C13.7962 107.142 13.8132 107.263 13.8284 107.38C13.8416 107.496 13.853 107.589 13.8625 107.661C13.8852 107.836 13.9221 107.998 13.9733 108.15C14.0225 108.3 14.0973 108.421 14.1977 108.514C14.2962 108.604 14.4307 108.65 14.6011 108.65C14.8341 108.65 15.0102 108.564 15.1295 108.391C15.247 108.217 15.3057 107.997 15.3057 107.729ZM12.4193 101.517L12.5898 102.119C12.4894 102.157 12.3918 102.213 12.2971 102.287C12.2005 102.359 12.121 102.457 12.0585 102.582C11.996 102.707 11.9648 102.868 11.9648 103.063C11.9648 103.33 12.0263 103.552 12.1494 103.73C12.2706 103.906 12.425 103.994 12.6125 103.994C12.7791 103.994 12.9108 103.934 13.0074 103.813C13.104 103.691 13.1845 103.502 13.2488 103.244L13.4079 102.597C13.5026 102.207 13.6475 101.916 13.8426 101.725C14.0358 101.533 14.2848 101.438 14.5898 101.438C14.8398 101.438 15.0632 101.51 15.2602 101.653C15.4572 101.796 15.6125 101.994 15.7261 102.25C15.8398 102.506 15.8966 102.803 15.8966 103.142C15.8966 103.587 15.8 103.956 15.6068 104.247C15.4136 104.539 15.1314 104.724 14.7602 104.801L14.6011 104.165C14.836 104.104 15.0121 103.99 15.1295 103.821C15.247 103.651 15.3057 103.428 15.3057 103.153C15.3057 102.841 15.2394 102.593 15.1068 102.409C14.9723 102.224 14.8113 102.131 14.6238 102.131C14.4723 102.131 14.3454 102.184 14.2432 102.29C14.139 102.396 14.0613 102.559 14.0102 102.778L13.8398 103.506C13.7451 103.905 13.5983 104.199 13.3994 104.386C13.1987 104.572 12.9477 104.665 12.6466 104.665C12.4004 104.665 12.1826 104.596 11.9932 104.457C11.8038 104.317 11.6551 104.127 11.5471 103.886C11.4392 103.644 11.3852 103.369 11.3852 103.063C11.3852 102.631 11.4799 102.292 11.6693 102.046C11.8587 101.797 12.1087 101.621 12.4193 101.517ZM15.8966 98.5988C15.8966 99.0193 15.8038 99.382 15.6182 99.6869C15.4307 99.9899 15.1693 100.224 14.8341 100.389C14.497 100.551 14.1049 100.633 13.6579 100.633C13.211 100.633 12.817 100.551 12.4761 100.389C12.1333 100.224 11.8663 99.9946 11.675 99.7011C11.4818 99.4056 11.3852 99.0609 11.3852 98.667C11.3852 98.4397 11.4231 98.2153 11.4988 97.9937C11.5746 97.7721 11.6977 97.5704 11.8682 97.3886C12.0367 97.2068 12.2602 97.0619 12.5386 96.9539C12.817 96.846 13.1598 96.792 13.567 96.792L13.8511 96.792L13.8511 100.156L13.2716 100.156L13.2716 97.4738C13.0254 97.4738 12.8057 97.5231 12.6125 97.6215C12.4193 97.7181 12.2668 97.8564 12.1551 98.0363C12.0434 98.2143 11.9875 98.4246 11.9875 98.667C11.9875 98.934 12.0538 99.1651 12.1863 99.3602C12.317 99.5534 12.4875 99.702 12.6977 99.8062C12.9079 99.9104 13.1333 99.9624 13.3738 99.9624L13.7602 99.9624C14.0898 99.9624 14.3691 99.9056 14.5983 99.792C14.8255 99.6765 14.9988 99.5164 15.1182 99.3119C15.2356 99.1073 15.2943 98.8696 15.2943 98.5988C15.2943 98.4227 15.2697 98.2636 15.2204 98.1215C15.1693 97.9776 15.0935 97.8535 14.9932 97.7494C14.8909 97.6452 14.764 97.5647 14.6125 97.5079L14.7943 96.8602C15.014 96.9284 15.2072 97.0429 15.3738 97.2039C15.5386 97.3649 15.6674 97.5638 15.7602 97.8005C15.8511 98.0373 15.8966 98.3034 15.8966 98.5988ZM15.8057 93.5221L11.442 93.5221L11.442 92.8517L15.8057 92.8517L15.8057 93.5221ZM10.7148 93.1812C10.7148 93.3119 10.6702 93.4246 10.5812 93.5193C10.4922 93.6121 10.3852 93.6585 10.2602 93.6585C10.1352 93.6585 10.0282 93.6121 9.93918 93.5193C9.85017 93.4246 9.80566 93.3119 9.80566 93.1812C9.80566 93.0505 9.85017 92.9388 9.93918 92.846C10.0282 92.7513 10.1352 92.7039 10.2602 92.7039C10.3852 92.7039 10.4922 92.7513 10.5812 92.846C10.6702 92.9388 10.7148 93.0505 10.7148 93.1812ZM13.1807 90.9532L15.8057 90.9532L15.8057 91.6237L11.442 91.6237L11.442 90.9759L12.1238 90.9759L12.1238 90.9191C11.9023 90.8168 11.7242 90.6615 11.5898 90.4532C11.4534 90.2449 11.3852 89.9759 11.3852 89.6464C11.3852 89.3509 11.4458 89.0924 11.567 88.8708C11.6863 88.6492 11.8682 88.4769 12.1125 88.3538C12.3549 88.2307 12.6617 88.1691 13.0329 88.1691L15.8057 88.1691L15.8057 88.8396L13.0784 88.8396C12.7356 88.8396 12.4685 88.9286 12.2773 89.1066C12.0841 89.2847 11.9875 89.529 11.9875 89.8396C11.9875 90.0536 12.0339 90.2449 12.1267 90.4134C12.2195 90.5801 12.3549 90.7117 12.5329 90.8083C12.711 90.9049 12.9269 90.9532 13.1807 90.9532ZM15.8966 82.8644C15.8966 83.2849 15.8038 83.6476 15.6182 83.9525C15.4307 84.2555 15.1693 84.4894 14.8341 84.6542C14.4969 84.8171 14.1049 84.8985 13.6579 84.8985C13.211 84.8985 12.817 84.8171 12.4761 84.6542C12.1333 84.4894 11.8663 84.2603 11.675 83.9667C11.4818 83.6713 11.3852 83.3266 11.3852 82.9326C11.3852 82.7053 11.4231 82.4809 11.4988 82.2593C11.5746 82.0377 11.6977 81.836 11.8682 81.6542C12.0367 81.4724 12.2602 81.3275 12.5386 81.2195C12.817 81.1116 13.1598 81.0576 13.567 81.0576L13.8511 81.0576L13.8511 84.4213L13.2716 84.4213L13.2716 81.7394C13.0254 81.7394 12.8057 81.7887 12.6125 81.8872C12.4193 81.9838 12.2668 82.122 12.1551 82.3019C12.0434 82.48 11.9875 82.6902 11.9875 82.9326C11.9875 83.1997 12.0538 83.4307 12.1863 83.6258C12.317 83.819 12.4875 83.9677 12.6977 84.0718C12.9079 84.176 13.1333 84.2281 13.3738 84.2281L13.7602 84.2281C14.0898 84.2281 14.3691 84.1713 14.5983 84.0576C14.8255 83.9421 14.9988 83.782 15.1182 83.5775C15.2356 83.373 15.2943 83.1353 15.2943 82.8644C15.2943 82.6883 15.2697 82.5292 15.2204 82.3872C15.1693 82.2432 15.0935 82.1192 14.9932 82.015C14.8909 81.9108 14.764 81.8303 14.6125 81.7735L14.7943 81.1258C15.014 81.194 15.2072 81.3086 15.3738 81.4695C15.5386 81.6305 15.6674 81.8294 15.7602 82.0661C15.8511 82.3029 15.8966 82.569 15.8966 82.8644ZM9.98748 79.3673L15.8057 79.3673L15.8057 80.0377L9.98748 80.0377L9.98748 79.3673ZM15.9079 76.8552C15.9079 77.1317 15.8559 77.3827 15.7517 77.608C15.6456 77.8334 15.4932 78.0124 15.2943 78.145C15.0935 78.2776 14.8511 78.3438 14.567 78.3438C14.317 78.3438 14.1144 78.2946 13.9591 78.1961C13.8019 78.0976 13.6788 77.966 13.5898 77.8012C13.5007 77.6365 13.4344 77.4546 13.3909 77.2558C13.3454 77.055 13.3094 76.8533 13.2829 76.6507C13.2488 76.3855 13.2233 76.1705 13.2062 76.0058C13.1873 75.8391 13.156 75.7179 13.1125 75.6421C13.0689 75.5645 12.9932 75.5257 12.8852 75.5257L12.8625 75.5257C12.5822 75.5257 12.3644 75.6024 12.2091 75.7558C12.0538 75.9073 11.9761 76.1374 11.9761 76.4461C11.9761 76.7662 12.0462 77.0171 12.1863 77.199C12.3265 77.3808 12.4761 77.5086 12.6352 77.5825L12.4079 78.2188C12.1428 78.1052 11.9363 77.9537 11.7886 77.7643C11.639 77.573 11.5348 77.3647 11.4761 77.1393C11.4155 76.912 11.3852 76.6885 11.3852 76.4688C11.3852 76.3287 11.4023 76.1677 11.4363 75.9859C11.4685 75.8022 11.5358 75.6251 11.638 75.4546C11.7403 75.2823 11.8947 75.1393 12.1011 75.0257C12.3076 74.912 12.5841 74.8552 12.9307 74.8552L15.8057 74.8552L15.8057 75.5257L15.2148 75.5257L15.2148 75.5597C15.3094 75.6052 15.4108 75.681 15.5187 75.787C15.6267 75.8931 15.7185 76.0342 15.7943 76.2103C15.8701 76.3865 15.9079 76.6014 15.9079 76.8552ZM15.3057 76.7529C15.3057 76.4878 15.2536 76.2643 15.1494 76.0825C15.0452 75.8988 14.9108 75.7605 14.746 75.6677C14.5812 75.573 14.4079 75.5257 14.2261 75.5257L13.6125 75.5257C13.6466 75.5541 13.6778 75.6166 13.7062 75.7132C13.7327 75.8079 13.7564 75.9177 13.7773 76.0427C13.7962 76.1658 13.8132 76.2861 13.8284 76.4035C13.8416 76.519 13.853 76.6128 13.8625 76.6847C13.8852 76.859 13.9221 77.0219 13.9733 77.1734C14.0225 77.323 14.0973 77.4442 14.1977 77.537C14.2962 77.6279 14.4307 77.6734 14.6011 77.6734C14.8341 77.6734 15.0102 77.5872 15.1295 77.4149C15.2469 77.2406 15.3057 77.02 15.3057 76.7529ZM12.4193 70.5406L12.5898 71.1428C12.4894 71.1807 12.3918 71.2366 12.2971 71.3105C12.2005 71.3824 12.121 71.4809 12.0585 71.6059C11.996 71.7309 11.9648 71.891 11.9648 72.086C11.9648 72.3531 12.0263 72.5756 12.1494 72.7536C12.2706 72.9298 12.425 73.0178 12.6125 73.0178C12.7791 73.0178 12.9108 72.9572 13.0074 72.836C13.104 72.7148 13.1844 72.5254 13.2488 72.2678L13.4079 71.6201C13.5026 71.23 13.6475 70.9392 13.8426 70.748C14.0358 70.5567 14.2848 70.461 14.5898 70.461C14.8398 70.461 15.0632 70.533 15.2602 70.6769C15.4572 70.819 15.6125 71.0178 15.7261 71.2735C15.8398 71.5292 15.8966 71.8266 15.8966 72.1656C15.8966 72.6106 15.8 72.979 15.6068 73.2707C15.4136 73.5624 15.1314 73.747 14.7602 73.8247L14.6011 73.1883C14.836 73.1277 15.0121 73.0131 15.1295 72.8445C15.2469 72.6741 15.3057 72.4516 15.3057 72.1769C15.3057 71.8644 15.2394 71.6163 15.1068 71.4326C14.9723 71.247 14.8113 71.1542 14.6238 71.1542C14.4723 71.1542 14.3454 71.2072 14.2432 71.3133C14.139 71.4194 14.0613 71.5822 14.0102 71.8019L13.8398 72.5292C13.7451 72.9288 13.5983 73.2224 13.3994 73.4099C13.1987 73.5955 12.9477 73.6883 12.6466 73.6883C12.4004 73.6883 12.1826 73.6192 11.9932 73.4809C11.8038 73.3408 11.6551 73.1504 11.5471 72.9099C11.4392 72.6675 11.3852 72.3928 11.3852 72.086C11.3852 71.6542 11.4799 71.3152 11.6693 71.069C11.8587 70.8209 12.1087 70.6447 12.4193 70.5406ZM11.442 67.5541L12.0102 67.5541L12.0102 69.8154L11.442 69.8154L11.442 67.5541ZM10.3966 69.1563L10.3966 68.4859L14.5557 68.4859C14.7451 68.4859 14.8871 68.4584 14.9818 68.4035C15.0746 68.3467 15.1371 68.2747 15.1693 68.1876C15.1996 68.0986 15.2148 68.0048 15.2148 67.9063C15.2148 67.8325 15.211 67.7719 15.2034 67.7245C15.1939 67.6772 15.1863 67.6393 15.1807 67.6109L15.7829 67.4745C15.8 67.52 15.817 67.5834 15.8341 67.6649C15.853 67.7463 15.8625 67.8495 15.8625 67.9745C15.8625 68.1639 15.8218 68.3495 15.7403 68.5313C15.6589 68.7113 15.5348 68.8609 15.3682 68.9802C15.2015 69.0976 14.9913 69.1563 14.7375 69.1563L10.3966 69.1563ZM15.8057 66.5455L11.442 66.5455L11.442 65.8751L15.8057 65.8751L15.8057 66.5455ZM10.7148 66.2046C10.7148 66.3353 10.6702 66.448 10.5812 66.5427C10.4922 66.6355 10.3852 66.6819 10.2602 66.6819C10.1352 66.6819 10.0282 66.6355 9.93918 66.5427C9.85017 66.448 9.80566 66.3353 9.80566 66.2046C9.80566 66.074 9.85017 65.9622 9.93918 65.8694C10.0282 65.7747 10.1352 65.7274 10.2602 65.7274C10.3852 65.7274 10.4922 65.7747 10.5812 65.8694C10.6702 65.9622 10.7148 66.074 10.7148 66.2046ZM15.8966 62.8744C15.8966 63.2835 15.8 63.6357 15.6068 63.9312C15.4136 64.2267 15.1475 64.4539 14.8085 64.613C14.4695 64.7721 14.0822 64.8517 13.6466 64.8517C13.2034 64.8517 12.8123 64.7702 12.4733 64.6073C12.1324 64.4426 11.8663 64.2134 11.675 63.9198C11.4818 63.6244 11.3852 63.2797 11.3852 62.8857C11.3852 62.5789 11.442 62.3024 11.5557 62.0562C11.6693 61.81 11.8284 61.6083 12.0329 61.4511C12.2375 61.2939 12.4761 61.1963 12.7488 61.1585L12.7488 61.8289C12.55 61.8801 12.3738 61.9937 12.2204 62.1698C12.0651 62.3441 11.9875 62.5789 11.9875 62.8744C11.9875 63.1357 12.0557 63.3649 12.192 63.5619C12.3265 63.757 12.5168 63.9094 12.763 64.0193C13.0074 64.1272 13.2943 64.1812 13.6238 64.1812C13.961 64.1812 14.2545 64.1282 14.5045 64.0221C14.7545 63.9142 14.9487 63.7626 15.0869 63.5676C15.2252 63.3706 15.2943 63.1395 15.2943 62.8744C15.2943 62.7001 15.264 62.542 15.2034 62.3999C15.1428 62.2579 15.0557 62.1376 14.942 62.0392C14.8284 61.9407 14.692 61.8706 14.5329 61.8289L14.5329 61.1585C14.7905 61.1963 15.0225 61.2901 15.229 61.4397C15.4335 61.5874 15.5964 61.7835 15.7176 62.0278C15.8369 62.2702 15.8966 62.5524 15.8966 62.8744ZM15.8057 60.1784L11.442 60.1784L11.442 59.5079L15.8057 59.5079L15.8057 60.1784ZM10.7148 59.8374C10.7148 59.9681 10.6702 60.0808 10.5812 60.1755C10.4922 60.2683 10.3852 60.3147 10.2602 60.3147C10.1352 60.3147 10.0282 60.2683 9.93918 60.1755C9.85017 60.0808 9.80566 59.9681 9.80566 59.8374C9.80566 59.7068 9.85017 59.595 9.93918 59.5022C10.0282 59.4075 10.1352 59.3602 10.2602 59.3602C10.3852 59.3602 10.4922 59.4075 10.5812 59.5022C10.6702 59.595 10.7148 59.7068 10.7148 59.8374ZM11.442 56.3822L12.0102 56.3822L12.0102 58.6436L11.442 58.6436L11.442 56.3822ZM10.3966 57.9845L10.3966 57.314L14.5557 57.314C14.7451 57.314 14.8871 57.2865 14.9818 57.2316C15.0746 57.1748 15.1371 57.1028 15.1693 57.0157C15.1996 56.9267 15.2148 56.8329 15.2148 56.7345C15.2148 56.6606 15.211 56.6 15.2034 56.5526C15.1939 56.5053 15.1863 56.4674 15.1807 56.439L15.7829 56.3026C15.8 56.3481 15.817 56.4115 15.8341 56.493C15.853 56.5744 15.8625 56.6776 15.8625 56.8026C15.8625 56.992 15.8218 57.1776 15.7403 57.3595C15.6589 57.5394 15.5348 57.689 15.3682 57.8083C15.2015 57.9258 14.9913 57.9845 14.7375 57.9845L10.3966 57.9845ZM17.442 54.9418C17.442 55.0555 17.4326 55.1568 17.4136 55.2458C17.3966 55.3348 17.3795 55.3964 17.3625 55.4305L16.7716 55.26C16.8132 55.0972 16.8284 54.9532 16.817 54.8282C16.8057 54.7032 16.7498 54.5924 16.6494 54.4958C16.5509 54.3973 16.3909 54.3074 16.1693 54.2259L15.8284 54.1009L11.442 55.7146L11.442 54.9873L14.9193 53.7828L14.9193 53.7373L11.442 52.5328L11.442 51.8055L16.442 53.6578C16.6674 53.7411 16.854 53.8443 17.0017 53.9674C17.1513 54.0905 17.2621 54.2335 17.3341 54.3964C17.406 54.5574 17.442 54.7392 17.442 54.9418Z" fill="black"/>
<path d="M84.4376 110.272V109.8C84.8163 109.501 85.1736 109.2 85.5096 108.896C85.8509 108.587 86.1523 108.283 86.4136 107.984C86.6803 107.685 86.8883 107.392 87.0376 107.104C87.1923 106.816 87.2696 106.539 87.2696 106.272C87.2696 106.075 87.2349 105.891 87.1656 105.72C87.1016 105.549 86.9949 105.413 86.8456 105.312C86.6963 105.205 86.4936 105.152 86.2376 105.152C85.9923 105.152 85.7869 105.208 85.6216 105.32C85.4563 105.427 85.3309 105.571 85.2456 105.752C85.1656 105.933 85.1256 106.128 85.1256 106.336H84.4776C84.4776 105.968 84.5549 105.653 84.7096 105.392C84.8643 105.125 85.0749 104.923 85.3416 104.784C85.6083 104.645 85.9096 104.576 86.2456 104.576C86.7416 104.576 87.1469 104.717 87.4616 105C87.7816 105.277 87.9416 105.693 87.9416 106.248C87.9416 106.579 87.8589 106.907 87.6936 107.232C87.5283 107.552 87.3176 107.864 87.0616 108.168C86.8056 108.467 86.5309 108.747 86.2376 109.008C85.9496 109.269 85.6803 109.504 85.4296 109.712H88.1336V110.272H84.4376ZM91.0336 110.368C90.6816 110.368 90.3803 110.299 90.1296 110.16C89.8789 110.021 89.6789 109.837 89.5296 109.608C89.3856 109.373 89.2976 109.115 89.2656 108.832H89.8896C89.9429 109.136 90.0709 109.371 90.2736 109.536C90.4763 109.701 90.7323 109.784 91.0416 109.784C91.4683 109.784 91.8229 109.587 92.1056 109.192C92.3883 108.792 92.5403 108.171 92.5616 107.328C92.4336 107.579 92.2283 107.797 91.9456 107.984C91.6683 108.165 91.3323 108.256 90.9376 108.256C90.6229 108.256 90.3243 108.181 90.0416 108.032C89.7589 107.883 89.5296 107.675 89.3536 107.408C89.1776 107.136 89.0896 106.819 89.0896 106.456C89.0896 106.141 89.1669 105.84 89.3216 105.552C89.4816 105.264 89.7056 105.029 89.9936 104.848C90.2816 104.667 90.6256 104.576 91.0256 104.576C91.4309 104.576 91.7723 104.653 92.0496 104.808C92.3269 104.957 92.5483 105.16 92.7136 105.416C92.8843 105.672 93.0069 105.96 93.0816 106.28C93.1616 106.595 93.2016 106.917 93.2016 107.248C93.2016 107.867 93.1163 108.411 92.9456 108.88C92.7749 109.344 92.5269 109.709 92.2016 109.976C91.8816 110.237 91.4923 110.368 91.0336 110.368ZM91.0736 107.672C91.3243 107.672 91.5483 107.616 91.7456 107.504C91.9429 107.387 92.1003 107.232 92.2176 107.04C92.3349 106.848 92.3936 106.64 92.3936 106.416C92.3936 106.176 92.3349 105.963 92.2176 105.776C92.1003 105.584 91.9429 105.435 91.7456 105.328C91.5483 105.221 91.3243 105.168 91.0736 105.168C90.8229 105.168 90.5989 105.221 90.4016 105.328C90.2043 105.435 90.0496 105.584 89.9376 105.776C89.8256 105.963 89.7696 106.179 89.7696 106.424C89.7696 106.803 89.8923 107.107 90.1376 107.336C90.3883 107.56 90.7003 107.672 91.0736 107.672ZM94.3345 110.312C94.2011 110.312 94.0891 110.269 93.9985 110.184C93.9131 110.093 93.8705 109.984 93.8705 109.856C93.8705 109.728 93.9131 109.621 93.9985 109.536C94.0891 109.445 94.2011 109.4 94.3345 109.4C94.4625 109.4 94.5691 109.445 94.6545 109.536C94.7451 109.621 94.7905 109.728 94.7905 109.856C94.7905 109.984 94.7451 110.093 94.6545 110.184C94.5691 110.269 94.4625 110.312 94.3345 110.312ZM98.401 110.272V109.072H95.561V108.552L98.281 104.672H99.065V108.48H99.897V109.072H99.065V110.272H98.401ZM96.305 108.48H98.433V105.416L96.305 108.48ZM101.845 107.272C101.605 107.272 101.387 107.219 101.189 107.112C100.997 107 100.845 106.845 100.733 106.648C100.621 106.445 100.565 106.205 100.565 105.928C100.565 105.651 100.621 105.413 100.733 105.216C100.851 105.013 101.005 104.859 101.197 104.752C101.395 104.64 101.613 104.584 101.853 104.584C102.093 104.584 102.309 104.64 102.501 104.752C102.693 104.859 102.845 105.013 102.957 105.216C103.069 105.413 103.125 105.651 103.125 105.928C103.125 106.205 103.067 106.445 102.949 106.648C102.837 106.845 102.685 107 102.493 107.112C102.301 107.219 102.085 107.272 101.845 107.272ZM101.349 110.272L104.605 104.672H105.277L102.021 110.272H101.349ZM101.845 106.752C102.032 106.752 102.195 106.683 102.333 106.544C102.477 106.405 102.549 106.2 102.549 105.928C102.549 105.651 102.48 105.443 102.341 105.304C102.203 105.16 102.04 105.088 101.853 105.088C101.667 105.088 101.499 105.16 101.349 105.304C101.205 105.443 101.133 105.651 101.133 105.928C101.133 106.2 101.205 106.405 101.349 106.544C101.493 106.683 101.659 106.752 101.845 106.752ZM104.837 110.368C104.597 110.368 104.379 110.315 104.181 110.208C103.989 110.096 103.837 109.941 103.725 109.744C103.613 109.541 103.557 109.301 103.557 109.024C103.557 108.747 103.613 108.509 103.725 108.312C103.843 108.109 103.997 107.955 104.189 107.848C104.381 107.736 104.597 107.68 104.837 107.68C105.077 107.68 105.293 107.736 105.485 107.848C105.677 107.955 105.829 108.109 105.941 108.312C106.053 108.509 106.109 108.747 106.109 109.024C106.109 109.301 106.053 109.541 105.941 109.744C105.829 109.941 105.677 110.096 105.485 110.208C105.293 110.315 105.077 110.368 104.837 110.368ZM104.829 109.848C105.021 109.848 105.187 109.779 105.325 109.64C105.469 109.501 105.541 109.296 105.541 109.024C105.541 108.747 105.472 108.539 105.333 108.4C105.195 108.261 105.029 108.192 104.837 108.192C104.651 108.192 104.485 108.261 104.341 108.4C104.197 108.539 104.125 108.747 104.125 109.024C104.125 109.296 104.195 109.501 104.333 109.64C104.477 109.779 104.643 109.848 104.829 109.848Z" fill="black"/>
<path d="M139.979 63.2458C139.621 63.2458 139.299 63.1818 139.011 63.0538C138.723 62.9204 138.491 62.7231 138.315 62.4618C138.144 62.2004 138.053 61.8751 138.043 61.4858H138.723C138.728 61.8058 138.84 62.0831 139.059 62.3178C139.277 62.5471 139.584 62.6618 139.979 62.6618C140.373 62.6618 140.669 62.5524 140.867 62.3338C141.069 62.1151 141.171 61.8511 141.171 61.5418C141.171 61.2804 141.107 61.0671 140.979 60.9018C140.856 60.7364 140.688 60.6138 140.475 60.5338C140.267 60.4538 140.037 60.4138 139.787 60.4138H139.371V59.8458H139.787C140.149 59.8458 140.432 59.7631 140.635 59.5978C140.843 59.4324 140.947 59.2004 140.947 58.9018C140.947 58.6511 140.864 58.4458 140.699 58.2858C140.539 58.1204 140.299 58.0378 139.979 58.0378C139.669 58.0378 139.421 58.1311 139.235 58.3178C139.048 58.4991 138.944 58.7284 138.923 59.0058H138.243C138.259 58.7018 138.339 58.4324 138.483 58.1978C138.632 57.9631 138.835 57.7818 139.091 57.6538C139.347 57.5204 139.643 57.4538 139.979 57.4538C140.341 57.4538 140.643 57.5178 140.883 57.6458C141.128 57.7738 141.312 57.9444 141.435 58.1578C141.563 58.3711 141.627 58.6058 141.627 58.8618C141.627 59.1444 141.549 59.4031 141.395 59.6378C141.24 59.8671 141.008 60.0218 140.699 60.1018C141.029 60.1711 141.304 60.3284 141.523 60.5738C141.741 60.8191 141.851 61.1418 141.851 61.5418C141.851 61.8511 141.779 62.1364 141.635 62.3978C141.496 62.6538 141.288 62.8591 141.011 63.0138C140.733 63.1684 140.389 63.2458 139.979 63.2458ZM145.002 63.2458C144.618 63.2458 144.284 63.1764 144.002 63.0378C143.719 62.8991 143.492 62.7098 143.322 62.4698C143.156 62.2244 143.055 61.9471 143.018 61.6378H143.674C143.738 61.9471 143.887 62.1978 144.122 62.3898C144.356 62.5764 144.652 62.6698 145.01 62.6698C145.276 62.6698 145.506 62.6084 145.698 62.4858C145.89 62.3578 146.036 62.1871 146.138 61.9738C146.244 61.7604 146.298 61.5231 146.298 61.2618C146.298 60.8458 146.18 60.5098 145.946 60.2538C145.711 59.9978 145.407 59.8698 145.034 59.8698C144.724 59.8698 144.46 59.9391 144.242 60.0778C144.023 60.2164 143.863 60.3978 143.762 60.6218H143.122L143.602 57.5498H146.538V58.1338H144.122L143.794 59.8378C143.922 59.6831 144.098 59.5551 144.322 59.4538C144.551 59.3524 144.812 59.3018 145.106 59.3018C145.474 59.3018 145.794 59.3871 146.066 59.5578C146.343 59.7284 146.559 59.9604 146.714 60.2538C146.868 60.5471 146.946 60.8804 146.946 61.2538C146.946 61.6111 146.868 61.9418 146.714 62.2458C146.564 62.5498 146.343 62.7924 146.05 62.9738C145.762 63.1551 145.412 63.2458 145.002 63.2458ZM149.164 60.1498C148.924 60.1498 148.705 60.0964 148.508 59.9898C148.316 59.8778 148.164 59.7231 148.052 59.5258C147.94 59.3231 147.884 59.0831 147.884 58.8058C147.884 58.5284 147.94 58.2911 148.052 58.0938C148.169 57.8911 148.324 57.7364 148.516 57.6298C148.713 57.5178 148.932 57.4618 149.172 57.4618C149.412 57.4618 149.628 57.5178 149.82 57.6298C150.012 57.7364 150.164 57.8911 150.276 58.0938C150.388 58.2911 150.444 58.5284 150.444 58.8058C150.444 59.0831 150.385 59.3231 150.268 59.5258C150.156 59.7231 150.004 59.8778 149.812 59.9898C149.62 60.0964 149.404 60.1498 149.164 60.1498ZM148.668 63.1498L151.924 57.5498H152.596L149.34 63.1498H148.668ZM149.164 59.6298C149.351 59.6298 149.513 59.5604 149.652 59.4218C149.796 59.2831 149.868 59.0778 149.868 58.8058C149.868 58.5284 149.799 58.3204 149.66 58.1818C149.521 58.0378 149.359 57.9658 149.172 57.9658C148.985 57.9658 148.817 58.0378 148.668 58.1818C148.524 58.3204 148.452 58.5284 148.452 58.8058C148.452 59.0778 148.524 59.2831 148.668 59.4218C148.812 59.5604 148.977 59.6298 149.164 59.6298ZM152.156 63.2458C151.916 63.2458 151.697 63.1924 151.5 63.0858C151.308 62.9738 151.156 62.8191 151.044 62.6218C150.932 62.4191 150.876 62.1791 150.876 61.9018C150.876 61.6244 150.932 61.3871 151.044 61.1898C151.161 60.9871 151.316 60.8324 151.508 60.7258C151.7 60.6138 151.916 60.5578 152.156 60.5578C152.396 60.5578 152.612 60.6138 152.804 60.7258C152.996 60.8324 153.148 60.9871 153.26 61.1898C153.372 61.3871 153.428 61.6244 153.428 61.9018C153.428 62.1791 153.372 62.4191 153.26 62.6218C153.148 62.8191 152.996 62.9738 152.804 63.0858C152.612 63.1924 152.396 63.2458 152.156 63.2458ZM152.148 62.7258C152.34 62.7258 152.505 62.6564 152.644 62.5178C152.788 62.3791 152.86 62.1738 152.86 61.9018C152.86 61.6244 152.791 61.4164 152.652 61.2778C152.513 61.1391 152.348 61.0698 152.156 61.0698C151.969 61.0698 151.804 61.1391 151.66 61.2778C151.516 61.4164 151.444 61.6244 151.444 61.9018C151.444 62.1738 151.513 62.3791 151.652 62.5178C151.796 62.6564 151.961 62.7258 152.148 62.7258Z" fill="black"/>
</svg>
